%TF.GenerationSoftware,KiCad,Pcbnew,7.0.5*%
%TF.CreationDate,2023-07-03T12:53:44+02:00*%
%TF.ProjectId,mqtt_gateway,6d717474-5f67-4617-9465-7761792e6b69,rev?*%
%TF.SameCoordinates,Original*%
%TF.FileFunction,Legend,Top*%
%TF.FilePolarity,Positive*%
%FSLAX46Y46*%
G04 Gerber Fmt 4.6, Leading zero omitted, Abs format (unit mm)*
G04 Created by KiCad (PCBNEW 7.0.5) date 2023-07-03 12:53:44*
%MOMM*%
%LPD*%
G01*
G04 APERTURE LIST*
G04 Aperture macros list*
%AMRoundRect*
0 Rectangle with rounded corners*
0 $1 Rounding radius*
0 $2 $3 $4 $5 $6 $7 $8 $9 X,Y pos of 4 corners*
0 Add a 4 corners polygon primitive as box body*
4,1,4,$2,$3,$4,$5,$6,$7,$8,$9,$2,$3,0*
0 Add four circle primitives for the rounded corners*
1,1,$1+$1,$2,$3*
1,1,$1+$1,$4,$5*
1,1,$1+$1,$6,$7*
1,1,$1+$1,$8,$9*
0 Add four rect primitives between the rounded corners*
20,1,$1+$1,$2,$3,$4,$5,0*
20,1,$1+$1,$4,$5,$6,$7,0*
20,1,$1+$1,$6,$7,$8,$9,0*
20,1,$1+$1,$8,$9,$2,$3,0*%
G04 Aperture macros list end*
%ADD10C,0.100000*%
%ADD11C,0.200000*%
%ADD12C,0.150000*%
%ADD13C,0.120000*%
%ADD14C,3.650000*%
%ADD15RoundRect,0.250000X0.337500X0.475000X-0.337500X0.475000X-0.337500X-0.475000X0.337500X-0.475000X0*%
%ADD16RoundRect,0.250000X0.475000X-0.337500X0.475000X0.337500X-0.475000X0.337500X-0.475000X-0.337500X0*%
%ADD17RoundRect,0.237500X-0.237500X0.300000X-0.237500X-0.300000X0.237500X-0.300000X0.237500X0.300000X0*%
%ADD18R,2.300000X0.900000*%
%ADD19R,0.900000X2.300000*%
%ADD20R,5.000000X5.000000*%
%ADD21RoundRect,0.237500X0.237500X-0.250000X0.237500X0.250000X-0.237500X0.250000X-0.237500X-0.250000X0*%
%ADD22RoundRect,0.075000X-0.662500X0.075000X-0.662500X-0.075000X0.662500X-0.075000X0.662500X0.075000X0*%
%ADD23RoundRect,0.075000X-0.075000X0.662500X-0.075000X-0.662500X0.075000X-0.662500X0.075000X0.662500X0*%
%ADD24RoundRect,0.237500X-0.300000X-0.237500X0.300000X-0.237500X0.300000X0.237500X-0.300000X0.237500X0*%
%ADD25RoundRect,0.237500X0.300000X0.237500X-0.300000X0.237500X-0.300000X-0.237500X0.300000X-0.237500X0*%
%ADD26RoundRect,0.237500X0.237500X-0.300000X0.237500X0.300000X-0.237500X0.300000X-0.237500X-0.300000X0*%
%ADD27R,1.500000X1.500000*%
%ADD28C,1.500000*%
%ADD29C,3.250000*%
%ADD30C,2.600000*%
%ADD31C,1.890000*%
%ADD32R,1.900000X1.900000*%
%ADD33C,1.900000*%
%ADD34RoundRect,0.237500X0.250000X0.237500X-0.250000X0.237500X-0.250000X-0.237500X0.250000X-0.237500X0*%
%ADD35RoundRect,0.237500X-0.237500X0.250000X-0.237500X-0.250000X0.237500X-0.250000X0.237500X0.250000X0*%
%ADD36R,1.500000X2.000000*%
%ADD37R,3.800000X2.000000*%
%ADD38R,0.800000X0.900000*%
%ADD39RoundRect,0.150000X0.150000X-0.825000X0.150000X0.825000X-0.150000X0.825000X-0.150000X-0.825000X0*%
%ADD40C,7.200000*%
%ADD41C,3.000000*%
%ADD42RoundRect,0.250000X-0.337500X-0.475000X0.337500X-0.475000X0.337500X0.475000X-0.337500X0.475000X0*%
%ADD43RoundRect,0.250000X-0.475000X0.337500X-0.475000X-0.337500X0.475000X-0.337500X0.475000X0.337500X0*%
%ADD44RoundRect,0.237500X-0.250000X-0.237500X0.250000X-0.237500X0.250000X0.237500X-0.250000X0.237500X0*%
%ADD45R,1.500000X3.000000*%
%ADD46C,2.100000*%
%ADD47C,2.500000*%
%ADD48C,1.850000*%
G04 APERTURE END LIST*
D10*
X155266667Y-82318633D02*
X154933333Y-82318633D01*
X154933333Y-82318633D02*
X154900000Y-82651966D01*
X154900000Y-82651966D02*
X154933333Y-82618633D01*
X154933333Y-82618633D02*
X155000000Y-82585300D01*
X155000000Y-82585300D02*
X155166667Y-82585300D01*
X155166667Y-82585300D02*
X155233333Y-82618633D01*
X155233333Y-82618633D02*
X155266667Y-82651966D01*
X155266667Y-82651966D02*
X155300000Y-82718633D01*
X155300000Y-82718633D02*
X155300000Y-82885300D01*
X155300000Y-82885300D02*
X155266667Y-82951966D01*
X155266667Y-82951966D02*
X155233333Y-82985300D01*
X155233333Y-82985300D02*
X155166667Y-83018633D01*
X155166667Y-83018633D02*
X155000000Y-83018633D01*
X155000000Y-83018633D02*
X154933333Y-82985300D01*
X154933333Y-82985300D02*
X154900000Y-82951966D01*
X155500000Y-82318633D02*
X155733334Y-83018633D01*
X155733334Y-83018633D02*
X155966667Y-82318633D01*
D11*
X136535571Y-90129742D02*
X136535571Y-88929742D01*
X136535571Y-88929742D02*
X136935571Y-89786885D01*
X136935571Y-89786885D02*
X137335571Y-88929742D01*
X137335571Y-88929742D02*
X137335571Y-90129742D01*
X138707000Y-90244028D02*
X138592714Y-90186885D01*
X138592714Y-90186885D02*
X138478428Y-90072600D01*
X138478428Y-90072600D02*
X138307000Y-89901171D01*
X138307000Y-89901171D02*
X138192714Y-89844028D01*
X138192714Y-89844028D02*
X138078428Y-89844028D01*
X138135571Y-90129742D02*
X138021286Y-90072600D01*
X138021286Y-90072600D02*
X137907000Y-89958314D01*
X137907000Y-89958314D02*
X137849857Y-89729742D01*
X137849857Y-89729742D02*
X137849857Y-89329742D01*
X137849857Y-89329742D02*
X137907000Y-89101171D01*
X137907000Y-89101171D02*
X138021286Y-88986885D01*
X138021286Y-88986885D02*
X138135571Y-88929742D01*
X138135571Y-88929742D02*
X138364143Y-88929742D01*
X138364143Y-88929742D02*
X138478428Y-88986885D01*
X138478428Y-88986885D02*
X138592714Y-89101171D01*
X138592714Y-89101171D02*
X138649857Y-89329742D01*
X138649857Y-89329742D02*
X138649857Y-89729742D01*
X138649857Y-89729742D02*
X138592714Y-89958314D01*
X138592714Y-89958314D02*
X138478428Y-90072600D01*
X138478428Y-90072600D02*
X138364143Y-90129742D01*
X138364143Y-90129742D02*
X138135571Y-90129742D01*
X138992714Y-88929742D02*
X139678429Y-88929742D01*
X139335571Y-90129742D02*
X139335571Y-88929742D01*
X139907000Y-88929742D02*
X140592715Y-88929742D01*
X140249857Y-90129742D02*
X140249857Y-88929742D01*
X142535572Y-88986885D02*
X142421287Y-88929742D01*
X142421287Y-88929742D02*
X142249858Y-88929742D01*
X142249858Y-88929742D02*
X142078429Y-88986885D01*
X142078429Y-88986885D02*
X141964144Y-89101171D01*
X141964144Y-89101171D02*
X141907001Y-89215457D01*
X141907001Y-89215457D02*
X141849858Y-89444028D01*
X141849858Y-89444028D02*
X141849858Y-89615457D01*
X141849858Y-89615457D02*
X141907001Y-89844028D01*
X141907001Y-89844028D02*
X141964144Y-89958314D01*
X141964144Y-89958314D02*
X142078429Y-90072600D01*
X142078429Y-90072600D02*
X142249858Y-90129742D01*
X142249858Y-90129742D02*
X142364144Y-90129742D01*
X142364144Y-90129742D02*
X142535572Y-90072600D01*
X142535572Y-90072600D02*
X142592715Y-90015457D01*
X142592715Y-90015457D02*
X142592715Y-89615457D01*
X142592715Y-89615457D02*
X142364144Y-89615457D01*
X143621287Y-90129742D02*
X143621287Y-89501171D01*
X143621287Y-89501171D02*
X143564144Y-89386885D01*
X143564144Y-89386885D02*
X143449858Y-89329742D01*
X143449858Y-89329742D02*
X143221287Y-89329742D01*
X143221287Y-89329742D02*
X143107001Y-89386885D01*
X143621287Y-90072600D02*
X143507001Y-90129742D01*
X143507001Y-90129742D02*
X143221287Y-90129742D01*
X143221287Y-90129742D02*
X143107001Y-90072600D01*
X143107001Y-90072600D02*
X143049858Y-89958314D01*
X143049858Y-89958314D02*
X143049858Y-89844028D01*
X143049858Y-89844028D02*
X143107001Y-89729742D01*
X143107001Y-89729742D02*
X143221287Y-89672600D01*
X143221287Y-89672600D02*
X143507001Y-89672600D01*
X143507001Y-89672600D02*
X143621287Y-89615457D01*
X144021286Y-89329742D02*
X144478429Y-89329742D01*
X144192715Y-88929742D02*
X144192715Y-89958314D01*
X144192715Y-89958314D02*
X144249858Y-90072600D01*
X144249858Y-90072600D02*
X144364143Y-90129742D01*
X144364143Y-90129742D02*
X144478429Y-90129742D01*
X145335572Y-90072600D02*
X145221286Y-90129742D01*
X145221286Y-90129742D02*
X144992715Y-90129742D01*
X144992715Y-90129742D02*
X144878429Y-90072600D01*
X144878429Y-90072600D02*
X144821286Y-89958314D01*
X144821286Y-89958314D02*
X144821286Y-89501171D01*
X144821286Y-89501171D02*
X144878429Y-89386885D01*
X144878429Y-89386885D02*
X144992715Y-89329742D01*
X144992715Y-89329742D02*
X145221286Y-89329742D01*
X145221286Y-89329742D02*
X145335572Y-89386885D01*
X145335572Y-89386885D02*
X145392715Y-89501171D01*
X145392715Y-89501171D02*
X145392715Y-89615457D01*
X145392715Y-89615457D02*
X144821286Y-89729742D01*
X145792714Y-89329742D02*
X146021286Y-90129742D01*
X146021286Y-90129742D02*
X146249857Y-89558314D01*
X146249857Y-89558314D02*
X146478428Y-90129742D01*
X146478428Y-90129742D02*
X146707000Y-89329742D01*
X147678429Y-90129742D02*
X147678429Y-89501171D01*
X147678429Y-89501171D02*
X147621286Y-89386885D01*
X147621286Y-89386885D02*
X147507000Y-89329742D01*
X147507000Y-89329742D02*
X147278429Y-89329742D01*
X147278429Y-89329742D02*
X147164143Y-89386885D01*
X147678429Y-90072600D02*
X147564143Y-90129742D01*
X147564143Y-90129742D02*
X147278429Y-90129742D01*
X147278429Y-90129742D02*
X147164143Y-90072600D01*
X147164143Y-90072600D02*
X147107000Y-89958314D01*
X147107000Y-89958314D02*
X147107000Y-89844028D01*
X147107000Y-89844028D02*
X147164143Y-89729742D01*
X147164143Y-89729742D02*
X147278429Y-89672600D01*
X147278429Y-89672600D02*
X147564143Y-89672600D01*
X147564143Y-89672600D02*
X147678429Y-89615457D01*
X148135571Y-89329742D02*
X148421285Y-90129742D01*
X148707000Y-89329742D02*
X148421285Y-90129742D01*
X148421285Y-90129742D02*
X148307000Y-90415457D01*
X148307000Y-90415457D02*
X148249857Y-90472600D01*
X148249857Y-90472600D02*
X148135571Y-90529742D01*
X149964143Y-89329742D02*
X150249857Y-90129742D01*
X150249857Y-90129742D02*
X150535572Y-89329742D01*
X150935572Y-89044028D02*
X150992715Y-88986885D01*
X150992715Y-88986885D02*
X151107001Y-88929742D01*
X151107001Y-88929742D02*
X151392715Y-88929742D01*
X151392715Y-88929742D02*
X151507001Y-88986885D01*
X151507001Y-88986885D02*
X151564143Y-89044028D01*
X151564143Y-89044028D02*
X151621286Y-89158314D01*
X151621286Y-89158314D02*
X151621286Y-89272600D01*
X151621286Y-89272600D02*
X151564143Y-89444028D01*
X151564143Y-89444028D02*
X150878429Y-90129742D01*
X150878429Y-90129742D02*
X151621286Y-90129742D01*
X152135572Y-90015457D02*
X152192715Y-90072600D01*
X152192715Y-90072600D02*
X152135572Y-90129742D01*
X152135572Y-90129742D02*
X152078429Y-90072600D01*
X152078429Y-90072600D02*
X152135572Y-90015457D01*
X152135572Y-90015457D02*
X152135572Y-90129742D01*
X152935572Y-88929742D02*
X153049858Y-88929742D01*
X153049858Y-88929742D02*
X153164144Y-88986885D01*
X153164144Y-88986885D02*
X153221287Y-89044028D01*
X153221287Y-89044028D02*
X153278429Y-89158314D01*
X153278429Y-89158314D02*
X153335572Y-89386885D01*
X153335572Y-89386885D02*
X153335572Y-89672600D01*
X153335572Y-89672600D02*
X153278429Y-89901171D01*
X153278429Y-89901171D02*
X153221287Y-90015457D01*
X153221287Y-90015457D02*
X153164144Y-90072600D01*
X153164144Y-90072600D02*
X153049858Y-90129742D01*
X153049858Y-90129742D02*
X152935572Y-90129742D01*
X152935572Y-90129742D02*
X152821287Y-90072600D01*
X152821287Y-90072600D02*
X152764144Y-90015457D01*
X152764144Y-90015457D02*
X152707001Y-89901171D01*
X152707001Y-89901171D02*
X152649858Y-89672600D01*
X152649858Y-89672600D02*
X152649858Y-89386885D01*
X152649858Y-89386885D02*
X152707001Y-89158314D01*
X152707001Y-89158314D02*
X152764144Y-89044028D01*
X152764144Y-89044028D02*
X152821287Y-88986885D01*
X152821287Y-88986885D02*
X152935572Y-88929742D01*
X139078429Y-90976028D02*
X139135572Y-90918885D01*
X139135572Y-90918885D02*
X139249858Y-90861742D01*
X139249858Y-90861742D02*
X139535572Y-90861742D01*
X139535572Y-90861742D02*
X139649858Y-90918885D01*
X139649858Y-90918885D02*
X139707000Y-90976028D01*
X139707000Y-90976028D02*
X139764143Y-91090314D01*
X139764143Y-91090314D02*
X139764143Y-91204600D01*
X139764143Y-91204600D02*
X139707000Y-91376028D01*
X139707000Y-91376028D02*
X139021286Y-92061742D01*
X139021286Y-92061742D02*
X139764143Y-92061742D01*
X140507000Y-90861742D02*
X140621286Y-90861742D01*
X140621286Y-90861742D02*
X140735572Y-90918885D01*
X140735572Y-90918885D02*
X140792715Y-90976028D01*
X140792715Y-90976028D02*
X140849857Y-91090314D01*
X140849857Y-91090314D02*
X140907000Y-91318885D01*
X140907000Y-91318885D02*
X140907000Y-91604600D01*
X140907000Y-91604600D02*
X140849857Y-91833171D01*
X140849857Y-91833171D02*
X140792715Y-91947457D01*
X140792715Y-91947457D02*
X140735572Y-92004600D01*
X140735572Y-92004600D02*
X140621286Y-92061742D01*
X140621286Y-92061742D02*
X140507000Y-92061742D01*
X140507000Y-92061742D02*
X140392715Y-92004600D01*
X140392715Y-92004600D02*
X140335572Y-91947457D01*
X140335572Y-91947457D02*
X140278429Y-91833171D01*
X140278429Y-91833171D02*
X140221286Y-91604600D01*
X140221286Y-91604600D02*
X140221286Y-91318885D01*
X140221286Y-91318885D02*
X140278429Y-91090314D01*
X140278429Y-91090314D02*
X140335572Y-90976028D01*
X140335572Y-90976028D02*
X140392715Y-90918885D01*
X140392715Y-90918885D02*
X140507000Y-90861742D01*
X141364143Y-90976028D02*
X141421286Y-90918885D01*
X141421286Y-90918885D02*
X141535572Y-90861742D01*
X141535572Y-90861742D02*
X141821286Y-90861742D01*
X141821286Y-90861742D02*
X141935572Y-90918885D01*
X141935572Y-90918885D02*
X141992714Y-90976028D01*
X141992714Y-90976028D02*
X142049857Y-91090314D01*
X142049857Y-91090314D02*
X142049857Y-91204600D01*
X142049857Y-91204600D02*
X141992714Y-91376028D01*
X141992714Y-91376028D02*
X141307000Y-92061742D01*
X141307000Y-92061742D02*
X142049857Y-92061742D01*
X142449857Y-90861742D02*
X143192714Y-90861742D01*
X143192714Y-90861742D02*
X142792714Y-91318885D01*
X142792714Y-91318885D02*
X142964143Y-91318885D01*
X142964143Y-91318885D02*
X143078429Y-91376028D01*
X143078429Y-91376028D02*
X143135571Y-91433171D01*
X143135571Y-91433171D02*
X143192714Y-91547457D01*
X143192714Y-91547457D02*
X143192714Y-91833171D01*
X143192714Y-91833171D02*
X143135571Y-91947457D01*
X143135571Y-91947457D02*
X143078429Y-92004600D01*
X143078429Y-92004600D02*
X142964143Y-92061742D01*
X142964143Y-92061742D02*
X142621286Y-92061742D01*
X142621286Y-92061742D02*
X142507000Y-92004600D01*
X142507000Y-92004600D02*
X142449857Y-91947457D01*
X143707000Y-91604600D02*
X144621286Y-91604600D01*
X145421285Y-90861742D02*
X145535571Y-90861742D01*
X145535571Y-90861742D02*
X145649857Y-90918885D01*
X145649857Y-90918885D02*
X145707000Y-90976028D01*
X145707000Y-90976028D02*
X145764142Y-91090314D01*
X145764142Y-91090314D02*
X145821285Y-91318885D01*
X145821285Y-91318885D02*
X145821285Y-91604600D01*
X145821285Y-91604600D02*
X145764142Y-91833171D01*
X145764142Y-91833171D02*
X145707000Y-91947457D01*
X145707000Y-91947457D02*
X145649857Y-92004600D01*
X145649857Y-92004600D02*
X145535571Y-92061742D01*
X145535571Y-92061742D02*
X145421285Y-92061742D01*
X145421285Y-92061742D02*
X145307000Y-92004600D01*
X145307000Y-92004600D02*
X145249857Y-91947457D01*
X145249857Y-91947457D02*
X145192714Y-91833171D01*
X145192714Y-91833171D02*
X145135571Y-91604600D01*
X145135571Y-91604600D02*
X145135571Y-91318885D01*
X145135571Y-91318885D02*
X145192714Y-91090314D01*
X145192714Y-91090314D02*
X145249857Y-90976028D01*
X145249857Y-90976028D02*
X145307000Y-90918885D01*
X145307000Y-90918885D02*
X145421285Y-90861742D01*
X146221285Y-90861742D02*
X147021285Y-90861742D01*
X147021285Y-90861742D02*
X146506999Y-92061742D01*
X147478428Y-91604600D02*
X148392714Y-91604600D01*
X149192713Y-90861742D02*
X149306999Y-90861742D01*
X149306999Y-90861742D02*
X149421285Y-90918885D01*
X149421285Y-90918885D02*
X149478428Y-90976028D01*
X149478428Y-90976028D02*
X149535570Y-91090314D01*
X149535570Y-91090314D02*
X149592713Y-91318885D01*
X149592713Y-91318885D02*
X149592713Y-91604600D01*
X149592713Y-91604600D02*
X149535570Y-91833171D01*
X149535570Y-91833171D02*
X149478428Y-91947457D01*
X149478428Y-91947457D02*
X149421285Y-92004600D01*
X149421285Y-92004600D02*
X149306999Y-92061742D01*
X149306999Y-92061742D02*
X149192713Y-92061742D01*
X149192713Y-92061742D02*
X149078428Y-92004600D01*
X149078428Y-92004600D02*
X149021285Y-91947457D01*
X149021285Y-91947457D02*
X148964142Y-91833171D01*
X148964142Y-91833171D02*
X148906999Y-91604600D01*
X148906999Y-91604600D02*
X148906999Y-91318885D01*
X148906999Y-91318885D02*
X148964142Y-91090314D01*
X148964142Y-91090314D02*
X149021285Y-90976028D01*
X149021285Y-90976028D02*
X149078428Y-90918885D01*
X149078428Y-90918885D02*
X149192713Y-90861742D01*
X149992713Y-90861742D02*
X150735570Y-90861742D01*
X150735570Y-90861742D02*
X150335570Y-91318885D01*
X150335570Y-91318885D02*
X150506999Y-91318885D01*
X150506999Y-91318885D02*
X150621285Y-91376028D01*
X150621285Y-91376028D02*
X150678427Y-91433171D01*
X150678427Y-91433171D02*
X150735570Y-91547457D01*
X150735570Y-91547457D02*
X150735570Y-91833171D01*
X150735570Y-91833171D02*
X150678427Y-91947457D01*
X150678427Y-91947457D02*
X150621285Y-92004600D01*
X150621285Y-92004600D02*
X150506999Y-92061742D01*
X150506999Y-92061742D02*
X150164142Y-92061742D01*
X150164142Y-92061742D02*
X150049856Y-92004600D01*
X150049856Y-92004600D02*
X149992713Y-91947457D01*
D10*
X165866666Y-82918633D02*
X165466666Y-82918633D01*
X165666666Y-82918633D02*
X165666666Y-82218633D01*
X165666666Y-82218633D02*
X165599999Y-82318633D01*
X165599999Y-82318633D02*
X165533333Y-82385300D01*
X165533333Y-82385300D02*
X165466666Y-82418633D01*
X166133333Y-82285300D02*
X166166666Y-82251966D01*
X166166666Y-82251966D02*
X166233333Y-82218633D01*
X166233333Y-82218633D02*
X166400000Y-82218633D01*
X166400000Y-82218633D02*
X166466666Y-82251966D01*
X166466666Y-82251966D02*
X166500000Y-82285300D01*
X166500000Y-82285300D02*
X166533333Y-82351966D01*
X166533333Y-82351966D02*
X166533333Y-82418633D01*
X166533333Y-82418633D02*
X166500000Y-82518633D01*
X166500000Y-82518633D02*
X166100000Y-82918633D01*
X166100000Y-82918633D02*
X166533333Y-82918633D01*
X166733333Y-82218633D02*
X166966667Y-82918633D01*
X166966667Y-82918633D02*
X167200000Y-82218633D01*
D12*
X174849819Y-112538095D02*
X174849819Y-112347619D01*
X174849819Y-112347619D02*
X174897438Y-112252381D01*
X174897438Y-112252381D02*
X174992676Y-112157143D01*
X174992676Y-112157143D02*
X175183152Y-112109524D01*
X175183152Y-112109524D02*
X175516485Y-112109524D01*
X175516485Y-112109524D02*
X175706961Y-112157143D01*
X175706961Y-112157143D02*
X175802200Y-112252381D01*
X175802200Y-112252381D02*
X175849819Y-112347619D01*
X175849819Y-112347619D02*
X175849819Y-112538095D01*
X175849819Y-112538095D02*
X175802200Y-112633333D01*
X175802200Y-112633333D02*
X175706961Y-112728571D01*
X175706961Y-112728571D02*
X175516485Y-112776190D01*
X175516485Y-112776190D02*
X175183152Y-112776190D01*
X175183152Y-112776190D02*
X174992676Y-112728571D01*
X174992676Y-112728571D02*
X174897438Y-112633333D01*
X174897438Y-112633333D02*
X174849819Y-112538095D01*
X175183152Y-111252381D02*
X175849819Y-111252381D01*
X175183152Y-111680952D02*
X175706961Y-111680952D01*
X175706961Y-111680952D02*
X175802200Y-111633333D01*
X175802200Y-111633333D02*
X175849819Y-111538095D01*
X175849819Y-111538095D02*
X175849819Y-111395238D01*
X175849819Y-111395238D02*
X175802200Y-111300000D01*
X175802200Y-111300000D02*
X175754580Y-111252381D01*
X175183152Y-110919047D02*
X175183152Y-110538095D01*
X174849819Y-110776190D02*
X175706961Y-110776190D01*
X175706961Y-110776190D02*
X175802200Y-110728571D01*
X175802200Y-110728571D02*
X175849819Y-110633333D01*
X175849819Y-110633333D02*
X175849819Y-110538095D01*
X175849819Y-110061904D02*
X175802200Y-110157142D01*
X175802200Y-110157142D02*
X175706961Y-110204761D01*
X175706961Y-110204761D02*
X174849819Y-110204761D01*
X175849819Y-109680951D02*
X175183152Y-109680951D01*
X174849819Y-109680951D02*
X174897438Y-109728570D01*
X174897438Y-109728570D02*
X174945057Y-109680951D01*
X174945057Y-109680951D02*
X174897438Y-109633332D01*
X174897438Y-109633332D02*
X174849819Y-109680951D01*
X174849819Y-109680951D02*
X174945057Y-109680951D01*
X175183152Y-109204761D02*
X175849819Y-109204761D01*
X175278390Y-109204761D02*
X175230771Y-109157142D01*
X175230771Y-109157142D02*
X175183152Y-109061904D01*
X175183152Y-109061904D02*
X175183152Y-108919047D01*
X175183152Y-108919047D02*
X175230771Y-108823809D01*
X175230771Y-108823809D02*
X175326009Y-108776190D01*
X175326009Y-108776190D02*
X175849819Y-108776190D01*
X175802200Y-107919047D02*
X175849819Y-108014285D01*
X175849819Y-108014285D02*
X175849819Y-108204761D01*
X175849819Y-108204761D02*
X175802200Y-108299999D01*
X175802200Y-108299999D02*
X175706961Y-108347618D01*
X175706961Y-108347618D02*
X175326009Y-108347618D01*
X175326009Y-108347618D02*
X175230771Y-108299999D01*
X175230771Y-108299999D02*
X175183152Y-108204761D01*
X175183152Y-108204761D02*
X175183152Y-108014285D01*
X175183152Y-108014285D02*
X175230771Y-107919047D01*
X175230771Y-107919047D02*
X175326009Y-107871428D01*
X175326009Y-107871428D02*
X175421247Y-107871428D01*
X175421247Y-107871428D02*
X175516485Y-108347618D01*
X175754580Y-107442856D02*
X175802200Y-107395237D01*
X175802200Y-107395237D02*
X175849819Y-107442856D01*
X175849819Y-107442856D02*
X175802200Y-107490475D01*
X175802200Y-107490475D02*
X175754580Y-107442856D01*
X175754580Y-107442856D02*
X175849819Y-107442856D01*
X175230771Y-107442856D02*
X175278390Y-107395237D01*
X175278390Y-107395237D02*
X175326009Y-107442856D01*
X175326009Y-107442856D02*
X175278390Y-107490475D01*
X175278390Y-107490475D02*
X175230771Y-107442856D01*
X175230771Y-107442856D02*
X175326009Y-107442856D01*
X174849819Y-106299999D02*
X174849819Y-105633333D01*
X174849819Y-105633333D02*
X175849819Y-106061904D01*
X174849819Y-104776190D02*
X174849819Y-105252380D01*
X174849819Y-105252380D02*
X175326009Y-105299999D01*
X175326009Y-105299999D02*
X175278390Y-105252380D01*
X175278390Y-105252380D02*
X175230771Y-105157142D01*
X175230771Y-105157142D02*
X175230771Y-104919047D01*
X175230771Y-104919047D02*
X175278390Y-104823809D01*
X175278390Y-104823809D02*
X175326009Y-104776190D01*
X175326009Y-104776190D02*
X175421247Y-104728571D01*
X175421247Y-104728571D02*
X175659342Y-104728571D01*
X175659342Y-104728571D02*
X175754580Y-104776190D01*
X175754580Y-104776190D02*
X175802200Y-104823809D01*
X175802200Y-104823809D02*
X175849819Y-104919047D01*
X175849819Y-104919047D02*
X175849819Y-105157142D01*
X175849819Y-105157142D02*
X175802200Y-105252380D01*
X175802200Y-105252380D02*
X175754580Y-105299999D01*
X175849819Y-103633332D02*
X175183152Y-103109523D01*
X175183152Y-103633332D02*
X175849819Y-103109523D01*
X174849819Y-101490475D02*
X174849819Y-101966665D01*
X174849819Y-101966665D02*
X175326009Y-102014284D01*
X175326009Y-102014284D02*
X175278390Y-101966665D01*
X175278390Y-101966665D02*
X175230771Y-101871427D01*
X175230771Y-101871427D02*
X175230771Y-101633332D01*
X175230771Y-101633332D02*
X175278390Y-101538094D01*
X175278390Y-101538094D02*
X175326009Y-101490475D01*
X175326009Y-101490475D02*
X175421247Y-101442856D01*
X175421247Y-101442856D02*
X175659342Y-101442856D01*
X175659342Y-101442856D02*
X175754580Y-101490475D01*
X175754580Y-101490475D02*
X175802200Y-101538094D01*
X175802200Y-101538094D02*
X175849819Y-101633332D01*
X175849819Y-101633332D02*
X175849819Y-101871427D01*
X175849819Y-101871427D02*
X175802200Y-101966665D01*
X175802200Y-101966665D02*
X175754580Y-102014284D01*
X175849819Y-100490475D02*
X175849819Y-101061903D01*
X175849819Y-100776189D02*
X174849819Y-100776189D01*
X174849819Y-100776189D02*
X174992676Y-100871427D01*
X174992676Y-100871427D02*
X175087914Y-100966665D01*
X175087914Y-100966665D02*
X175135533Y-101061903D01*
X175849819Y-100061903D02*
X175183152Y-100061903D01*
X175278390Y-100061903D02*
X175230771Y-100014284D01*
X175230771Y-100014284D02*
X175183152Y-99919046D01*
X175183152Y-99919046D02*
X175183152Y-99776189D01*
X175183152Y-99776189D02*
X175230771Y-99680951D01*
X175230771Y-99680951D02*
X175326009Y-99633332D01*
X175326009Y-99633332D02*
X175849819Y-99633332D01*
X175326009Y-99633332D02*
X175230771Y-99585713D01*
X175230771Y-99585713D02*
X175183152Y-99490475D01*
X175183152Y-99490475D02*
X175183152Y-99347618D01*
X175183152Y-99347618D02*
X175230771Y-99252379D01*
X175230771Y-99252379D02*
X175326009Y-99204760D01*
X175326009Y-99204760D02*
X175849819Y-99204760D01*
X175849819Y-98728570D02*
X175183152Y-98728570D01*
X175278390Y-98728570D02*
X175230771Y-98680951D01*
X175230771Y-98680951D02*
X175183152Y-98585713D01*
X175183152Y-98585713D02*
X175183152Y-98442856D01*
X175183152Y-98442856D02*
X175230771Y-98347618D01*
X175230771Y-98347618D02*
X175326009Y-98299999D01*
X175326009Y-98299999D02*
X175849819Y-98299999D01*
X175326009Y-98299999D02*
X175230771Y-98252380D01*
X175230771Y-98252380D02*
X175183152Y-98157142D01*
X175183152Y-98157142D02*
X175183152Y-98014285D01*
X175183152Y-98014285D02*
X175230771Y-97919046D01*
X175230771Y-97919046D02*
X175326009Y-97871427D01*
X175326009Y-97871427D02*
X175849819Y-97871427D01*
X177459819Y-112157142D02*
X176459819Y-112157142D01*
X176936009Y-112157142D02*
X176936009Y-111585714D01*
X177459819Y-111585714D02*
X176459819Y-111585714D01*
X177459819Y-110966666D02*
X177412200Y-111061904D01*
X177412200Y-111061904D02*
X177364580Y-111109523D01*
X177364580Y-111109523D02*
X177269342Y-111157142D01*
X177269342Y-111157142D02*
X176983628Y-111157142D01*
X176983628Y-111157142D02*
X176888390Y-111109523D01*
X176888390Y-111109523D02*
X176840771Y-111061904D01*
X176840771Y-111061904D02*
X176793152Y-110966666D01*
X176793152Y-110966666D02*
X176793152Y-110823809D01*
X176793152Y-110823809D02*
X176840771Y-110728571D01*
X176840771Y-110728571D02*
X176888390Y-110680952D01*
X176888390Y-110680952D02*
X176983628Y-110633333D01*
X176983628Y-110633333D02*
X177269342Y-110633333D01*
X177269342Y-110633333D02*
X177364580Y-110680952D01*
X177364580Y-110680952D02*
X177412200Y-110728571D01*
X177412200Y-110728571D02*
X177459819Y-110823809D01*
X177459819Y-110823809D02*
X177459819Y-110966666D01*
X177459819Y-110061904D02*
X177412200Y-110157142D01*
X177412200Y-110157142D02*
X177316961Y-110204761D01*
X177316961Y-110204761D02*
X176459819Y-110204761D01*
X177412200Y-109299999D02*
X177459819Y-109395237D01*
X177459819Y-109395237D02*
X177459819Y-109585713D01*
X177459819Y-109585713D02*
X177412200Y-109680951D01*
X177412200Y-109680951D02*
X177316961Y-109728570D01*
X177316961Y-109728570D02*
X176936009Y-109728570D01*
X176936009Y-109728570D02*
X176840771Y-109680951D01*
X176840771Y-109680951D02*
X176793152Y-109585713D01*
X176793152Y-109585713D02*
X176793152Y-109395237D01*
X176793152Y-109395237D02*
X176840771Y-109299999D01*
X176840771Y-109299999D02*
X176936009Y-109252380D01*
X176936009Y-109252380D02*
X177031247Y-109252380D01*
X177031247Y-109252380D02*
X177126485Y-109728570D01*
X177412200Y-108871427D02*
X177459819Y-108776189D01*
X177459819Y-108776189D02*
X177459819Y-108585713D01*
X177459819Y-108585713D02*
X177412200Y-108490475D01*
X177412200Y-108490475D02*
X177316961Y-108442856D01*
X177316961Y-108442856D02*
X177269342Y-108442856D01*
X177269342Y-108442856D02*
X177174104Y-108490475D01*
X177174104Y-108490475D02*
X177126485Y-108585713D01*
X177126485Y-108585713D02*
X177126485Y-108728570D01*
X177126485Y-108728570D02*
X177078866Y-108823808D01*
X177078866Y-108823808D02*
X176983628Y-108871427D01*
X176983628Y-108871427D02*
X176936009Y-108871427D01*
X176936009Y-108871427D02*
X176840771Y-108823808D01*
X176840771Y-108823808D02*
X176793152Y-108728570D01*
X176793152Y-108728570D02*
X176793152Y-108585713D01*
X176793152Y-108585713D02*
X176840771Y-108490475D01*
X177364580Y-108014284D02*
X177412200Y-107966665D01*
X177412200Y-107966665D02*
X177459819Y-108014284D01*
X177459819Y-108014284D02*
X177412200Y-108061903D01*
X177412200Y-108061903D02*
X177364580Y-108014284D01*
X177364580Y-108014284D02*
X177459819Y-108014284D01*
X176840771Y-108014284D02*
X176888390Y-107966665D01*
X176888390Y-107966665D02*
X176936009Y-108014284D01*
X176936009Y-108014284D02*
X176888390Y-108061903D01*
X176888390Y-108061903D02*
X176840771Y-108014284D01*
X176840771Y-108014284D02*
X176936009Y-108014284D01*
X176459819Y-106347618D02*
X176459819Y-106538094D01*
X176459819Y-106538094D02*
X176507438Y-106633332D01*
X176507438Y-106633332D02*
X176555057Y-106680951D01*
X176555057Y-106680951D02*
X176697914Y-106776189D01*
X176697914Y-106776189D02*
X176888390Y-106823808D01*
X176888390Y-106823808D02*
X177269342Y-106823808D01*
X177269342Y-106823808D02*
X177364580Y-106776189D01*
X177364580Y-106776189D02*
X177412200Y-106728570D01*
X177412200Y-106728570D02*
X177459819Y-106633332D01*
X177459819Y-106633332D02*
X177459819Y-106442856D01*
X177459819Y-106442856D02*
X177412200Y-106347618D01*
X177412200Y-106347618D02*
X177364580Y-106299999D01*
X177364580Y-106299999D02*
X177269342Y-106252380D01*
X177269342Y-106252380D02*
X177031247Y-106252380D01*
X177031247Y-106252380D02*
X176936009Y-106299999D01*
X176936009Y-106299999D02*
X176888390Y-106347618D01*
X176888390Y-106347618D02*
X176840771Y-106442856D01*
X176840771Y-106442856D02*
X176840771Y-106633332D01*
X176840771Y-106633332D02*
X176888390Y-106728570D01*
X176888390Y-106728570D02*
X176936009Y-106776189D01*
X176936009Y-106776189D02*
X177031247Y-106823808D01*
X176459819Y-105919046D02*
X176459819Y-105252380D01*
X176459819Y-105252380D02*
X177459819Y-105680951D01*
X177459819Y-104204760D02*
X176793152Y-103680951D01*
X176793152Y-104204760D02*
X177459819Y-103680951D01*
X176793152Y-102109522D02*
X177459819Y-102109522D01*
X176412200Y-102347617D02*
X177126485Y-102585712D01*
X177126485Y-102585712D02*
X177126485Y-101966665D01*
X176459819Y-101680950D02*
X176459819Y-101061903D01*
X176459819Y-101061903D02*
X176840771Y-101395236D01*
X176840771Y-101395236D02*
X176840771Y-101252379D01*
X176840771Y-101252379D02*
X176888390Y-101157141D01*
X176888390Y-101157141D02*
X176936009Y-101109522D01*
X176936009Y-101109522D02*
X177031247Y-101061903D01*
X177031247Y-101061903D02*
X177269342Y-101061903D01*
X177269342Y-101061903D02*
X177364580Y-101109522D01*
X177364580Y-101109522D02*
X177412200Y-101157141D01*
X177412200Y-101157141D02*
X177459819Y-101252379D01*
X177459819Y-101252379D02*
X177459819Y-101538093D01*
X177459819Y-101538093D02*
X177412200Y-101633331D01*
X177412200Y-101633331D02*
X177364580Y-101680950D01*
X177459819Y-100633331D02*
X176793152Y-100633331D01*
X176888390Y-100633331D02*
X176840771Y-100585712D01*
X176840771Y-100585712D02*
X176793152Y-100490474D01*
X176793152Y-100490474D02*
X176793152Y-100347617D01*
X176793152Y-100347617D02*
X176840771Y-100252379D01*
X176840771Y-100252379D02*
X176936009Y-100204760D01*
X176936009Y-100204760D02*
X177459819Y-100204760D01*
X176936009Y-100204760D02*
X176840771Y-100157141D01*
X176840771Y-100157141D02*
X176793152Y-100061903D01*
X176793152Y-100061903D02*
X176793152Y-99919046D01*
X176793152Y-99919046D02*
X176840771Y-99823807D01*
X176840771Y-99823807D02*
X176936009Y-99776188D01*
X176936009Y-99776188D02*
X177459819Y-99776188D01*
X177459819Y-99299998D02*
X176793152Y-99299998D01*
X176888390Y-99299998D02*
X176840771Y-99252379D01*
X176840771Y-99252379D02*
X176793152Y-99157141D01*
X176793152Y-99157141D02*
X176793152Y-99014284D01*
X176793152Y-99014284D02*
X176840771Y-98919046D01*
X176840771Y-98919046D02*
X176936009Y-98871427D01*
X176936009Y-98871427D02*
X177459819Y-98871427D01*
X176936009Y-98871427D02*
X176840771Y-98823808D01*
X176840771Y-98823808D02*
X176793152Y-98728570D01*
X176793152Y-98728570D02*
X176793152Y-98585713D01*
X176793152Y-98585713D02*
X176840771Y-98490474D01*
X176840771Y-98490474D02*
X176936009Y-98442855D01*
X176936009Y-98442855D02*
X177459819Y-98442855D01*
%TO.C,C16*%
X111752142Y-99292580D02*
X111704523Y-99340200D01*
X111704523Y-99340200D02*
X111561666Y-99387819D01*
X111561666Y-99387819D02*
X111466428Y-99387819D01*
X111466428Y-99387819D02*
X111323571Y-99340200D01*
X111323571Y-99340200D02*
X111228333Y-99244961D01*
X111228333Y-99244961D02*
X111180714Y-99149723D01*
X111180714Y-99149723D02*
X111133095Y-98959247D01*
X111133095Y-98959247D02*
X111133095Y-98816390D01*
X111133095Y-98816390D02*
X111180714Y-98625914D01*
X111180714Y-98625914D02*
X111228333Y-98530676D01*
X111228333Y-98530676D02*
X111323571Y-98435438D01*
X111323571Y-98435438D02*
X111466428Y-98387819D01*
X111466428Y-98387819D02*
X111561666Y-98387819D01*
X111561666Y-98387819D02*
X111704523Y-98435438D01*
X111704523Y-98435438D02*
X111752142Y-98483057D01*
X112704523Y-99387819D02*
X112133095Y-99387819D01*
X112418809Y-99387819D02*
X112418809Y-98387819D01*
X112418809Y-98387819D02*
X112323571Y-98530676D01*
X112323571Y-98530676D02*
X112228333Y-98625914D01*
X112228333Y-98625914D02*
X112133095Y-98673533D01*
X113561666Y-98387819D02*
X113371190Y-98387819D01*
X113371190Y-98387819D02*
X113275952Y-98435438D01*
X113275952Y-98435438D02*
X113228333Y-98483057D01*
X113228333Y-98483057D02*
X113133095Y-98625914D01*
X113133095Y-98625914D02*
X113085476Y-98816390D01*
X113085476Y-98816390D02*
X113085476Y-99197342D01*
X113085476Y-99197342D02*
X113133095Y-99292580D01*
X113133095Y-99292580D02*
X113180714Y-99340200D01*
X113180714Y-99340200D02*
X113275952Y-99387819D01*
X113275952Y-99387819D02*
X113466428Y-99387819D01*
X113466428Y-99387819D02*
X113561666Y-99340200D01*
X113561666Y-99340200D02*
X113609285Y-99292580D01*
X113609285Y-99292580D02*
X113656904Y-99197342D01*
X113656904Y-99197342D02*
X113656904Y-98959247D01*
X113656904Y-98959247D02*
X113609285Y-98864009D01*
X113609285Y-98864009D02*
X113561666Y-98816390D01*
X113561666Y-98816390D02*
X113466428Y-98768771D01*
X113466428Y-98768771D02*
X113275952Y-98768771D01*
X113275952Y-98768771D02*
X113180714Y-98816390D01*
X113180714Y-98816390D02*
X113133095Y-98864009D01*
X113133095Y-98864009D02*
X113085476Y-98959247D01*
%TO.C,C10*%
X105910142Y-114151580D02*
X105862523Y-114199200D01*
X105862523Y-114199200D02*
X105719666Y-114246819D01*
X105719666Y-114246819D02*
X105624428Y-114246819D01*
X105624428Y-114246819D02*
X105481571Y-114199200D01*
X105481571Y-114199200D02*
X105386333Y-114103961D01*
X105386333Y-114103961D02*
X105338714Y-114008723D01*
X105338714Y-114008723D02*
X105291095Y-113818247D01*
X105291095Y-113818247D02*
X105291095Y-113675390D01*
X105291095Y-113675390D02*
X105338714Y-113484914D01*
X105338714Y-113484914D02*
X105386333Y-113389676D01*
X105386333Y-113389676D02*
X105481571Y-113294438D01*
X105481571Y-113294438D02*
X105624428Y-113246819D01*
X105624428Y-113246819D02*
X105719666Y-113246819D01*
X105719666Y-113246819D02*
X105862523Y-113294438D01*
X105862523Y-113294438D02*
X105910142Y-113342057D01*
X106862523Y-114246819D02*
X106291095Y-114246819D01*
X106576809Y-114246819D02*
X106576809Y-113246819D01*
X106576809Y-113246819D02*
X106481571Y-113389676D01*
X106481571Y-113389676D02*
X106386333Y-113484914D01*
X106386333Y-113484914D02*
X106291095Y-113532533D01*
X107481571Y-113246819D02*
X107576809Y-113246819D01*
X107576809Y-113246819D02*
X107672047Y-113294438D01*
X107672047Y-113294438D02*
X107719666Y-113342057D01*
X107719666Y-113342057D02*
X107767285Y-113437295D01*
X107767285Y-113437295D02*
X107814904Y-113627771D01*
X107814904Y-113627771D02*
X107814904Y-113865866D01*
X107814904Y-113865866D02*
X107767285Y-114056342D01*
X107767285Y-114056342D02*
X107719666Y-114151580D01*
X107719666Y-114151580D02*
X107672047Y-114199200D01*
X107672047Y-114199200D02*
X107576809Y-114246819D01*
X107576809Y-114246819D02*
X107481571Y-114246819D01*
X107481571Y-114246819D02*
X107386333Y-114199200D01*
X107386333Y-114199200D02*
X107338714Y-114151580D01*
X107338714Y-114151580D02*
X107291095Y-114056342D01*
X107291095Y-114056342D02*
X107243476Y-113865866D01*
X107243476Y-113865866D02*
X107243476Y-113627771D01*
X107243476Y-113627771D02*
X107291095Y-113437295D01*
X107291095Y-113437295D02*
X107338714Y-113342057D01*
X107338714Y-113342057D02*
X107386333Y-113294438D01*
X107386333Y-113294438D02*
X107481571Y-113246819D01*
%TO.C,C7*%
X121677580Y-100343166D02*
X121725200Y-100390785D01*
X121725200Y-100390785D02*
X121772819Y-100533642D01*
X121772819Y-100533642D02*
X121772819Y-100628880D01*
X121772819Y-100628880D02*
X121725200Y-100771737D01*
X121725200Y-100771737D02*
X121629961Y-100866975D01*
X121629961Y-100866975D02*
X121534723Y-100914594D01*
X121534723Y-100914594D02*
X121344247Y-100962213D01*
X121344247Y-100962213D02*
X121201390Y-100962213D01*
X121201390Y-100962213D02*
X121010914Y-100914594D01*
X121010914Y-100914594D02*
X120915676Y-100866975D01*
X120915676Y-100866975D02*
X120820438Y-100771737D01*
X120820438Y-100771737D02*
X120772819Y-100628880D01*
X120772819Y-100628880D02*
X120772819Y-100533642D01*
X120772819Y-100533642D02*
X120820438Y-100390785D01*
X120820438Y-100390785D02*
X120868057Y-100343166D01*
X120772819Y-100009832D02*
X120772819Y-99343166D01*
X120772819Y-99343166D02*
X121772819Y-99771737D01*
%TO.C,R35*%
X148884819Y-98940857D02*
X148408628Y-99274190D01*
X148884819Y-99512285D02*
X147884819Y-99512285D01*
X147884819Y-99512285D02*
X147884819Y-99131333D01*
X147884819Y-99131333D02*
X147932438Y-99036095D01*
X147932438Y-99036095D02*
X147980057Y-98988476D01*
X147980057Y-98988476D02*
X148075295Y-98940857D01*
X148075295Y-98940857D02*
X148218152Y-98940857D01*
X148218152Y-98940857D02*
X148313390Y-98988476D01*
X148313390Y-98988476D02*
X148361009Y-99036095D01*
X148361009Y-99036095D02*
X148408628Y-99131333D01*
X148408628Y-99131333D02*
X148408628Y-99512285D01*
X147884819Y-98607523D02*
X147884819Y-97988476D01*
X147884819Y-97988476D02*
X148265771Y-98321809D01*
X148265771Y-98321809D02*
X148265771Y-98178952D01*
X148265771Y-98178952D02*
X148313390Y-98083714D01*
X148313390Y-98083714D02*
X148361009Y-98036095D01*
X148361009Y-98036095D02*
X148456247Y-97988476D01*
X148456247Y-97988476D02*
X148694342Y-97988476D01*
X148694342Y-97988476D02*
X148789580Y-98036095D01*
X148789580Y-98036095D02*
X148837200Y-98083714D01*
X148837200Y-98083714D02*
X148884819Y-98178952D01*
X148884819Y-98178952D02*
X148884819Y-98464666D01*
X148884819Y-98464666D02*
X148837200Y-98559904D01*
X148837200Y-98559904D02*
X148789580Y-98607523D01*
X147884819Y-97083714D02*
X147884819Y-97559904D01*
X147884819Y-97559904D02*
X148361009Y-97607523D01*
X148361009Y-97607523D02*
X148313390Y-97559904D01*
X148313390Y-97559904D02*
X148265771Y-97464666D01*
X148265771Y-97464666D02*
X148265771Y-97226571D01*
X148265771Y-97226571D02*
X148313390Y-97131333D01*
X148313390Y-97131333D02*
X148361009Y-97083714D01*
X148361009Y-97083714D02*
X148456247Y-97036095D01*
X148456247Y-97036095D02*
X148694342Y-97036095D01*
X148694342Y-97036095D02*
X148789580Y-97083714D01*
X148789580Y-97083714D02*
X148837200Y-97131333D01*
X148837200Y-97131333D02*
X148884819Y-97226571D01*
X148884819Y-97226571D02*
X148884819Y-97464666D01*
X148884819Y-97464666D02*
X148837200Y-97559904D01*
X148837200Y-97559904D02*
X148789580Y-97607523D01*
%TO.C,U5*%
X120554819Y-108599404D02*
X121364342Y-108599404D01*
X121364342Y-108599404D02*
X121459580Y-108551785D01*
X121459580Y-108551785D02*
X121507200Y-108504166D01*
X121507200Y-108504166D02*
X121554819Y-108408928D01*
X121554819Y-108408928D02*
X121554819Y-108218452D01*
X121554819Y-108218452D02*
X121507200Y-108123214D01*
X121507200Y-108123214D02*
X121459580Y-108075595D01*
X121459580Y-108075595D02*
X121364342Y-108027976D01*
X121364342Y-108027976D02*
X120554819Y-108027976D01*
X120554819Y-107075595D02*
X120554819Y-107551785D01*
X120554819Y-107551785D02*
X121031009Y-107599404D01*
X121031009Y-107599404D02*
X120983390Y-107551785D01*
X120983390Y-107551785D02*
X120935771Y-107456547D01*
X120935771Y-107456547D02*
X120935771Y-107218452D01*
X120935771Y-107218452D02*
X120983390Y-107123214D01*
X120983390Y-107123214D02*
X121031009Y-107075595D01*
X121031009Y-107075595D02*
X121126247Y-107027976D01*
X121126247Y-107027976D02*
X121364342Y-107027976D01*
X121364342Y-107027976D02*
X121459580Y-107075595D01*
X121459580Y-107075595D02*
X121507200Y-107123214D01*
X121507200Y-107123214D02*
X121554819Y-107218452D01*
X121554819Y-107218452D02*
X121554819Y-107456547D01*
X121554819Y-107456547D02*
X121507200Y-107551785D01*
X121507200Y-107551785D02*
X121459580Y-107599404D01*
%TO.C,C15*%
X119739580Y-97797857D02*
X119787200Y-97845476D01*
X119787200Y-97845476D02*
X119834819Y-97988333D01*
X119834819Y-97988333D02*
X119834819Y-98083571D01*
X119834819Y-98083571D02*
X119787200Y-98226428D01*
X119787200Y-98226428D02*
X119691961Y-98321666D01*
X119691961Y-98321666D02*
X119596723Y-98369285D01*
X119596723Y-98369285D02*
X119406247Y-98416904D01*
X119406247Y-98416904D02*
X119263390Y-98416904D01*
X119263390Y-98416904D02*
X119072914Y-98369285D01*
X119072914Y-98369285D02*
X118977676Y-98321666D01*
X118977676Y-98321666D02*
X118882438Y-98226428D01*
X118882438Y-98226428D02*
X118834819Y-98083571D01*
X118834819Y-98083571D02*
X118834819Y-97988333D01*
X118834819Y-97988333D02*
X118882438Y-97845476D01*
X118882438Y-97845476D02*
X118930057Y-97797857D01*
X119834819Y-96845476D02*
X119834819Y-97416904D01*
X119834819Y-97131190D02*
X118834819Y-97131190D01*
X118834819Y-97131190D02*
X118977676Y-97226428D01*
X118977676Y-97226428D02*
X119072914Y-97321666D01*
X119072914Y-97321666D02*
X119120533Y-97416904D01*
X118834819Y-95940714D02*
X118834819Y-96416904D01*
X118834819Y-96416904D02*
X119311009Y-96464523D01*
X119311009Y-96464523D02*
X119263390Y-96416904D01*
X119263390Y-96416904D02*
X119215771Y-96321666D01*
X119215771Y-96321666D02*
X119215771Y-96083571D01*
X119215771Y-96083571D02*
X119263390Y-95988333D01*
X119263390Y-95988333D02*
X119311009Y-95940714D01*
X119311009Y-95940714D02*
X119406247Y-95893095D01*
X119406247Y-95893095D02*
X119644342Y-95893095D01*
X119644342Y-95893095D02*
X119739580Y-95940714D01*
X119739580Y-95940714D02*
X119787200Y-95988333D01*
X119787200Y-95988333D02*
X119834819Y-96083571D01*
X119834819Y-96083571D02*
X119834819Y-96321666D01*
X119834819Y-96321666D02*
X119787200Y-96416904D01*
X119787200Y-96416904D02*
X119739580Y-96464523D01*
%TO.C,C14*%
X114572642Y-115929580D02*
X114525023Y-115977200D01*
X114525023Y-115977200D02*
X114382166Y-116024819D01*
X114382166Y-116024819D02*
X114286928Y-116024819D01*
X114286928Y-116024819D02*
X114144071Y-115977200D01*
X114144071Y-115977200D02*
X114048833Y-115881961D01*
X114048833Y-115881961D02*
X114001214Y-115786723D01*
X114001214Y-115786723D02*
X113953595Y-115596247D01*
X113953595Y-115596247D02*
X113953595Y-115453390D01*
X113953595Y-115453390D02*
X114001214Y-115262914D01*
X114001214Y-115262914D02*
X114048833Y-115167676D01*
X114048833Y-115167676D02*
X114144071Y-115072438D01*
X114144071Y-115072438D02*
X114286928Y-115024819D01*
X114286928Y-115024819D02*
X114382166Y-115024819D01*
X114382166Y-115024819D02*
X114525023Y-115072438D01*
X114525023Y-115072438D02*
X114572642Y-115120057D01*
X115525023Y-116024819D02*
X114953595Y-116024819D01*
X115239309Y-116024819D02*
X115239309Y-115024819D01*
X115239309Y-115024819D02*
X115144071Y-115167676D01*
X115144071Y-115167676D02*
X115048833Y-115262914D01*
X115048833Y-115262914D02*
X114953595Y-115310533D01*
X116382166Y-115358152D02*
X116382166Y-116024819D01*
X116144071Y-114977200D02*
X115905976Y-115691485D01*
X115905976Y-115691485D02*
X116525023Y-115691485D01*
%TO.C,C11*%
X109993580Y-111894857D02*
X110041200Y-111942476D01*
X110041200Y-111942476D02*
X110088819Y-112085333D01*
X110088819Y-112085333D02*
X110088819Y-112180571D01*
X110088819Y-112180571D02*
X110041200Y-112323428D01*
X110041200Y-112323428D02*
X109945961Y-112418666D01*
X109945961Y-112418666D02*
X109850723Y-112466285D01*
X109850723Y-112466285D02*
X109660247Y-112513904D01*
X109660247Y-112513904D02*
X109517390Y-112513904D01*
X109517390Y-112513904D02*
X109326914Y-112466285D01*
X109326914Y-112466285D02*
X109231676Y-112418666D01*
X109231676Y-112418666D02*
X109136438Y-112323428D01*
X109136438Y-112323428D02*
X109088819Y-112180571D01*
X109088819Y-112180571D02*
X109088819Y-112085333D01*
X109088819Y-112085333D02*
X109136438Y-111942476D01*
X109136438Y-111942476D02*
X109184057Y-111894857D01*
X110088819Y-110942476D02*
X110088819Y-111513904D01*
X110088819Y-111228190D02*
X109088819Y-111228190D01*
X109088819Y-111228190D02*
X109231676Y-111323428D01*
X109231676Y-111323428D02*
X109326914Y-111418666D01*
X109326914Y-111418666D02*
X109374533Y-111513904D01*
X110088819Y-109990095D02*
X110088819Y-110561523D01*
X110088819Y-110275809D02*
X109088819Y-110275809D01*
X109088819Y-110275809D02*
X109231676Y-110371047D01*
X109231676Y-110371047D02*
X109326914Y-110466285D01*
X109326914Y-110466285D02*
X109374533Y-110561523D01*
%TO.C,C8*%
X113117333Y-101070580D02*
X113069714Y-101118200D01*
X113069714Y-101118200D02*
X112926857Y-101165819D01*
X112926857Y-101165819D02*
X112831619Y-101165819D01*
X112831619Y-101165819D02*
X112688762Y-101118200D01*
X112688762Y-101118200D02*
X112593524Y-101022961D01*
X112593524Y-101022961D02*
X112545905Y-100927723D01*
X112545905Y-100927723D02*
X112498286Y-100737247D01*
X112498286Y-100737247D02*
X112498286Y-100594390D01*
X112498286Y-100594390D02*
X112545905Y-100403914D01*
X112545905Y-100403914D02*
X112593524Y-100308676D01*
X112593524Y-100308676D02*
X112688762Y-100213438D01*
X112688762Y-100213438D02*
X112831619Y-100165819D01*
X112831619Y-100165819D02*
X112926857Y-100165819D01*
X112926857Y-100165819D02*
X113069714Y-100213438D01*
X113069714Y-100213438D02*
X113117333Y-100261057D01*
X113688762Y-100594390D02*
X113593524Y-100546771D01*
X113593524Y-100546771D02*
X113545905Y-100499152D01*
X113545905Y-100499152D02*
X113498286Y-100403914D01*
X113498286Y-100403914D02*
X113498286Y-100356295D01*
X113498286Y-100356295D02*
X113545905Y-100261057D01*
X113545905Y-100261057D02*
X113593524Y-100213438D01*
X113593524Y-100213438D02*
X113688762Y-100165819D01*
X113688762Y-100165819D02*
X113879238Y-100165819D01*
X113879238Y-100165819D02*
X113974476Y-100213438D01*
X113974476Y-100213438D02*
X114022095Y-100261057D01*
X114022095Y-100261057D02*
X114069714Y-100356295D01*
X114069714Y-100356295D02*
X114069714Y-100403914D01*
X114069714Y-100403914D02*
X114022095Y-100499152D01*
X114022095Y-100499152D02*
X113974476Y-100546771D01*
X113974476Y-100546771D02*
X113879238Y-100594390D01*
X113879238Y-100594390D02*
X113688762Y-100594390D01*
X113688762Y-100594390D02*
X113593524Y-100642009D01*
X113593524Y-100642009D02*
X113545905Y-100689628D01*
X113545905Y-100689628D02*
X113498286Y-100784866D01*
X113498286Y-100784866D02*
X113498286Y-100975342D01*
X113498286Y-100975342D02*
X113545905Y-101070580D01*
X113545905Y-101070580D02*
X113593524Y-101118200D01*
X113593524Y-101118200D02*
X113688762Y-101165819D01*
X113688762Y-101165819D02*
X113879238Y-101165819D01*
X113879238Y-101165819D02*
X113974476Y-101118200D01*
X113974476Y-101118200D02*
X114022095Y-101070580D01*
X114022095Y-101070580D02*
X114069714Y-100975342D01*
X114069714Y-100975342D02*
X114069714Y-100784866D01*
X114069714Y-100784866D02*
X114022095Y-100689628D01*
X114022095Y-100689628D02*
X113974476Y-100642009D01*
X113974476Y-100642009D02*
X113879238Y-100594390D01*
%TO.C,C1*%
X163333333Y-90350580D02*
X163285714Y-90398200D01*
X163285714Y-90398200D02*
X163142857Y-90445819D01*
X163142857Y-90445819D02*
X163047619Y-90445819D01*
X163047619Y-90445819D02*
X162904762Y-90398200D01*
X162904762Y-90398200D02*
X162809524Y-90302961D01*
X162809524Y-90302961D02*
X162761905Y-90207723D01*
X162761905Y-90207723D02*
X162714286Y-90017247D01*
X162714286Y-90017247D02*
X162714286Y-89874390D01*
X162714286Y-89874390D02*
X162761905Y-89683914D01*
X162761905Y-89683914D02*
X162809524Y-89588676D01*
X162809524Y-89588676D02*
X162904762Y-89493438D01*
X162904762Y-89493438D02*
X163047619Y-89445819D01*
X163047619Y-89445819D02*
X163142857Y-89445819D01*
X163142857Y-89445819D02*
X163285714Y-89493438D01*
X163285714Y-89493438D02*
X163333333Y-89541057D01*
X164285714Y-90445819D02*
X163714286Y-90445819D01*
X164000000Y-90445819D02*
X164000000Y-89445819D01*
X164000000Y-89445819D02*
X163904762Y-89588676D01*
X163904762Y-89588676D02*
X163809524Y-89683914D01*
X163809524Y-89683914D02*
X163714286Y-89731533D01*
%TO.C,C2*%
X168870333Y-92509580D02*
X168822714Y-92557200D01*
X168822714Y-92557200D02*
X168679857Y-92604819D01*
X168679857Y-92604819D02*
X168584619Y-92604819D01*
X168584619Y-92604819D02*
X168441762Y-92557200D01*
X168441762Y-92557200D02*
X168346524Y-92461961D01*
X168346524Y-92461961D02*
X168298905Y-92366723D01*
X168298905Y-92366723D02*
X168251286Y-92176247D01*
X168251286Y-92176247D02*
X168251286Y-92033390D01*
X168251286Y-92033390D02*
X168298905Y-91842914D01*
X168298905Y-91842914D02*
X168346524Y-91747676D01*
X168346524Y-91747676D02*
X168441762Y-91652438D01*
X168441762Y-91652438D02*
X168584619Y-91604819D01*
X168584619Y-91604819D02*
X168679857Y-91604819D01*
X168679857Y-91604819D02*
X168822714Y-91652438D01*
X168822714Y-91652438D02*
X168870333Y-91700057D01*
X169251286Y-91700057D02*
X169298905Y-91652438D01*
X169298905Y-91652438D02*
X169394143Y-91604819D01*
X169394143Y-91604819D02*
X169632238Y-91604819D01*
X169632238Y-91604819D02*
X169727476Y-91652438D01*
X169727476Y-91652438D02*
X169775095Y-91700057D01*
X169775095Y-91700057D02*
X169822714Y-91795295D01*
X169822714Y-91795295D02*
X169822714Y-91890533D01*
X169822714Y-91890533D02*
X169775095Y-92033390D01*
X169775095Y-92033390D02*
X169203667Y-92604819D01*
X169203667Y-92604819D02*
X169822714Y-92604819D01*
%TO.C,C3*%
X165078580Y-106579666D02*
X165126200Y-106627285D01*
X165126200Y-106627285D02*
X165173819Y-106770142D01*
X165173819Y-106770142D02*
X165173819Y-106865380D01*
X165173819Y-106865380D02*
X165126200Y-107008237D01*
X165126200Y-107008237D02*
X165030961Y-107103475D01*
X165030961Y-107103475D02*
X164935723Y-107151094D01*
X164935723Y-107151094D02*
X164745247Y-107198713D01*
X164745247Y-107198713D02*
X164602390Y-107198713D01*
X164602390Y-107198713D02*
X164411914Y-107151094D01*
X164411914Y-107151094D02*
X164316676Y-107103475D01*
X164316676Y-107103475D02*
X164221438Y-107008237D01*
X164221438Y-107008237D02*
X164173819Y-106865380D01*
X164173819Y-106865380D02*
X164173819Y-106770142D01*
X164173819Y-106770142D02*
X164221438Y-106627285D01*
X164221438Y-106627285D02*
X164269057Y-106579666D01*
X164173819Y-106246332D02*
X164173819Y-105627285D01*
X164173819Y-105627285D02*
X164554771Y-105960618D01*
X164554771Y-105960618D02*
X164554771Y-105817761D01*
X164554771Y-105817761D02*
X164602390Y-105722523D01*
X164602390Y-105722523D02*
X164650009Y-105674904D01*
X164650009Y-105674904D02*
X164745247Y-105627285D01*
X164745247Y-105627285D02*
X164983342Y-105627285D01*
X164983342Y-105627285D02*
X165078580Y-105674904D01*
X165078580Y-105674904D02*
X165126200Y-105722523D01*
X165126200Y-105722523D02*
X165173819Y-105817761D01*
X165173819Y-105817761D02*
X165173819Y-106103475D01*
X165173819Y-106103475D02*
X165126200Y-106198713D01*
X165126200Y-106198713D02*
X165078580Y-106246332D01*
%TO.C,C9*%
X155233333Y-89759580D02*
X155185714Y-89807200D01*
X155185714Y-89807200D02*
X155042857Y-89854819D01*
X155042857Y-89854819D02*
X154947619Y-89854819D01*
X154947619Y-89854819D02*
X154804762Y-89807200D01*
X154804762Y-89807200D02*
X154709524Y-89711961D01*
X154709524Y-89711961D02*
X154661905Y-89616723D01*
X154661905Y-89616723D02*
X154614286Y-89426247D01*
X154614286Y-89426247D02*
X154614286Y-89283390D01*
X154614286Y-89283390D02*
X154661905Y-89092914D01*
X154661905Y-89092914D02*
X154709524Y-88997676D01*
X154709524Y-88997676D02*
X154804762Y-88902438D01*
X154804762Y-88902438D02*
X154947619Y-88854819D01*
X154947619Y-88854819D02*
X155042857Y-88854819D01*
X155042857Y-88854819D02*
X155185714Y-88902438D01*
X155185714Y-88902438D02*
X155233333Y-88950057D01*
X155709524Y-89854819D02*
X155900000Y-89854819D01*
X155900000Y-89854819D02*
X155995238Y-89807200D01*
X155995238Y-89807200D02*
X156042857Y-89759580D01*
X156042857Y-89759580D02*
X156138095Y-89616723D01*
X156138095Y-89616723D02*
X156185714Y-89426247D01*
X156185714Y-89426247D02*
X156185714Y-89045295D01*
X156185714Y-89045295D02*
X156138095Y-88950057D01*
X156138095Y-88950057D02*
X156090476Y-88902438D01*
X156090476Y-88902438D02*
X155995238Y-88854819D01*
X155995238Y-88854819D02*
X155804762Y-88854819D01*
X155804762Y-88854819D02*
X155709524Y-88902438D01*
X155709524Y-88902438D02*
X155661905Y-88950057D01*
X155661905Y-88950057D02*
X155614286Y-89045295D01*
X155614286Y-89045295D02*
X155614286Y-89283390D01*
X155614286Y-89283390D02*
X155661905Y-89378628D01*
X155661905Y-89378628D02*
X155709524Y-89426247D01*
X155709524Y-89426247D02*
X155804762Y-89473866D01*
X155804762Y-89473866D02*
X155995238Y-89473866D01*
X155995238Y-89473866D02*
X156090476Y-89426247D01*
X156090476Y-89426247D02*
X156138095Y-89378628D01*
X156138095Y-89378628D02*
X156185714Y-89283390D01*
%TO.C,C12*%
X150338580Y-117243857D02*
X150386200Y-117291476D01*
X150386200Y-117291476D02*
X150433819Y-117434333D01*
X150433819Y-117434333D02*
X150433819Y-117529571D01*
X150433819Y-117529571D02*
X150386200Y-117672428D01*
X150386200Y-117672428D02*
X150290961Y-117767666D01*
X150290961Y-117767666D02*
X150195723Y-117815285D01*
X150195723Y-117815285D02*
X150005247Y-117862904D01*
X150005247Y-117862904D02*
X149862390Y-117862904D01*
X149862390Y-117862904D02*
X149671914Y-117815285D01*
X149671914Y-117815285D02*
X149576676Y-117767666D01*
X149576676Y-117767666D02*
X149481438Y-117672428D01*
X149481438Y-117672428D02*
X149433819Y-117529571D01*
X149433819Y-117529571D02*
X149433819Y-117434333D01*
X149433819Y-117434333D02*
X149481438Y-117291476D01*
X149481438Y-117291476D02*
X149529057Y-117243857D01*
X150433819Y-116291476D02*
X150433819Y-116862904D01*
X150433819Y-116577190D02*
X149433819Y-116577190D01*
X149433819Y-116577190D02*
X149576676Y-116672428D01*
X149576676Y-116672428D02*
X149671914Y-116767666D01*
X149671914Y-116767666D02*
X149719533Y-116862904D01*
X149529057Y-115910523D02*
X149481438Y-115862904D01*
X149481438Y-115862904D02*
X149433819Y-115767666D01*
X149433819Y-115767666D02*
X149433819Y-115529571D01*
X149433819Y-115529571D02*
X149481438Y-115434333D01*
X149481438Y-115434333D02*
X149529057Y-115386714D01*
X149529057Y-115386714D02*
X149624295Y-115339095D01*
X149624295Y-115339095D02*
X149719533Y-115339095D01*
X149719533Y-115339095D02*
X149862390Y-115386714D01*
X149862390Y-115386714D02*
X150433819Y-115958142D01*
X150433819Y-115958142D02*
X150433819Y-115339095D01*
%TO.C,C13*%
X148797580Y-117228857D02*
X148845200Y-117276476D01*
X148845200Y-117276476D02*
X148892819Y-117419333D01*
X148892819Y-117419333D02*
X148892819Y-117514571D01*
X148892819Y-117514571D02*
X148845200Y-117657428D01*
X148845200Y-117657428D02*
X148749961Y-117752666D01*
X148749961Y-117752666D02*
X148654723Y-117800285D01*
X148654723Y-117800285D02*
X148464247Y-117847904D01*
X148464247Y-117847904D02*
X148321390Y-117847904D01*
X148321390Y-117847904D02*
X148130914Y-117800285D01*
X148130914Y-117800285D02*
X148035676Y-117752666D01*
X148035676Y-117752666D02*
X147940438Y-117657428D01*
X147940438Y-117657428D02*
X147892819Y-117514571D01*
X147892819Y-117514571D02*
X147892819Y-117419333D01*
X147892819Y-117419333D02*
X147940438Y-117276476D01*
X147940438Y-117276476D02*
X147988057Y-117228857D01*
X148892819Y-116276476D02*
X148892819Y-116847904D01*
X148892819Y-116562190D02*
X147892819Y-116562190D01*
X147892819Y-116562190D02*
X148035676Y-116657428D01*
X148035676Y-116657428D02*
X148130914Y-116752666D01*
X148130914Y-116752666D02*
X148178533Y-116847904D01*
X147892819Y-115943142D02*
X147892819Y-115324095D01*
X147892819Y-115324095D02*
X148273771Y-115657428D01*
X148273771Y-115657428D02*
X148273771Y-115514571D01*
X148273771Y-115514571D02*
X148321390Y-115419333D01*
X148321390Y-115419333D02*
X148369009Y-115371714D01*
X148369009Y-115371714D02*
X148464247Y-115324095D01*
X148464247Y-115324095D02*
X148702342Y-115324095D01*
X148702342Y-115324095D02*
X148797580Y-115371714D01*
X148797580Y-115371714D02*
X148845200Y-115419333D01*
X148845200Y-115419333D02*
X148892819Y-115514571D01*
X148892819Y-115514571D02*
X148892819Y-115800285D01*
X148892819Y-115800285D02*
X148845200Y-115895523D01*
X148845200Y-115895523D02*
X148797580Y-115943142D01*
%TO.C,C18*%
X121957142Y-95989580D02*
X121909523Y-96037200D01*
X121909523Y-96037200D02*
X121766666Y-96084819D01*
X121766666Y-96084819D02*
X121671428Y-96084819D01*
X121671428Y-96084819D02*
X121528571Y-96037200D01*
X121528571Y-96037200D02*
X121433333Y-95941961D01*
X121433333Y-95941961D02*
X121385714Y-95846723D01*
X121385714Y-95846723D02*
X121338095Y-95656247D01*
X121338095Y-95656247D02*
X121338095Y-95513390D01*
X121338095Y-95513390D02*
X121385714Y-95322914D01*
X121385714Y-95322914D02*
X121433333Y-95227676D01*
X121433333Y-95227676D02*
X121528571Y-95132438D01*
X121528571Y-95132438D02*
X121671428Y-95084819D01*
X121671428Y-95084819D02*
X121766666Y-95084819D01*
X121766666Y-95084819D02*
X121909523Y-95132438D01*
X121909523Y-95132438D02*
X121957142Y-95180057D01*
X122909523Y-96084819D02*
X122338095Y-96084819D01*
X122623809Y-96084819D02*
X122623809Y-95084819D01*
X122623809Y-95084819D02*
X122528571Y-95227676D01*
X122528571Y-95227676D02*
X122433333Y-95322914D01*
X122433333Y-95322914D02*
X122338095Y-95370533D01*
X123480952Y-95513390D02*
X123385714Y-95465771D01*
X123385714Y-95465771D02*
X123338095Y-95418152D01*
X123338095Y-95418152D02*
X123290476Y-95322914D01*
X123290476Y-95322914D02*
X123290476Y-95275295D01*
X123290476Y-95275295D02*
X123338095Y-95180057D01*
X123338095Y-95180057D02*
X123385714Y-95132438D01*
X123385714Y-95132438D02*
X123480952Y-95084819D01*
X123480952Y-95084819D02*
X123671428Y-95084819D01*
X123671428Y-95084819D02*
X123766666Y-95132438D01*
X123766666Y-95132438D02*
X123814285Y-95180057D01*
X123814285Y-95180057D02*
X123861904Y-95275295D01*
X123861904Y-95275295D02*
X123861904Y-95322914D01*
X123861904Y-95322914D02*
X123814285Y-95418152D01*
X123814285Y-95418152D02*
X123766666Y-95465771D01*
X123766666Y-95465771D02*
X123671428Y-95513390D01*
X123671428Y-95513390D02*
X123480952Y-95513390D01*
X123480952Y-95513390D02*
X123385714Y-95561009D01*
X123385714Y-95561009D02*
X123338095Y-95608628D01*
X123338095Y-95608628D02*
X123290476Y-95703866D01*
X123290476Y-95703866D02*
X123290476Y-95894342D01*
X123290476Y-95894342D02*
X123338095Y-95989580D01*
X123338095Y-95989580D02*
X123385714Y-96037200D01*
X123385714Y-96037200D02*
X123480952Y-96084819D01*
X123480952Y-96084819D02*
X123671428Y-96084819D01*
X123671428Y-96084819D02*
X123766666Y-96037200D01*
X123766666Y-96037200D02*
X123814285Y-95989580D01*
X123814285Y-95989580D02*
X123861904Y-95894342D01*
X123861904Y-95894342D02*
X123861904Y-95703866D01*
X123861904Y-95703866D02*
X123814285Y-95608628D01*
X123814285Y-95608628D02*
X123766666Y-95561009D01*
X123766666Y-95561009D02*
X123671428Y-95513390D01*
%TO.C,FB1*%
X117119009Y-97353333D02*
X117119009Y-97686666D01*
X117642819Y-97686666D02*
X116642819Y-97686666D01*
X116642819Y-97686666D02*
X116642819Y-97210476D01*
X117119009Y-96496190D02*
X117166628Y-96353333D01*
X117166628Y-96353333D02*
X117214247Y-96305714D01*
X117214247Y-96305714D02*
X117309485Y-96258095D01*
X117309485Y-96258095D02*
X117452342Y-96258095D01*
X117452342Y-96258095D02*
X117547580Y-96305714D01*
X117547580Y-96305714D02*
X117595200Y-96353333D01*
X117595200Y-96353333D02*
X117642819Y-96448571D01*
X117642819Y-96448571D02*
X117642819Y-96829523D01*
X117642819Y-96829523D02*
X116642819Y-96829523D01*
X116642819Y-96829523D02*
X116642819Y-96496190D01*
X116642819Y-96496190D02*
X116690438Y-96400952D01*
X116690438Y-96400952D02*
X116738057Y-96353333D01*
X116738057Y-96353333D02*
X116833295Y-96305714D01*
X116833295Y-96305714D02*
X116928533Y-96305714D01*
X116928533Y-96305714D02*
X117023771Y-96353333D01*
X117023771Y-96353333D02*
X117071390Y-96400952D01*
X117071390Y-96400952D02*
X117119009Y-96496190D01*
X117119009Y-96496190D02*
X117119009Y-96829523D01*
X117642819Y-95305714D02*
X117642819Y-95877142D01*
X117642819Y-95591428D02*
X116642819Y-95591428D01*
X116642819Y-95591428D02*
X116785676Y-95686666D01*
X116785676Y-95686666D02*
X116880914Y-95781904D01*
X116880914Y-95781904D02*
X116928533Y-95877142D01*
D10*
%TO.C,J1*%
X153665666Y-85142633D02*
X153665666Y-85642633D01*
X153665666Y-85642633D02*
X153632333Y-85742633D01*
X153632333Y-85742633D02*
X153565666Y-85809300D01*
X153565666Y-85809300D02*
X153465666Y-85842633D01*
X153465666Y-85842633D02*
X153399000Y-85842633D01*
X154365666Y-85842633D02*
X153965666Y-85842633D01*
X154165666Y-85842633D02*
X154165666Y-85142633D01*
X154165666Y-85142633D02*
X154098999Y-85242633D01*
X154098999Y-85242633D02*
X154032333Y-85309300D01*
X154032333Y-85309300D02*
X153965666Y-85342633D01*
%TO.C,J3*%
X117566666Y-93518633D02*
X117566666Y-94018633D01*
X117566666Y-94018633D02*
X117533333Y-94118633D01*
X117533333Y-94118633D02*
X117466666Y-94185300D01*
X117466666Y-94185300D02*
X117366666Y-94218633D01*
X117366666Y-94218633D02*
X117300000Y-94218633D01*
X117833333Y-93518633D02*
X118266666Y-93518633D01*
X118266666Y-93518633D02*
X118033333Y-93785300D01*
X118033333Y-93785300D02*
X118133333Y-93785300D01*
X118133333Y-93785300D02*
X118199999Y-93818633D01*
X118199999Y-93818633D02*
X118233333Y-93851966D01*
X118233333Y-93851966D02*
X118266666Y-93918633D01*
X118266666Y-93918633D02*
X118266666Y-94085300D01*
X118266666Y-94085300D02*
X118233333Y-94151966D01*
X118233333Y-94151966D02*
X118199999Y-94185300D01*
X118199999Y-94185300D02*
X118133333Y-94218633D01*
X118133333Y-94218633D02*
X117933333Y-94218633D01*
X117933333Y-94218633D02*
X117866666Y-94185300D01*
X117866666Y-94185300D02*
X117833333Y-94151966D01*
D12*
%TO.C,R6*%
X125733333Y-104854819D02*
X125400000Y-104378628D01*
X125161905Y-104854819D02*
X125161905Y-103854819D01*
X125161905Y-103854819D02*
X125542857Y-103854819D01*
X125542857Y-103854819D02*
X125638095Y-103902438D01*
X125638095Y-103902438D02*
X125685714Y-103950057D01*
X125685714Y-103950057D02*
X125733333Y-104045295D01*
X125733333Y-104045295D02*
X125733333Y-104188152D01*
X125733333Y-104188152D02*
X125685714Y-104283390D01*
X125685714Y-104283390D02*
X125638095Y-104331009D01*
X125638095Y-104331009D02*
X125542857Y-104378628D01*
X125542857Y-104378628D02*
X125161905Y-104378628D01*
X126590476Y-103854819D02*
X126400000Y-103854819D01*
X126400000Y-103854819D02*
X126304762Y-103902438D01*
X126304762Y-103902438D02*
X126257143Y-103950057D01*
X126257143Y-103950057D02*
X126161905Y-104092914D01*
X126161905Y-104092914D02*
X126114286Y-104283390D01*
X126114286Y-104283390D02*
X126114286Y-104664342D01*
X126114286Y-104664342D02*
X126161905Y-104759580D01*
X126161905Y-104759580D02*
X126209524Y-104807200D01*
X126209524Y-104807200D02*
X126304762Y-104854819D01*
X126304762Y-104854819D02*
X126495238Y-104854819D01*
X126495238Y-104854819D02*
X126590476Y-104807200D01*
X126590476Y-104807200D02*
X126638095Y-104759580D01*
X126638095Y-104759580D02*
X126685714Y-104664342D01*
X126685714Y-104664342D02*
X126685714Y-104426247D01*
X126685714Y-104426247D02*
X126638095Y-104331009D01*
X126638095Y-104331009D02*
X126590476Y-104283390D01*
X126590476Y-104283390D02*
X126495238Y-104235771D01*
X126495238Y-104235771D02*
X126304762Y-104235771D01*
X126304762Y-104235771D02*
X126209524Y-104283390D01*
X126209524Y-104283390D02*
X126161905Y-104331009D01*
X126161905Y-104331009D02*
X126114286Y-104426247D01*
%TO.C,R8*%
X112465819Y-78121166D02*
X111989628Y-78454499D01*
X112465819Y-78692594D02*
X111465819Y-78692594D01*
X111465819Y-78692594D02*
X111465819Y-78311642D01*
X111465819Y-78311642D02*
X111513438Y-78216404D01*
X111513438Y-78216404D02*
X111561057Y-78168785D01*
X111561057Y-78168785D02*
X111656295Y-78121166D01*
X111656295Y-78121166D02*
X111799152Y-78121166D01*
X111799152Y-78121166D02*
X111894390Y-78168785D01*
X111894390Y-78168785D02*
X111942009Y-78216404D01*
X111942009Y-78216404D02*
X111989628Y-78311642D01*
X111989628Y-78311642D02*
X111989628Y-78692594D01*
X111894390Y-77549737D02*
X111846771Y-77644975D01*
X111846771Y-77644975D02*
X111799152Y-77692594D01*
X111799152Y-77692594D02*
X111703914Y-77740213D01*
X111703914Y-77740213D02*
X111656295Y-77740213D01*
X111656295Y-77740213D02*
X111561057Y-77692594D01*
X111561057Y-77692594D02*
X111513438Y-77644975D01*
X111513438Y-77644975D02*
X111465819Y-77549737D01*
X111465819Y-77549737D02*
X111465819Y-77359261D01*
X111465819Y-77359261D02*
X111513438Y-77264023D01*
X111513438Y-77264023D02*
X111561057Y-77216404D01*
X111561057Y-77216404D02*
X111656295Y-77168785D01*
X111656295Y-77168785D02*
X111703914Y-77168785D01*
X111703914Y-77168785D02*
X111799152Y-77216404D01*
X111799152Y-77216404D02*
X111846771Y-77264023D01*
X111846771Y-77264023D02*
X111894390Y-77359261D01*
X111894390Y-77359261D02*
X111894390Y-77549737D01*
X111894390Y-77549737D02*
X111942009Y-77644975D01*
X111942009Y-77644975D02*
X111989628Y-77692594D01*
X111989628Y-77692594D02*
X112084866Y-77740213D01*
X112084866Y-77740213D02*
X112275342Y-77740213D01*
X112275342Y-77740213D02*
X112370580Y-77692594D01*
X112370580Y-77692594D02*
X112418200Y-77644975D01*
X112418200Y-77644975D02*
X112465819Y-77549737D01*
X112465819Y-77549737D02*
X112465819Y-77359261D01*
X112465819Y-77359261D02*
X112418200Y-77264023D01*
X112418200Y-77264023D02*
X112370580Y-77216404D01*
X112370580Y-77216404D02*
X112275342Y-77168785D01*
X112275342Y-77168785D02*
X112084866Y-77168785D01*
X112084866Y-77168785D02*
X111989628Y-77216404D01*
X111989628Y-77216404D02*
X111942009Y-77264023D01*
X111942009Y-77264023D02*
X111894390Y-77359261D01*
%TO.C,R9*%
X133854819Y-88789166D02*
X133378628Y-89122499D01*
X133854819Y-89360594D02*
X132854819Y-89360594D01*
X132854819Y-89360594D02*
X132854819Y-88979642D01*
X132854819Y-88979642D02*
X132902438Y-88884404D01*
X132902438Y-88884404D02*
X132950057Y-88836785D01*
X132950057Y-88836785D02*
X133045295Y-88789166D01*
X133045295Y-88789166D02*
X133188152Y-88789166D01*
X133188152Y-88789166D02*
X133283390Y-88836785D01*
X133283390Y-88836785D02*
X133331009Y-88884404D01*
X133331009Y-88884404D02*
X133378628Y-88979642D01*
X133378628Y-88979642D02*
X133378628Y-89360594D01*
X133854819Y-88312975D02*
X133854819Y-88122499D01*
X133854819Y-88122499D02*
X133807200Y-88027261D01*
X133807200Y-88027261D02*
X133759580Y-87979642D01*
X133759580Y-87979642D02*
X133616723Y-87884404D01*
X133616723Y-87884404D02*
X133426247Y-87836785D01*
X133426247Y-87836785D02*
X133045295Y-87836785D01*
X133045295Y-87836785D02*
X132950057Y-87884404D01*
X132950057Y-87884404D02*
X132902438Y-87932023D01*
X132902438Y-87932023D02*
X132854819Y-88027261D01*
X132854819Y-88027261D02*
X132854819Y-88217737D01*
X132854819Y-88217737D02*
X132902438Y-88312975D01*
X132902438Y-88312975D02*
X132950057Y-88360594D01*
X132950057Y-88360594D02*
X133045295Y-88408213D01*
X133045295Y-88408213D02*
X133283390Y-88408213D01*
X133283390Y-88408213D02*
X133378628Y-88360594D01*
X133378628Y-88360594D02*
X133426247Y-88312975D01*
X133426247Y-88312975D02*
X133473866Y-88217737D01*
X133473866Y-88217737D02*
X133473866Y-88027261D01*
X133473866Y-88027261D02*
X133426247Y-87932023D01*
X133426247Y-87932023D02*
X133378628Y-87884404D01*
X133378628Y-87884404D02*
X133283390Y-87836785D01*
%TO.C,R10*%
X133804819Y-92590857D02*
X133328628Y-92924190D01*
X133804819Y-93162285D02*
X132804819Y-93162285D01*
X132804819Y-93162285D02*
X132804819Y-92781333D01*
X132804819Y-92781333D02*
X132852438Y-92686095D01*
X132852438Y-92686095D02*
X132900057Y-92638476D01*
X132900057Y-92638476D02*
X132995295Y-92590857D01*
X132995295Y-92590857D02*
X133138152Y-92590857D01*
X133138152Y-92590857D02*
X133233390Y-92638476D01*
X133233390Y-92638476D02*
X133281009Y-92686095D01*
X133281009Y-92686095D02*
X133328628Y-92781333D01*
X133328628Y-92781333D02*
X133328628Y-93162285D01*
X133804819Y-91638476D02*
X133804819Y-92209904D01*
X133804819Y-91924190D02*
X132804819Y-91924190D01*
X132804819Y-91924190D02*
X132947676Y-92019428D01*
X132947676Y-92019428D02*
X133042914Y-92114666D01*
X133042914Y-92114666D02*
X133090533Y-92209904D01*
X132804819Y-91019428D02*
X132804819Y-90924190D01*
X132804819Y-90924190D02*
X132852438Y-90828952D01*
X132852438Y-90828952D02*
X132900057Y-90781333D01*
X132900057Y-90781333D02*
X132995295Y-90733714D01*
X132995295Y-90733714D02*
X133185771Y-90686095D01*
X133185771Y-90686095D02*
X133423866Y-90686095D01*
X133423866Y-90686095D02*
X133614342Y-90733714D01*
X133614342Y-90733714D02*
X133709580Y-90781333D01*
X133709580Y-90781333D02*
X133757200Y-90828952D01*
X133757200Y-90828952D02*
X133804819Y-90924190D01*
X133804819Y-90924190D02*
X133804819Y-91019428D01*
X133804819Y-91019428D02*
X133757200Y-91114666D01*
X133757200Y-91114666D02*
X133709580Y-91162285D01*
X133709580Y-91162285D02*
X133614342Y-91209904D01*
X133614342Y-91209904D02*
X133423866Y-91257523D01*
X133423866Y-91257523D02*
X133185771Y-91257523D01*
X133185771Y-91257523D02*
X132995295Y-91209904D01*
X132995295Y-91209904D02*
X132900057Y-91162285D01*
X132900057Y-91162285D02*
X132852438Y-91114666D01*
X132852438Y-91114666D02*
X132804819Y-91019428D01*
%TO.C,R11*%
X114119819Y-84970857D02*
X113643628Y-85304190D01*
X114119819Y-85542285D02*
X113119819Y-85542285D01*
X113119819Y-85542285D02*
X113119819Y-85161333D01*
X113119819Y-85161333D02*
X113167438Y-85066095D01*
X113167438Y-85066095D02*
X113215057Y-85018476D01*
X113215057Y-85018476D02*
X113310295Y-84970857D01*
X113310295Y-84970857D02*
X113453152Y-84970857D01*
X113453152Y-84970857D02*
X113548390Y-85018476D01*
X113548390Y-85018476D02*
X113596009Y-85066095D01*
X113596009Y-85066095D02*
X113643628Y-85161333D01*
X113643628Y-85161333D02*
X113643628Y-85542285D01*
X114119819Y-84018476D02*
X114119819Y-84589904D01*
X114119819Y-84304190D02*
X113119819Y-84304190D01*
X113119819Y-84304190D02*
X113262676Y-84399428D01*
X113262676Y-84399428D02*
X113357914Y-84494666D01*
X113357914Y-84494666D02*
X113405533Y-84589904D01*
X114119819Y-83066095D02*
X114119819Y-83637523D01*
X114119819Y-83351809D02*
X113119819Y-83351809D01*
X113119819Y-83351809D02*
X113262676Y-83447047D01*
X113262676Y-83447047D02*
X113357914Y-83542285D01*
X113357914Y-83542285D02*
X113405533Y-83637523D01*
D10*
%TO.C,U2*%
X173318633Y-99733333D02*
X173885300Y-99733333D01*
X173885300Y-99733333D02*
X173951966Y-99700000D01*
X173951966Y-99700000D02*
X173985300Y-99666666D01*
X173985300Y-99666666D02*
X174018633Y-99600000D01*
X174018633Y-99600000D02*
X174018633Y-99466666D01*
X174018633Y-99466666D02*
X173985300Y-99400000D01*
X173985300Y-99400000D02*
X173951966Y-99366666D01*
X173951966Y-99366666D02*
X173885300Y-99333333D01*
X173885300Y-99333333D02*
X173318633Y-99333333D01*
X173385300Y-99033333D02*
X173351966Y-99000000D01*
X173351966Y-99000000D02*
X173318633Y-98933333D01*
X173318633Y-98933333D02*
X173318633Y-98766667D01*
X173318633Y-98766667D02*
X173351966Y-98700000D01*
X173351966Y-98700000D02*
X173385300Y-98666667D01*
X173385300Y-98666667D02*
X173451966Y-98633333D01*
X173451966Y-98633333D02*
X173518633Y-98633333D01*
X173518633Y-98633333D02*
X173618633Y-98666667D01*
X173618633Y-98666667D02*
X174018633Y-99066667D01*
X174018633Y-99066667D02*
X174018633Y-98633333D01*
%TO.C,U3*%
X155043133Y-84633333D02*
X155609800Y-84633333D01*
X155609800Y-84633333D02*
X155676466Y-84600000D01*
X155676466Y-84600000D02*
X155709800Y-84566666D01*
X155709800Y-84566666D02*
X155743133Y-84500000D01*
X155743133Y-84500000D02*
X155743133Y-84366666D01*
X155743133Y-84366666D02*
X155709800Y-84300000D01*
X155709800Y-84300000D02*
X155676466Y-84266666D01*
X155676466Y-84266666D02*
X155609800Y-84233333D01*
X155609800Y-84233333D02*
X155043133Y-84233333D01*
X155043133Y-83966667D02*
X155043133Y-83533333D01*
X155043133Y-83533333D02*
X155309800Y-83766667D01*
X155309800Y-83766667D02*
X155309800Y-83666667D01*
X155309800Y-83666667D02*
X155343133Y-83600000D01*
X155343133Y-83600000D02*
X155376466Y-83566667D01*
X155376466Y-83566667D02*
X155443133Y-83533333D01*
X155443133Y-83533333D02*
X155609800Y-83533333D01*
X155609800Y-83533333D02*
X155676466Y-83566667D01*
X155676466Y-83566667D02*
X155709800Y-83600000D01*
X155709800Y-83600000D02*
X155743133Y-83666667D01*
X155743133Y-83666667D02*
X155743133Y-83866667D01*
X155743133Y-83866667D02*
X155709800Y-83933333D01*
X155709800Y-83933333D02*
X155676466Y-83966667D01*
%TO.C,U4*%
X154184633Y-94462333D02*
X154751300Y-94462333D01*
X154751300Y-94462333D02*
X154817966Y-94429000D01*
X154817966Y-94429000D02*
X154851300Y-94395666D01*
X154851300Y-94395666D02*
X154884633Y-94329000D01*
X154884633Y-94329000D02*
X154884633Y-94195666D01*
X154884633Y-94195666D02*
X154851300Y-94129000D01*
X154851300Y-94129000D02*
X154817966Y-94095666D01*
X154817966Y-94095666D02*
X154751300Y-94062333D01*
X154751300Y-94062333D02*
X154184633Y-94062333D01*
X154417966Y-93429000D02*
X154884633Y-93429000D01*
X154151300Y-93595667D02*
X154651300Y-93762333D01*
X154651300Y-93762333D02*
X154651300Y-93329000D01*
D12*
%TO.C,C19*%
X157357142Y-100189580D02*
X157309523Y-100237200D01*
X157309523Y-100237200D02*
X157166666Y-100284819D01*
X157166666Y-100284819D02*
X157071428Y-100284819D01*
X157071428Y-100284819D02*
X156928571Y-100237200D01*
X156928571Y-100237200D02*
X156833333Y-100141961D01*
X156833333Y-100141961D02*
X156785714Y-100046723D01*
X156785714Y-100046723D02*
X156738095Y-99856247D01*
X156738095Y-99856247D02*
X156738095Y-99713390D01*
X156738095Y-99713390D02*
X156785714Y-99522914D01*
X156785714Y-99522914D02*
X156833333Y-99427676D01*
X156833333Y-99427676D02*
X156928571Y-99332438D01*
X156928571Y-99332438D02*
X157071428Y-99284819D01*
X157071428Y-99284819D02*
X157166666Y-99284819D01*
X157166666Y-99284819D02*
X157309523Y-99332438D01*
X157309523Y-99332438D02*
X157357142Y-99380057D01*
X158309523Y-100284819D02*
X157738095Y-100284819D01*
X158023809Y-100284819D02*
X158023809Y-99284819D01*
X158023809Y-99284819D02*
X157928571Y-99427676D01*
X157928571Y-99427676D02*
X157833333Y-99522914D01*
X157833333Y-99522914D02*
X157738095Y-99570533D01*
X158785714Y-100284819D02*
X158976190Y-100284819D01*
X158976190Y-100284819D02*
X159071428Y-100237200D01*
X159071428Y-100237200D02*
X159119047Y-100189580D01*
X159119047Y-100189580D02*
X159214285Y-100046723D01*
X159214285Y-100046723D02*
X159261904Y-99856247D01*
X159261904Y-99856247D02*
X159261904Y-99475295D01*
X159261904Y-99475295D02*
X159214285Y-99380057D01*
X159214285Y-99380057D02*
X159166666Y-99332438D01*
X159166666Y-99332438D02*
X159071428Y-99284819D01*
X159071428Y-99284819D02*
X158880952Y-99284819D01*
X158880952Y-99284819D02*
X158785714Y-99332438D01*
X158785714Y-99332438D02*
X158738095Y-99380057D01*
X158738095Y-99380057D02*
X158690476Y-99475295D01*
X158690476Y-99475295D02*
X158690476Y-99713390D01*
X158690476Y-99713390D02*
X158738095Y-99808628D01*
X158738095Y-99808628D02*
X158785714Y-99856247D01*
X158785714Y-99856247D02*
X158880952Y-99903866D01*
X158880952Y-99903866D02*
X159071428Y-99903866D01*
X159071428Y-99903866D02*
X159166666Y-99856247D01*
X159166666Y-99856247D02*
X159214285Y-99808628D01*
X159214285Y-99808628D02*
X159261904Y-99713390D01*
%TO.C,R12*%
X154140642Y-87308819D02*
X153807309Y-86832628D01*
X153569214Y-87308819D02*
X153569214Y-86308819D01*
X153569214Y-86308819D02*
X153950166Y-86308819D01*
X153950166Y-86308819D02*
X154045404Y-86356438D01*
X154045404Y-86356438D02*
X154093023Y-86404057D01*
X154093023Y-86404057D02*
X154140642Y-86499295D01*
X154140642Y-86499295D02*
X154140642Y-86642152D01*
X154140642Y-86642152D02*
X154093023Y-86737390D01*
X154093023Y-86737390D02*
X154045404Y-86785009D01*
X154045404Y-86785009D02*
X153950166Y-86832628D01*
X153950166Y-86832628D02*
X153569214Y-86832628D01*
X155093023Y-87308819D02*
X154521595Y-87308819D01*
X154807309Y-87308819D02*
X154807309Y-86308819D01*
X154807309Y-86308819D02*
X154712071Y-86451676D01*
X154712071Y-86451676D02*
X154616833Y-86546914D01*
X154616833Y-86546914D02*
X154521595Y-86594533D01*
X155473976Y-86404057D02*
X155521595Y-86356438D01*
X155521595Y-86356438D02*
X155616833Y-86308819D01*
X155616833Y-86308819D02*
X155854928Y-86308819D01*
X155854928Y-86308819D02*
X155950166Y-86356438D01*
X155950166Y-86356438D02*
X155997785Y-86404057D01*
X155997785Y-86404057D02*
X156045404Y-86499295D01*
X156045404Y-86499295D02*
X156045404Y-86594533D01*
X156045404Y-86594533D02*
X155997785Y-86737390D01*
X155997785Y-86737390D02*
X155426357Y-87308819D01*
X155426357Y-87308819D02*
X156045404Y-87308819D01*
%TO.C,C5*%
X167110580Y-106579666D02*
X167158200Y-106627285D01*
X167158200Y-106627285D02*
X167205819Y-106770142D01*
X167205819Y-106770142D02*
X167205819Y-106865380D01*
X167205819Y-106865380D02*
X167158200Y-107008237D01*
X167158200Y-107008237D02*
X167062961Y-107103475D01*
X167062961Y-107103475D02*
X166967723Y-107151094D01*
X166967723Y-107151094D02*
X166777247Y-107198713D01*
X166777247Y-107198713D02*
X166634390Y-107198713D01*
X166634390Y-107198713D02*
X166443914Y-107151094D01*
X166443914Y-107151094D02*
X166348676Y-107103475D01*
X166348676Y-107103475D02*
X166253438Y-107008237D01*
X166253438Y-107008237D02*
X166205819Y-106865380D01*
X166205819Y-106865380D02*
X166205819Y-106770142D01*
X166205819Y-106770142D02*
X166253438Y-106627285D01*
X166253438Y-106627285D02*
X166301057Y-106579666D01*
X166205819Y-105674904D02*
X166205819Y-106151094D01*
X166205819Y-106151094D02*
X166682009Y-106198713D01*
X166682009Y-106198713D02*
X166634390Y-106151094D01*
X166634390Y-106151094D02*
X166586771Y-106055856D01*
X166586771Y-106055856D02*
X166586771Y-105817761D01*
X166586771Y-105817761D02*
X166634390Y-105722523D01*
X166634390Y-105722523D02*
X166682009Y-105674904D01*
X166682009Y-105674904D02*
X166777247Y-105627285D01*
X166777247Y-105627285D02*
X167015342Y-105627285D01*
X167015342Y-105627285D02*
X167110580Y-105674904D01*
X167110580Y-105674904D02*
X167158200Y-105722523D01*
X167158200Y-105722523D02*
X167205819Y-105817761D01*
X167205819Y-105817761D02*
X167205819Y-106055856D01*
X167205819Y-106055856D02*
X167158200Y-106151094D01*
X167158200Y-106151094D02*
X167110580Y-106198713D01*
%TO.C,C20*%
X148757142Y-108109580D02*
X148709523Y-108157200D01*
X148709523Y-108157200D02*
X148566666Y-108204819D01*
X148566666Y-108204819D02*
X148471428Y-108204819D01*
X148471428Y-108204819D02*
X148328571Y-108157200D01*
X148328571Y-108157200D02*
X148233333Y-108061961D01*
X148233333Y-108061961D02*
X148185714Y-107966723D01*
X148185714Y-107966723D02*
X148138095Y-107776247D01*
X148138095Y-107776247D02*
X148138095Y-107633390D01*
X148138095Y-107633390D02*
X148185714Y-107442914D01*
X148185714Y-107442914D02*
X148233333Y-107347676D01*
X148233333Y-107347676D02*
X148328571Y-107252438D01*
X148328571Y-107252438D02*
X148471428Y-107204819D01*
X148471428Y-107204819D02*
X148566666Y-107204819D01*
X148566666Y-107204819D02*
X148709523Y-107252438D01*
X148709523Y-107252438D02*
X148757142Y-107300057D01*
X149138095Y-107300057D02*
X149185714Y-107252438D01*
X149185714Y-107252438D02*
X149280952Y-107204819D01*
X149280952Y-107204819D02*
X149519047Y-107204819D01*
X149519047Y-107204819D02*
X149614285Y-107252438D01*
X149614285Y-107252438D02*
X149661904Y-107300057D01*
X149661904Y-107300057D02*
X149709523Y-107395295D01*
X149709523Y-107395295D02*
X149709523Y-107490533D01*
X149709523Y-107490533D02*
X149661904Y-107633390D01*
X149661904Y-107633390D02*
X149090476Y-108204819D01*
X149090476Y-108204819D02*
X149709523Y-108204819D01*
X150328571Y-107204819D02*
X150423809Y-107204819D01*
X150423809Y-107204819D02*
X150519047Y-107252438D01*
X150519047Y-107252438D02*
X150566666Y-107300057D01*
X150566666Y-107300057D02*
X150614285Y-107395295D01*
X150614285Y-107395295D02*
X150661904Y-107585771D01*
X150661904Y-107585771D02*
X150661904Y-107823866D01*
X150661904Y-107823866D02*
X150614285Y-108014342D01*
X150614285Y-108014342D02*
X150566666Y-108109580D01*
X150566666Y-108109580D02*
X150519047Y-108157200D01*
X150519047Y-108157200D02*
X150423809Y-108204819D01*
X150423809Y-108204819D02*
X150328571Y-108204819D01*
X150328571Y-108204819D02*
X150233333Y-108157200D01*
X150233333Y-108157200D02*
X150185714Y-108109580D01*
X150185714Y-108109580D02*
X150138095Y-108014342D01*
X150138095Y-108014342D02*
X150090476Y-107823866D01*
X150090476Y-107823866D02*
X150090476Y-107585771D01*
X150090476Y-107585771D02*
X150138095Y-107395295D01*
X150138095Y-107395295D02*
X150185714Y-107300057D01*
X150185714Y-107300057D02*
X150233333Y-107252438D01*
X150233333Y-107252438D02*
X150328571Y-107204819D01*
%TO.C,R13*%
X152404819Y-111342857D02*
X151928628Y-111676190D01*
X152404819Y-111914285D02*
X151404819Y-111914285D01*
X151404819Y-111914285D02*
X151404819Y-111533333D01*
X151404819Y-111533333D02*
X151452438Y-111438095D01*
X151452438Y-111438095D02*
X151500057Y-111390476D01*
X151500057Y-111390476D02*
X151595295Y-111342857D01*
X151595295Y-111342857D02*
X151738152Y-111342857D01*
X151738152Y-111342857D02*
X151833390Y-111390476D01*
X151833390Y-111390476D02*
X151881009Y-111438095D01*
X151881009Y-111438095D02*
X151928628Y-111533333D01*
X151928628Y-111533333D02*
X151928628Y-111914285D01*
X152404819Y-110390476D02*
X152404819Y-110961904D01*
X152404819Y-110676190D02*
X151404819Y-110676190D01*
X151404819Y-110676190D02*
X151547676Y-110771428D01*
X151547676Y-110771428D02*
X151642914Y-110866666D01*
X151642914Y-110866666D02*
X151690533Y-110961904D01*
X151404819Y-110057142D02*
X151404819Y-109438095D01*
X151404819Y-109438095D02*
X151785771Y-109771428D01*
X151785771Y-109771428D02*
X151785771Y-109628571D01*
X151785771Y-109628571D02*
X151833390Y-109533333D01*
X151833390Y-109533333D02*
X151881009Y-109485714D01*
X151881009Y-109485714D02*
X151976247Y-109438095D01*
X151976247Y-109438095D02*
X152214342Y-109438095D01*
X152214342Y-109438095D02*
X152309580Y-109485714D01*
X152309580Y-109485714D02*
X152357200Y-109533333D01*
X152357200Y-109533333D02*
X152404819Y-109628571D01*
X152404819Y-109628571D02*
X152404819Y-109914285D01*
X152404819Y-109914285D02*
X152357200Y-110009523D01*
X152357200Y-110009523D02*
X152309580Y-110057142D01*
%TO.C,J4*%
X162016666Y-82494819D02*
X162016666Y-83209104D01*
X162016666Y-83209104D02*
X161969047Y-83351961D01*
X161969047Y-83351961D02*
X161873809Y-83447200D01*
X161873809Y-83447200D02*
X161730952Y-83494819D01*
X161730952Y-83494819D02*
X161635714Y-83494819D01*
X162921428Y-82828152D02*
X162921428Y-83494819D01*
X162683333Y-82447200D02*
X162445238Y-83161485D01*
X162445238Y-83161485D02*
X163064285Y-83161485D01*
%TO.C,C4*%
X163133333Y-88259580D02*
X163085714Y-88307200D01*
X163085714Y-88307200D02*
X162942857Y-88354819D01*
X162942857Y-88354819D02*
X162847619Y-88354819D01*
X162847619Y-88354819D02*
X162704762Y-88307200D01*
X162704762Y-88307200D02*
X162609524Y-88211961D01*
X162609524Y-88211961D02*
X162561905Y-88116723D01*
X162561905Y-88116723D02*
X162514286Y-87926247D01*
X162514286Y-87926247D02*
X162514286Y-87783390D01*
X162514286Y-87783390D02*
X162561905Y-87592914D01*
X162561905Y-87592914D02*
X162609524Y-87497676D01*
X162609524Y-87497676D02*
X162704762Y-87402438D01*
X162704762Y-87402438D02*
X162847619Y-87354819D01*
X162847619Y-87354819D02*
X162942857Y-87354819D01*
X162942857Y-87354819D02*
X163085714Y-87402438D01*
X163085714Y-87402438D02*
X163133333Y-87450057D01*
X163990476Y-87688152D02*
X163990476Y-88354819D01*
X163752381Y-87307200D02*
X163514286Y-88021485D01*
X163514286Y-88021485D02*
X164133333Y-88021485D01*
%TO.C,C6*%
X170939580Y-103866666D02*
X170987200Y-103914285D01*
X170987200Y-103914285D02*
X171034819Y-104057142D01*
X171034819Y-104057142D02*
X171034819Y-104152380D01*
X171034819Y-104152380D02*
X170987200Y-104295237D01*
X170987200Y-104295237D02*
X170891961Y-104390475D01*
X170891961Y-104390475D02*
X170796723Y-104438094D01*
X170796723Y-104438094D02*
X170606247Y-104485713D01*
X170606247Y-104485713D02*
X170463390Y-104485713D01*
X170463390Y-104485713D02*
X170272914Y-104438094D01*
X170272914Y-104438094D02*
X170177676Y-104390475D01*
X170177676Y-104390475D02*
X170082438Y-104295237D01*
X170082438Y-104295237D02*
X170034819Y-104152380D01*
X170034819Y-104152380D02*
X170034819Y-104057142D01*
X170034819Y-104057142D02*
X170082438Y-103914285D01*
X170082438Y-103914285D02*
X170130057Y-103866666D01*
X170034819Y-103009523D02*
X170034819Y-103199999D01*
X170034819Y-103199999D02*
X170082438Y-103295237D01*
X170082438Y-103295237D02*
X170130057Y-103342856D01*
X170130057Y-103342856D02*
X170272914Y-103438094D01*
X170272914Y-103438094D02*
X170463390Y-103485713D01*
X170463390Y-103485713D02*
X170844342Y-103485713D01*
X170844342Y-103485713D02*
X170939580Y-103438094D01*
X170939580Y-103438094D02*
X170987200Y-103390475D01*
X170987200Y-103390475D02*
X171034819Y-103295237D01*
X171034819Y-103295237D02*
X171034819Y-103104761D01*
X171034819Y-103104761D02*
X170987200Y-103009523D01*
X170987200Y-103009523D02*
X170939580Y-102961904D01*
X170939580Y-102961904D02*
X170844342Y-102914285D01*
X170844342Y-102914285D02*
X170606247Y-102914285D01*
X170606247Y-102914285D02*
X170511009Y-102961904D01*
X170511009Y-102961904D02*
X170463390Y-103009523D01*
X170463390Y-103009523D02*
X170415771Y-103104761D01*
X170415771Y-103104761D02*
X170415771Y-103295237D01*
X170415771Y-103295237D02*
X170463390Y-103390475D01*
X170463390Y-103390475D02*
X170511009Y-103438094D01*
X170511009Y-103438094D02*
X170606247Y-103485713D01*
%TO.C,R19*%
X125457142Y-99130819D02*
X125123809Y-98654628D01*
X124885714Y-99130819D02*
X124885714Y-98130819D01*
X124885714Y-98130819D02*
X125266666Y-98130819D01*
X125266666Y-98130819D02*
X125361904Y-98178438D01*
X125361904Y-98178438D02*
X125409523Y-98226057D01*
X125409523Y-98226057D02*
X125457142Y-98321295D01*
X125457142Y-98321295D02*
X125457142Y-98464152D01*
X125457142Y-98464152D02*
X125409523Y-98559390D01*
X125409523Y-98559390D02*
X125361904Y-98607009D01*
X125361904Y-98607009D02*
X125266666Y-98654628D01*
X125266666Y-98654628D02*
X124885714Y-98654628D01*
X126409523Y-99130819D02*
X125838095Y-99130819D01*
X126123809Y-99130819D02*
X126123809Y-98130819D01*
X126123809Y-98130819D02*
X126028571Y-98273676D01*
X126028571Y-98273676D02*
X125933333Y-98368914D01*
X125933333Y-98368914D02*
X125838095Y-98416533D01*
X126885714Y-99130819D02*
X127076190Y-99130819D01*
X127076190Y-99130819D02*
X127171428Y-99083200D01*
X127171428Y-99083200D02*
X127219047Y-99035580D01*
X127219047Y-99035580D02*
X127314285Y-98892723D01*
X127314285Y-98892723D02*
X127361904Y-98702247D01*
X127361904Y-98702247D02*
X127361904Y-98321295D01*
X127361904Y-98321295D02*
X127314285Y-98226057D01*
X127314285Y-98226057D02*
X127266666Y-98178438D01*
X127266666Y-98178438D02*
X127171428Y-98130819D01*
X127171428Y-98130819D02*
X126980952Y-98130819D01*
X126980952Y-98130819D02*
X126885714Y-98178438D01*
X126885714Y-98178438D02*
X126838095Y-98226057D01*
X126838095Y-98226057D02*
X126790476Y-98321295D01*
X126790476Y-98321295D02*
X126790476Y-98559390D01*
X126790476Y-98559390D02*
X126838095Y-98654628D01*
X126838095Y-98654628D02*
X126885714Y-98702247D01*
X126885714Y-98702247D02*
X126980952Y-98749866D01*
X126980952Y-98749866D02*
X127171428Y-98749866D01*
X127171428Y-98749866D02*
X127266666Y-98702247D01*
X127266666Y-98702247D02*
X127314285Y-98654628D01*
X127314285Y-98654628D02*
X127361904Y-98559390D01*
%TO.C,R28*%
X106799142Y-109142819D02*
X106465809Y-108666628D01*
X106227714Y-109142819D02*
X106227714Y-108142819D01*
X106227714Y-108142819D02*
X106608666Y-108142819D01*
X106608666Y-108142819D02*
X106703904Y-108190438D01*
X106703904Y-108190438D02*
X106751523Y-108238057D01*
X106751523Y-108238057D02*
X106799142Y-108333295D01*
X106799142Y-108333295D02*
X106799142Y-108476152D01*
X106799142Y-108476152D02*
X106751523Y-108571390D01*
X106751523Y-108571390D02*
X106703904Y-108619009D01*
X106703904Y-108619009D02*
X106608666Y-108666628D01*
X106608666Y-108666628D02*
X106227714Y-108666628D01*
X107180095Y-108238057D02*
X107227714Y-108190438D01*
X107227714Y-108190438D02*
X107322952Y-108142819D01*
X107322952Y-108142819D02*
X107561047Y-108142819D01*
X107561047Y-108142819D02*
X107656285Y-108190438D01*
X107656285Y-108190438D02*
X107703904Y-108238057D01*
X107703904Y-108238057D02*
X107751523Y-108333295D01*
X107751523Y-108333295D02*
X107751523Y-108428533D01*
X107751523Y-108428533D02*
X107703904Y-108571390D01*
X107703904Y-108571390D02*
X107132476Y-109142819D01*
X107132476Y-109142819D02*
X107751523Y-109142819D01*
X108322952Y-108571390D02*
X108227714Y-108523771D01*
X108227714Y-108523771D02*
X108180095Y-108476152D01*
X108180095Y-108476152D02*
X108132476Y-108380914D01*
X108132476Y-108380914D02*
X108132476Y-108333295D01*
X108132476Y-108333295D02*
X108180095Y-108238057D01*
X108180095Y-108238057D02*
X108227714Y-108190438D01*
X108227714Y-108190438D02*
X108322952Y-108142819D01*
X108322952Y-108142819D02*
X108513428Y-108142819D01*
X108513428Y-108142819D02*
X108608666Y-108190438D01*
X108608666Y-108190438D02*
X108656285Y-108238057D01*
X108656285Y-108238057D02*
X108703904Y-108333295D01*
X108703904Y-108333295D02*
X108703904Y-108380914D01*
X108703904Y-108380914D02*
X108656285Y-108476152D01*
X108656285Y-108476152D02*
X108608666Y-108523771D01*
X108608666Y-108523771D02*
X108513428Y-108571390D01*
X108513428Y-108571390D02*
X108322952Y-108571390D01*
X108322952Y-108571390D02*
X108227714Y-108619009D01*
X108227714Y-108619009D02*
X108180095Y-108666628D01*
X108180095Y-108666628D02*
X108132476Y-108761866D01*
X108132476Y-108761866D02*
X108132476Y-108952342D01*
X108132476Y-108952342D02*
X108180095Y-109047580D01*
X108180095Y-109047580D02*
X108227714Y-109095200D01*
X108227714Y-109095200D02*
X108322952Y-109142819D01*
X108322952Y-109142819D02*
X108513428Y-109142819D01*
X108513428Y-109142819D02*
X108608666Y-109095200D01*
X108608666Y-109095200D02*
X108656285Y-109047580D01*
X108656285Y-109047580D02*
X108703904Y-108952342D01*
X108703904Y-108952342D02*
X108703904Y-108761866D01*
X108703904Y-108761866D02*
X108656285Y-108666628D01*
X108656285Y-108666628D02*
X108608666Y-108619009D01*
X108608666Y-108619009D02*
X108513428Y-108571390D01*
%TO.C,R30*%
X174554819Y-82142857D02*
X174078628Y-82476190D01*
X174554819Y-82714285D02*
X173554819Y-82714285D01*
X173554819Y-82714285D02*
X173554819Y-82333333D01*
X173554819Y-82333333D02*
X173602438Y-82238095D01*
X173602438Y-82238095D02*
X173650057Y-82190476D01*
X173650057Y-82190476D02*
X173745295Y-82142857D01*
X173745295Y-82142857D02*
X173888152Y-82142857D01*
X173888152Y-82142857D02*
X173983390Y-82190476D01*
X173983390Y-82190476D02*
X174031009Y-82238095D01*
X174031009Y-82238095D02*
X174078628Y-82333333D01*
X174078628Y-82333333D02*
X174078628Y-82714285D01*
X173554819Y-81809523D02*
X173554819Y-81190476D01*
X173554819Y-81190476D02*
X173935771Y-81523809D01*
X173935771Y-81523809D02*
X173935771Y-81380952D01*
X173935771Y-81380952D02*
X173983390Y-81285714D01*
X173983390Y-81285714D02*
X174031009Y-81238095D01*
X174031009Y-81238095D02*
X174126247Y-81190476D01*
X174126247Y-81190476D02*
X174364342Y-81190476D01*
X174364342Y-81190476D02*
X174459580Y-81238095D01*
X174459580Y-81238095D02*
X174507200Y-81285714D01*
X174507200Y-81285714D02*
X174554819Y-81380952D01*
X174554819Y-81380952D02*
X174554819Y-81666666D01*
X174554819Y-81666666D02*
X174507200Y-81761904D01*
X174507200Y-81761904D02*
X174459580Y-81809523D01*
X173554819Y-80571428D02*
X173554819Y-80476190D01*
X173554819Y-80476190D02*
X173602438Y-80380952D01*
X173602438Y-80380952D02*
X173650057Y-80333333D01*
X173650057Y-80333333D02*
X173745295Y-80285714D01*
X173745295Y-80285714D02*
X173935771Y-80238095D01*
X173935771Y-80238095D02*
X174173866Y-80238095D01*
X174173866Y-80238095D02*
X174364342Y-80285714D01*
X174364342Y-80285714D02*
X174459580Y-80333333D01*
X174459580Y-80333333D02*
X174507200Y-80380952D01*
X174507200Y-80380952D02*
X174554819Y-80476190D01*
X174554819Y-80476190D02*
X174554819Y-80571428D01*
X174554819Y-80571428D02*
X174507200Y-80666666D01*
X174507200Y-80666666D02*
X174459580Y-80714285D01*
X174459580Y-80714285D02*
X174364342Y-80761904D01*
X174364342Y-80761904D02*
X174173866Y-80809523D01*
X174173866Y-80809523D02*
X173935771Y-80809523D01*
X173935771Y-80809523D02*
X173745295Y-80761904D01*
X173745295Y-80761904D02*
X173650057Y-80714285D01*
X173650057Y-80714285D02*
X173602438Y-80666666D01*
X173602438Y-80666666D02*
X173554819Y-80571428D01*
%TO.C,R32*%
X107374819Y-100442857D02*
X106898628Y-100776190D01*
X107374819Y-101014285D02*
X106374819Y-101014285D01*
X106374819Y-101014285D02*
X106374819Y-100633333D01*
X106374819Y-100633333D02*
X106422438Y-100538095D01*
X106422438Y-100538095D02*
X106470057Y-100490476D01*
X106470057Y-100490476D02*
X106565295Y-100442857D01*
X106565295Y-100442857D02*
X106708152Y-100442857D01*
X106708152Y-100442857D02*
X106803390Y-100490476D01*
X106803390Y-100490476D02*
X106851009Y-100538095D01*
X106851009Y-100538095D02*
X106898628Y-100633333D01*
X106898628Y-100633333D02*
X106898628Y-101014285D01*
X106374819Y-100109523D02*
X106374819Y-99490476D01*
X106374819Y-99490476D02*
X106755771Y-99823809D01*
X106755771Y-99823809D02*
X106755771Y-99680952D01*
X106755771Y-99680952D02*
X106803390Y-99585714D01*
X106803390Y-99585714D02*
X106851009Y-99538095D01*
X106851009Y-99538095D02*
X106946247Y-99490476D01*
X106946247Y-99490476D02*
X107184342Y-99490476D01*
X107184342Y-99490476D02*
X107279580Y-99538095D01*
X107279580Y-99538095D02*
X107327200Y-99585714D01*
X107327200Y-99585714D02*
X107374819Y-99680952D01*
X107374819Y-99680952D02*
X107374819Y-99966666D01*
X107374819Y-99966666D02*
X107327200Y-100061904D01*
X107327200Y-100061904D02*
X107279580Y-100109523D01*
X106470057Y-99109523D02*
X106422438Y-99061904D01*
X106422438Y-99061904D02*
X106374819Y-98966666D01*
X106374819Y-98966666D02*
X106374819Y-98728571D01*
X106374819Y-98728571D02*
X106422438Y-98633333D01*
X106422438Y-98633333D02*
X106470057Y-98585714D01*
X106470057Y-98585714D02*
X106565295Y-98538095D01*
X106565295Y-98538095D02*
X106660533Y-98538095D01*
X106660533Y-98538095D02*
X106803390Y-98585714D01*
X106803390Y-98585714D02*
X107374819Y-99157142D01*
X107374819Y-99157142D02*
X107374819Y-98538095D01*
%TO.C,R27*%
X153457142Y-101404819D02*
X153123809Y-100928628D01*
X152885714Y-101404819D02*
X152885714Y-100404819D01*
X152885714Y-100404819D02*
X153266666Y-100404819D01*
X153266666Y-100404819D02*
X153361904Y-100452438D01*
X153361904Y-100452438D02*
X153409523Y-100500057D01*
X153409523Y-100500057D02*
X153457142Y-100595295D01*
X153457142Y-100595295D02*
X153457142Y-100738152D01*
X153457142Y-100738152D02*
X153409523Y-100833390D01*
X153409523Y-100833390D02*
X153361904Y-100881009D01*
X153361904Y-100881009D02*
X153266666Y-100928628D01*
X153266666Y-100928628D02*
X152885714Y-100928628D01*
X153838095Y-100500057D02*
X153885714Y-100452438D01*
X153885714Y-100452438D02*
X153980952Y-100404819D01*
X153980952Y-100404819D02*
X154219047Y-100404819D01*
X154219047Y-100404819D02*
X154314285Y-100452438D01*
X154314285Y-100452438D02*
X154361904Y-100500057D01*
X154361904Y-100500057D02*
X154409523Y-100595295D01*
X154409523Y-100595295D02*
X154409523Y-100690533D01*
X154409523Y-100690533D02*
X154361904Y-100833390D01*
X154361904Y-100833390D02*
X153790476Y-101404819D01*
X153790476Y-101404819D02*
X154409523Y-101404819D01*
X154742857Y-100404819D02*
X155409523Y-100404819D01*
X155409523Y-100404819D02*
X154980952Y-101404819D01*
%TO.C,R31*%
X174354819Y-97042857D02*
X173878628Y-97376190D01*
X174354819Y-97614285D02*
X173354819Y-97614285D01*
X173354819Y-97614285D02*
X173354819Y-97233333D01*
X173354819Y-97233333D02*
X173402438Y-97138095D01*
X173402438Y-97138095D02*
X173450057Y-97090476D01*
X173450057Y-97090476D02*
X173545295Y-97042857D01*
X173545295Y-97042857D02*
X173688152Y-97042857D01*
X173688152Y-97042857D02*
X173783390Y-97090476D01*
X173783390Y-97090476D02*
X173831009Y-97138095D01*
X173831009Y-97138095D02*
X173878628Y-97233333D01*
X173878628Y-97233333D02*
X173878628Y-97614285D01*
X173354819Y-96709523D02*
X173354819Y-96090476D01*
X173354819Y-96090476D02*
X173735771Y-96423809D01*
X173735771Y-96423809D02*
X173735771Y-96280952D01*
X173735771Y-96280952D02*
X173783390Y-96185714D01*
X173783390Y-96185714D02*
X173831009Y-96138095D01*
X173831009Y-96138095D02*
X173926247Y-96090476D01*
X173926247Y-96090476D02*
X174164342Y-96090476D01*
X174164342Y-96090476D02*
X174259580Y-96138095D01*
X174259580Y-96138095D02*
X174307200Y-96185714D01*
X174307200Y-96185714D02*
X174354819Y-96280952D01*
X174354819Y-96280952D02*
X174354819Y-96566666D01*
X174354819Y-96566666D02*
X174307200Y-96661904D01*
X174307200Y-96661904D02*
X174259580Y-96709523D01*
X174354819Y-95138095D02*
X174354819Y-95709523D01*
X174354819Y-95423809D02*
X173354819Y-95423809D01*
X173354819Y-95423809D02*
X173497676Y-95519047D01*
X173497676Y-95519047D02*
X173592914Y-95614285D01*
X173592914Y-95614285D02*
X173640533Y-95709523D01*
%TO.C,R29*%
X178084819Y-94242857D02*
X177608628Y-94576190D01*
X178084819Y-94814285D02*
X177084819Y-94814285D01*
X177084819Y-94814285D02*
X177084819Y-94433333D01*
X177084819Y-94433333D02*
X177132438Y-94338095D01*
X177132438Y-94338095D02*
X177180057Y-94290476D01*
X177180057Y-94290476D02*
X177275295Y-94242857D01*
X177275295Y-94242857D02*
X177418152Y-94242857D01*
X177418152Y-94242857D02*
X177513390Y-94290476D01*
X177513390Y-94290476D02*
X177561009Y-94338095D01*
X177561009Y-94338095D02*
X177608628Y-94433333D01*
X177608628Y-94433333D02*
X177608628Y-94814285D01*
X177180057Y-93861904D02*
X177132438Y-93814285D01*
X177132438Y-93814285D02*
X177084819Y-93719047D01*
X177084819Y-93719047D02*
X177084819Y-93480952D01*
X177084819Y-93480952D02*
X177132438Y-93385714D01*
X177132438Y-93385714D02*
X177180057Y-93338095D01*
X177180057Y-93338095D02*
X177275295Y-93290476D01*
X177275295Y-93290476D02*
X177370533Y-93290476D01*
X177370533Y-93290476D02*
X177513390Y-93338095D01*
X177513390Y-93338095D02*
X178084819Y-93909523D01*
X178084819Y-93909523D02*
X178084819Y-93290476D01*
X178084819Y-92814285D02*
X178084819Y-92623809D01*
X178084819Y-92623809D02*
X178037200Y-92528571D01*
X178037200Y-92528571D02*
X177989580Y-92480952D01*
X177989580Y-92480952D02*
X177846723Y-92385714D01*
X177846723Y-92385714D02*
X177656247Y-92338095D01*
X177656247Y-92338095D02*
X177275295Y-92338095D01*
X177275295Y-92338095D02*
X177180057Y-92385714D01*
X177180057Y-92385714D02*
X177132438Y-92433333D01*
X177132438Y-92433333D02*
X177084819Y-92528571D01*
X177084819Y-92528571D02*
X177084819Y-92719047D01*
X177084819Y-92719047D02*
X177132438Y-92814285D01*
X177132438Y-92814285D02*
X177180057Y-92861904D01*
X177180057Y-92861904D02*
X177275295Y-92909523D01*
X177275295Y-92909523D02*
X177513390Y-92909523D01*
X177513390Y-92909523D02*
X177608628Y-92861904D01*
X177608628Y-92861904D02*
X177656247Y-92814285D01*
X177656247Y-92814285D02*
X177703866Y-92719047D01*
X177703866Y-92719047D02*
X177703866Y-92528571D01*
X177703866Y-92528571D02*
X177656247Y-92433333D01*
X177656247Y-92433333D02*
X177608628Y-92385714D01*
X177608628Y-92385714D02*
X177513390Y-92338095D01*
%TO.C,J2*%
X114504819Y-90883333D02*
X115219104Y-90883333D01*
X115219104Y-90883333D02*
X115361961Y-90930952D01*
X115361961Y-90930952D02*
X115457200Y-91026190D01*
X115457200Y-91026190D02*
X115504819Y-91169047D01*
X115504819Y-91169047D02*
X115504819Y-91264285D01*
X114600057Y-90454761D02*
X114552438Y-90407142D01*
X114552438Y-90407142D02*
X114504819Y-90311904D01*
X114504819Y-90311904D02*
X114504819Y-90073809D01*
X114504819Y-90073809D02*
X114552438Y-89978571D01*
X114552438Y-89978571D02*
X114600057Y-89930952D01*
X114600057Y-89930952D02*
X114695295Y-89883333D01*
X114695295Y-89883333D02*
X114790533Y-89883333D01*
X114790533Y-89883333D02*
X114933390Y-89930952D01*
X114933390Y-89930952D02*
X115504819Y-90502380D01*
X115504819Y-90502380D02*
X115504819Y-89883333D01*
%TO.C,R25*%
X124657819Y-114307857D02*
X124181628Y-114641190D01*
X124657819Y-114879285D02*
X123657819Y-114879285D01*
X123657819Y-114879285D02*
X123657819Y-114498333D01*
X123657819Y-114498333D02*
X123705438Y-114403095D01*
X123705438Y-114403095D02*
X123753057Y-114355476D01*
X123753057Y-114355476D02*
X123848295Y-114307857D01*
X123848295Y-114307857D02*
X123991152Y-114307857D01*
X123991152Y-114307857D02*
X124086390Y-114355476D01*
X124086390Y-114355476D02*
X124134009Y-114403095D01*
X124134009Y-114403095D02*
X124181628Y-114498333D01*
X124181628Y-114498333D02*
X124181628Y-114879285D01*
X123753057Y-113926904D02*
X123705438Y-113879285D01*
X123705438Y-113879285D02*
X123657819Y-113784047D01*
X123657819Y-113784047D02*
X123657819Y-113545952D01*
X123657819Y-113545952D02*
X123705438Y-113450714D01*
X123705438Y-113450714D02*
X123753057Y-113403095D01*
X123753057Y-113403095D02*
X123848295Y-113355476D01*
X123848295Y-113355476D02*
X123943533Y-113355476D01*
X123943533Y-113355476D02*
X124086390Y-113403095D01*
X124086390Y-113403095D02*
X124657819Y-113974523D01*
X124657819Y-113974523D02*
X124657819Y-113355476D01*
X123657819Y-112450714D02*
X123657819Y-112926904D01*
X123657819Y-112926904D02*
X124134009Y-112974523D01*
X124134009Y-112974523D02*
X124086390Y-112926904D01*
X124086390Y-112926904D02*
X124038771Y-112831666D01*
X124038771Y-112831666D02*
X124038771Y-112593571D01*
X124038771Y-112593571D02*
X124086390Y-112498333D01*
X124086390Y-112498333D02*
X124134009Y-112450714D01*
X124134009Y-112450714D02*
X124229247Y-112403095D01*
X124229247Y-112403095D02*
X124467342Y-112403095D01*
X124467342Y-112403095D02*
X124562580Y-112450714D01*
X124562580Y-112450714D02*
X124610200Y-112498333D01*
X124610200Y-112498333D02*
X124657819Y-112593571D01*
X124657819Y-112593571D02*
X124657819Y-112831666D01*
X124657819Y-112831666D02*
X124610200Y-112926904D01*
X124610200Y-112926904D02*
X124562580Y-112974523D01*
%TO.C,R26*%
X109954819Y-81742857D02*
X109478628Y-82076190D01*
X109954819Y-82314285D02*
X108954819Y-82314285D01*
X108954819Y-82314285D02*
X108954819Y-81933333D01*
X108954819Y-81933333D02*
X109002438Y-81838095D01*
X109002438Y-81838095D02*
X109050057Y-81790476D01*
X109050057Y-81790476D02*
X109145295Y-81742857D01*
X109145295Y-81742857D02*
X109288152Y-81742857D01*
X109288152Y-81742857D02*
X109383390Y-81790476D01*
X109383390Y-81790476D02*
X109431009Y-81838095D01*
X109431009Y-81838095D02*
X109478628Y-81933333D01*
X109478628Y-81933333D02*
X109478628Y-82314285D01*
X109050057Y-81361904D02*
X109002438Y-81314285D01*
X109002438Y-81314285D02*
X108954819Y-81219047D01*
X108954819Y-81219047D02*
X108954819Y-80980952D01*
X108954819Y-80980952D02*
X109002438Y-80885714D01*
X109002438Y-80885714D02*
X109050057Y-80838095D01*
X109050057Y-80838095D02*
X109145295Y-80790476D01*
X109145295Y-80790476D02*
X109240533Y-80790476D01*
X109240533Y-80790476D02*
X109383390Y-80838095D01*
X109383390Y-80838095D02*
X109954819Y-81409523D01*
X109954819Y-81409523D02*
X109954819Y-80790476D01*
X108954819Y-79933333D02*
X108954819Y-80123809D01*
X108954819Y-80123809D02*
X109002438Y-80219047D01*
X109002438Y-80219047D02*
X109050057Y-80266666D01*
X109050057Y-80266666D02*
X109192914Y-80361904D01*
X109192914Y-80361904D02*
X109383390Y-80409523D01*
X109383390Y-80409523D02*
X109764342Y-80409523D01*
X109764342Y-80409523D02*
X109859580Y-80361904D01*
X109859580Y-80361904D02*
X109907200Y-80314285D01*
X109907200Y-80314285D02*
X109954819Y-80219047D01*
X109954819Y-80219047D02*
X109954819Y-80028571D01*
X109954819Y-80028571D02*
X109907200Y-79933333D01*
X109907200Y-79933333D02*
X109859580Y-79885714D01*
X109859580Y-79885714D02*
X109764342Y-79838095D01*
X109764342Y-79838095D02*
X109526247Y-79838095D01*
X109526247Y-79838095D02*
X109431009Y-79885714D01*
X109431009Y-79885714D02*
X109383390Y-79933333D01*
X109383390Y-79933333D02*
X109335771Y-80028571D01*
X109335771Y-80028571D02*
X109335771Y-80219047D01*
X109335771Y-80219047D02*
X109383390Y-80314285D01*
X109383390Y-80314285D02*
X109431009Y-80361904D01*
X109431009Y-80361904D02*
X109526247Y-80409523D01*
%TO.C,R4*%
X107504819Y-84766666D02*
X107028628Y-85099999D01*
X107504819Y-85338094D02*
X106504819Y-85338094D01*
X106504819Y-85338094D02*
X106504819Y-84957142D01*
X106504819Y-84957142D02*
X106552438Y-84861904D01*
X106552438Y-84861904D02*
X106600057Y-84814285D01*
X106600057Y-84814285D02*
X106695295Y-84766666D01*
X106695295Y-84766666D02*
X106838152Y-84766666D01*
X106838152Y-84766666D02*
X106933390Y-84814285D01*
X106933390Y-84814285D02*
X106981009Y-84861904D01*
X106981009Y-84861904D02*
X107028628Y-84957142D01*
X107028628Y-84957142D02*
X107028628Y-85338094D01*
X106838152Y-83909523D02*
X107504819Y-83909523D01*
X106457200Y-84147618D02*
X107171485Y-84385713D01*
X107171485Y-84385713D02*
X107171485Y-83766666D01*
%TO.C,R24*%
X177454819Y-82142857D02*
X176978628Y-82476190D01*
X177454819Y-82714285D02*
X176454819Y-82714285D01*
X176454819Y-82714285D02*
X176454819Y-82333333D01*
X176454819Y-82333333D02*
X176502438Y-82238095D01*
X176502438Y-82238095D02*
X176550057Y-82190476D01*
X176550057Y-82190476D02*
X176645295Y-82142857D01*
X176645295Y-82142857D02*
X176788152Y-82142857D01*
X176788152Y-82142857D02*
X176883390Y-82190476D01*
X176883390Y-82190476D02*
X176931009Y-82238095D01*
X176931009Y-82238095D02*
X176978628Y-82333333D01*
X176978628Y-82333333D02*
X176978628Y-82714285D01*
X176550057Y-81761904D02*
X176502438Y-81714285D01*
X176502438Y-81714285D02*
X176454819Y-81619047D01*
X176454819Y-81619047D02*
X176454819Y-81380952D01*
X176454819Y-81380952D02*
X176502438Y-81285714D01*
X176502438Y-81285714D02*
X176550057Y-81238095D01*
X176550057Y-81238095D02*
X176645295Y-81190476D01*
X176645295Y-81190476D02*
X176740533Y-81190476D01*
X176740533Y-81190476D02*
X176883390Y-81238095D01*
X176883390Y-81238095D02*
X177454819Y-81809523D01*
X177454819Y-81809523D02*
X177454819Y-81190476D01*
X176788152Y-80333333D02*
X177454819Y-80333333D01*
X176407200Y-80571428D02*
X177121485Y-80809523D01*
X177121485Y-80809523D02*
X177121485Y-80190476D01*
%TO.C,R3*%
X111554819Y-96566666D02*
X111078628Y-96899999D01*
X111554819Y-97138094D02*
X110554819Y-97138094D01*
X110554819Y-97138094D02*
X110554819Y-96757142D01*
X110554819Y-96757142D02*
X110602438Y-96661904D01*
X110602438Y-96661904D02*
X110650057Y-96614285D01*
X110650057Y-96614285D02*
X110745295Y-96566666D01*
X110745295Y-96566666D02*
X110888152Y-96566666D01*
X110888152Y-96566666D02*
X110983390Y-96614285D01*
X110983390Y-96614285D02*
X111031009Y-96661904D01*
X111031009Y-96661904D02*
X111078628Y-96757142D01*
X111078628Y-96757142D02*
X111078628Y-97138094D01*
X110554819Y-96233332D02*
X110554819Y-95614285D01*
X110554819Y-95614285D02*
X110935771Y-95947618D01*
X110935771Y-95947618D02*
X110935771Y-95804761D01*
X110935771Y-95804761D02*
X110983390Y-95709523D01*
X110983390Y-95709523D02*
X111031009Y-95661904D01*
X111031009Y-95661904D02*
X111126247Y-95614285D01*
X111126247Y-95614285D02*
X111364342Y-95614285D01*
X111364342Y-95614285D02*
X111459580Y-95661904D01*
X111459580Y-95661904D02*
X111507200Y-95709523D01*
X111507200Y-95709523D02*
X111554819Y-95804761D01*
X111554819Y-95804761D02*
X111554819Y-96090475D01*
X111554819Y-96090475D02*
X111507200Y-96185713D01*
X111507200Y-96185713D02*
X111459580Y-96233332D01*
%TO.C,J5*%
X167354819Y-86083333D02*
X168069104Y-86083333D01*
X168069104Y-86083333D02*
X168211961Y-86130952D01*
X168211961Y-86130952D02*
X168307200Y-86226190D01*
X168307200Y-86226190D02*
X168354819Y-86369047D01*
X168354819Y-86369047D02*
X168354819Y-86464285D01*
X167354819Y-85130952D02*
X167354819Y-85607142D01*
X167354819Y-85607142D02*
X167831009Y-85654761D01*
X167831009Y-85654761D02*
X167783390Y-85607142D01*
X167783390Y-85607142D02*
X167735771Y-85511904D01*
X167735771Y-85511904D02*
X167735771Y-85273809D01*
X167735771Y-85273809D02*
X167783390Y-85178571D01*
X167783390Y-85178571D02*
X167831009Y-85130952D01*
X167831009Y-85130952D02*
X167926247Y-85083333D01*
X167926247Y-85083333D02*
X168164342Y-85083333D01*
X168164342Y-85083333D02*
X168259580Y-85130952D01*
X168259580Y-85130952D02*
X168307200Y-85178571D01*
X168307200Y-85178571D02*
X168354819Y-85273809D01*
X168354819Y-85273809D02*
X168354819Y-85511904D01*
X168354819Y-85511904D02*
X168307200Y-85607142D01*
X168307200Y-85607142D02*
X168259580Y-85654761D01*
%TO.C,R1*%
X112854819Y-84816666D02*
X112378628Y-85149999D01*
X112854819Y-85388094D02*
X111854819Y-85388094D01*
X111854819Y-85388094D02*
X111854819Y-85007142D01*
X111854819Y-85007142D02*
X111902438Y-84911904D01*
X111902438Y-84911904D02*
X111950057Y-84864285D01*
X111950057Y-84864285D02*
X112045295Y-84816666D01*
X112045295Y-84816666D02*
X112188152Y-84816666D01*
X112188152Y-84816666D02*
X112283390Y-84864285D01*
X112283390Y-84864285D02*
X112331009Y-84911904D01*
X112331009Y-84911904D02*
X112378628Y-85007142D01*
X112378628Y-85007142D02*
X112378628Y-85388094D01*
X112854819Y-83864285D02*
X112854819Y-84435713D01*
X112854819Y-84149999D02*
X111854819Y-84149999D01*
X111854819Y-84149999D02*
X111997676Y-84245237D01*
X111997676Y-84245237D02*
X112092914Y-84340475D01*
X112092914Y-84340475D02*
X112140533Y-84435713D01*
%TO.C,U1*%
X157607095Y-104538819D02*
X157607095Y-105348342D01*
X157607095Y-105348342D02*
X157654714Y-105443580D01*
X157654714Y-105443580D02*
X157702333Y-105491200D01*
X157702333Y-105491200D02*
X157797571Y-105538819D01*
X157797571Y-105538819D02*
X157988047Y-105538819D01*
X157988047Y-105538819D02*
X158083285Y-105491200D01*
X158083285Y-105491200D02*
X158130904Y-105443580D01*
X158130904Y-105443580D02*
X158178523Y-105348342D01*
X158178523Y-105348342D02*
X158178523Y-104538819D01*
X159178523Y-105538819D02*
X158607095Y-105538819D01*
X158892809Y-105538819D02*
X158892809Y-104538819D01*
X158892809Y-104538819D02*
X158797571Y-104681676D01*
X158797571Y-104681676D02*
X158702333Y-104776914D01*
X158702333Y-104776914D02*
X158607095Y-104824533D01*
X157623819Y-107998285D02*
X157623819Y-108569713D01*
X157623819Y-108283999D02*
X156623819Y-108283999D01*
X156623819Y-108283999D02*
X156766676Y-108379237D01*
X156766676Y-108379237D02*
X156861914Y-108474475D01*
X156861914Y-108474475D02*
X156909533Y-108569713D01*
X161107095Y-113538819D02*
X161678523Y-113538819D01*
X161392809Y-114538819D02*
X161392809Y-113538819D01*
X161916619Y-113538819D02*
X162583285Y-114538819D01*
X162583285Y-113538819D02*
X161916619Y-114538819D01*
X162964238Y-114538819D02*
X162964238Y-113538819D01*
X162964238Y-113538819D02*
X163202333Y-113538819D01*
X163202333Y-113538819D02*
X163345190Y-113586438D01*
X163345190Y-113586438D02*
X163440428Y-113681676D01*
X163440428Y-113681676D02*
X163488047Y-113776914D01*
X163488047Y-113776914D02*
X163535666Y-113967390D01*
X163535666Y-113967390D02*
X163535666Y-114110247D01*
X163535666Y-114110247D02*
X163488047Y-114300723D01*
X163488047Y-114300723D02*
X163440428Y-114395961D01*
X163440428Y-114395961D02*
X163345190Y-114491200D01*
X163345190Y-114491200D02*
X163202333Y-114538819D01*
X163202333Y-114538819D02*
X162964238Y-114538819D01*
X154021380Y-110738819D02*
X153688047Y-110262628D01*
X153449952Y-110738819D02*
X153449952Y-109738819D01*
X153449952Y-109738819D02*
X153830904Y-109738819D01*
X153830904Y-109738819D02*
X153926142Y-109786438D01*
X153926142Y-109786438D02*
X153973761Y-109834057D01*
X153973761Y-109834057D02*
X154021380Y-109929295D01*
X154021380Y-109929295D02*
X154021380Y-110072152D01*
X154021380Y-110072152D02*
X153973761Y-110167390D01*
X153973761Y-110167390D02*
X153926142Y-110215009D01*
X153926142Y-110215009D02*
X153830904Y-110262628D01*
X153830904Y-110262628D02*
X153449952Y-110262628D01*
X154307095Y-109738819D02*
X154878523Y-109738819D01*
X154592809Y-110738819D02*
X154592809Y-109738819D01*
X155164238Y-110691200D02*
X155307095Y-110738819D01*
X155307095Y-110738819D02*
X155545190Y-110738819D01*
X155545190Y-110738819D02*
X155640428Y-110691200D01*
X155640428Y-110691200D02*
X155688047Y-110643580D01*
X155688047Y-110643580D02*
X155735666Y-110548342D01*
X155735666Y-110548342D02*
X155735666Y-110453104D01*
X155735666Y-110453104D02*
X155688047Y-110357866D01*
X155688047Y-110357866D02*
X155640428Y-110310247D01*
X155640428Y-110310247D02*
X155545190Y-110262628D01*
X155545190Y-110262628D02*
X155354714Y-110215009D01*
X155354714Y-110215009D02*
X155259476Y-110167390D01*
X155259476Y-110167390D02*
X155211857Y-110119771D01*
X155211857Y-110119771D02*
X155164238Y-110024533D01*
X155164238Y-110024533D02*
X155164238Y-109929295D01*
X155164238Y-109929295D02*
X155211857Y-109834057D01*
X155211857Y-109834057D02*
X155259476Y-109786438D01*
X155259476Y-109786438D02*
X155354714Y-109738819D01*
X155354714Y-109738819D02*
X155592809Y-109738819D01*
X155592809Y-109738819D02*
X155735666Y-109786438D01*
X153902333Y-115738819D02*
X153569000Y-115262628D01*
X153330905Y-115738819D02*
X153330905Y-114738819D01*
X153330905Y-114738819D02*
X153711857Y-114738819D01*
X153711857Y-114738819D02*
X153807095Y-114786438D01*
X153807095Y-114786438D02*
X153854714Y-114834057D01*
X153854714Y-114834057D02*
X153902333Y-114929295D01*
X153902333Y-114929295D02*
X153902333Y-115072152D01*
X153902333Y-115072152D02*
X153854714Y-115167390D01*
X153854714Y-115167390D02*
X153807095Y-115215009D01*
X153807095Y-115215009D02*
X153711857Y-115262628D01*
X153711857Y-115262628D02*
X153330905Y-115262628D01*
X154235667Y-114738819D02*
X154902333Y-115738819D01*
X154902333Y-114738819D02*
X154235667Y-115738819D01*
X155283286Y-115738819D02*
X155283286Y-114738819D01*
X155283286Y-114738819D02*
X155521381Y-114738819D01*
X155521381Y-114738819D02*
X155664238Y-114786438D01*
X155664238Y-114786438D02*
X155759476Y-114881676D01*
X155759476Y-114881676D02*
X155807095Y-114976914D01*
X155807095Y-114976914D02*
X155854714Y-115167390D01*
X155854714Y-115167390D02*
X155854714Y-115310247D01*
X155854714Y-115310247D02*
X155807095Y-115500723D01*
X155807095Y-115500723D02*
X155759476Y-115595961D01*
X155759476Y-115595961D02*
X155664238Y-115691200D01*
X155664238Y-115691200D02*
X155521381Y-115738819D01*
X155521381Y-115738819D02*
X155283286Y-115738819D01*
X153330905Y-112138819D02*
X153949952Y-112138819D01*
X153949952Y-112138819D02*
X153616619Y-112519771D01*
X153616619Y-112519771D02*
X153759476Y-112519771D01*
X153759476Y-112519771D02*
X153854714Y-112567390D01*
X153854714Y-112567390D02*
X153902333Y-112615009D01*
X153902333Y-112615009D02*
X153949952Y-112710247D01*
X153949952Y-112710247D02*
X153949952Y-112948342D01*
X153949952Y-112948342D02*
X153902333Y-113043580D01*
X153902333Y-113043580D02*
X153854714Y-113091200D01*
X153854714Y-113091200D02*
X153759476Y-113138819D01*
X153759476Y-113138819D02*
X153473762Y-113138819D01*
X153473762Y-113138819D02*
X153378524Y-113091200D01*
X153378524Y-113091200D02*
X153330905Y-113043580D01*
X154235667Y-112138819D02*
X154569000Y-113138819D01*
X154569000Y-113138819D02*
X154902333Y-112138819D01*
X155140429Y-112138819D02*
X155759476Y-112138819D01*
X155759476Y-112138819D02*
X155426143Y-112519771D01*
X155426143Y-112519771D02*
X155569000Y-112519771D01*
X155569000Y-112519771D02*
X155664238Y-112567390D01*
X155664238Y-112567390D02*
X155711857Y-112615009D01*
X155711857Y-112615009D02*
X155759476Y-112710247D01*
X155759476Y-112710247D02*
X155759476Y-112948342D01*
X155759476Y-112948342D02*
X155711857Y-113043580D01*
X155711857Y-113043580D02*
X155664238Y-113091200D01*
X155664238Y-113091200D02*
X155569000Y-113138819D01*
X155569000Y-113138819D02*
X155283286Y-113138819D01*
X155283286Y-113138819D02*
X155188048Y-113091200D01*
X155188048Y-113091200D02*
X155140429Y-113043580D01*
X161026143Y-116938819D02*
X161026143Y-115938819D01*
X161026143Y-115938819D02*
X161264238Y-115938819D01*
X161264238Y-115938819D02*
X161407095Y-115986438D01*
X161407095Y-115986438D02*
X161502333Y-116081676D01*
X161502333Y-116081676D02*
X161549952Y-116176914D01*
X161549952Y-116176914D02*
X161597571Y-116367390D01*
X161597571Y-116367390D02*
X161597571Y-116510247D01*
X161597571Y-116510247D02*
X161549952Y-116700723D01*
X161549952Y-116700723D02*
X161502333Y-116795961D01*
X161502333Y-116795961D02*
X161407095Y-116891200D01*
X161407095Y-116891200D02*
X161264238Y-116938819D01*
X161264238Y-116938819D02*
X161026143Y-116938819D01*
X161883286Y-115938819D02*
X162454714Y-115938819D01*
X162169000Y-116938819D02*
X162169000Y-115938819D01*
X163359476Y-116938819D02*
X163026143Y-116462628D01*
X162788048Y-116938819D02*
X162788048Y-115938819D01*
X162788048Y-115938819D02*
X163169000Y-115938819D01*
X163169000Y-115938819D02*
X163264238Y-115986438D01*
X163264238Y-115986438D02*
X163311857Y-116034057D01*
X163311857Y-116034057D02*
X163359476Y-116129295D01*
X163359476Y-116129295D02*
X163359476Y-116272152D01*
X163359476Y-116272152D02*
X163311857Y-116367390D01*
X163311857Y-116367390D02*
X163264238Y-116415009D01*
X163264238Y-116415009D02*
X163169000Y-116462628D01*
X163169000Y-116462628D02*
X162788048Y-116462628D01*
X161607095Y-110986438D02*
X161511857Y-110938819D01*
X161511857Y-110938819D02*
X161369000Y-110938819D01*
X161369000Y-110938819D02*
X161226143Y-110986438D01*
X161226143Y-110986438D02*
X161130905Y-111081676D01*
X161130905Y-111081676D02*
X161083286Y-111176914D01*
X161083286Y-111176914D02*
X161035667Y-111367390D01*
X161035667Y-111367390D02*
X161035667Y-111510247D01*
X161035667Y-111510247D02*
X161083286Y-111700723D01*
X161083286Y-111700723D02*
X161130905Y-111795961D01*
X161130905Y-111795961D02*
X161226143Y-111891200D01*
X161226143Y-111891200D02*
X161369000Y-111938819D01*
X161369000Y-111938819D02*
X161464238Y-111938819D01*
X161464238Y-111938819D02*
X161607095Y-111891200D01*
X161607095Y-111891200D02*
X161654714Y-111843580D01*
X161654714Y-111843580D02*
X161654714Y-111510247D01*
X161654714Y-111510247D02*
X161464238Y-111510247D01*
X162083286Y-111938819D02*
X162083286Y-110938819D01*
X162083286Y-110938819D02*
X162654714Y-111938819D01*
X162654714Y-111938819D02*
X162654714Y-110938819D01*
X163130905Y-111938819D02*
X163130905Y-110938819D01*
X163130905Y-110938819D02*
X163369000Y-110938819D01*
X163369000Y-110938819D02*
X163511857Y-110986438D01*
X163511857Y-110986438D02*
X163607095Y-111081676D01*
X163607095Y-111081676D02*
X163654714Y-111176914D01*
X163654714Y-111176914D02*
X163702333Y-111367390D01*
X163702333Y-111367390D02*
X163702333Y-111510247D01*
X163702333Y-111510247D02*
X163654714Y-111700723D01*
X163654714Y-111700723D02*
X163607095Y-111795961D01*
X163607095Y-111795961D02*
X163511857Y-111891200D01*
X163511857Y-111891200D02*
X163369000Y-111938819D01*
X163369000Y-111938819D02*
X163130905Y-111938819D01*
%TO.C,R5*%
X106254819Y-96566666D02*
X105778628Y-96899999D01*
X106254819Y-97138094D02*
X105254819Y-97138094D01*
X105254819Y-97138094D02*
X105254819Y-96757142D01*
X105254819Y-96757142D02*
X105302438Y-96661904D01*
X105302438Y-96661904D02*
X105350057Y-96614285D01*
X105350057Y-96614285D02*
X105445295Y-96566666D01*
X105445295Y-96566666D02*
X105588152Y-96566666D01*
X105588152Y-96566666D02*
X105683390Y-96614285D01*
X105683390Y-96614285D02*
X105731009Y-96661904D01*
X105731009Y-96661904D02*
X105778628Y-96757142D01*
X105778628Y-96757142D02*
X105778628Y-97138094D01*
X105254819Y-95661904D02*
X105254819Y-96138094D01*
X105254819Y-96138094D02*
X105731009Y-96185713D01*
X105731009Y-96185713D02*
X105683390Y-96138094D01*
X105683390Y-96138094D02*
X105635771Y-96042856D01*
X105635771Y-96042856D02*
X105635771Y-95804761D01*
X105635771Y-95804761D02*
X105683390Y-95709523D01*
X105683390Y-95709523D02*
X105731009Y-95661904D01*
X105731009Y-95661904D02*
X105826247Y-95614285D01*
X105826247Y-95614285D02*
X106064342Y-95614285D01*
X106064342Y-95614285D02*
X106159580Y-95661904D01*
X106159580Y-95661904D02*
X106207200Y-95709523D01*
X106207200Y-95709523D02*
X106254819Y-95804761D01*
X106254819Y-95804761D02*
X106254819Y-96042856D01*
X106254819Y-96042856D02*
X106207200Y-96138094D01*
X106207200Y-96138094D02*
X106159580Y-96185713D01*
%TO.C,R33*%
X153457142Y-102954819D02*
X153123809Y-102478628D01*
X152885714Y-102954819D02*
X152885714Y-101954819D01*
X152885714Y-101954819D02*
X153266666Y-101954819D01*
X153266666Y-101954819D02*
X153361904Y-102002438D01*
X153361904Y-102002438D02*
X153409523Y-102050057D01*
X153409523Y-102050057D02*
X153457142Y-102145295D01*
X153457142Y-102145295D02*
X153457142Y-102288152D01*
X153457142Y-102288152D02*
X153409523Y-102383390D01*
X153409523Y-102383390D02*
X153361904Y-102431009D01*
X153361904Y-102431009D02*
X153266666Y-102478628D01*
X153266666Y-102478628D02*
X152885714Y-102478628D01*
X153790476Y-101954819D02*
X154409523Y-101954819D01*
X154409523Y-101954819D02*
X154076190Y-102335771D01*
X154076190Y-102335771D02*
X154219047Y-102335771D01*
X154219047Y-102335771D02*
X154314285Y-102383390D01*
X154314285Y-102383390D02*
X154361904Y-102431009D01*
X154361904Y-102431009D02*
X154409523Y-102526247D01*
X154409523Y-102526247D02*
X154409523Y-102764342D01*
X154409523Y-102764342D02*
X154361904Y-102859580D01*
X154361904Y-102859580D02*
X154314285Y-102907200D01*
X154314285Y-102907200D02*
X154219047Y-102954819D01*
X154219047Y-102954819D02*
X153933333Y-102954819D01*
X153933333Y-102954819D02*
X153838095Y-102907200D01*
X153838095Y-102907200D02*
X153790476Y-102859580D01*
X154742857Y-101954819D02*
X155361904Y-101954819D01*
X155361904Y-101954819D02*
X155028571Y-102335771D01*
X155028571Y-102335771D02*
X155171428Y-102335771D01*
X155171428Y-102335771D02*
X155266666Y-102383390D01*
X155266666Y-102383390D02*
X155314285Y-102431009D01*
X155314285Y-102431009D02*
X155361904Y-102526247D01*
X155361904Y-102526247D02*
X155361904Y-102764342D01*
X155361904Y-102764342D02*
X155314285Y-102859580D01*
X155314285Y-102859580D02*
X155266666Y-102907200D01*
X155266666Y-102907200D02*
X155171428Y-102954819D01*
X155171428Y-102954819D02*
X154885714Y-102954819D01*
X154885714Y-102954819D02*
X154790476Y-102907200D01*
X154790476Y-102907200D02*
X154742857Y-102859580D01*
D13*
%TO.C,C16*%
X115958252Y-99668000D02*
X115435748Y-99668000D01*
X115958252Y-98198000D02*
X115435748Y-98198000D01*
%TO.C,C10*%
X105691000Y-111513252D02*
X105691000Y-110990748D01*
X107161000Y-111513252D02*
X107161000Y-110990748D01*
%TO.C,C7*%
X120398000Y-100030233D02*
X120398000Y-100322767D01*
X119378000Y-100030233D02*
X119378000Y-100322767D01*
%TO.C,U6*%
X128653000Y-95885000D02*
X129653000Y-95885000D01*
X146893000Y-95885000D02*
X145893000Y-95885000D01*
X128653000Y-121630000D02*
X128653000Y-115210000D01*
X146893000Y-96665000D02*
X146893000Y-95885000D01*
X146893000Y-121630000D02*
X128653000Y-121630000D01*
X128653000Y-96665000D02*
X128653000Y-95885000D01*
X146893000Y-121630000D02*
X146893000Y-115210000D01*
X146893000Y-115210000D02*
X147273000Y-115210000D01*
%TO.C,R35*%
X149337500Y-98552724D02*
X149337500Y-98043276D01*
X150382500Y-98552724D02*
X150382500Y-98043276D01*
%TO.C,U5*%
X118860000Y-111447500D02*
X118410000Y-111447500D01*
X118410000Y-104227500D02*
X118410000Y-102937500D01*
X111640000Y-104677500D02*
X111640000Y-104227500D01*
X118860000Y-104677500D02*
X118860000Y-104227500D01*
X111640000Y-111447500D02*
X112090000Y-111447500D01*
X111640000Y-110997500D02*
X111640000Y-111447500D01*
X118860000Y-104227500D02*
X118410000Y-104227500D01*
X111640000Y-104227500D02*
X112090000Y-104227500D01*
X118860000Y-110997500D02*
X118860000Y-111447500D01*
%TO.C,C15*%
X118874000Y-100030233D02*
X118874000Y-100322767D01*
X117854000Y-100030233D02*
X117854000Y-100322767D01*
%TO.C,C14*%
X115069233Y-113536000D02*
X115361767Y-113536000D01*
X115069233Y-114556000D02*
X115361767Y-114556000D01*
%TO.C,C11*%
X107694000Y-111105733D02*
X107694000Y-111398267D01*
X108714000Y-111105733D02*
X108714000Y-111398267D01*
%TO.C,C8*%
X115778233Y-100201000D02*
X116070767Y-100201000D01*
X115778233Y-101221000D02*
X116070767Y-101221000D01*
%TO.C,C1*%
X166145733Y-90460000D02*
X166438267Y-90460000D01*
X166145733Y-89440000D02*
X166438267Y-89440000D01*
%TO.C,C2*%
X166145733Y-92574500D02*
X166438267Y-92574500D01*
X166145733Y-91554500D02*
X166438267Y-91554500D01*
%TO.C,C3*%
X165210000Y-103553733D02*
X165210000Y-103846267D01*
X164190000Y-103553733D02*
X164190000Y-103846267D01*
%TO.C,C9*%
X158146267Y-88890000D02*
X157853733Y-88890000D01*
X158146267Y-89910000D02*
X157853733Y-89910000D01*
%TO.C,C12*%
X150510000Y-113253733D02*
X150510000Y-113546267D01*
X149490000Y-113253733D02*
X149490000Y-113546267D01*
%TO.C,C13*%
X147890000Y-113238733D02*
X147890000Y-113531267D01*
X148910000Y-113238733D02*
X148910000Y-113531267D01*
%TO.C,C18*%
X122746267Y-94710000D02*
X122453733Y-94710000D01*
X122746267Y-93690000D02*
X122453733Y-93690000D01*
%TO.C,FB1*%
X118108000Y-96666267D02*
X118108000Y-96373733D01*
X119128000Y-96666267D02*
X119128000Y-96373733D01*
%TO.C,J1*%
X153200000Y-84500000D02*
X153200000Y-83500000D01*
X136890000Y-87790000D02*
X136890000Y-71050000D01*
X136900000Y-87790000D02*
X152620000Y-87790000D01*
X152700000Y-84000000D02*
X153200000Y-84500000D01*
X153200000Y-83500000D02*
X152700000Y-84000000D01*
X152620000Y-87790000D02*
X152620000Y-71050000D01*
X136890000Y-71050000D02*
X152620000Y-71050000D01*
%TO.C,J3*%
X132032000Y-86676000D02*
X132032000Y-92956000D01*
X116082000Y-92956000D02*
X116082000Y-86676000D01*
X132032000Y-92956000D02*
X116082000Y-92956000D01*
X116082000Y-83476000D02*
X116082000Y-71036000D01*
X132032000Y-71036000D02*
X132032000Y-83476000D01*
X116082000Y-71036000D02*
X132032000Y-71036000D01*
X132232000Y-89366000D02*
X132232000Y-87366000D01*
%TO.C,R6*%
X126354724Y-103422500D02*
X125845276Y-103422500D01*
X126354724Y-102377500D02*
X125845276Y-102377500D01*
%TO.C,R8*%
X112888500Y-77699776D02*
X112888500Y-78209224D01*
X113933500Y-77699776D02*
X113933500Y-78209224D01*
%TO.C,R9*%
X135322500Y-88367776D02*
X135322500Y-88877224D01*
X134277500Y-88367776D02*
X134277500Y-88877224D01*
%TO.C,R10*%
X134277500Y-91667776D02*
X134277500Y-92177224D01*
X135322500Y-91667776D02*
X135322500Y-92177224D01*
%TO.C,R11*%
X112877500Y-81048776D02*
X112877500Y-81558224D01*
X113922500Y-81048776D02*
X113922500Y-81558224D01*
%TO.C,U2*%
X172877000Y-93200000D02*
X172877000Y-99210000D01*
X166057000Y-99210000D02*
X167317000Y-99210000D01*
X166057000Y-95450000D02*
X166057000Y-99210000D01*
X172877000Y-99210000D02*
X171617000Y-99210000D01*
%TO.C,U3*%
X159504500Y-83340000D02*
X159504500Y-84800000D01*
X159504500Y-83340000D02*
X158574500Y-83340000D01*
X156344500Y-83340000D02*
X156344500Y-85500000D01*
X156344500Y-83340000D02*
X157274500Y-83340000D01*
%TO.C,U4*%
X155406000Y-93929000D02*
X155406000Y-91979000D01*
X160526000Y-93929000D02*
X160526000Y-95879000D01*
X160526000Y-93929000D02*
X160526000Y-91979000D01*
X155406000Y-93929000D02*
X155406000Y-97379000D01*
%TO.C,C19*%
X158146267Y-97890000D02*
X157853733Y-97890000D01*
X158146267Y-98910000D02*
X157853733Y-98910000D01*
%TO.C,R12*%
X158254724Y-87422500D02*
X157745276Y-87422500D01*
X158254724Y-86377500D02*
X157745276Y-86377500D01*
%TO.C,C5*%
X167310000Y-103553733D02*
X167310000Y-103846267D01*
X166290000Y-103553733D02*
X166290000Y-103846267D01*
%TO.C,C20*%
X149253733Y-108690000D02*
X149546267Y-108690000D01*
X149253733Y-109710000D02*
X149546267Y-109710000D01*
%TO.C,R13*%
X149654724Y-111322500D02*
X149145276Y-111322500D01*
X149654724Y-110277500D02*
X149145276Y-110277500D01*
%TO.C,J4*%
X171200000Y-80500000D02*
X171200000Y-71610000D01*
X171200000Y-71038500D02*
X153460000Y-71038500D01*
X153460000Y-81770000D02*
X171200000Y-81770000D01*
X171200000Y-71600000D02*
X153460000Y-71610000D01*
X153460000Y-71610000D02*
X153460000Y-81770000D01*
X171200000Y-81770000D02*
X171200000Y-80500000D01*
%TO.C,C4*%
X166038748Y-87115000D02*
X166561252Y-87115000D01*
X166038748Y-88585000D02*
X166561252Y-88585000D01*
%TO.C,C6*%
X168165000Y-103438748D02*
X168165000Y-103961252D01*
X169635000Y-103438748D02*
X169635000Y-103961252D01*
%TO.C,R19*%
X126354724Y-100598500D02*
X125845276Y-100598500D01*
X126354724Y-99553500D02*
X125845276Y-99553500D01*
%TO.C,R28*%
X107187276Y-107710500D02*
X107696724Y-107710500D01*
X107187276Y-106665500D02*
X107696724Y-106665500D01*
%TO.C,R30*%
X173222500Y-81754724D02*
X173222500Y-81245276D01*
X172177500Y-81754724D02*
X172177500Y-81245276D01*
%TO.C,R32*%
X108872500Y-100054724D02*
X108872500Y-99545276D01*
X107827500Y-100054724D02*
X107827500Y-99545276D01*
%TO.C,R27*%
X151042224Y-100377500D02*
X150532776Y-100377500D01*
X151042224Y-101422500D02*
X150532776Y-101422500D01*
%TO.C,R31*%
X173377500Y-93045276D02*
X173377500Y-93554724D01*
X174422500Y-93045276D02*
X174422500Y-93554724D01*
%TO.C,R29*%
X176722500Y-93345276D02*
X176722500Y-93854724D01*
X175677500Y-93345276D02*
X175677500Y-93854724D01*
%TO.C,J2*%
X104650000Y-93000000D02*
X104650000Y-88000000D01*
X114400000Y-89500000D02*
X114400000Y-88000000D01*
X114400000Y-93000000D02*
X114400000Y-91750000D01*
X114400000Y-91750000D02*
X113400000Y-91750000D01*
X113400000Y-89500000D02*
X114400000Y-89500000D01*
X113400000Y-91750000D02*
X113400000Y-89500000D01*
%TO.C,R25*%
X125080500Y-113410276D02*
X125080500Y-113919724D01*
X126125500Y-113410276D02*
X126125500Y-113919724D01*
%TO.C,R26*%
X110477500Y-80845276D02*
X110477500Y-81354724D01*
X111522500Y-80845276D02*
X111522500Y-81354724D01*
%TO.C,R4*%
X109022500Y-84854724D02*
X109022500Y-84345276D01*
X107977500Y-84854724D02*
X107977500Y-84345276D01*
%TO.C,R24*%
X175922500Y-81754724D02*
X175922500Y-81245276D01*
X174877500Y-81754724D02*
X174877500Y-81245276D01*
%TO.C,R3*%
X109077500Y-96145276D02*
X109077500Y-96654724D01*
X110122500Y-96145276D02*
X110122500Y-96654724D01*
%TO.C,J5*%
X177677000Y-86400000D02*
X178677000Y-86400000D01*
X178677000Y-88650000D02*
X177677000Y-88650000D01*
X177677000Y-88650000D02*
X177677000Y-86400000D01*
X178677000Y-86400000D02*
X178677000Y-84900000D01*
X178677000Y-89900000D02*
X178677000Y-88650000D01*
X168927000Y-89900000D02*
X168927000Y-84900000D01*
%TO.C,R1*%
X110477500Y-84854724D02*
X110477500Y-84345276D01*
X111522500Y-84854724D02*
X111522500Y-84345276D01*
%TO.C,R5*%
X106577500Y-96145276D02*
X106577500Y-96654724D01*
X107622500Y-96145276D02*
X107622500Y-96654724D01*
%TO.C,R33*%
X151054724Y-103022500D02*
X150545276Y-103022500D01*
X151054724Y-101977500D02*
X150545276Y-101977500D01*
%TD*%
D14*
%TO.C,J1*%
X139040000Y-77650000D03*
X150470000Y-77650000D03*
%TD*%
%LPC*%
D15*
%TO.C,C16*%
X116734500Y-98933000D03*
X114659500Y-98933000D03*
%TD*%
D16*
%TO.C,C10*%
X106426000Y-112289500D03*
X106426000Y-110214500D03*
%TD*%
D17*
%TO.C,C7*%
X119888000Y-99314000D03*
X119888000Y-101039000D03*
%TD*%
D18*
%TO.C,U6*%
X146423000Y-114020000D03*
X146423000Y-112750000D03*
X146423000Y-111480000D03*
X146423000Y-110210000D03*
X146423000Y-108940000D03*
X146423000Y-107670000D03*
X146423000Y-106400000D03*
X146423000Y-105130000D03*
X146423000Y-103860000D03*
X146423000Y-102590000D03*
X146423000Y-101320000D03*
X146423000Y-100050000D03*
X146423000Y-98780000D03*
X146423000Y-97510000D03*
D19*
X143488000Y-96360000D03*
X142218000Y-96360000D03*
X140948000Y-96360000D03*
X139678000Y-96360000D03*
X138408000Y-96360000D03*
X137138000Y-96360000D03*
X135868000Y-96360000D03*
X134598000Y-96360000D03*
X133328000Y-96360000D03*
X132058000Y-96360000D03*
D18*
X129123000Y-97510000D03*
X129123000Y-98780000D03*
X129123000Y-100050000D03*
X129123000Y-101320000D03*
X129123000Y-102590000D03*
X129123000Y-103860000D03*
X129123000Y-105130000D03*
X129123000Y-106400000D03*
X129123000Y-107670000D03*
X129123000Y-108940000D03*
X129123000Y-110210000D03*
X129123000Y-111480000D03*
X129123000Y-112750000D03*
X129123000Y-114020000D03*
D20*
X138773000Y-106520000D03*
%TD*%
D21*
%TO.C,R35*%
X149860000Y-99210500D03*
X149860000Y-97385500D03*
%TD*%
D22*
%TO.C,U5*%
X119412500Y-105087500D03*
X119412500Y-105587500D03*
X119412500Y-106087500D03*
X119412500Y-106587500D03*
X119412500Y-107087500D03*
X119412500Y-107587500D03*
X119412500Y-108087500D03*
X119412500Y-108587500D03*
X119412500Y-109087500D03*
X119412500Y-109587500D03*
X119412500Y-110087500D03*
X119412500Y-110587500D03*
D23*
X118000000Y-112000000D03*
X117500000Y-112000000D03*
X117000000Y-112000000D03*
X116500000Y-112000000D03*
X116000000Y-112000000D03*
X115500000Y-112000000D03*
X115000000Y-112000000D03*
X114500000Y-112000000D03*
X114000000Y-112000000D03*
X113500000Y-112000000D03*
X113000000Y-112000000D03*
X112500000Y-112000000D03*
D22*
X111087500Y-110587500D03*
X111087500Y-110087500D03*
X111087500Y-109587500D03*
X111087500Y-109087500D03*
X111087500Y-108587500D03*
X111087500Y-108087500D03*
X111087500Y-107587500D03*
X111087500Y-107087500D03*
X111087500Y-106587500D03*
X111087500Y-106087500D03*
X111087500Y-105587500D03*
X111087500Y-105087500D03*
D23*
X112500000Y-103675000D03*
X113000000Y-103675000D03*
X113500000Y-103675000D03*
X114000000Y-103675000D03*
X114500000Y-103675000D03*
X115000000Y-103675000D03*
X115500000Y-103675000D03*
X116000000Y-103675000D03*
X116500000Y-103675000D03*
X117000000Y-103675000D03*
X117500000Y-103675000D03*
X118000000Y-103675000D03*
%TD*%
D17*
%TO.C,C15*%
X118364000Y-99314000D03*
X118364000Y-101039000D03*
%TD*%
D24*
%TO.C,C14*%
X114353000Y-114046000D03*
X116078000Y-114046000D03*
%TD*%
D17*
%TO.C,C11*%
X108204000Y-112114500D03*
X108204000Y-110389500D03*
%TD*%
D24*
%TO.C,C8*%
X115062000Y-100711000D03*
X116787000Y-100711000D03*
%TD*%
%TO.C,C1*%
X165429500Y-89950000D03*
X167154500Y-89950000D03*
%TD*%
%TO.C,C2*%
X165429500Y-92064500D03*
X167154500Y-92064500D03*
%TD*%
D17*
%TO.C,C3*%
X164700000Y-102837500D03*
X164700000Y-104562500D03*
%TD*%
D25*
%TO.C,C9*%
X158862500Y-89400000D03*
X157137500Y-89400000D03*
%TD*%
D17*
%TO.C,C12*%
X150000000Y-112537500D03*
X150000000Y-114262500D03*
%TD*%
%TO.C,C13*%
X148400000Y-112522500D03*
X148400000Y-114247500D03*
%TD*%
D25*
%TO.C,C18*%
X123462500Y-94200000D03*
X121737500Y-94200000D03*
%TD*%
D26*
%TO.C,FB1*%
X118618000Y-97382500D03*
X118618000Y-95657500D03*
%TD*%
D14*
%TO.C,J1*%
X139040000Y-77650000D03*
X150470000Y-77650000D03*
D27*
X149200000Y-84000000D03*
D28*
X147930000Y-86540000D03*
X146660000Y-84000000D03*
X145390000Y-86540000D03*
X144120000Y-84000000D03*
X142850000Y-86540000D03*
X141580000Y-84000000D03*
X140310000Y-86540000D03*
%TD*%
D29*
%TO.C,J3*%
X129772000Y-82026000D03*
X118342000Y-82026000D03*
D30*
X131832000Y-85076000D03*
X116282000Y-85076000D03*
D31*
X117732000Y-78646000D03*
X120272000Y-77126000D03*
X127842000Y-78646000D03*
X130382000Y-77126000D03*
D32*
X128502000Y-88366000D03*
D33*
X127232000Y-90906000D03*
X125962000Y-88366000D03*
X124692000Y-90906000D03*
X123422000Y-88366000D03*
X122152000Y-90906000D03*
X120882000Y-88366000D03*
X119612000Y-90906000D03*
%TD*%
D34*
%TO.C,R6*%
X127012500Y-102900000D03*
X125187500Y-102900000D03*
%TD*%
D35*
%TO.C,R8*%
X113411000Y-77042000D03*
X113411000Y-78867000D03*
%TD*%
%TO.C,R9*%
X134800000Y-87710000D03*
X134800000Y-89535000D03*
%TD*%
%TO.C,R10*%
X134800000Y-91010000D03*
X134800000Y-92835000D03*
%TD*%
%TO.C,R11*%
X113400000Y-80391000D03*
X113400000Y-82216000D03*
%TD*%
D36*
%TO.C,U2*%
X171767000Y-94150000D03*
X169467000Y-94150000D03*
D37*
X169467000Y-100450000D03*
D36*
X167167000Y-94150000D03*
%TD*%
D38*
%TO.C,U3*%
X156974500Y-85100000D03*
X158874500Y-85100000D03*
X157924500Y-83100000D03*
%TD*%
D39*
%TO.C,U4*%
X156061000Y-96404000D03*
X157331000Y-96404000D03*
X158601000Y-96404000D03*
X159871000Y-96404000D03*
X159871000Y-91454000D03*
X158601000Y-91454000D03*
X157331000Y-91454000D03*
X156061000Y-91454000D03*
%TD*%
D25*
%TO.C,C19*%
X158862500Y-98400000D03*
X157137500Y-98400000D03*
%TD*%
D34*
%TO.C,R12*%
X158912500Y-86900000D03*
X157087500Y-86900000D03*
%TD*%
D40*
%TO.C,H2*%
X175000000Y-117900000D03*
%TD*%
%TO.C,H3*%
X108000000Y-117900000D03*
%TD*%
%TO.C,H4*%
X108000000Y-74900000D03*
%TD*%
D17*
%TO.C,C5*%
X166800000Y-102837500D03*
X166800000Y-104562500D03*
%TD*%
D24*
%TO.C,C20*%
X148537500Y-109200000D03*
X150262500Y-109200000D03*
%TD*%
D34*
%TO.C,R13*%
X150312500Y-110800000D03*
X148487500Y-110800000D03*
%TD*%
D40*
%TO.C,H1*%
X175000000Y-74900000D03*
%TD*%
D41*
%TO.C,J4*%
X156000000Y-74150000D03*
X159500000Y-79150000D03*
X163000000Y-74150000D03*
X166500000Y-79150000D03*
%TD*%
D42*
%TO.C,C4*%
X165262500Y-87850000D03*
X167337500Y-87850000D03*
%TD*%
D43*
%TO.C,C6*%
X168900000Y-102662500D03*
X168900000Y-104737500D03*
%TD*%
D34*
%TO.C,R19*%
X127012500Y-100076000D03*
X125187500Y-100076000D03*
%TD*%
D44*
%TO.C,R28*%
X106529500Y-107188000D03*
X108354500Y-107188000D03*
%TD*%
D21*
%TO.C,R30*%
X172700000Y-82412500D03*
X172700000Y-80587500D03*
%TD*%
%TO.C,R32*%
X108350000Y-100712500D03*
X108350000Y-98887500D03*
%TD*%
D34*
%TO.C,R27*%
X151700000Y-100900000D03*
X149875000Y-100900000D03*
%TD*%
D35*
%TO.C,R31*%
X173900000Y-92387500D03*
X173900000Y-94212500D03*
%TD*%
%TO.C,R29*%
X176200000Y-92687500D03*
X176200000Y-94512500D03*
%TD*%
D45*
%TO.C,J2*%
X112203000Y-92750000D03*
X111060000Y-88250000D03*
X109663000Y-92750000D03*
X108520000Y-88250000D03*
X107123000Y-92750000D03*
X105980000Y-88250000D03*
%TD*%
D35*
%TO.C,R25*%
X125603000Y-114577500D03*
X125603000Y-112752500D03*
%TD*%
%TO.C,R26*%
X111000000Y-80187500D03*
X111000000Y-82012500D03*
%TD*%
D21*
%TO.C,R4*%
X108500000Y-85512500D03*
X108500000Y-83687500D03*
%TD*%
%TO.C,R24*%
X175400000Y-82412500D03*
X175400000Y-80587500D03*
%TD*%
D35*
%TO.C,R3*%
X109600000Y-95487500D03*
X109600000Y-97312500D03*
%TD*%
D45*
%TO.C,J5*%
X176480000Y-89650000D03*
X175337000Y-85150000D03*
X173940000Y-89650000D03*
X172797000Y-85150000D03*
X171400000Y-89650000D03*
X170257000Y-85150000D03*
%TD*%
D21*
%TO.C,R1*%
X111000000Y-85512500D03*
X111000000Y-83687500D03*
%TD*%
D46*
%TO.C,U1*%
X157099000Y-117789000D03*
D47*
X159639000Y-108779000D03*
D48*
X157099000Y-110109000D03*
X159639000Y-111379000D03*
X157099000Y-112649000D03*
X159639000Y-113919000D03*
X157099000Y-115189000D03*
X159639000Y-116459000D03*
%TD*%
D35*
%TO.C,R5*%
X107100000Y-95487500D03*
X107100000Y-97312500D03*
%TD*%
D34*
%TO.C,R33*%
X151712500Y-102500000D03*
X149887500Y-102500000D03*
%TD*%
%LPD*%
M02*
