%TF.GenerationSoftware,KiCad,Pcbnew,7.0.5*%
%TF.CreationDate,2023-07-03T12:53:43+02:00*%
%TF.ProjectId,mqtt_gateway,6d717474-5f67-4617-9465-7761792e6b69,rev?*%
%TF.SameCoordinates,Original*%
%TF.FileFunction,Copper,L2,Inr*%
%TF.FilePolarity,Positive*%
%FSLAX46Y46*%
G04 Gerber Fmt 4.6, Leading zero omitted, Abs format (unit mm)*
G04 Created by KiCad (PCBNEW 7.0.5) date 2023-07-03 12:53:43*
%MOMM*%
%LPD*%
G01*
G04 APERTURE LIST*
%TA.AperFunction,WasherPad*%
%ADD10C,3.650000*%
%TD*%
%TA.AperFunction,ComponentPad*%
%ADD11R,1.500000X1.500000*%
%TD*%
%TA.AperFunction,ComponentPad*%
%ADD12C,1.500000*%
%TD*%
%TA.AperFunction,ComponentPad*%
%ADD13C,2.600000*%
%TD*%
%TA.AperFunction,ComponentPad*%
%ADD14C,1.890000*%
%TD*%
%TA.AperFunction,ComponentPad*%
%ADD15R,1.900000X1.900000*%
%TD*%
%TA.AperFunction,ComponentPad*%
%ADD16C,1.900000*%
%TD*%
%TA.AperFunction,ComponentPad*%
%ADD17C,3.000000*%
%TD*%
%TA.AperFunction,ComponentPad*%
%ADD18C,1.850000*%
%TD*%
%TA.AperFunction,ViaPad*%
%ADD19C,0.800000*%
%TD*%
%TA.AperFunction,ViaPad*%
%ADD20C,0.500000*%
%TD*%
G04 APERTURE END LIST*
D10*
%TO.N,*%
%TO.C,J1*%
X139040000Y-77650000D03*
X150470000Y-77650000D03*
D11*
%TO.N,GND*%
X149200000Y-84000000D03*
D12*
%TO.N,+12V*%
X147930000Y-86540000D03*
%TO.N,Net-(U3-CANL)*%
X146660000Y-84000000D03*
X145390000Y-86540000D03*
%TO.N,Net-(U3-CANH)*%
X144120000Y-84000000D03*
X142850000Y-86540000D03*
%TO.N,+5V*%
X141580000Y-84000000D03*
%TO.N,GND*%
X140310000Y-86540000D03*
%TD*%
D13*
%TO.N,GND*%
%TO.C,J3*%
X131832000Y-85076000D03*
X116282000Y-85076000D03*
D14*
%TO.N,Net-(J3-LEDY_A)*%
X117732000Y-78646000D03*
%TO.N,Net-(J3-LEDY_K)*%
X120272000Y-77126000D03*
%TO.N,Net-(J3-LEDG_K)*%
X127842000Y-78646000D03*
%TO.N,Net-(J3-LEDG_A)*%
X130382000Y-77126000D03*
D15*
%TO.N,Net-(J3-TD+)*%
X128502000Y-88366000D03*
D16*
%TO.N,Net-(J3-TD-)*%
X127232000Y-90906000D03*
%TO.N,Net-(J3-RD+)*%
X125962000Y-88366000D03*
%TO.N,VDDA*%
X124692000Y-90906000D03*
X123422000Y-88366000D03*
%TO.N,Net-(J3-RD-)*%
X122152000Y-90906000D03*
%TO.N,unconnected-(J3-NC-PadR7)*%
X120882000Y-88366000D03*
%TO.N,GND*%
X119612000Y-90906000D03*
%TD*%
D17*
%TO.N,+5V*%
%TO.C,J4*%
X156000000Y-74150000D03*
%TO.N,GND*%
X159500000Y-79150000D03*
X163000000Y-74150000D03*
%TO.N,+12V*%
X166500000Y-79150000D03*
%TD*%
D18*
%TO.N,/EN*%
%TO.C,U1*%
X157099000Y-110109000D03*
%TO.N,GND*%
X159639000Y-111379000D03*
%TO.N,+3.3V*%
X157099000Y-112649000D03*
%TO.N,/TXD*%
X159639000Y-113919000D03*
%TO.N,/RXD*%
X157099000Y-115189000D03*
%TO.N,/BOOT0*%
X159639000Y-116459000D03*
%TD*%
D19*
%TO.N,GND*%
X119126000Y-102997000D03*
X124333000Y-102870000D03*
D20*
%TO.N,+3.3V*%
X133604000Y-91059000D03*
%TO.N,Net-(J3-LEDY_K)*%
X112395000Y-106299000D03*
%TO.N,Net-(J3-LEDG_K)*%
X112776000Y-107061000D03*
%TO.N,Net-(C14-Pad2)*%
X116500000Y-104902000D03*
X116459000Y-106934000D03*
%TO.N,GND*%
X110109000Y-107061000D03*
X110109000Y-105029000D03*
D19*
X114300000Y-115062000D03*
X121158000Y-110744000D03*
%TO.N,VDDA*%
X119443500Y-97218500D03*
%TO.N,+3.3V*%
X108331000Y-101473000D03*
X105664000Y-107188000D03*
X105410000Y-112268000D03*
X119328500Y-95071500D03*
D20*
%TO.N,/CRS*%
X121412000Y-108204000D03*
%TO.N,/MDIO*%
X120904000Y-106680000D03*
X115697000Y-107569000D03*
%TO.N,/MDC*%
X124333000Y-112776000D03*
%TO.N,/TXD1*%
X123571000Y-112014000D03*
X119888000Y-112014000D03*
%TO.N,/MDC*%
X115062000Y-110490000D03*
%TO.N,Net-(U5-RXD0{slash}DUPLEX)*%
X109474000Y-109728000D03*
%TO.N,Net-(U5-RXD1{slash}PHYAD2)*%
X109637704Y-108802296D03*
%TO.N,/RXD1*%
X144272000Y-101346000D03*
%TO.N,GND*%
X167900000Y-89900000D03*
X168100000Y-87800000D03*
X157924500Y-82500000D03*
D19*
X138800000Y-109583500D03*
X157400000Y-88500000D03*
D20*
X143500000Y-95000000D03*
D19*
X171400000Y-92500000D03*
D20*
X170200000Y-83200000D03*
D19*
X157478594Y-99302141D03*
D20*
X147800000Y-97500000D03*
X151100000Y-109200000D03*
D19*
X163800000Y-104600000D03*
X105930000Y-86530000D03*
X151100000Y-114200000D03*
%TO.N,+5V*%
X165850000Y-93150000D03*
X158500000Y-99200000D03*
%TO.N,+3.3V*%
X111600000Y-94500000D03*
X176400000Y-91373500D03*
X158700000Y-88500000D03*
X163800000Y-102837500D03*
D20*
X152500000Y-102500000D03*
D19*
X151100000Y-112600000D03*
D20*
X163700000Y-91400000D03*
D19*
%TO.N,VDDA*%
X123825000Y-95250000D03*
D20*
%TO.N,/B4-0*%
X127762000Y-101346000D03*
X107100000Y-99400000D03*
%TO.N,/B3-0*%
X109220000Y-83693000D03*
X126200000Y-97282000D03*
%TO.N,/B4-1*%
X147800000Y-107670000D03*
X173900000Y-94900000D03*
%TO.N,/B3-1*%
X147800000Y-106400000D03*
X174000000Y-82900000D03*
D19*
%TO.N,/RXD*%
X133500000Y-112300000D03*
%TO.N,/TXD*%
X131300000Y-110200000D03*
D20*
%TO.N,/BOOT0*%
X144400000Y-108000000D03*
%TO.N,/RXD0*%
X145100000Y-102600000D03*
%TO.N,/CRS*%
X145000000Y-100000000D03*
%TO.N,/B2-0{slash}SCL*%
X109600000Y-98200000D03*
X127100000Y-98100000D03*
%TO.N,/B1-0{slash}SDA*%
X109720250Y-82407750D03*
X126200000Y-98700000D03*
%TO.N,/B2-1{slash}SCL*%
X147800000Y-105130000D03*
X171700000Y-87300000D03*
%TO.N,/B1-1{slash}SDA*%
X147800000Y-103860000D03*
X174000000Y-81000000D03*
%TD*%
%TA.AperFunction,Conductor*%
%TO.N,GND*%
G36*
X159006857Y-111743968D02*
G01*
X159108064Y-111879912D01*
X159237894Y-111988853D01*
X159287217Y-112013624D01*
X158853987Y-112446855D01*
X158973971Y-112530868D01*
X158973973Y-112530869D01*
X159034299Y-112558999D01*
X159079048Y-112600727D01*
X159090723Y-112660788D01*
X159064866Y-112716241D01*
X159034301Y-112738448D01*
X158973725Y-112766695D01*
X158973721Y-112766697D01*
X158783735Y-112899726D01*
X158619726Y-113063735D01*
X158515592Y-113212454D01*
X158466727Y-113249276D01*
X158405551Y-113250344D01*
X158355431Y-113215249D01*
X158335511Y-113157398D01*
X158344772Y-113113830D01*
X158349320Y-113104079D01*
X158409349Y-112880050D01*
X158416155Y-112802262D01*
X158429563Y-112649003D01*
X158429563Y-112648996D01*
X158409350Y-112417957D01*
X158409349Y-112417954D01*
X158409349Y-112417950D01*
X158349320Y-112193921D01*
X158343557Y-112181563D01*
X158336101Y-112120836D01*
X158365763Y-112067322D01*
X158421215Y-112041463D01*
X158481277Y-112053137D01*
X158514378Y-112082941D01*
X158571143Y-112164011D01*
X159002134Y-111733019D01*
X159006857Y-111743968D01*
G37*
%TD.AperFunction*%
%TA.AperFunction,Conductor*%
G36*
X158586804Y-109885723D02*
G01*
X158624115Y-109924568D01*
X158624117Y-109924570D01*
X158821018Y-110072531D01*
X158890727Y-110109117D01*
X158933466Y-110152901D01*
X158942307Y-110213444D01*
X158913873Y-110267621D01*
X158901505Y-110277873D01*
X158853988Y-110311144D01*
X159286155Y-110743311D01*
X159169806Y-110819837D01*
X159053501Y-110943112D01*
X159004734Y-111027578D01*
X158571144Y-110593988D01*
X158514377Y-110675061D01*
X158465512Y-110711883D01*
X158404336Y-110712951D01*
X158354216Y-110677857D01*
X158334296Y-110620005D01*
X158343556Y-110576439D01*
X158349320Y-110564079D01*
X158409349Y-110340050D01*
X158415716Y-110267281D01*
X158429563Y-110109003D01*
X158429563Y-110108996D01*
X158416784Y-109962932D01*
X158430547Y-109903315D01*
X158476725Y-109863174D01*
X158537677Y-109857841D01*
X158586804Y-109885723D01*
G37*
%TD.AperFunction*%
%TA.AperFunction,Conductor*%
G36*
X120535232Y-89671224D02*
G01*
X120646592Y-89701063D01*
X120646596Y-89701063D01*
X120646599Y-89701064D01*
X120881996Y-89721659D01*
X120882000Y-89721659D01*
X120882004Y-89721659D01*
X121117400Y-89701064D01*
X121117401Y-89701063D01*
X121117408Y-89701063D01*
X121224488Y-89672371D01*
X121285585Y-89675573D01*
X121333135Y-89714078D01*
X121348971Y-89773179D01*
X121327045Y-89830300D01*
X121306892Y-89849093D01*
X121280605Y-89867499D01*
X121113501Y-90034603D01*
X120977963Y-90228173D01*
X120977962Y-90228176D01*
X120971445Y-90242150D01*
X120929714Y-90286895D01*
X120869652Y-90298566D01*
X120814201Y-90272705D01*
X120791997Y-90242141D01*
X120785601Y-90228425D01*
X120785601Y-90228424D01*
X120697805Y-90103037D01*
X120038884Y-90761957D01*
X120006113Y-90678459D01*
X119921535Y-90572401D01*
X119809453Y-90495984D01*
X119755738Y-90479415D01*
X120414962Y-89820192D01*
X120411052Y-89775496D01*
X120424815Y-89715879D01*
X120470993Y-89675738D01*
X120531945Y-89670405D01*
X120535232Y-89671224D01*
G37*
%TD.AperFunction*%
%TA.AperFunction,Conductor*%
G36*
X178908691Y-70969407D02*
G01*
X178944655Y-71018907D01*
X178949500Y-71049500D01*
X178949500Y-121750500D01*
X178930593Y-121808691D01*
X178881093Y-121844655D01*
X178850500Y-121849500D01*
X151872000Y-121849500D01*
X151813809Y-121830593D01*
X151777845Y-121781093D01*
X151773000Y-121750500D01*
X151773000Y-117789003D01*
X155768437Y-117789003D01*
X155788649Y-118020042D01*
X155788650Y-118020049D01*
X155788651Y-118020050D01*
X155848680Y-118244079D01*
X155946699Y-118454281D01*
X156079730Y-118644269D01*
X156243731Y-118808270D01*
X156433719Y-118941301D01*
X156643921Y-119039320D01*
X156867950Y-119099349D01*
X156867954Y-119099349D01*
X156867957Y-119099350D01*
X157041121Y-119114500D01*
X157041129Y-119114500D01*
X157156879Y-119114500D01*
X157330042Y-119099350D01*
X157330043Y-119099349D01*
X157330050Y-119099349D01*
X157554079Y-119039320D01*
X157764281Y-118941301D01*
X157954269Y-118808270D01*
X158118270Y-118644269D01*
X158251301Y-118454282D01*
X158349320Y-118244079D01*
X158409349Y-118020050D01*
X158419852Y-117900006D01*
X171394559Y-117900006D01*
X171414308Y-118276859D01*
X171414310Y-118276880D01*
X171473345Y-118649607D01*
X171571021Y-119014140D01*
X171571023Y-119014147D01*
X171706264Y-119366462D01*
X171706266Y-119366465D01*
X171877597Y-119702720D01*
X171877602Y-119702727D01*
X172083138Y-120019227D01*
X172320635Y-120312511D01*
X172587489Y-120579365D01*
X172880775Y-120816863D01*
X173197280Y-121022403D01*
X173533535Y-121193734D01*
X173533537Y-121193735D01*
X173795026Y-121294111D01*
X173885857Y-121328978D01*
X174250387Y-121426653D01*
X174250390Y-121426653D01*
X174250392Y-121426654D01*
X174623119Y-121485689D01*
X174623128Y-121485689D01*
X174623129Y-121485690D01*
X174623130Y-121485690D01*
X174623140Y-121485691D01*
X174784375Y-121494140D01*
X174905720Y-121500500D01*
X174905725Y-121500500D01*
X175094275Y-121500500D01*
X175094280Y-121500500D01*
X175235575Y-121493095D01*
X175376859Y-121485691D01*
X175376867Y-121485690D01*
X175376871Y-121485690D01*
X175376873Y-121485689D01*
X175376880Y-121485689D01*
X175749607Y-121426654D01*
X175749607Y-121426653D01*
X175749613Y-121426653D01*
X176114143Y-121328978D01*
X176466465Y-121193734D01*
X176802720Y-121022403D01*
X177119225Y-120816863D01*
X177412511Y-120579365D01*
X177679365Y-120312511D01*
X177916863Y-120019225D01*
X178122403Y-119702721D01*
X178293734Y-119366465D01*
X178428978Y-119014143D01*
X178526653Y-118649613D01*
X178585690Y-118276871D01*
X178599150Y-118020050D01*
X178605441Y-117900006D01*
X178605441Y-117899993D01*
X178585691Y-117523140D01*
X178585689Y-117523119D01*
X178526654Y-117150392D01*
X178519658Y-117124282D01*
X178428978Y-116785857D01*
X178340943Y-116556518D01*
X178293735Y-116433537D01*
X178178955Y-116208270D01*
X178122403Y-116097280D01*
X177916863Y-115780775D01*
X177896192Y-115755249D01*
X177679368Y-115487493D01*
X177679365Y-115487489D01*
X177412511Y-115220635D01*
X177228099Y-115071301D01*
X177119228Y-114983139D01*
X177050140Y-114938273D01*
X176802720Y-114777597D01*
X176717001Y-114733921D01*
X176466462Y-114606264D01*
X176114147Y-114471023D01*
X176114140Y-114471021D01*
X175749607Y-114373345D01*
X175376880Y-114314310D01*
X175376859Y-114314308D01*
X175094292Y-114299500D01*
X175094280Y-114299500D01*
X174905720Y-114299500D01*
X174905707Y-114299500D01*
X174623140Y-114314308D01*
X174623119Y-114314310D01*
X174250392Y-114373345D01*
X173885859Y-114471021D01*
X173885852Y-114471023D01*
X173533537Y-114606264D01*
X173197285Y-114777594D01*
X172880771Y-114983139D01*
X172587493Y-115220631D01*
X172320631Y-115487493D01*
X172083139Y-115780772D01*
X171877600Y-116097272D01*
X171877594Y-116097283D01*
X171706264Y-116433537D01*
X171571023Y-116785852D01*
X171571021Y-116785859D01*
X171473345Y-117150392D01*
X171414310Y-117523119D01*
X171414308Y-117523140D01*
X171394559Y-117899993D01*
X171394559Y-117900006D01*
X158419852Y-117900006D01*
X158429563Y-117789003D01*
X158429563Y-117788996D01*
X158409350Y-117557957D01*
X158409349Y-117557954D01*
X158409349Y-117557950D01*
X158349320Y-117333921D01*
X158251301Y-117123719D01*
X158118270Y-116933731D01*
X157954269Y-116769730D01*
X157954265Y-116769727D01*
X157954264Y-116769726D01*
X157840463Y-116690042D01*
X157764281Y-116636699D01*
X157639954Y-116578724D01*
X157595207Y-116536996D01*
X157583532Y-116476935D01*
X157609390Y-116421482D01*
X157639953Y-116399276D01*
X157764282Y-116341301D01*
X157954269Y-116208270D01*
X158118270Y-116044269D01*
X158222407Y-115895545D01*
X158271270Y-115858725D01*
X158332447Y-115857657D01*
X158382567Y-115892751D01*
X158402487Y-115950603D01*
X158393228Y-115994168D01*
X158388680Y-116003921D01*
X158328649Y-116227957D01*
X158308437Y-116458996D01*
X158308437Y-116459003D01*
X158328649Y-116690042D01*
X158328650Y-116690049D01*
X158328651Y-116690050D01*
X158388680Y-116914079D01*
X158486699Y-117124282D01*
X158619730Y-117314269D01*
X158783731Y-117478270D01*
X158973718Y-117611301D01*
X159183921Y-117709320D01*
X159407950Y-117769349D01*
X159407954Y-117769349D01*
X159407957Y-117769350D01*
X159638997Y-117789563D01*
X159639000Y-117789563D01*
X159639003Y-117789563D01*
X159870042Y-117769350D01*
X159870043Y-117769349D01*
X159870050Y-117769349D01*
X160094079Y-117709320D01*
X160304282Y-117611301D01*
X160494269Y-117478270D01*
X160658270Y-117314269D01*
X160791301Y-117124282D01*
X160889320Y-116914079D01*
X160949349Y-116690050D01*
X160961032Y-116556518D01*
X160969563Y-116459003D01*
X160969563Y-116458996D01*
X160949350Y-116227957D01*
X160949349Y-116227954D01*
X160949349Y-116227950D01*
X160889320Y-116003921D01*
X160791301Y-115793719D01*
X160658270Y-115603731D01*
X160494269Y-115439730D01*
X160494265Y-115439727D01*
X160494264Y-115439726D01*
X160388865Y-115365925D01*
X160304282Y-115306699D01*
X160244290Y-115278724D01*
X160199543Y-115236996D01*
X160187868Y-115176935D01*
X160213726Y-115121482D01*
X160244291Y-115099275D01*
X160304282Y-115071301D01*
X160494269Y-114938270D01*
X160658270Y-114774269D01*
X160791301Y-114584282D01*
X160889320Y-114374079D01*
X160949349Y-114150050D01*
X160959267Y-114036693D01*
X160969563Y-113919003D01*
X160969563Y-113918996D01*
X160949350Y-113687957D01*
X160949349Y-113687954D01*
X160949349Y-113687950D01*
X160889320Y-113463921D01*
X160791301Y-113253719D01*
X160658270Y-113063731D01*
X160494269Y-112899730D01*
X160494265Y-112899727D01*
X160494264Y-112899726D01*
X160317571Y-112776004D01*
X160304282Y-112766699D01*
X160304281Y-112766698D01*
X160304279Y-112766697D01*
X160304271Y-112766693D01*
X160243700Y-112738448D01*
X160198952Y-112696720D01*
X160187277Y-112636659D01*
X160213135Y-112581206D01*
X160243701Y-112558999D01*
X160304026Y-112530869D01*
X160304028Y-112530868D01*
X160424011Y-112446855D01*
X159991844Y-112014688D01*
X160108194Y-111938163D01*
X160224499Y-111814888D01*
X160273265Y-111730421D01*
X160706855Y-112164011D01*
X160790867Y-112044029D01*
X160888848Y-111833907D01*
X160948855Y-111609955D01*
X160969061Y-111379004D01*
X160969061Y-111378995D01*
X160948855Y-111148044D01*
X160888847Y-110924087D01*
X160790871Y-110713978D01*
X160790866Y-110713968D01*
X160706854Y-110593988D01*
X160275864Y-111024977D01*
X160271143Y-111014032D01*
X160169936Y-110878088D01*
X160040106Y-110769147D01*
X159990779Y-110744374D01*
X160424011Y-110311143D01*
X160377999Y-110278926D01*
X160341177Y-110230062D01*
X160340109Y-110168886D01*
X160375203Y-110118765D01*
X160381853Y-110114168D01*
X160558414Y-110002518D01*
X160742774Y-109839189D01*
X160898546Y-109648402D01*
X161021697Y-109435098D01*
X161109037Y-109204802D01*
X161158304Y-108963477D01*
X161168222Y-108717374D01*
X161138533Y-108472868D01*
X161070008Y-108236290D01*
X160964420Y-108013769D01*
X160835376Y-107826817D01*
X160824505Y-107811067D01*
X160818480Y-107804794D01*
X160653885Y-107633432D01*
X160653882Y-107633429D01*
X160456981Y-107485468D01*
X160238892Y-107371007D01*
X160238883Y-107371003D01*
X160005267Y-107293010D01*
X160005266Y-107293009D01*
X160005264Y-107293009D01*
X160005261Y-107293008D01*
X160005255Y-107293007D01*
X159762152Y-107253500D01*
X159762151Y-107253500D01*
X159577522Y-107253500D01*
X159524605Y-107257771D01*
X159393496Y-107268355D01*
X159393491Y-107268356D01*
X159154350Y-107327300D01*
X158927757Y-107423842D01*
X158719585Y-107555481D01*
X158719584Y-107555483D01*
X158535231Y-107718805D01*
X158535224Y-107718813D01*
X158379455Y-107909596D01*
X158256302Y-108122903D01*
X158168962Y-108353201D01*
X158119696Y-108594519D01*
X158119696Y-108594522D01*
X158119696Y-108594523D01*
X158110743Y-108816696D01*
X158109778Y-108840630D01*
X158131116Y-109016359D01*
X158119361Y-109076404D01*
X158074557Y-109118072D01*
X158013818Y-109125448D01*
X157962836Y-109098297D01*
X157954269Y-109089730D01*
X157954265Y-109089727D01*
X157954264Y-109089726D01*
X157773966Y-108963480D01*
X157764282Y-108956699D01*
X157554079Y-108858680D01*
X157330050Y-108798651D01*
X157330049Y-108798650D01*
X157330042Y-108798649D01*
X157099003Y-108778437D01*
X157098997Y-108778437D01*
X156867957Y-108798649D01*
X156854343Y-108802297D01*
X156643921Y-108858680D01*
X156545902Y-108904386D01*
X156433720Y-108956698D01*
X156243735Y-109089726D01*
X156079726Y-109253735D01*
X155946698Y-109443720D01*
X155932480Y-109474211D01*
X155848680Y-109653921D01*
X155828830Y-109728001D01*
X155788649Y-109877957D01*
X155768437Y-110108996D01*
X155768437Y-110109003D01*
X155788649Y-110340042D01*
X155788650Y-110340049D01*
X155788651Y-110340050D01*
X155848680Y-110564079D01*
X155913114Y-110702258D01*
X155944304Y-110769147D01*
X155946699Y-110774282D01*
X155973944Y-110813192D01*
X156064915Y-110943112D01*
X156079730Y-110964269D01*
X156243731Y-111128270D01*
X156433718Y-111261301D01*
X156493709Y-111289275D01*
X156538457Y-111331004D01*
X156550132Y-111391065D01*
X156524274Y-111446518D01*
X156493709Y-111468724D01*
X156433729Y-111496693D01*
X156433721Y-111496697D01*
X156243735Y-111629726D01*
X156079726Y-111793735D01*
X155946698Y-111983720D01*
X155907714Y-112067322D01*
X155848680Y-112193921D01*
X155820256Y-112300000D01*
X155788649Y-112417957D01*
X155768437Y-112648996D01*
X155768437Y-112649003D01*
X155788649Y-112880042D01*
X155788650Y-112880049D01*
X155788651Y-112880050D01*
X155848680Y-113104079D01*
X155946699Y-113314282D01*
X155975593Y-113355547D01*
X156051478Y-113463922D01*
X156079730Y-113504269D01*
X156243731Y-113668270D01*
X156433718Y-113801301D01*
X156493709Y-113829275D01*
X156538457Y-113871004D01*
X156550132Y-113931065D01*
X156524274Y-113986518D01*
X156493709Y-114008724D01*
X156433729Y-114036693D01*
X156433721Y-114036697D01*
X156243735Y-114169726D01*
X156079726Y-114333735D01*
X155946698Y-114523720D01*
X155848680Y-114733922D01*
X155788649Y-114957957D01*
X155768437Y-115188996D01*
X155768437Y-115189003D01*
X155788649Y-115420042D01*
X155788650Y-115420049D01*
X155788651Y-115420050D01*
X155848680Y-115644079D01*
X155946699Y-115854282D01*
X155975593Y-115895547D01*
X156051478Y-116003922D01*
X156079730Y-116044269D01*
X156243731Y-116208270D01*
X156433718Y-116341301D01*
X156558044Y-116399275D01*
X156602792Y-116441004D01*
X156614467Y-116501065D01*
X156588609Y-116556518D01*
X156558044Y-116578724D01*
X156433729Y-116636693D01*
X156433721Y-116636697D01*
X156243735Y-116769726D01*
X156079726Y-116933735D01*
X155946698Y-117123719D01*
X155894386Y-117235903D01*
X155857847Y-117314264D01*
X155848680Y-117333922D01*
X155788649Y-117557957D01*
X155768437Y-117788996D01*
X155768437Y-117789003D01*
X151773000Y-117789003D01*
X151773000Y-115735000D01*
X123773000Y-115735000D01*
X123773000Y-121750500D01*
X123754093Y-121808691D01*
X123704593Y-121844655D01*
X123674000Y-121849500D01*
X104149500Y-121849500D01*
X104091309Y-121830593D01*
X104055345Y-121781093D01*
X104050500Y-121750500D01*
X104050500Y-117900006D01*
X104394559Y-117900006D01*
X104414308Y-118276859D01*
X104414310Y-118276880D01*
X104473345Y-118649607D01*
X104571021Y-119014140D01*
X104571023Y-119014147D01*
X104706264Y-119366462D01*
X104706266Y-119366465D01*
X104877597Y-119702720D01*
X104877602Y-119702727D01*
X105083138Y-120019227D01*
X105320635Y-120312511D01*
X105587489Y-120579365D01*
X105880775Y-120816863D01*
X106197280Y-121022403D01*
X106533535Y-121193734D01*
X106533537Y-121193735D01*
X106795026Y-121294111D01*
X106885857Y-121328978D01*
X107250387Y-121426653D01*
X107250390Y-121426653D01*
X107250392Y-121426654D01*
X107623119Y-121485689D01*
X107623128Y-121485689D01*
X107623129Y-121485690D01*
X107623130Y-121485690D01*
X107623140Y-121485691D01*
X107784375Y-121494140D01*
X107905720Y-121500500D01*
X107905725Y-121500500D01*
X108094275Y-121500500D01*
X108094280Y-121500500D01*
X108235575Y-121493095D01*
X108376859Y-121485691D01*
X108376867Y-121485690D01*
X108376871Y-121485690D01*
X108376873Y-121485689D01*
X108376880Y-121485689D01*
X108749607Y-121426654D01*
X108749607Y-121426653D01*
X108749613Y-121426653D01*
X109114143Y-121328978D01*
X109466465Y-121193734D01*
X109802720Y-121022403D01*
X110119225Y-120816863D01*
X110412511Y-120579365D01*
X110679365Y-120312511D01*
X110916863Y-120019225D01*
X111122403Y-119702721D01*
X111293734Y-119366465D01*
X111428978Y-119014143D01*
X111526653Y-118649613D01*
X111585690Y-118276871D01*
X111599150Y-118020050D01*
X111605441Y-117900006D01*
X111605441Y-117899993D01*
X111585691Y-117523140D01*
X111585689Y-117523119D01*
X111526654Y-117150392D01*
X111519658Y-117124282D01*
X111428978Y-116785857D01*
X111340943Y-116556518D01*
X111293735Y-116433537D01*
X111178955Y-116208270D01*
X111122403Y-116097280D01*
X110916863Y-115780775D01*
X110896192Y-115755249D01*
X110679368Y-115487493D01*
X110679365Y-115487489D01*
X110412511Y-115220635D01*
X110228099Y-115071301D01*
X110119228Y-114983139D01*
X110050140Y-114938273D01*
X109802720Y-114777597D01*
X109717001Y-114733921D01*
X109466462Y-114606264D01*
X109114147Y-114471023D01*
X109114140Y-114471021D01*
X108749607Y-114373345D01*
X108376880Y-114314310D01*
X108376859Y-114314308D01*
X108094292Y-114299500D01*
X108094280Y-114299500D01*
X107905720Y-114299500D01*
X107905707Y-114299500D01*
X107623140Y-114314308D01*
X107623119Y-114314310D01*
X107250392Y-114373345D01*
X106885859Y-114471021D01*
X106885852Y-114471023D01*
X106533537Y-114606264D01*
X106197285Y-114777594D01*
X105880771Y-114983139D01*
X105587493Y-115220631D01*
X105320631Y-115487493D01*
X105083139Y-115780772D01*
X104877600Y-116097272D01*
X104877594Y-116097283D01*
X104706264Y-116433537D01*
X104571023Y-116785852D01*
X104571021Y-116785859D01*
X104473345Y-117150392D01*
X104414310Y-117523119D01*
X104414308Y-117523140D01*
X104394559Y-117899993D01*
X104394559Y-117900006D01*
X104050500Y-117900006D01*
X104050500Y-112268000D01*
X104604435Y-112268000D01*
X104624632Y-112447257D01*
X104624633Y-112447261D01*
X104684211Y-112617522D01*
X104684211Y-112617523D01*
X104780181Y-112770258D01*
X104780184Y-112770262D01*
X104907738Y-112897816D01*
X104907740Y-112897817D01*
X104907741Y-112897818D01*
X104990027Y-112949522D01*
X105060478Y-112993789D01*
X105128657Y-113017646D01*
X105230738Y-113053366D01*
X105230742Y-113053367D01*
X105230745Y-113053368D01*
X105410000Y-113073565D01*
X105589255Y-113053368D01*
X105759522Y-112993789D01*
X105912262Y-112897816D01*
X106039816Y-112770262D01*
X106135789Y-112617522D01*
X106195368Y-112447255D01*
X106215565Y-112268000D01*
X106195368Y-112088745D01*
X106193337Y-112082941D01*
X106169214Y-112014001D01*
X119232722Y-112014001D01*
X119251762Y-112170816D01*
X119251763Y-112170818D01*
X119260525Y-112193921D01*
X119307780Y-112318523D01*
X119397515Y-112448528D01*
X119397516Y-112448529D01*
X119397517Y-112448530D01*
X119515760Y-112553283D01*
X119655635Y-112626696D01*
X119809015Y-112664500D01*
X119809018Y-112664500D01*
X119966982Y-112664500D01*
X119966985Y-112664500D01*
X120120365Y-112626696D01*
X120260240Y-112553283D01*
X120378483Y-112448530D01*
X120468220Y-112318523D01*
X120524237Y-112170818D01*
X120543278Y-112014001D01*
X122915722Y-112014001D01*
X122934762Y-112170816D01*
X122934763Y-112170818D01*
X122943525Y-112193921D01*
X122990780Y-112318523D01*
X123080515Y-112448528D01*
X123080516Y-112448529D01*
X123080517Y-112448530D01*
X123198760Y-112553283D01*
X123338635Y-112626696D01*
X123492015Y-112664500D01*
X123492018Y-112664500D01*
X123579513Y-112664500D01*
X123637704Y-112683407D01*
X123673668Y-112732907D01*
X123677265Y-112770012D01*
X123677722Y-112770012D01*
X123677722Y-112774726D01*
X123677790Y-112775434D01*
X123677722Y-112776000D01*
X123677722Y-112776004D01*
X123696762Y-112932816D01*
X123696763Y-112932818D01*
X123746412Y-113063731D01*
X123752780Y-113080523D01*
X123842515Y-113210528D01*
X123842516Y-113210529D01*
X123842517Y-113210530D01*
X123960760Y-113315283D01*
X124100635Y-113388696D01*
X124254015Y-113426500D01*
X124254018Y-113426500D01*
X124411982Y-113426500D01*
X124411985Y-113426500D01*
X124565365Y-113388696D01*
X124705240Y-113315283D01*
X124823483Y-113210530D01*
X124913220Y-113080523D01*
X124969237Y-112932818D01*
X124988278Y-112776000D01*
X124988123Y-112774726D01*
X124972858Y-112649003D01*
X124969237Y-112619182D01*
X124913220Y-112471477D01*
X124823483Y-112341470D01*
X124776673Y-112300000D01*
X132694435Y-112300000D01*
X132714632Y-112479257D01*
X132714633Y-112479261D01*
X132774211Y-112649522D01*
X132774211Y-112649523D01*
X132855731Y-112779261D01*
X132870184Y-112802262D01*
X132997738Y-112929816D01*
X132997740Y-112929817D01*
X132997741Y-112929818D01*
X133099548Y-112993788D01*
X133150478Y-113025789D01*
X133218657Y-113049646D01*
X133320738Y-113085366D01*
X133320742Y-113085367D01*
X133320745Y-113085368D01*
X133500000Y-113105565D01*
X133679255Y-113085368D01*
X133849522Y-113025789D01*
X134002262Y-112929816D01*
X134129816Y-112802262D01*
X134225789Y-112649522D01*
X134243117Y-112600000D01*
X150294435Y-112600000D01*
X150314632Y-112779257D01*
X150314633Y-112779261D01*
X150374211Y-112949522D01*
X150374211Y-112949523D01*
X150470181Y-113102258D01*
X150470184Y-113102262D01*
X150597738Y-113229816D01*
X150597740Y-113229817D01*
X150597741Y-113229818D01*
X150739235Y-113318725D01*
X150750478Y-113325789D01*
X150818657Y-113349646D01*
X150920738Y-113385366D01*
X150920742Y-113385367D01*
X150920745Y-113385368D01*
X151100000Y-113405565D01*
X151279255Y-113385368D01*
X151449522Y-113325789D01*
X151602262Y-113229816D01*
X151729816Y-113102262D01*
X151825789Y-112949522D01*
X151885368Y-112779255D01*
X151905565Y-112600000D01*
X151885368Y-112420745D01*
X151884392Y-112417957D01*
X151831920Y-112268000D01*
X151825789Y-112250478D01*
X151817142Y-112236717D01*
X151729818Y-112097741D01*
X151729817Y-112097740D01*
X151729816Y-112097738D01*
X151602262Y-111970184D01*
X151602259Y-111970182D01*
X151602258Y-111970181D01*
X151449523Y-111874211D01*
X151279261Y-111814633D01*
X151279257Y-111814632D01*
X151100000Y-111794435D01*
X150920742Y-111814632D01*
X150920738Y-111814633D01*
X150750477Y-111874211D01*
X150750476Y-111874211D01*
X150597741Y-111970181D01*
X150470181Y-112097741D01*
X150374211Y-112250476D01*
X150374211Y-112250477D01*
X150314633Y-112420738D01*
X150314632Y-112420742D01*
X150294435Y-112600000D01*
X134243117Y-112600000D01*
X134285368Y-112479255D01*
X134305565Y-112300000D01*
X134285368Y-112120745D01*
X134274168Y-112088738D01*
X134248458Y-112015262D01*
X134225789Y-111950478D01*
X134205681Y-111918477D01*
X134129818Y-111797741D01*
X134129817Y-111797740D01*
X134129816Y-111797738D01*
X134002262Y-111670184D01*
X134002259Y-111670182D01*
X134002258Y-111670181D01*
X133849523Y-111574211D01*
X133679261Y-111514633D01*
X133679257Y-111514632D01*
X133500000Y-111494435D01*
X133320742Y-111514632D01*
X133320738Y-111514633D01*
X133150477Y-111574211D01*
X133150476Y-111574211D01*
X132997741Y-111670181D01*
X132870181Y-111797741D01*
X132774211Y-111950476D01*
X132774211Y-111950477D01*
X132714633Y-112120738D01*
X132714632Y-112120742D01*
X132694435Y-112300000D01*
X124776673Y-112300000D01*
X124705240Y-112236717D01*
X124579678Y-112170816D01*
X124565364Y-112163303D01*
X124411987Y-112125500D01*
X124411985Y-112125500D01*
X124324487Y-112125500D01*
X124266296Y-112106593D01*
X124230332Y-112057093D01*
X124226736Y-112019989D01*
X124226278Y-112019989D01*
X124226278Y-112015262D01*
X124226210Y-112014561D01*
X124226278Y-112014001D01*
X124226278Y-112013998D01*
X124207237Y-111857183D01*
X124207237Y-111857182D01*
X124151220Y-111709477D01*
X124061483Y-111579470D01*
X123943240Y-111474717D01*
X123873302Y-111438010D01*
X123803364Y-111401303D01*
X123649987Y-111363500D01*
X123649985Y-111363500D01*
X123492015Y-111363500D01*
X123492012Y-111363500D01*
X123338635Y-111401303D01*
X123198758Y-111474718D01*
X123080515Y-111579471D01*
X122990780Y-111709476D01*
X122934763Y-111857182D01*
X122934762Y-111857183D01*
X122915722Y-112013998D01*
X122915722Y-112014001D01*
X120543278Y-112014001D01*
X120543278Y-112014000D01*
X120539601Y-111983720D01*
X120524237Y-111857183D01*
X120524237Y-111857182D01*
X120468220Y-111709477D01*
X120378483Y-111579470D01*
X120260240Y-111474717D01*
X120190302Y-111438010D01*
X120120364Y-111401303D01*
X119966987Y-111363500D01*
X119966985Y-111363500D01*
X119809015Y-111363500D01*
X119809012Y-111363500D01*
X119655635Y-111401303D01*
X119515758Y-111474718D01*
X119397515Y-111579471D01*
X119307780Y-111709476D01*
X119251763Y-111857182D01*
X119251762Y-111857183D01*
X119232722Y-112013998D01*
X119232722Y-112014001D01*
X106169214Y-112014001D01*
X106155431Y-111974613D01*
X106135789Y-111918478D01*
X106111556Y-111879912D01*
X106039818Y-111765741D01*
X106039817Y-111765740D01*
X106039816Y-111765738D01*
X105912262Y-111638184D01*
X105912259Y-111638182D01*
X105912258Y-111638181D01*
X105759523Y-111542211D01*
X105589261Y-111482633D01*
X105589257Y-111482632D01*
X105410000Y-111462435D01*
X105230742Y-111482632D01*
X105230738Y-111482633D01*
X105060477Y-111542211D01*
X105060476Y-111542211D01*
X104907741Y-111638181D01*
X104780181Y-111765741D01*
X104684211Y-111918476D01*
X104684211Y-111918477D01*
X104624633Y-112088738D01*
X104624632Y-112088742D01*
X104604435Y-112268000D01*
X104050500Y-112268000D01*
X104050500Y-110490001D01*
X114406722Y-110490001D01*
X114425762Y-110646816D01*
X114425763Y-110646818D01*
X114481780Y-110794522D01*
X114481780Y-110794523D01*
X114571515Y-110924528D01*
X114571516Y-110924529D01*
X114571517Y-110924530D01*
X114689760Y-111029283D01*
X114829635Y-111102696D01*
X114983015Y-111140500D01*
X114983018Y-111140500D01*
X115140982Y-111140500D01*
X115140985Y-111140500D01*
X115294365Y-111102696D01*
X115434240Y-111029283D01*
X115552483Y-110924530D01*
X115642220Y-110794523D01*
X115698237Y-110646818D01*
X115717278Y-110490000D01*
X115698237Y-110333182D01*
X115647728Y-110200000D01*
X130494435Y-110200000D01*
X130514632Y-110379257D01*
X130514633Y-110379261D01*
X130574211Y-110549522D01*
X130574211Y-110549523D01*
X130670181Y-110702258D01*
X130670184Y-110702262D01*
X130797738Y-110829816D01*
X130950478Y-110925789D01*
X131018657Y-110949646D01*
X131120738Y-110985366D01*
X131120742Y-110985367D01*
X131120745Y-110985368D01*
X131300000Y-111005565D01*
X131479255Y-110985368D01*
X131649522Y-110925789D01*
X131802262Y-110829816D01*
X131929816Y-110702262D01*
X132025789Y-110549522D01*
X132085368Y-110379255D01*
X132105565Y-110200000D01*
X132085368Y-110020745D01*
X132078989Y-110002516D01*
X132037805Y-109884818D01*
X132025789Y-109850478D01*
X131929816Y-109697738D01*
X131802262Y-109570184D01*
X131802259Y-109570182D01*
X131802258Y-109570181D01*
X131649523Y-109474211D01*
X131479261Y-109414633D01*
X131479257Y-109414632D01*
X131300000Y-109394435D01*
X131120742Y-109414632D01*
X131120738Y-109414633D01*
X130950477Y-109474211D01*
X130950476Y-109474211D01*
X130797741Y-109570181D01*
X130670181Y-109697741D01*
X130574211Y-109850476D01*
X130574211Y-109850477D01*
X130514633Y-110020738D01*
X130514632Y-110020742D01*
X130494435Y-110200000D01*
X115647728Y-110200000D01*
X115642220Y-110185477D01*
X115564260Y-110072532D01*
X115552484Y-110055471D01*
X115434241Y-109950718D01*
X115434240Y-109950717D01*
X115308678Y-109884816D01*
X115294364Y-109877303D01*
X115140987Y-109839500D01*
X115140985Y-109839500D01*
X114983015Y-109839500D01*
X114983012Y-109839500D01*
X114829635Y-109877303D01*
X114689758Y-109950718D01*
X114571515Y-110055471D01*
X114481780Y-110185476D01*
X114425763Y-110333182D01*
X114425762Y-110333183D01*
X114406722Y-110489998D01*
X114406722Y-110490001D01*
X104050500Y-110490001D01*
X104050500Y-109728001D01*
X108818722Y-109728001D01*
X108837762Y-109884816D01*
X108837763Y-109884817D01*
X108893780Y-110032523D01*
X108983515Y-110162528D01*
X108983516Y-110162529D01*
X108983517Y-110162530D01*
X109101760Y-110267283D01*
X109241635Y-110340696D01*
X109395015Y-110378500D01*
X109395018Y-110378500D01*
X109552982Y-110378500D01*
X109552985Y-110378500D01*
X109706365Y-110340696D01*
X109846240Y-110267283D01*
X109964483Y-110162530D01*
X110054220Y-110032523D01*
X110110237Y-109884818D01*
X110129278Y-109728000D01*
X110110237Y-109571182D01*
X110054220Y-109423477D01*
X110054218Y-109423474D01*
X110054218Y-109423473D01*
X110052162Y-109420495D01*
X110051512Y-109418319D01*
X110051437Y-109418175D01*
X110051465Y-109418160D01*
X110034667Y-109361864D01*
X110054976Y-109304148D01*
X110067990Y-109290155D01*
X110128186Y-109236827D01*
X110128186Y-109236826D01*
X110128187Y-109236826D01*
X110217924Y-109106819D01*
X110273941Y-108959114D01*
X110292982Y-108802296D01*
X110292539Y-108798651D01*
X110273941Y-108645479D01*
X110273941Y-108645478D01*
X110217924Y-108497773D01*
X110128187Y-108367766D01*
X110009944Y-108263013D01*
X109927036Y-108219499D01*
X109870068Y-108189599D01*
X109716691Y-108151796D01*
X109716689Y-108151796D01*
X109558719Y-108151796D01*
X109558716Y-108151796D01*
X109405339Y-108189599D01*
X109265462Y-108263014D01*
X109147219Y-108367767D01*
X109057484Y-108497772D01*
X109001467Y-108645478D01*
X109001466Y-108645479D01*
X108982426Y-108802294D01*
X108982426Y-108802297D01*
X109001466Y-108959112D01*
X109001467Y-108959114D01*
X109057484Y-109106819D01*
X109057485Y-109106820D01*
X109059543Y-109109802D01*
X109060192Y-109111979D01*
X109060267Y-109112121D01*
X109060239Y-109112135D01*
X109077036Y-109168433D01*
X109056726Y-109226149D01*
X109043714Y-109240139D01*
X108983518Y-109293467D01*
X108983517Y-109293469D01*
X108893780Y-109423476D01*
X108837763Y-109571182D01*
X108837762Y-109571183D01*
X108818722Y-109727998D01*
X108818722Y-109728001D01*
X104050500Y-109728001D01*
X104050500Y-107188000D01*
X104858435Y-107188000D01*
X104878632Y-107367257D01*
X104878633Y-107367261D01*
X104938211Y-107537522D01*
X104938211Y-107537523D01*
X105034181Y-107690258D01*
X105034184Y-107690262D01*
X105161738Y-107817816D01*
X105161740Y-107817817D01*
X105161741Y-107817818D01*
X105307804Y-107909596D01*
X105314478Y-107913789D01*
X105382657Y-107937646D01*
X105484738Y-107973366D01*
X105484742Y-107973367D01*
X105484745Y-107973368D01*
X105664000Y-107993565D01*
X105843255Y-107973368D01*
X106013522Y-107913789D01*
X106166262Y-107817816D01*
X106293816Y-107690262D01*
X106389789Y-107537522D01*
X106448055Y-107371007D01*
X106449366Y-107367261D01*
X106449367Y-107367257D01*
X106449368Y-107367255D01*
X106469565Y-107188000D01*
X106449368Y-107008745D01*
X106440892Y-106984523D01*
X106411469Y-106900437D01*
X106389789Y-106838478D01*
X106389666Y-106838283D01*
X106293818Y-106685741D01*
X106293817Y-106685740D01*
X106293816Y-106685738D01*
X106166262Y-106558184D01*
X106166259Y-106558182D01*
X106166258Y-106558181D01*
X106013523Y-106462211D01*
X105843261Y-106402633D01*
X105843257Y-106402632D01*
X105664000Y-106382435D01*
X105484742Y-106402632D01*
X105484738Y-106402633D01*
X105314477Y-106462211D01*
X105314476Y-106462211D01*
X105161741Y-106558181D01*
X105034181Y-106685741D01*
X104938211Y-106838476D01*
X104938211Y-106838477D01*
X104878633Y-107008738D01*
X104878632Y-107008742D01*
X104858435Y-107188000D01*
X104050500Y-107188000D01*
X104050500Y-106299001D01*
X111739722Y-106299001D01*
X111758762Y-106455816D01*
X111758763Y-106455818D01*
X111797067Y-106556817D01*
X111814780Y-106603523D01*
X111904515Y-106733528D01*
X111904516Y-106733529D01*
X111904517Y-106733530D01*
X112022760Y-106838283D01*
X112079768Y-106868204D01*
X112122506Y-106911987D01*
X112132038Y-106967795D01*
X112120722Y-107060997D01*
X112120722Y-107061001D01*
X112139762Y-107217816D01*
X112139763Y-107217818D01*
X112168279Y-107293009D01*
X112195780Y-107365523D01*
X112285515Y-107495528D01*
X112285516Y-107495529D01*
X112285517Y-107495530D01*
X112403760Y-107600283D01*
X112543635Y-107673696D01*
X112697015Y-107711500D01*
X112697018Y-107711500D01*
X112854982Y-107711500D01*
X112854985Y-107711500D01*
X113008365Y-107673696D01*
X113148240Y-107600283D01*
X113183550Y-107569001D01*
X115041722Y-107569001D01*
X115060762Y-107725816D01*
X115060763Y-107725818D01*
X115099067Y-107826817D01*
X115116780Y-107873523D01*
X115206515Y-108003528D01*
X115206516Y-108003529D01*
X115206517Y-108003530D01*
X115324760Y-108108283D01*
X115464635Y-108181696D01*
X115618015Y-108219500D01*
X115618018Y-108219500D01*
X115775982Y-108219500D01*
X115775985Y-108219500D01*
X115838868Y-108204001D01*
X120756722Y-108204001D01*
X120775762Y-108360816D01*
X120775763Y-108360818D01*
X120803718Y-108434530D01*
X120831780Y-108508523D01*
X120921515Y-108638528D01*
X120921516Y-108638529D01*
X120921517Y-108638530D01*
X121039760Y-108743283D01*
X121179635Y-108816696D01*
X121333015Y-108854500D01*
X121333018Y-108854500D01*
X121490982Y-108854500D01*
X121490985Y-108854500D01*
X121644365Y-108816696D01*
X121784240Y-108743283D01*
X121902483Y-108638530D01*
X121992220Y-108508523D01*
X122048237Y-108360818D01*
X122067278Y-108204000D01*
X122065529Y-108189599D01*
X122048237Y-108047183D01*
X122048237Y-108047182D01*
X122030344Y-108000001D01*
X143744722Y-108000001D01*
X143763762Y-108156816D01*
X143763763Y-108156818D01*
X143787535Y-108219499D01*
X143819780Y-108304523D01*
X143909515Y-108434528D01*
X143909516Y-108434529D01*
X143909517Y-108434530D01*
X144027760Y-108539283D01*
X144167635Y-108612696D01*
X144321015Y-108650500D01*
X144321018Y-108650500D01*
X144478982Y-108650500D01*
X144478985Y-108650500D01*
X144632365Y-108612696D01*
X144772240Y-108539283D01*
X144890483Y-108434530D01*
X144980220Y-108304523D01*
X145036237Y-108156818D01*
X145055278Y-108000000D01*
X145036237Y-107843182D01*
X144980220Y-107695477D01*
X144962635Y-107670001D01*
X147144722Y-107670001D01*
X147163762Y-107826816D01*
X147163763Y-107826818D01*
X147195157Y-107909598D01*
X147219780Y-107974523D01*
X147309515Y-108104528D01*
X147309516Y-108104529D01*
X147309517Y-108104530D01*
X147427760Y-108209283D01*
X147567635Y-108282696D01*
X147721015Y-108320500D01*
X147721018Y-108320500D01*
X147878982Y-108320500D01*
X147878985Y-108320500D01*
X148032365Y-108282696D01*
X148172240Y-108209283D01*
X148290483Y-108104530D01*
X148380220Y-107974523D01*
X148436237Y-107826818D01*
X148455278Y-107670000D01*
X148436237Y-107513182D01*
X148380220Y-107365477D01*
X148329983Y-107292696D01*
X148290484Y-107235471D01*
X148270555Y-107217816D01*
X148231361Y-107183093D01*
X148172239Y-107130716D01*
X148156885Y-107122657D01*
X148114148Y-107078872D01*
X148105310Y-107018328D01*
X148133746Y-106964152D01*
X148156885Y-106947341D01*
X148172240Y-106939283D01*
X148290483Y-106834530D01*
X148380220Y-106704523D01*
X148436237Y-106556818D01*
X148454958Y-106402633D01*
X148455278Y-106400001D01*
X148455278Y-106399998D01*
X148436237Y-106243183D01*
X148436237Y-106243182D01*
X148380220Y-106095477D01*
X148290483Y-105965470D01*
X148231361Y-105913093D01*
X148172239Y-105860716D01*
X148156885Y-105852657D01*
X148114148Y-105808872D01*
X148105310Y-105748328D01*
X148133746Y-105694152D01*
X148156885Y-105677341D01*
X148172240Y-105669283D01*
X148290483Y-105564530D01*
X148380220Y-105434523D01*
X148436237Y-105286818D01*
X148455278Y-105130000D01*
X148436237Y-104973182D01*
X148380220Y-104825477D01*
X148290483Y-104695470D01*
X148179871Y-104597477D01*
X148172239Y-104590716D01*
X148156885Y-104582657D01*
X148114148Y-104538872D01*
X148105310Y-104478328D01*
X148133746Y-104424152D01*
X148156885Y-104407341D01*
X148172240Y-104399283D01*
X148290483Y-104294530D01*
X148380220Y-104164523D01*
X148436237Y-104016818D01*
X148455278Y-103860000D01*
X148436237Y-103703182D01*
X148380220Y-103555477D01*
X148335351Y-103490473D01*
X148290484Y-103425471D01*
X148193738Y-103339762D01*
X148172240Y-103320717D01*
X148102302Y-103284010D01*
X148032364Y-103247303D01*
X147878987Y-103209500D01*
X147878985Y-103209500D01*
X147721015Y-103209500D01*
X147721012Y-103209500D01*
X147567635Y-103247303D01*
X147427758Y-103320718D01*
X147309515Y-103425471D01*
X147219780Y-103555476D01*
X147163763Y-103703182D01*
X147163762Y-103703183D01*
X147144722Y-103859998D01*
X147144722Y-103860001D01*
X147163762Y-104016816D01*
X147163763Y-104016817D01*
X147219780Y-104164523D01*
X147309515Y-104294528D01*
X147309516Y-104294529D01*
X147309517Y-104294530D01*
X147427760Y-104399283D01*
X147443110Y-104407339D01*
X147485848Y-104451121D01*
X147494690Y-104511664D01*
X147466257Y-104565842D01*
X147443115Y-104582657D01*
X147427759Y-104590717D01*
X147309515Y-104695471D01*
X147219780Y-104825476D01*
X147163763Y-104973182D01*
X147163762Y-104973183D01*
X147144722Y-105129998D01*
X147144722Y-105130001D01*
X147163762Y-105286816D01*
X147163763Y-105286818D01*
X147182616Y-105336530D01*
X147219780Y-105434523D01*
X147309515Y-105564528D01*
X147309516Y-105564529D01*
X147309517Y-105564530D01*
X147427760Y-105669283D01*
X147443110Y-105677339D01*
X147485848Y-105721121D01*
X147494690Y-105781664D01*
X147466257Y-105835842D01*
X147443115Y-105852657D01*
X147427759Y-105860717D01*
X147309515Y-105965471D01*
X147219780Y-106095476D01*
X147163763Y-106243182D01*
X147163762Y-106243183D01*
X147144722Y-106399998D01*
X147144722Y-106400001D01*
X147163762Y-106556816D01*
X147163763Y-106556818D01*
X147191319Y-106629477D01*
X147219780Y-106704523D01*
X147309515Y-106834528D01*
X147309516Y-106834529D01*
X147309517Y-106834530D01*
X147427760Y-106939283D01*
X147443110Y-106947339D01*
X147485848Y-106991121D01*
X147494690Y-107051664D01*
X147466257Y-107105842D01*
X147443115Y-107122657D01*
X147427759Y-107130717D01*
X147309515Y-107235471D01*
X147219780Y-107365476D01*
X147163763Y-107513182D01*
X147163762Y-107513183D01*
X147144722Y-107669998D01*
X147144722Y-107670001D01*
X144962635Y-107670001D01*
X144904891Y-107586344D01*
X144890484Y-107565471D01*
X144879208Y-107555481D01*
X144772240Y-107460717D01*
X144701981Y-107423842D01*
X144632364Y-107387303D01*
X144478987Y-107349500D01*
X144478985Y-107349500D01*
X144321015Y-107349500D01*
X144321012Y-107349500D01*
X144167635Y-107387303D01*
X144027758Y-107460718D01*
X143909515Y-107565471D01*
X143819780Y-107695476D01*
X143763763Y-107843182D01*
X143763762Y-107843183D01*
X143744722Y-107999998D01*
X143744722Y-108000001D01*
X122030344Y-108000001D01*
X121992220Y-107899477D01*
X121902483Y-107769470D01*
X121784240Y-107664717D01*
X121714302Y-107628010D01*
X121644364Y-107591303D01*
X121490987Y-107553500D01*
X121490985Y-107553500D01*
X121333015Y-107553500D01*
X121333012Y-107553500D01*
X121179635Y-107591303D01*
X121039758Y-107664718D01*
X120921515Y-107769471D01*
X120831780Y-107899476D01*
X120775763Y-108047182D01*
X120775762Y-108047183D01*
X120756722Y-108203998D01*
X120756722Y-108204001D01*
X115838868Y-108204001D01*
X115929365Y-108181696D01*
X116069240Y-108108283D01*
X116187483Y-108003530D01*
X116277220Y-107873523D01*
X116333237Y-107725818D01*
X116339823Y-107671567D01*
X116365607Y-107616079D01*
X116419081Y-107586344D01*
X116438102Y-107584500D01*
X116537982Y-107584500D01*
X116537985Y-107584500D01*
X116691365Y-107546696D01*
X116831240Y-107473283D01*
X116949483Y-107368530D01*
X117039220Y-107238523D01*
X117095237Y-107090818D01*
X117111570Y-106956303D01*
X117114278Y-106934001D01*
X117114278Y-106933998D01*
X117095237Y-106777183D01*
X117095237Y-106777182D01*
X117058381Y-106680001D01*
X120248722Y-106680001D01*
X120267762Y-106836816D01*
X120267763Y-106836818D01*
X120304619Y-106934000D01*
X120323780Y-106984523D01*
X120413515Y-107114528D01*
X120413516Y-107114529D01*
X120413517Y-107114530D01*
X120531760Y-107219283D01*
X120671635Y-107292696D01*
X120825015Y-107330500D01*
X120825018Y-107330500D01*
X120982982Y-107330500D01*
X120982985Y-107330500D01*
X121136365Y-107292696D01*
X121276240Y-107219283D01*
X121394483Y-107114530D01*
X121484220Y-106984523D01*
X121540237Y-106836818D01*
X121559278Y-106680000D01*
X121553143Y-106629477D01*
X121540237Y-106523183D01*
X121540237Y-106523182D01*
X121484220Y-106375477D01*
X121394483Y-106245470D01*
X121276240Y-106140717D01*
X121206302Y-106104010D01*
X121136364Y-106067303D01*
X120982987Y-106029500D01*
X120982985Y-106029500D01*
X120825015Y-106029500D01*
X120825012Y-106029500D01*
X120671635Y-106067303D01*
X120531758Y-106140718D01*
X120413515Y-106245471D01*
X120323780Y-106375476D01*
X120267763Y-106523182D01*
X120267762Y-106523183D01*
X120248722Y-106679998D01*
X120248722Y-106680001D01*
X117058381Y-106680001D01*
X117039220Y-106629477D01*
X116949483Y-106499470D01*
X116831240Y-106394717D01*
X116761302Y-106358010D01*
X116691364Y-106321303D01*
X116537987Y-106283500D01*
X116537985Y-106283500D01*
X116380015Y-106283500D01*
X116380012Y-106283500D01*
X116226635Y-106321303D01*
X116086758Y-106394718D01*
X115968515Y-106499471D01*
X115878780Y-106629476D01*
X115822763Y-106777182D01*
X115822762Y-106777183D01*
X115816176Y-106831433D01*
X115790393Y-106886920D01*
X115736919Y-106916656D01*
X115717898Y-106918500D01*
X115618012Y-106918500D01*
X115464635Y-106956303D01*
X115324758Y-107029718D01*
X115206515Y-107134471D01*
X115116780Y-107264476D01*
X115060763Y-107412182D01*
X115060762Y-107412183D01*
X115041722Y-107568998D01*
X115041722Y-107569001D01*
X113183550Y-107569001D01*
X113266483Y-107495530D01*
X113356220Y-107365523D01*
X113412237Y-107217818D01*
X113425833Y-107105842D01*
X113431278Y-107061001D01*
X113431278Y-107060998D01*
X113415858Y-106934001D01*
X113412237Y-106904182D01*
X113356220Y-106756477D01*
X113266483Y-106626470D01*
X113148240Y-106521717D01*
X113091230Y-106491795D01*
X113048492Y-106448011D01*
X113038961Y-106392203D01*
X113050278Y-106299001D01*
X113050278Y-106298998D01*
X113031237Y-106142183D01*
X113031237Y-106142182D01*
X112975220Y-105994477D01*
X112885483Y-105864470D01*
X112767240Y-105759717D01*
X112693702Y-105721121D01*
X112627364Y-105686303D01*
X112473987Y-105648500D01*
X112473985Y-105648500D01*
X112316015Y-105648500D01*
X112316012Y-105648500D01*
X112162635Y-105686303D01*
X112022758Y-105759718D01*
X111904515Y-105864471D01*
X111814780Y-105994476D01*
X111758763Y-106142182D01*
X111758762Y-106142183D01*
X111739722Y-106298998D01*
X111739722Y-106299001D01*
X104050500Y-106299001D01*
X104050500Y-104902001D01*
X115844722Y-104902001D01*
X115863762Y-105058816D01*
X115863763Y-105058817D01*
X115919780Y-105206523D01*
X116009515Y-105336528D01*
X116009516Y-105336529D01*
X116009517Y-105336530D01*
X116127760Y-105441283D01*
X116267635Y-105514696D01*
X116421015Y-105552500D01*
X116421018Y-105552500D01*
X116578982Y-105552500D01*
X116578985Y-105552500D01*
X116732365Y-105514696D01*
X116872240Y-105441283D01*
X116990483Y-105336530D01*
X117080220Y-105206523D01*
X117136237Y-105058818D01*
X117155278Y-104902000D01*
X117136237Y-104745182D01*
X117080220Y-104597477D01*
X116997978Y-104478328D01*
X116990484Y-104467471D01*
X116972029Y-104451121D01*
X116872240Y-104362717D01*
X116802302Y-104326010D01*
X116732364Y-104289303D01*
X116578987Y-104251500D01*
X116578985Y-104251500D01*
X116421015Y-104251500D01*
X116421012Y-104251500D01*
X116267635Y-104289303D01*
X116127758Y-104362718D01*
X116009515Y-104467471D01*
X115919780Y-104597476D01*
X115863763Y-104745182D01*
X115863762Y-104745183D01*
X115844722Y-104901998D01*
X115844722Y-104902001D01*
X104050500Y-104902001D01*
X104050500Y-102600001D01*
X144444722Y-102600001D01*
X144463762Y-102756816D01*
X144463763Y-102756817D01*
X144519780Y-102904523D01*
X144609515Y-103034528D01*
X144609516Y-103034529D01*
X144609517Y-103034530D01*
X144727760Y-103139283D01*
X144867635Y-103212696D01*
X145021015Y-103250500D01*
X145021018Y-103250500D01*
X145178982Y-103250500D01*
X145178985Y-103250500D01*
X145332365Y-103212696D01*
X145472240Y-103139283D01*
X145590483Y-103034530D01*
X145680220Y-102904523D01*
X145736237Y-102756818D01*
X145755278Y-102600000D01*
X145743136Y-102500001D01*
X151844722Y-102500001D01*
X151863762Y-102656816D01*
X151863763Y-102656818D01*
X151901687Y-102756816D01*
X151919780Y-102804523D01*
X152009515Y-102934528D01*
X152009516Y-102934529D01*
X152009517Y-102934530D01*
X152127760Y-103039283D01*
X152267635Y-103112696D01*
X152421015Y-103150500D01*
X152421018Y-103150500D01*
X152578982Y-103150500D01*
X152578985Y-103150500D01*
X152732365Y-103112696D01*
X152872240Y-103039283D01*
X152990483Y-102934530D01*
X153057458Y-102837499D01*
X162994435Y-102837499D01*
X163014632Y-103016757D01*
X163014633Y-103016761D01*
X163074211Y-103187022D01*
X163074211Y-103187023D01*
X163170181Y-103339758D01*
X163170184Y-103339762D01*
X163297738Y-103467316D01*
X163297740Y-103467317D01*
X163297741Y-103467318D01*
X163438043Y-103555476D01*
X163450478Y-103563289D01*
X163518657Y-103587146D01*
X163620738Y-103622866D01*
X163620742Y-103622867D01*
X163620745Y-103622868D01*
X163800000Y-103643065D01*
X163979255Y-103622868D01*
X164149522Y-103563289D01*
X164302262Y-103467316D01*
X164429816Y-103339762D01*
X164525789Y-103187022D01*
X164585368Y-103016755D01*
X164605565Y-102837500D01*
X164585368Y-102658245D01*
X164584868Y-102656817D01*
X164561014Y-102588645D01*
X164525789Y-102487978D01*
X164497642Y-102443183D01*
X164429818Y-102335241D01*
X164429817Y-102335240D01*
X164429816Y-102335238D01*
X164302262Y-102207684D01*
X164302259Y-102207682D01*
X164302258Y-102207681D01*
X164149523Y-102111711D01*
X163979261Y-102052133D01*
X163979257Y-102052132D01*
X163800000Y-102031935D01*
X163620742Y-102052132D01*
X163620738Y-102052133D01*
X163450477Y-102111711D01*
X163450476Y-102111711D01*
X163297741Y-102207681D01*
X163170181Y-102335241D01*
X163074211Y-102487976D01*
X163074211Y-102487977D01*
X163014633Y-102658238D01*
X163014632Y-102658242D01*
X162994435Y-102837499D01*
X153057458Y-102837499D01*
X153080220Y-102804523D01*
X153136237Y-102656818D01*
X153155278Y-102500000D01*
X153136237Y-102343182D01*
X153080220Y-102195477D01*
X152990483Y-102065470D01*
X152872240Y-101960717D01*
X152802302Y-101924010D01*
X152732364Y-101887303D01*
X152578987Y-101849500D01*
X152578985Y-101849500D01*
X152421015Y-101849500D01*
X152421012Y-101849500D01*
X152267635Y-101887303D01*
X152127758Y-101960718D01*
X152009515Y-102065471D01*
X151919780Y-102195476D01*
X151863763Y-102343182D01*
X151863762Y-102343183D01*
X151844722Y-102499998D01*
X151844722Y-102500001D01*
X145743136Y-102500001D01*
X145736237Y-102443182D01*
X145680220Y-102295477D01*
X145619619Y-102207681D01*
X145590484Y-102165471D01*
X145590480Y-102165467D01*
X145472240Y-102060717D01*
X145402302Y-102024010D01*
X145332364Y-101987303D01*
X145178987Y-101949500D01*
X145178985Y-101949500D01*
X145021015Y-101949500D01*
X145021012Y-101949500D01*
X144867635Y-101987303D01*
X144758934Y-102044355D01*
X144736329Y-102048215D01*
X144724722Y-102063406D01*
X144609518Y-102165467D01*
X144609517Y-102165469D01*
X144519780Y-102295476D01*
X144463763Y-102443182D01*
X144463762Y-102443183D01*
X144444722Y-102599998D01*
X144444722Y-102600001D01*
X104050500Y-102600001D01*
X104050500Y-101473000D01*
X107525435Y-101473000D01*
X107545632Y-101652257D01*
X107545633Y-101652261D01*
X107605211Y-101822522D01*
X107605211Y-101822523D01*
X107692045Y-101960718D01*
X107701184Y-101975262D01*
X107828738Y-102102816D01*
X107828740Y-102102817D01*
X107828741Y-102102818D01*
X107928452Y-102165471D01*
X107981478Y-102198789D01*
X108049657Y-102222646D01*
X108151738Y-102258366D01*
X108151742Y-102258367D01*
X108151745Y-102258368D01*
X108331000Y-102278565D01*
X108510255Y-102258368D01*
X108680522Y-102198789D01*
X108833262Y-102102816D01*
X108960816Y-101975262D01*
X109056789Y-101822522D01*
X109116368Y-101652255D01*
X109136565Y-101473000D01*
X109122256Y-101346001D01*
X127106722Y-101346001D01*
X127125762Y-101502816D01*
X127125763Y-101502817D01*
X127181780Y-101650523D01*
X127271515Y-101780528D01*
X127271516Y-101780529D01*
X127271517Y-101780530D01*
X127389760Y-101885283D01*
X127529635Y-101958696D01*
X127683015Y-101996500D01*
X127683018Y-101996500D01*
X127840982Y-101996500D01*
X127840985Y-101996500D01*
X127994365Y-101958696D01*
X128134240Y-101885283D01*
X128252483Y-101780530D01*
X128342220Y-101650523D01*
X128398237Y-101502818D01*
X128417278Y-101346001D01*
X143616722Y-101346001D01*
X143635762Y-101502816D01*
X143635763Y-101502817D01*
X143691780Y-101650523D01*
X143781515Y-101780528D01*
X143781516Y-101780529D01*
X143781517Y-101780530D01*
X143899760Y-101885283D01*
X144039635Y-101958696D01*
X144193015Y-101996500D01*
X144193018Y-101996500D01*
X144350982Y-101996500D01*
X144350985Y-101996500D01*
X144504365Y-101958696D01*
X144613068Y-101901643D01*
X144635669Y-101897783D01*
X144647275Y-101882593D01*
X144762483Y-101780530D01*
X144852220Y-101650523D01*
X144908237Y-101502818D01*
X144927278Y-101346000D01*
X144908237Y-101189182D01*
X144852220Y-101041477D01*
X144762483Y-100911470D01*
X144644240Y-100806717D01*
X144574302Y-100770010D01*
X144504364Y-100733303D01*
X144350987Y-100695500D01*
X144350985Y-100695500D01*
X144193015Y-100695500D01*
X144193012Y-100695500D01*
X144039635Y-100733303D01*
X143899758Y-100806718D01*
X143781515Y-100911471D01*
X143691780Y-101041476D01*
X143635763Y-101189182D01*
X143635762Y-101189183D01*
X143616722Y-101345998D01*
X143616722Y-101346001D01*
X128417278Y-101346001D01*
X128417278Y-101346000D01*
X128398237Y-101189182D01*
X128342220Y-101041477D01*
X128252483Y-100911470D01*
X128134240Y-100806717D01*
X128064302Y-100770010D01*
X127994364Y-100733303D01*
X127840987Y-100695500D01*
X127840985Y-100695500D01*
X127683015Y-100695500D01*
X127683012Y-100695500D01*
X127529635Y-100733303D01*
X127389758Y-100806718D01*
X127271515Y-100911471D01*
X127181780Y-101041476D01*
X127125763Y-101189182D01*
X127125762Y-101189183D01*
X127106722Y-101345998D01*
X127106722Y-101346001D01*
X109122256Y-101346001D01*
X109116368Y-101293745D01*
X109056789Y-101123478D01*
X108960816Y-100970738D01*
X108833262Y-100843184D01*
X108833259Y-100843182D01*
X108833258Y-100843181D01*
X108680523Y-100747211D01*
X108510261Y-100687633D01*
X108510257Y-100687632D01*
X108331000Y-100667435D01*
X108151742Y-100687632D01*
X108151738Y-100687633D01*
X107981477Y-100747211D01*
X107981476Y-100747211D01*
X107828741Y-100843181D01*
X107701181Y-100970741D01*
X107605211Y-101123476D01*
X107605211Y-101123477D01*
X107545633Y-101293738D01*
X107545632Y-101293742D01*
X107525435Y-101473000D01*
X104050500Y-101473000D01*
X104050500Y-99400001D01*
X106444722Y-99400001D01*
X106463762Y-99556816D01*
X106463763Y-99556818D01*
X106467045Y-99565471D01*
X106519780Y-99704523D01*
X106609515Y-99834528D01*
X106609516Y-99834529D01*
X106609517Y-99834530D01*
X106727760Y-99939283D01*
X106867635Y-100012696D01*
X107021015Y-100050500D01*
X107021018Y-100050500D01*
X107178982Y-100050500D01*
X107178985Y-100050500D01*
X107332365Y-100012696D01*
X107356553Y-100000001D01*
X144344722Y-100000001D01*
X144363762Y-100156816D01*
X144363763Y-100156817D01*
X144419780Y-100304523D01*
X144509515Y-100434528D01*
X144509516Y-100434529D01*
X144509517Y-100434530D01*
X144627760Y-100539283D01*
X144767635Y-100612696D01*
X144921015Y-100650500D01*
X144921018Y-100650500D01*
X145078982Y-100650500D01*
X145078985Y-100650500D01*
X145232365Y-100612696D01*
X145372240Y-100539283D01*
X145490483Y-100434530D01*
X145580220Y-100304523D01*
X145636237Y-100156818D01*
X145649146Y-100050499D01*
X145655278Y-100000001D01*
X145655278Y-99999998D01*
X145636237Y-99843183D01*
X145636237Y-99843182D01*
X145580220Y-99695477D01*
X145490483Y-99565470D01*
X145372240Y-99460717D01*
X145256555Y-99400000D01*
X145232364Y-99387303D01*
X145078987Y-99349500D01*
X145078985Y-99349500D01*
X144921015Y-99349500D01*
X144921012Y-99349500D01*
X144767635Y-99387303D01*
X144627758Y-99460718D01*
X144509515Y-99565471D01*
X144419780Y-99695476D01*
X144363763Y-99843182D01*
X144363762Y-99843183D01*
X144344722Y-99999998D01*
X144344722Y-100000001D01*
X107356553Y-100000001D01*
X107472240Y-99939283D01*
X107590483Y-99834530D01*
X107680220Y-99704523D01*
X107736237Y-99556818D01*
X107755278Y-99400000D01*
X107753736Y-99387304D01*
X107736237Y-99243183D01*
X107736237Y-99243182D01*
X107680220Y-99095477D01*
X107590483Y-98965470D01*
X107472240Y-98860717D01*
X107380745Y-98812696D01*
X107332364Y-98787303D01*
X107178987Y-98749500D01*
X107178985Y-98749500D01*
X107021015Y-98749500D01*
X107021012Y-98749500D01*
X106867635Y-98787303D01*
X106727758Y-98860718D01*
X106609515Y-98965471D01*
X106519780Y-99095476D01*
X106463763Y-99243182D01*
X106463762Y-99243183D01*
X106444722Y-99399998D01*
X106444722Y-99400001D01*
X104050500Y-99400001D01*
X104050500Y-98200001D01*
X108944722Y-98200001D01*
X108963762Y-98356816D01*
X108963763Y-98356818D01*
X109008284Y-98474211D01*
X109019780Y-98504523D01*
X109109515Y-98634528D01*
X109109516Y-98634529D01*
X109109517Y-98634530D01*
X109227760Y-98739283D01*
X109367635Y-98812696D01*
X109521015Y-98850500D01*
X109521018Y-98850500D01*
X109678982Y-98850500D01*
X109678985Y-98850500D01*
X109832365Y-98812696D01*
X109972240Y-98739283D01*
X110016581Y-98700001D01*
X125544722Y-98700001D01*
X125563762Y-98856816D01*
X125563763Y-98856817D01*
X125619780Y-99004523D01*
X125709515Y-99134528D01*
X125709516Y-99134529D01*
X125709517Y-99134530D01*
X125827760Y-99239283D01*
X125967635Y-99312696D01*
X126121015Y-99350500D01*
X126121018Y-99350500D01*
X126278982Y-99350500D01*
X126278985Y-99350500D01*
X126432365Y-99312696D01*
X126572240Y-99239283D01*
X126616582Y-99200000D01*
X157694435Y-99200000D01*
X157714632Y-99379257D01*
X157714633Y-99379261D01*
X157774211Y-99549522D01*
X157774211Y-99549523D01*
X157870181Y-99702258D01*
X157870184Y-99702262D01*
X157997738Y-99829816D01*
X158150478Y-99925789D01*
X158189036Y-99939281D01*
X158320738Y-99985366D01*
X158320742Y-99985367D01*
X158320745Y-99985368D01*
X158500000Y-100005565D01*
X158679255Y-99985368D01*
X158849522Y-99925789D01*
X159002262Y-99829816D01*
X159129816Y-99702262D01*
X159225789Y-99549522D01*
X159285368Y-99379255D01*
X159305565Y-99200000D01*
X159285368Y-99020745D01*
X159266026Y-98965470D01*
X159229372Y-98860718D01*
X159225789Y-98850478D01*
X159186093Y-98787303D01*
X159129818Y-98697741D01*
X159129817Y-98697740D01*
X159129816Y-98697738D01*
X159002262Y-98570184D01*
X159002259Y-98570182D01*
X159002258Y-98570181D01*
X158849523Y-98474211D01*
X158679261Y-98414633D01*
X158679257Y-98414632D01*
X158500000Y-98394435D01*
X158320742Y-98414632D01*
X158320738Y-98414633D01*
X158150477Y-98474211D01*
X158150476Y-98474211D01*
X157997741Y-98570181D01*
X157870181Y-98697741D01*
X157774211Y-98850476D01*
X157774211Y-98850477D01*
X157714633Y-99020738D01*
X157714632Y-99020742D01*
X157694435Y-99200000D01*
X126616582Y-99200000D01*
X126690483Y-99134530D01*
X126780220Y-99004523D01*
X126836237Y-98856818D01*
X126840670Y-98820301D01*
X126866452Y-98764816D01*
X126919926Y-98735080D01*
X126962639Y-98736111D01*
X127021015Y-98750500D01*
X127021018Y-98750500D01*
X127178982Y-98750500D01*
X127178985Y-98750500D01*
X127332365Y-98712696D01*
X127472240Y-98639283D01*
X127590483Y-98534530D01*
X127680220Y-98404523D01*
X127736237Y-98256818D01*
X127755278Y-98100000D01*
X127753736Y-98087304D01*
X127742583Y-97995454D01*
X127736237Y-97943182D01*
X127680220Y-97795477D01*
X127590483Y-97665470D01*
X127472240Y-97560717D01*
X127394522Y-97519927D01*
X127332364Y-97487303D01*
X127178987Y-97449500D01*
X127178985Y-97449500D01*
X127021015Y-97449500D01*
X127021011Y-97449500D01*
X126968457Y-97462454D01*
X126907432Y-97458022D01*
X126860667Y-97418567D01*
X126846025Y-97359159D01*
X126846487Y-97354397D01*
X126855278Y-97281999D01*
X126855278Y-97281998D01*
X126836237Y-97125183D01*
X126836237Y-97125182D01*
X126780220Y-96977477D01*
X126705328Y-96868977D01*
X126690484Y-96847471D01*
X126572241Y-96742718D01*
X126572240Y-96742717D01*
X126502302Y-96706010D01*
X126432364Y-96669303D01*
X126278987Y-96631500D01*
X126278985Y-96631500D01*
X126121015Y-96631500D01*
X126121012Y-96631500D01*
X125967635Y-96669303D01*
X125827758Y-96742718D01*
X125709515Y-96847471D01*
X125619780Y-96977476D01*
X125563763Y-97125182D01*
X125563762Y-97125183D01*
X125544722Y-97281998D01*
X125544722Y-97282001D01*
X125563762Y-97438816D01*
X125563763Y-97438818D01*
X125612764Y-97568022D01*
X125619780Y-97586523D01*
X125709515Y-97716528D01*
X125709516Y-97716529D01*
X125709517Y-97716530D01*
X125827760Y-97821283D01*
X125967635Y-97894696D01*
X125968370Y-97894877D01*
X125968774Y-97895128D01*
X125973233Y-97896819D01*
X125972901Y-97897691D01*
X126020345Y-97927161D01*
X126043417Y-97983830D01*
X126028774Y-98043237D01*
X125982009Y-98082692D01*
X125968372Y-98087122D01*
X125967635Y-98087304D01*
X125827758Y-98160718D01*
X125709515Y-98265471D01*
X125619780Y-98395476D01*
X125563763Y-98543182D01*
X125563762Y-98543183D01*
X125544722Y-98699998D01*
X125544722Y-98700001D01*
X110016581Y-98700001D01*
X110090483Y-98634530D01*
X110180220Y-98504523D01*
X110236237Y-98356818D01*
X110255278Y-98200000D01*
X110236237Y-98043182D01*
X110180220Y-97895477D01*
X110090483Y-97765470D01*
X109972240Y-97660717D01*
X109902302Y-97624010D01*
X109832364Y-97587303D01*
X109678987Y-97549500D01*
X109678985Y-97549500D01*
X109521015Y-97549500D01*
X109521012Y-97549500D01*
X109367635Y-97587303D01*
X109227758Y-97660718D01*
X109109515Y-97765471D01*
X109019780Y-97895476D01*
X108963763Y-98043182D01*
X108963762Y-98043183D01*
X108944722Y-98199998D01*
X108944722Y-98200001D01*
X104050500Y-98200001D01*
X104050500Y-97218500D01*
X118637935Y-97218500D01*
X118658132Y-97397757D01*
X118658133Y-97397761D01*
X118717711Y-97568022D01*
X118717711Y-97568023D01*
X118813681Y-97720758D01*
X118813684Y-97720762D01*
X118941238Y-97848316D01*
X118941240Y-97848317D01*
X118941241Y-97848318D01*
X119092217Y-97943183D01*
X119093978Y-97944289D01*
X119162157Y-97968146D01*
X119264238Y-98003866D01*
X119264242Y-98003867D01*
X119264245Y-98003868D01*
X119443500Y-98024065D01*
X119622755Y-98003868D01*
X119793022Y-97944289D01*
X119945762Y-97848316D01*
X120073316Y-97720762D01*
X120169289Y-97568022D01*
X120228868Y-97397755D01*
X120249065Y-97218500D01*
X120228868Y-97039245D01*
X120169289Y-96868978D01*
X120073316Y-96716238D01*
X119945762Y-96588684D01*
X119945759Y-96588682D01*
X119945758Y-96588681D01*
X119793023Y-96492711D01*
X119622761Y-96433133D01*
X119622757Y-96433132D01*
X119443500Y-96412935D01*
X119264242Y-96433132D01*
X119264238Y-96433133D01*
X119093977Y-96492711D01*
X119093976Y-96492711D01*
X118941241Y-96588681D01*
X118813681Y-96716241D01*
X118717711Y-96868976D01*
X118717711Y-96868977D01*
X118658133Y-97039238D01*
X118658132Y-97039242D01*
X118637935Y-97218500D01*
X104050500Y-97218500D01*
X104050500Y-94500000D01*
X110794435Y-94500000D01*
X110814632Y-94679257D01*
X110814633Y-94679261D01*
X110874211Y-94849522D01*
X110874211Y-94849523D01*
X110970181Y-95002258D01*
X110970184Y-95002262D01*
X111097738Y-95129816D01*
X111250478Y-95225789D01*
X111318657Y-95249646D01*
X111420738Y-95285366D01*
X111420742Y-95285367D01*
X111420745Y-95285368D01*
X111600000Y-95305565D01*
X111779255Y-95285368D01*
X111949522Y-95225789D01*
X112102262Y-95129816D01*
X112160578Y-95071500D01*
X118522935Y-95071500D01*
X118543132Y-95250757D01*
X118543133Y-95250761D01*
X118602711Y-95421022D01*
X118602711Y-95421023D01*
X118698681Y-95573758D01*
X118698684Y-95573762D01*
X118826238Y-95701316D01*
X118826240Y-95701317D01*
X118826241Y-95701318D01*
X118907311Y-95752258D01*
X118978978Y-95797289D01*
X119047157Y-95821146D01*
X119149238Y-95856866D01*
X119149242Y-95856867D01*
X119149245Y-95856868D01*
X119328500Y-95877065D01*
X119507755Y-95856868D01*
X119678022Y-95797289D01*
X119830762Y-95701316D01*
X119958316Y-95573762D01*
X120054289Y-95421022D01*
X120113868Y-95250755D01*
X120113953Y-95250000D01*
X123019435Y-95250000D01*
X123039632Y-95429257D01*
X123039633Y-95429261D01*
X123099211Y-95599522D01*
X123099211Y-95599523D01*
X123195181Y-95752258D01*
X123195184Y-95752262D01*
X123322738Y-95879816D01*
X123475478Y-95975789D01*
X123543657Y-95999646D01*
X123645738Y-96035366D01*
X123645742Y-96035367D01*
X123645745Y-96035368D01*
X123825000Y-96055565D01*
X124004255Y-96035368D01*
X124174522Y-95975789D01*
X124327262Y-95879816D01*
X124454816Y-95752262D01*
X124550789Y-95599522D01*
X124610368Y-95429255D01*
X124630565Y-95250000D01*
X124610368Y-95070745D01*
X124605494Y-95056817D01*
X124586014Y-95001145D01*
X124550789Y-94900478D01*
X124550489Y-94900001D01*
X173244722Y-94900001D01*
X173263762Y-95056816D01*
X173263763Y-95056818D01*
X173291448Y-95129818D01*
X173319780Y-95204523D01*
X173409515Y-95334528D01*
X173409516Y-95334529D01*
X173409517Y-95334530D01*
X173527760Y-95439283D01*
X173667635Y-95512696D01*
X173821015Y-95550500D01*
X173821018Y-95550500D01*
X173978982Y-95550500D01*
X173978985Y-95550500D01*
X174132365Y-95512696D01*
X174272240Y-95439283D01*
X174390483Y-95334530D01*
X174480220Y-95204523D01*
X174536237Y-95056818D01*
X174555278Y-94900000D01*
X174554336Y-94892245D01*
X174542583Y-94795454D01*
X174536237Y-94743182D01*
X174480220Y-94595477D01*
X174390483Y-94465470D01*
X174272240Y-94360717D01*
X174196067Y-94320738D01*
X174132364Y-94287303D01*
X173978987Y-94249500D01*
X173978985Y-94249500D01*
X173821015Y-94249500D01*
X173821012Y-94249500D01*
X173667635Y-94287303D01*
X173527758Y-94360718D01*
X173409515Y-94465471D01*
X173319780Y-94595476D01*
X173263763Y-94743182D01*
X173263762Y-94743183D01*
X173244722Y-94899998D01*
X173244722Y-94900001D01*
X124550489Y-94900001D01*
X124454818Y-94747741D01*
X124454817Y-94747740D01*
X124454816Y-94747738D01*
X124327262Y-94620184D01*
X124327259Y-94620182D01*
X124327258Y-94620181D01*
X124174523Y-94524211D01*
X124004261Y-94464633D01*
X124004257Y-94464632D01*
X123825000Y-94444435D01*
X123645742Y-94464632D01*
X123645738Y-94464633D01*
X123475477Y-94524211D01*
X123475476Y-94524211D01*
X123322741Y-94620181D01*
X123195181Y-94747741D01*
X123099211Y-94900476D01*
X123099211Y-94900477D01*
X123039633Y-95070738D01*
X123039632Y-95070742D01*
X123019435Y-95250000D01*
X120113953Y-95250000D01*
X120134065Y-95071500D01*
X120113868Y-94892245D01*
X120054289Y-94721978D01*
X120027444Y-94679255D01*
X119958318Y-94569241D01*
X119958317Y-94569240D01*
X119958316Y-94569238D01*
X119830762Y-94441684D01*
X119830759Y-94441682D01*
X119830758Y-94441681D01*
X119678023Y-94345711D01*
X119507761Y-94286133D01*
X119507757Y-94286132D01*
X119328500Y-94265935D01*
X119149242Y-94286132D01*
X119149238Y-94286133D01*
X118978977Y-94345711D01*
X118978976Y-94345711D01*
X118826241Y-94441681D01*
X118698681Y-94569241D01*
X118602711Y-94721976D01*
X118602711Y-94721977D01*
X118543133Y-94892238D01*
X118543132Y-94892242D01*
X118522935Y-95071500D01*
X112160578Y-95071500D01*
X112229816Y-95002262D01*
X112325789Y-94849522D01*
X112385368Y-94679255D01*
X112405565Y-94500000D01*
X112385368Y-94320745D01*
X112373666Y-94287304D01*
X112360438Y-94249500D01*
X112325789Y-94150478D01*
X112229816Y-93997738D01*
X112102262Y-93870184D01*
X112102259Y-93870182D01*
X112102258Y-93870181D01*
X111949523Y-93774211D01*
X111779261Y-93714633D01*
X111779257Y-93714632D01*
X111600000Y-93694435D01*
X111420742Y-93714632D01*
X111420738Y-93714633D01*
X111250477Y-93774211D01*
X111250476Y-93774211D01*
X111097741Y-93870181D01*
X110970181Y-93997741D01*
X110874211Y-94150476D01*
X110874211Y-94150477D01*
X110814633Y-94320738D01*
X110814632Y-94320742D01*
X110794435Y-94500000D01*
X104050500Y-94500000D01*
X104050500Y-93150000D01*
X165044435Y-93150000D01*
X165064632Y-93329257D01*
X165064633Y-93329261D01*
X165124211Y-93499522D01*
X165124211Y-93499523D01*
X165220181Y-93652258D01*
X165220184Y-93652262D01*
X165347738Y-93779816D01*
X165347740Y-93779817D01*
X165347741Y-93779818D01*
X165491557Y-93870184D01*
X165500478Y-93875789D01*
X165568657Y-93899646D01*
X165670738Y-93935366D01*
X165670742Y-93935367D01*
X165670745Y-93935368D01*
X165850000Y-93955565D01*
X166029255Y-93935368D01*
X166199522Y-93875789D01*
X166352262Y-93779816D01*
X166479816Y-93652262D01*
X166575789Y-93499522D01*
X166635368Y-93329255D01*
X166655565Y-93150000D01*
X166635368Y-92970745D01*
X166575789Y-92800478D01*
X166479816Y-92647738D01*
X166352262Y-92520184D01*
X166352259Y-92520182D01*
X166352258Y-92520181D01*
X166199523Y-92424211D01*
X166029261Y-92364633D01*
X166029257Y-92364632D01*
X165850000Y-92344435D01*
X165670742Y-92364632D01*
X165670738Y-92364633D01*
X165500477Y-92424211D01*
X165500476Y-92424211D01*
X165347741Y-92520181D01*
X165220181Y-92647741D01*
X165124211Y-92800476D01*
X165124211Y-92800477D01*
X165064633Y-92970738D01*
X165064632Y-92970742D01*
X165044435Y-93150000D01*
X104050500Y-93150000D01*
X104050500Y-90906003D01*
X118256843Y-90906003D01*
X118277429Y-91141313D01*
X118338569Y-91369489D01*
X118438399Y-91583577D01*
X118526193Y-91708961D01*
X119185114Y-91050039D01*
X119217887Y-91133541D01*
X119302465Y-91239599D01*
X119414547Y-91316016D01*
X119468258Y-91332583D01*
X118809037Y-91991805D01*
X118934422Y-92079600D01*
X119148510Y-92179430D01*
X119376686Y-92240570D01*
X119611997Y-92261157D01*
X119612003Y-92261157D01*
X119847313Y-92240570D01*
X120075489Y-92179430D01*
X120289579Y-92079599D01*
X120289580Y-92079599D01*
X120414961Y-91991805D01*
X119758208Y-91335052D01*
X119868357Y-91282007D01*
X119967798Y-91189740D01*
X120035625Y-91072260D01*
X120040359Y-91051515D01*
X120697805Y-91708961D01*
X120785596Y-91583583D01*
X120785599Y-91583579D01*
X120791996Y-91569860D01*
X120833722Y-91525109D01*
X120893783Y-91513431D01*
X120949237Y-91539286D01*
X120971447Y-91569853D01*
X120977963Y-91583827D01*
X121065582Y-91708961D01*
X121113505Y-91777401D01*
X121280599Y-91944495D01*
X121474170Y-92080035D01*
X121688337Y-92179903D01*
X121916592Y-92241063D01*
X121916596Y-92241063D01*
X121916599Y-92241064D01*
X122151996Y-92261659D01*
X122152000Y-92261659D01*
X122152004Y-92261659D01*
X122387400Y-92241064D01*
X122387401Y-92241063D01*
X122387408Y-92241063D01*
X122615663Y-92179903D01*
X122829830Y-92080035D01*
X123023401Y-91944495D01*
X123190495Y-91777401D01*
X123326035Y-91583830D01*
X123332274Y-91570449D01*
X123373998Y-91525701D01*
X123434059Y-91514023D01*
X123489513Y-91539878D01*
X123511723Y-91570445D01*
X123517963Y-91583827D01*
X123605582Y-91708961D01*
X123653505Y-91777401D01*
X123820599Y-91944495D01*
X124014170Y-92080035D01*
X124228337Y-92179903D01*
X124456592Y-92241063D01*
X124456596Y-92241063D01*
X124456599Y-92241064D01*
X124691996Y-92261659D01*
X124692000Y-92261659D01*
X124692004Y-92261659D01*
X124927400Y-92241064D01*
X124927401Y-92241063D01*
X124927408Y-92241063D01*
X125155663Y-92179903D01*
X125369830Y-92080035D01*
X125563401Y-91944495D01*
X125730495Y-91777401D01*
X125866035Y-91583830D01*
X125872275Y-91570447D01*
X125914003Y-91525700D01*
X125974064Y-91514025D01*
X126029517Y-91539883D01*
X126051723Y-91570445D01*
X126057965Y-91583830D01*
X126193505Y-91777401D01*
X126360599Y-91944495D01*
X126554170Y-92080035D01*
X126768337Y-92179903D01*
X126996592Y-92241063D01*
X126996596Y-92241063D01*
X126996599Y-92241064D01*
X127231996Y-92261659D01*
X127232000Y-92261659D01*
X127232004Y-92261659D01*
X127467400Y-92241064D01*
X127467401Y-92241063D01*
X127467408Y-92241063D01*
X127695663Y-92179903D01*
X127909830Y-92080035D01*
X128103401Y-91944495D01*
X128270495Y-91777401D01*
X128406035Y-91583830D01*
X128505903Y-91369663D01*
X128567063Y-91141408D01*
X128567072Y-91141313D01*
X128574273Y-91059001D01*
X132948722Y-91059001D01*
X132967762Y-91215816D01*
X132967763Y-91215817D01*
X133023780Y-91363523D01*
X133113515Y-91493528D01*
X133113516Y-91493529D01*
X133113517Y-91493530D01*
X133231760Y-91598283D01*
X133371635Y-91671696D01*
X133525015Y-91709500D01*
X133525018Y-91709500D01*
X133682982Y-91709500D01*
X133682985Y-91709500D01*
X133836365Y-91671696D01*
X133976240Y-91598283D01*
X134094483Y-91493530D01*
X134159041Y-91400001D01*
X163044722Y-91400001D01*
X163063762Y-91556816D01*
X163063763Y-91556818D01*
X163079488Y-91598281D01*
X163119780Y-91704523D01*
X163209515Y-91834528D01*
X163209516Y-91834529D01*
X163209517Y-91834530D01*
X163327760Y-91939283D01*
X163467635Y-92012696D01*
X163621015Y-92050500D01*
X163621018Y-92050500D01*
X163778982Y-92050500D01*
X163778985Y-92050500D01*
X163932365Y-92012696D01*
X164072240Y-91939283D01*
X164190483Y-91834530D01*
X164280220Y-91704523D01*
X164336237Y-91556818D01*
X164355278Y-91400000D01*
X164352060Y-91373500D01*
X164352060Y-91373499D01*
X175594435Y-91373499D01*
X175614632Y-91552757D01*
X175614633Y-91552761D01*
X175674211Y-91723022D01*
X175674211Y-91723023D01*
X175744276Y-91834530D01*
X175770184Y-91875762D01*
X175897738Y-92003316D01*
X175897740Y-92003317D01*
X175897741Y-92003318D01*
X176019141Y-92079599D01*
X176050478Y-92099289D01*
X176118657Y-92123146D01*
X176220738Y-92158866D01*
X176220742Y-92158867D01*
X176220745Y-92158868D01*
X176400000Y-92179065D01*
X176579255Y-92158868D01*
X176749522Y-92099289D01*
X176902262Y-92003316D01*
X177029816Y-91875762D01*
X177125789Y-91723022D01*
X177185368Y-91552755D01*
X177205565Y-91373500D01*
X177185368Y-91194245D01*
X177125789Y-91023978D01*
X177051658Y-90906000D01*
X177029818Y-90871241D01*
X177029817Y-90871240D01*
X177029816Y-90871238D01*
X176902262Y-90743684D01*
X176902259Y-90743682D01*
X176902258Y-90743681D01*
X176749523Y-90647711D01*
X176579261Y-90588133D01*
X176579257Y-90588132D01*
X176400000Y-90567935D01*
X176220742Y-90588132D01*
X176220738Y-90588133D01*
X176050477Y-90647711D01*
X176050476Y-90647711D01*
X175897741Y-90743681D01*
X175770181Y-90871241D01*
X175674211Y-91023976D01*
X175674211Y-91023977D01*
X175614633Y-91194238D01*
X175614632Y-91194242D01*
X175594435Y-91373499D01*
X164352060Y-91373499D01*
X164336237Y-91243183D01*
X164336237Y-91243182D01*
X164280220Y-91095477D01*
X164190483Y-90965470D01*
X164072240Y-90860717D01*
X163965577Y-90804735D01*
X163932364Y-90787303D01*
X163778987Y-90749500D01*
X163778985Y-90749500D01*
X163621015Y-90749500D01*
X163621012Y-90749500D01*
X163467635Y-90787303D01*
X163327758Y-90860718D01*
X163209515Y-90965471D01*
X163119780Y-91095476D01*
X163063763Y-91243182D01*
X163063762Y-91243183D01*
X163044722Y-91399998D01*
X163044722Y-91400001D01*
X134159041Y-91400001D01*
X134184220Y-91363523D01*
X134240237Y-91215818D01*
X134259278Y-91059000D01*
X134255025Y-91023977D01*
X134240701Y-90906003D01*
X134240237Y-90902182D01*
X134184220Y-90754477D01*
X134131749Y-90678459D01*
X134094484Y-90624471D01*
X134053467Y-90588133D01*
X133976240Y-90519717D01*
X133883676Y-90471135D01*
X133836364Y-90446303D01*
X133682987Y-90408500D01*
X133682985Y-90408500D01*
X133525015Y-90408500D01*
X133525012Y-90408500D01*
X133371635Y-90446303D01*
X133231758Y-90519718D01*
X133113515Y-90624471D01*
X133023780Y-90754476D01*
X132967763Y-90902182D01*
X132967762Y-90902183D01*
X132948722Y-91058998D01*
X132948722Y-91059001D01*
X128574273Y-91059001D01*
X128578799Y-91007265D01*
X128587659Y-90906000D01*
X128573113Y-90739740D01*
X128567064Y-90670599D01*
X128567063Y-90670596D01*
X128567063Y-90670592D01*
X128505903Y-90442337D01*
X128502000Y-90433967D01*
X128406040Y-90228181D01*
X128406036Y-90228173D01*
X128270498Y-90034603D01*
X128270497Y-90034602D01*
X128270495Y-90034599D01*
X128121396Y-89885500D01*
X128093621Y-89830986D01*
X128103192Y-89770554D01*
X128146457Y-89727289D01*
X128191402Y-89716499D01*
X129483521Y-89716499D01*
X129483522Y-89716498D01*
X129530410Y-89709072D01*
X129577299Y-89701647D01*
X129577299Y-89701646D01*
X129577304Y-89701646D01*
X129690342Y-89644050D01*
X129780050Y-89554342D01*
X129837646Y-89441304D01*
X129852500Y-89347519D01*
X129852500Y-88500000D01*
X157894435Y-88500000D01*
X157914632Y-88679257D01*
X157914633Y-88679261D01*
X157974211Y-88849522D01*
X157974211Y-88849523D01*
X158052440Y-88974023D01*
X158070184Y-89002262D01*
X158197738Y-89129816D01*
X158350478Y-89225789D01*
X158418657Y-89249646D01*
X158520738Y-89285366D01*
X158520742Y-89285367D01*
X158520745Y-89285368D01*
X158700000Y-89305565D01*
X158879255Y-89285368D01*
X159049522Y-89225789D01*
X159202262Y-89129816D01*
X159329816Y-89002262D01*
X159425789Y-88849522D01*
X159485368Y-88679255D01*
X159505565Y-88500000D01*
X159485368Y-88320745D01*
X159425789Y-88150478D01*
X159329816Y-87997738D01*
X159202262Y-87870184D01*
X159202259Y-87870182D01*
X159202258Y-87870181D01*
X159049523Y-87774211D01*
X158879261Y-87714633D01*
X158879257Y-87714632D01*
X158700000Y-87694435D01*
X158520742Y-87714632D01*
X158520738Y-87714633D01*
X158350477Y-87774211D01*
X158350476Y-87774211D01*
X158197741Y-87870181D01*
X158070181Y-87997741D01*
X157974211Y-88150476D01*
X157974211Y-88150477D01*
X157914633Y-88320738D01*
X157914632Y-88320742D01*
X157894435Y-88500000D01*
X129852500Y-88500000D01*
X129852499Y-87384482D01*
X129852499Y-87384481D01*
X129852499Y-87384478D01*
X129852498Y-87384476D01*
X129837647Y-87290700D01*
X129837646Y-87290698D01*
X129837646Y-87290696D01*
X129780050Y-87177658D01*
X129690342Y-87087950D01*
X129577304Y-87030354D01*
X129577305Y-87030354D01*
X129483521Y-87015500D01*
X127520478Y-87015500D01*
X127520476Y-87015501D01*
X127426700Y-87030352D01*
X127426695Y-87030354D01*
X127313659Y-87087949D01*
X127223949Y-87177659D01*
X127166354Y-87290695D01*
X127151500Y-87384478D01*
X127151500Y-87406597D01*
X127132593Y-87464788D01*
X127083093Y-87500752D01*
X127021907Y-87500752D01*
X126982498Y-87476602D01*
X126833401Y-87327505D01*
X126833397Y-87327502D01*
X126833396Y-87327501D01*
X126651158Y-87199897D01*
X126639830Y-87191965D01*
X126425663Y-87092097D01*
X126197408Y-87030937D01*
X126197407Y-87030936D01*
X126197400Y-87030935D01*
X125962004Y-87010341D01*
X125961996Y-87010341D01*
X125726599Y-87030935D01*
X125498332Y-87092098D01*
X125284181Y-87191959D01*
X125284173Y-87191963D01*
X125090603Y-87327501D01*
X124923501Y-87494603D01*
X124787963Y-87688173D01*
X124787961Y-87688176D01*
X124781721Y-87701558D01*
X124739990Y-87746303D01*
X124679928Y-87757974D01*
X124624477Y-87732113D01*
X124602273Y-87701549D01*
X124597121Y-87690500D01*
X124596035Y-87688171D01*
X124505523Y-87558906D01*
X124460498Y-87494603D01*
X124460497Y-87494602D01*
X124460495Y-87494599D01*
X124293401Y-87327505D01*
X124293397Y-87327502D01*
X124293396Y-87327501D01*
X124111158Y-87199897D01*
X124099830Y-87191965D01*
X123885663Y-87092097D01*
X123657408Y-87030937D01*
X123657407Y-87030936D01*
X123657400Y-87030935D01*
X123422004Y-87010341D01*
X123421996Y-87010341D01*
X123186599Y-87030935D01*
X122958332Y-87092098D01*
X122744181Y-87191959D01*
X122744173Y-87191963D01*
X122550603Y-87327501D01*
X122383501Y-87494603D01*
X122247963Y-87688173D01*
X122241724Y-87701554D01*
X122199995Y-87746301D01*
X122139933Y-87757975D01*
X122084481Y-87732116D01*
X122062276Y-87701554D01*
X122056036Y-87688173D01*
X121920498Y-87494603D01*
X121920497Y-87494602D01*
X121920495Y-87494599D01*
X121753401Y-87327505D01*
X121753397Y-87327502D01*
X121753396Y-87327501D01*
X121571158Y-87199897D01*
X121559830Y-87191965D01*
X121345663Y-87092097D01*
X121117408Y-87030937D01*
X121117407Y-87030936D01*
X121117400Y-87030935D01*
X120882004Y-87010341D01*
X120881996Y-87010341D01*
X120646599Y-87030935D01*
X120418332Y-87092098D01*
X120204181Y-87191959D01*
X120204173Y-87191963D01*
X120010603Y-87327501D01*
X119843501Y-87494603D01*
X119707963Y-87688173D01*
X119707959Y-87688181D01*
X119608098Y-87902332D01*
X119546935Y-88130599D01*
X119526341Y-88365995D01*
X119526341Y-88366004D01*
X119546935Y-88601400D01*
X119546936Y-88601407D01*
X119546937Y-88601408D01*
X119608097Y-88829663D01*
X119692499Y-89010663D01*
X119707964Y-89043828D01*
X119843358Y-89237192D01*
X119843505Y-89237401D01*
X120010599Y-89404495D01*
X120036891Y-89422905D01*
X120038087Y-89423742D01*
X120074910Y-89472607D01*
X120075978Y-89533783D01*
X120040884Y-89583903D01*
X119983033Y-89603824D01*
X119955681Y-89600466D01*
X119847313Y-89571429D01*
X119612003Y-89550843D01*
X119611997Y-89550843D01*
X119376686Y-89571429D01*
X119148505Y-89632570D01*
X118934430Y-89732394D01*
X118934419Y-89732401D01*
X118809037Y-89820193D01*
X119465791Y-90476947D01*
X119355643Y-90529993D01*
X119256202Y-90622260D01*
X119188375Y-90739740D01*
X119183640Y-90760484D01*
X118526193Y-90103037D01*
X118438401Y-90228419D01*
X118438394Y-90228430D01*
X118338570Y-90442505D01*
X118277429Y-90670686D01*
X118256843Y-90905996D01*
X118256843Y-90906003D01*
X104050500Y-90906003D01*
X104050500Y-85076002D01*
X114577233Y-85076002D01*
X114596273Y-85330076D01*
X114596275Y-85330086D01*
X114652970Y-85578487D01*
X114652970Y-85578489D01*
X114746055Y-85815664D01*
X114746064Y-85815683D01*
X114873451Y-86036322D01*
X114873455Y-86036329D01*
X114946823Y-86128331D01*
X115592622Y-85482531D01*
X115652577Y-85577948D01*
X115780052Y-85705423D01*
X115875466Y-85765375D01*
X115226770Y-86414072D01*
X115429624Y-86552375D01*
X115659176Y-86662922D01*
X115902649Y-86738023D01*
X115902659Y-86738025D01*
X116154599Y-86775999D01*
X116154608Y-86776000D01*
X116409392Y-86776000D01*
X116409400Y-86775999D01*
X116661340Y-86738025D01*
X116661350Y-86738023D01*
X116904823Y-86662921D01*
X117134381Y-86552373D01*
X117337229Y-86414073D01*
X116688532Y-85765376D01*
X116783948Y-85705423D01*
X116911423Y-85577948D01*
X116971376Y-85482532D01*
X117617175Y-86128331D01*
X117690543Y-86036330D01*
X117690548Y-86036322D01*
X117817935Y-85815683D01*
X117817944Y-85815664D01*
X117911029Y-85578489D01*
X117911029Y-85578487D01*
X117967724Y-85330086D01*
X117967726Y-85330076D01*
X117986767Y-85076002D01*
X117986767Y-85075997D01*
X117967726Y-84821923D01*
X117967724Y-84821913D01*
X117911029Y-84573512D01*
X117911029Y-84573510D01*
X117817944Y-84336335D01*
X117817935Y-84336316D01*
X117690548Y-84115677D01*
X117690544Y-84115670D01*
X117617175Y-84023667D01*
X116971375Y-84669466D01*
X116911423Y-84574052D01*
X116783948Y-84446577D01*
X116688531Y-84386622D01*
X117364082Y-83711072D01*
X117418599Y-83683295D01*
X117476107Y-83691437D01*
X117670214Y-83782430D01*
X117670216Y-83782430D01*
X117670221Y-83782433D01*
X117817635Y-83826783D01*
X117933105Y-83861523D01*
X117933109Y-83861524D01*
X117933119Y-83861527D01*
X118114193Y-83888175D01*
X118204730Y-83901500D01*
X118204731Y-83901500D01*
X118410547Y-83901500D01*
X118615805Y-83886477D01*
X118883775Y-83826784D01*
X119140198Y-83728711D01*
X119379609Y-83594347D01*
X119596904Y-83426557D01*
X119787454Y-83228916D01*
X119947196Y-83005637D01*
X120072727Y-82761479D01*
X120161370Y-82501646D01*
X120211236Y-82231674D01*
X120216242Y-82094680D01*
X127892738Y-82094680D01*
X127922764Y-82367573D01*
X127992203Y-82633179D01*
X128099577Y-82885853D01*
X128242595Y-83120196D01*
X128408057Y-83319020D01*
X128418209Y-83331218D01*
X128594390Y-83489078D01*
X128622674Y-83514420D01*
X128622674Y-83514421D01*
X128622676Y-83514422D01*
X128622677Y-83514423D01*
X128851641Y-83665904D01*
X129100221Y-83782433D01*
X129247635Y-83826783D01*
X129363105Y-83861523D01*
X129363109Y-83861524D01*
X129363119Y-83861527D01*
X129544193Y-83888175D01*
X129634730Y-83901500D01*
X129634731Y-83901500D01*
X129840547Y-83901500D01*
X130045805Y-83886477D01*
X130313775Y-83826784D01*
X130570198Y-83728711D01*
X130631195Y-83694477D01*
X130691193Y-83682487D01*
X130746782Y-83708052D01*
X130749651Y-83710807D01*
X131425467Y-84386623D01*
X131330052Y-84446577D01*
X131202577Y-84574052D01*
X131142623Y-84669467D01*
X130496823Y-84023667D01*
X130423460Y-84115663D01*
X130423451Y-84115677D01*
X130296064Y-84336316D01*
X130296055Y-84336335D01*
X130202970Y-84573510D01*
X130202970Y-84573512D01*
X130146275Y-84821913D01*
X130146273Y-84821923D01*
X130127233Y-85075997D01*
X130127233Y-85076002D01*
X130146273Y-85330076D01*
X130146275Y-85330086D01*
X130202970Y-85578487D01*
X130202970Y-85578489D01*
X130296055Y-85815664D01*
X130296064Y-85815683D01*
X130423451Y-86036322D01*
X130423455Y-86036329D01*
X130496823Y-86128331D01*
X131142622Y-85482531D01*
X131202577Y-85577948D01*
X131330052Y-85705423D01*
X131425466Y-85765375D01*
X130776770Y-86414072D01*
X130979624Y-86552375D01*
X131209176Y-86662922D01*
X131452649Y-86738023D01*
X131452659Y-86738025D01*
X131704599Y-86775999D01*
X131704608Y-86776000D01*
X131959392Y-86776000D01*
X131959400Y-86775999D01*
X132211340Y-86738025D01*
X132211350Y-86738023D01*
X132454823Y-86662921D01*
X132684381Y-86552373D01*
X132702529Y-86540000D01*
X139155073Y-86540000D01*
X139174738Y-86752216D01*
X139233064Y-86957210D01*
X139328057Y-87147983D01*
X139328066Y-87147998D01*
X139367258Y-87199897D01*
X139883115Y-86684039D01*
X139915887Y-86767541D01*
X140000465Y-86873599D01*
X140112547Y-86950016D01*
X140166257Y-86966583D01*
X139649320Y-87483521D01*
X139795202Y-87573846D01*
X139795204Y-87573847D01*
X139993941Y-87650838D01*
X140203437Y-87690000D01*
X140416563Y-87690000D01*
X140626058Y-87650838D01*
X140824795Y-87573847D01*
X140824797Y-87573846D01*
X140970678Y-87483521D01*
X140456208Y-86969051D01*
X140566357Y-86916007D01*
X140665798Y-86823740D01*
X140733625Y-86706260D01*
X140738359Y-86685516D01*
X141252741Y-87199898D01*
X141291931Y-87148002D01*
X141291940Y-87147987D01*
X141386935Y-86957210D01*
X141445261Y-86752216D01*
X141464926Y-86540000D01*
X141694571Y-86540000D01*
X141714244Y-86752311D01*
X141734312Y-86822842D01*
X141772595Y-86957389D01*
X141867634Y-87148255D01*
X141996128Y-87318407D01*
X141996135Y-87318413D01*
X142153692Y-87462047D01*
X142153699Y-87462053D01*
X142216200Y-87500752D01*
X142334981Y-87574298D01*
X142533802Y-87651321D01*
X142743390Y-87690500D01*
X142956610Y-87690500D01*
X143166198Y-87651321D01*
X143365019Y-87574298D01*
X143546302Y-87462052D01*
X143703872Y-87318407D01*
X143832366Y-87148255D01*
X143927405Y-86957389D01*
X143985756Y-86752310D01*
X144005429Y-86540000D01*
X144005429Y-86539999D01*
X144234571Y-86539999D01*
X144254244Y-86752311D01*
X144274312Y-86822842D01*
X144312595Y-86957389D01*
X144407634Y-87148255D01*
X144536128Y-87318407D01*
X144536135Y-87318413D01*
X144693692Y-87462047D01*
X144693699Y-87462053D01*
X144756200Y-87500752D01*
X144874981Y-87574298D01*
X145073802Y-87651321D01*
X145283390Y-87690500D01*
X145496610Y-87690500D01*
X145706198Y-87651321D01*
X145905019Y-87574298D01*
X146086302Y-87462052D01*
X146243872Y-87318407D01*
X146372366Y-87148255D01*
X146467405Y-86957389D01*
X146525756Y-86752310D01*
X146545429Y-86540000D01*
X146774571Y-86540000D01*
X146794244Y-86752311D01*
X146814312Y-86822842D01*
X146852595Y-86957389D01*
X146947634Y-87148255D01*
X147076128Y-87318407D01*
X147076135Y-87318413D01*
X147233692Y-87462047D01*
X147233699Y-87462053D01*
X147296200Y-87500752D01*
X147414981Y-87574298D01*
X147613802Y-87651321D01*
X147823390Y-87690500D01*
X148036610Y-87690500D01*
X148246198Y-87651321D01*
X148445019Y-87574298D01*
X148626302Y-87462052D01*
X148783872Y-87318407D01*
X148797772Y-87300001D01*
X171044722Y-87300001D01*
X171063762Y-87456816D01*
X171063763Y-87456818D01*
X171078093Y-87494603D01*
X171119780Y-87604523D01*
X171209515Y-87734528D01*
X171209516Y-87734529D01*
X171209517Y-87734530D01*
X171327760Y-87839283D01*
X171467635Y-87912696D01*
X171621015Y-87950500D01*
X171621018Y-87950500D01*
X171778982Y-87950500D01*
X171778985Y-87950500D01*
X171932365Y-87912696D01*
X172072240Y-87839283D01*
X172190483Y-87734530D01*
X172280220Y-87604523D01*
X172336237Y-87456818D01*
X172355278Y-87300000D01*
X172354148Y-87290696D01*
X172336237Y-87143183D01*
X172336237Y-87143182D01*
X172280220Y-86995477D01*
X172190483Y-86865470D01*
X172072240Y-86760717D01*
X172002302Y-86724010D01*
X171932364Y-86687303D01*
X171778987Y-86649500D01*
X171778985Y-86649500D01*
X171621015Y-86649500D01*
X171621012Y-86649500D01*
X171467635Y-86687303D01*
X171327758Y-86760718D01*
X171209515Y-86865471D01*
X171119780Y-86995476D01*
X171063763Y-87143182D01*
X171063762Y-87143183D01*
X171044722Y-87299998D01*
X171044722Y-87300001D01*
X148797772Y-87300001D01*
X148912366Y-87148255D01*
X149007405Y-86957389D01*
X149065756Y-86752310D01*
X149085429Y-86540000D01*
X149065756Y-86327690D01*
X149007405Y-86122611D01*
X148912366Y-85931745D01*
X148783872Y-85761593D01*
X148722257Y-85705423D01*
X148626307Y-85617952D01*
X148626300Y-85617946D01*
X148445024Y-85505705D01*
X148445019Y-85505702D01*
X148246195Y-85428678D01*
X148036610Y-85389500D01*
X147823390Y-85389500D01*
X147613804Y-85428678D01*
X147414980Y-85505702D01*
X147414975Y-85505705D01*
X147233699Y-85617946D01*
X147233692Y-85617952D01*
X147076135Y-85761586D01*
X147076131Y-85761589D01*
X147076128Y-85761593D01*
X147076124Y-85761597D01*
X147076125Y-85761597D01*
X146947635Y-85931743D01*
X146947630Y-85931752D01*
X146852596Y-86122608D01*
X146852595Y-86122611D01*
X146850497Y-86129984D01*
X146794244Y-86327688D01*
X146774571Y-86540000D01*
X146545429Y-86540000D01*
X146525756Y-86327690D01*
X146467405Y-86122611D01*
X146372366Y-85931745D01*
X146243872Y-85761593D01*
X146182257Y-85705423D01*
X146086307Y-85617952D01*
X146086300Y-85617946D01*
X145905024Y-85505705D01*
X145905019Y-85505702D01*
X145706195Y-85428678D01*
X145496610Y-85389500D01*
X145283390Y-85389500D01*
X145073804Y-85428678D01*
X144874980Y-85505702D01*
X144874975Y-85505705D01*
X144693699Y-85617946D01*
X144693692Y-85617952D01*
X144536135Y-85761586D01*
X144536131Y-85761589D01*
X144536128Y-85761593D01*
X144536124Y-85761597D01*
X144536125Y-85761597D01*
X144407635Y-85931743D01*
X144407630Y-85931752D01*
X144312596Y-86122608D01*
X144312595Y-86122611D01*
X144310497Y-86129984D01*
X144254244Y-86327688D01*
X144234571Y-86539999D01*
X144005429Y-86539999D01*
X143985756Y-86327690D01*
X143927405Y-86122611D01*
X143832366Y-85931745D01*
X143703872Y-85761593D01*
X143642257Y-85705423D01*
X143546307Y-85617952D01*
X143546300Y-85617946D01*
X143365024Y-85505705D01*
X143365019Y-85505702D01*
X143166195Y-85428678D01*
X142956610Y-85389500D01*
X142743390Y-85389500D01*
X142533804Y-85428678D01*
X142334980Y-85505702D01*
X142334975Y-85505705D01*
X142153699Y-85617946D01*
X142153692Y-85617952D01*
X141996135Y-85761586D01*
X141996131Y-85761589D01*
X141996128Y-85761593D01*
X141996124Y-85761597D01*
X141996125Y-85761597D01*
X141867635Y-85931743D01*
X141867630Y-85931752D01*
X141772596Y-86122608D01*
X141772595Y-86122611D01*
X141770497Y-86129984D01*
X141714244Y-86327688D01*
X141694571Y-86540000D01*
X141464926Y-86540000D01*
X141445261Y-86327783D01*
X141386935Y-86122789D01*
X141291942Y-85932016D01*
X141291937Y-85932007D01*
X141252739Y-85880102D01*
X140736883Y-86395957D01*
X140704113Y-86312459D01*
X140619535Y-86206401D01*
X140507453Y-86129984D01*
X140453739Y-86113415D01*
X140970678Y-85596477D01*
X140824797Y-85506153D01*
X140824795Y-85506152D01*
X140626058Y-85429161D01*
X140416563Y-85390000D01*
X140203437Y-85390000D01*
X139993941Y-85429161D01*
X139795204Y-85506152D01*
X139795202Y-85506153D01*
X139649320Y-85596477D01*
X140163791Y-86110948D01*
X140053643Y-86163993D01*
X139954202Y-86256260D01*
X139886375Y-86373740D01*
X139881640Y-86394483D01*
X139367258Y-85880100D01*
X139328061Y-85932007D01*
X139233064Y-86122789D01*
X139174738Y-86327783D01*
X139155073Y-86540000D01*
X132702529Y-86540000D01*
X132887229Y-86414073D01*
X132238532Y-85765376D01*
X132333948Y-85705423D01*
X132461423Y-85577948D01*
X132521376Y-85482532D01*
X133167175Y-86128331D01*
X133240543Y-86036330D01*
X133240548Y-86036322D01*
X133367935Y-85815683D01*
X133367944Y-85815664D01*
X133461029Y-85578489D01*
X133461029Y-85578487D01*
X133517724Y-85330086D01*
X133517726Y-85330076D01*
X133536767Y-85076002D01*
X133536767Y-85075997D01*
X133517726Y-84821923D01*
X133517724Y-84821913D01*
X133461029Y-84573512D01*
X133461029Y-84573510D01*
X133367944Y-84336335D01*
X133367935Y-84336316D01*
X133240548Y-84115677D01*
X133240544Y-84115670D01*
X133167175Y-84023667D01*
X132521375Y-84669466D01*
X132461423Y-84574052D01*
X132333948Y-84446577D01*
X132238531Y-84386622D01*
X132625154Y-84000000D01*
X140424571Y-84000000D01*
X140444244Y-84212311D01*
X140449926Y-84232281D01*
X140502595Y-84417389D01*
X140597634Y-84608255D01*
X140726128Y-84778407D01*
X140796734Y-84842773D01*
X140883692Y-84922047D01*
X140883699Y-84922053D01*
X140987389Y-84986255D01*
X141064981Y-85034298D01*
X141263802Y-85111321D01*
X141473390Y-85150500D01*
X141686610Y-85150500D01*
X141896198Y-85111321D01*
X142095019Y-85034298D01*
X142276302Y-84922052D01*
X142433872Y-84778407D01*
X142562366Y-84608255D01*
X142657405Y-84417389D01*
X142715756Y-84212310D01*
X142735429Y-84000000D01*
X142964571Y-84000000D01*
X142984244Y-84212311D01*
X142989926Y-84232281D01*
X143042595Y-84417389D01*
X143137634Y-84608255D01*
X143266128Y-84778407D01*
X143336734Y-84842773D01*
X143423692Y-84922047D01*
X143423699Y-84922053D01*
X143527389Y-84986255D01*
X143604981Y-85034298D01*
X143803802Y-85111321D01*
X144013390Y-85150500D01*
X144226610Y-85150500D01*
X144436198Y-85111321D01*
X144635019Y-85034298D01*
X144816302Y-84922052D01*
X144973872Y-84778407D01*
X145102366Y-84608255D01*
X145197405Y-84417389D01*
X145255756Y-84212310D01*
X145275429Y-84000000D01*
X145504571Y-84000000D01*
X145524244Y-84212311D01*
X145529926Y-84232281D01*
X145582595Y-84417389D01*
X145677634Y-84608255D01*
X145806128Y-84778407D01*
X145876734Y-84842773D01*
X145963692Y-84922047D01*
X145963699Y-84922053D01*
X146067389Y-84986255D01*
X146144981Y-85034298D01*
X146343802Y-85111321D01*
X146553390Y-85150500D01*
X146766610Y-85150500D01*
X146976198Y-85111321D01*
X147175019Y-85034298D01*
X147356302Y-84922052D01*
X147513872Y-84778407D01*
X147642366Y-84608255D01*
X147737405Y-84417389D01*
X147795756Y-84212310D01*
X147815429Y-84000000D01*
X147796897Y-83799999D01*
X148050000Y-83799999D01*
X148050001Y-83800000D01*
X148795855Y-83800000D01*
X148776375Y-83833740D01*
X148746190Y-83965992D01*
X148756327Y-84101265D01*
X148795078Y-84200000D01*
X148050002Y-84200000D01*
X148050001Y-84200001D01*
X148050001Y-84781485D01*
X148064833Y-84875141D01*
X148064836Y-84875151D01*
X148122358Y-84988043D01*
X148211956Y-85077641D01*
X148324848Y-85135163D01*
X148324852Y-85135164D01*
X148418515Y-85149999D01*
X148999998Y-85149999D01*
X149000000Y-85149997D01*
X149000000Y-84408279D01*
X149002547Y-84410016D01*
X149132173Y-84450000D01*
X149233724Y-84450000D01*
X149334138Y-84434865D01*
X149400000Y-84403147D01*
X149400000Y-85149997D01*
X149400001Y-85149999D01*
X149981483Y-85149999D01*
X149981485Y-85149998D01*
X150075141Y-85135166D01*
X150075151Y-85135163D01*
X150188043Y-85077641D01*
X150277641Y-84988043D01*
X150335163Y-84875151D01*
X150335164Y-84875147D01*
X150350000Y-84781484D01*
X150350000Y-84200000D01*
X149604145Y-84200000D01*
X149623625Y-84166260D01*
X149653810Y-84034008D01*
X149643673Y-83898735D01*
X149604922Y-83800000D01*
X150349998Y-83800000D01*
X150349999Y-83799999D01*
X150349999Y-83218516D01*
X150349998Y-83218514D01*
X150335166Y-83124858D01*
X150335163Y-83124848D01*
X150277641Y-83011956D01*
X150188043Y-82922358D01*
X150144165Y-82900001D01*
X173344722Y-82900001D01*
X173363762Y-83056816D01*
X173363763Y-83056818D01*
X173389565Y-83124852D01*
X173419780Y-83204523D01*
X173509515Y-83334528D01*
X173509516Y-83334529D01*
X173509517Y-83334530D01*
X173627760Y-83439283D01*
X173767635Y-83512696D01*
X173921015Y-83550500D01*
X173921018Y-83550500D01*
X174078982Y-83550500D01*
X174078985Y-83550500D01*
X174232365Y-83512696D01*
X174372240Y-83439283D01*
X174490483Y-83334530D01*
X174580220Y-83204523D01*
X174636237Y-83056818D01*
X174655278Y-82900000D01*
X174653903Y-82888679D01*
X174636237Y-82743183D01*
X174636237Y-82743182D01*
X174580220Y-82595477D01*
X174515462Y-82501658D01*
X174490484Y-82465471D01*
X174425328Y-82407748D01*
X174372240Y-82360717D01*
X174302302Y-82324010D01*
X174232364Y-82287303D01*
X174078987Y-82249500D01*
X174078985Y-82249500D01*
X173921015Y-82249500D01*
X173921012Y-82249500D01*
X173767635Y-82287303D01*
X173627758Y-82360718D01*
X173509515Y-82465471D01*
X173419780Y-82595476D01*
X173363763Y-82743182D01*
X173363762Y-82743183D01*
X173344722Y-82899998D01*
X173344722Y-82900001D01*
X150144165Y-82900001D01*
X150075151Y-82864836D01*
X150075147Y-82864835D01*
X149981484Y-82850000D01*
X149400000Y-82850000D01*
X149400000Y-83591720D01*
X149397453Y-83589984D01*
X149267827Y-83550000D01*
X149166276Y-83550000D01*
X149065862Y-83565135D01*
X149000000Y-83596852D01*
X149000000Y-82850001D01*
X148999999Y-82850000D01*
X148418516Y-82850000D01*
X148418514Y-82850001D01*
X148324858Y-82864833D01*
X148324848Y-82864836D01*
X148211956Y-82922358D01*
X148122358Y-83011956D01*
X148064836Y-83124848D01*
X148064835Y-83124852D01*
X148050000Y-83218515D01*
X148050000Y-83799999D01*
X147796897Y-83799999D01*
X147795756Y-83787690D01*
X147737405Y-83582611D01*
X147642366Y-83391745D01*
X147513872Y-83221593D01*
X147439416Y-83153717D01*
X147356307Y-83077952D01*
X147356300Y-83077946D01*
X147175024Y-82965705D01*
X147175019Y-82965702D01*
X147062564Y-82922137D01*
X146976198Y-82888679D01*
X146976197Y-82888678D01*
X146976195Y-82888678D01*
X146766610Y-82849500D01*
X146553390Y-82849500D01*
X146343804Y-82888678D01*
X146144980Y-82965702D01*
X146144975Y-82965705D01*
X145963699Y-83077946D01*
X145963692Y-83077952D01*
X145806135Y-83221586D01*
X145806131Y-83221589D01*
X145806128Y-83221593D01*
X145806124Y-83221597D01*
X145806125Y-83221597D01*
X145677635Y-83391743D01*
X145677630Y-83391752D01*
X145582596Y-83582608D01*
X145524244Y-83787688D01*
X145504571Y-84000000D01*
X145275429Y-84000000D01*
X145255756Y-83787690D01*
X145197405Y-83582611D01*
X145102366Y-83391745D01*
X144973872Y-83221593D01*
X144899416Y-83153717D01*
X144816307Y-83077952D01*
X144816300Y-83077946D01*
X144635024Y-82965705D01*
X144635019Y-82965702D01*
X144522564Y-82922137D01*
X144436198Y-82888679D01*
X144436197Y-82888678D01*
X144436195Y-82888678D01*
X144226610Y-82849500D01*
X144013390Y-82849500D01*
X143803804Y-82888678D01*
X143604980Y-82965702D01*
X143604975Y-82965705D01*
X143423699Y-83077946D01*
X143423692Y-83077952D01*
X143266135Y-83221586D01*
X143266131Y-83221589D01*
X143266128Y-83221593D01*
X143266124Y-83221597D01*
X143266125Y-83221597D01*
X143137635Y-83391743D01*
X143137630Y-83391752D01*
X143042596Y-83582608D01*
X142984244Y-83787688D01*
X142964571Y-84000000D01*
X142735429Y-84000000D01*
X142715756Y-83787690D01*
X142657405Y-83582611D01*
X142562366Y-83391745D01*
X142433872Y-83221593D01*
X142359416Y-83153717D01*
X142276307Y-83077952D01*
X142276300Y-83077946D01*
X142095024Y-82965705D01*
X142095019Y-82965702D01*
X141982564Y-82922137D01*
X141896198Y-82888679D01*
X141896197Y-82888678D01*
X141896195Y-82888678D01*
X141686610Y-82849500D01*
X141473390Y-82849500D01*
X141263804Y-82888678D01*
X141064980Y-82965702D01*
X141064975Y-82965705D01*
X140883699Y-83077946D01*
X140883692Y-83077952D01*
X140726135Y-83221586D01*
X140726131Y-83221589D01*
X140726128Y-83221593D01*
X140726124Y-83221597D01*
X140726125Y-83221597D01*
X140597635Y-83391743D01*
X140597630Y-83391752D01*
X140502596Y-83582608D01*
X140444244Y-83787688D01*
X140424571Y-84000000D01*
X132625154Y-84000000D01*
X132887228Y-83737926D01*
X132684376Y-83599624D01*
X132454823Y-83489078D01*
X132211350Y-83413976D01*
X132211340Y-83413974D01*
X131959400Y-83376000D01*
X131704599Y-83376000D01*
X131452659Y-83413974D01*
X131452649Y-83413976D01*
X131231033Y-83482336D01*
X131169854Y-83481420D01*
X131120898Y-83444720D01*
X131102863Y-83386253D01*
X131122639Y-83328352D01*
X131130576Y-83319026D01*
X131217454Y-83228916D01*
X131377196Y-83005637D01*
X131502727Y-82761479D01*
X131591370Y-82501646D01*
X131641236Y-82231674D01*
X131651262Y-81957320D01*
X131621236Y-81684429D01*
X131551796Y-81418818D01*
X131444423Y-81166148D01*
X131438728Y-81156817D01*
X131329705Y-80978175D01*
X131301405Y-80931804D01*
X131125791Y-80720782D01*
X130921325Y-80537578D01*
X130805150Y-80460718D01*
X130692359Y-80386096D01*
X130443779Y-80269567D01*
X130443774Y-80269565D01*
X130443773Y-80269565D01*
X130180894Y-80190476D01*
X130180878Y-80190472D01*
X129909270Y-80150500D01*
X129909269Y-80150500D01*
X129703453Y-80150500D01*
X129498200Y-80165522D01*
X129498195Y-80165522D01*
X129498195Y-80165523D01*
X129230225Y-80225216D01*
X129114270Y-80269565D01*
X128973796Y-80323291D01*
X128734394Y-80457650D01*
X128734387Y-80457655D01*
X128517099Y-80625439D01*
X128326545Y-80823084D01*
X128215588Y-80978175D01*
X128166804Y-81046363D01*
X128162181Y-81055354D01*
X128041270Y-81290525D01*
X128041270Y-81290527D01*
X127952633Y-81550341D01*
X127952629Y-81550357D01*
X127902763Y-81820328D01*
X127892738Y-82094680D01*
X120216242Y-82094680D01*
X120221262Y-81957320D01*
X120191236Y-81684429D01*
X120121796Y-81418818D01*
X120014423Y-81166148D01*
X120008728Y-81156817D01*
X119899705Y-80978175D01*
X119871405Y-80931804D01*
X119695791Y-80720782D01*
X119491325Y-80537578D01*
X119375150Y-80460718D01*
X119262359Y-80386096D01*
X119013779Y-80269567D01*
X119013774Y-80269565D01*
X119013773Y-80269565D01*
X118750894Y-80190476D01*
X118750878Y-80190472D01*
X118479270Y-80150500D01*
X118479269Y-80150500D01*
X118273453Y-80150500D01*
X118068200Y-80165522D01*
X118068195Y-80165522D01*
X118068195Y-80165523D01*
X117800225Y-80225216D01*
X117684270Y-80269565D01*
X117543796Y-80323291D01*
X117304394Y-80457650D01*
X117304387Y-80457655D01*
X117087099Y-80625439D01*
X116896545Y-80823084D01*
X116785588Y-80978175D01*
X116736804Y-81046363D01*
X116732181Y-81055354D01*
X116611270Y-81290525D01*
X116611270Y-81290527D01*
X116522633Y-81550341D01*
X116522629Y-81550357D01*
X116472763Y-81820328D01*
X116462738Y-82094680D01*
X116492764Y-82367573D01*
X116562203Y-82633179D01*
X116669577Y-82885853D01*
X116812597Y-83120200D01*
X116980569Y-83322040D01*
X117003259Y-83378862D01*
X116988216Y-83438170D01*
X116941186Y-83477308D01*
X116880133Y-83481328D01*
X116875292Y-83479969D01*
X116661350Y-83413976D01*
X116661340Y-83413974D01*
X116409400Y-83376000D01*
X116154599Y-83376000D01*
X115902659Y-83413974D01*
X115902649Y-83413976D01*
X115659176Y-83489077D01*
X115429615Y-83599628D01*
X115226769Y-83737925D01*
X115875467Y-84386623D01*
X115780052Y-84446577D01*
X115652577Y-84574052D01*
X115592623Y-84669467D01*
X114946823Y-84023667D01*
X114873460Y-84115663D01*
X114873451Y-84115677D01*
X114746064Y-84336316D01*
X114746055Y-84336335D01*
X114652970Y-84573510D01*
X114652970Y-84573512D01*
X114596275Y-84821913D01*
X114596273Y-84821923D01*
X114577233Y-85075997D01*
X114577233Y-85076002D01*
X104050500Y-85076002D01*
X104050500Y-83693001D01*
X108564722Y-83693001D01*
X108583762Y-83849816D01*
X108583763Y-83849818D01*
X108627822Y-83965992D01*
X108639780Y-83997523D01*
X108729515Y-84127528D01*
X108729516Y-84127529D01*
X108729517Y-84127530D01*
X108847760Y-84232283D01*
X108987635Y-84305696D01*
X109141015Y-84343500D01*
X109141018Y-84343500D01*
X109298982Y-84343500D01*
X109298985Y-84343500D01*
X109452365Y-84305696D01*
X109592240Y-84232283D01*
X109710483Y-84127530D01*
X109800220Y-83997523D01*
X109856237Y-83849818D01*
X109875278Y-83693000D01*
X109872048Y-83666401D01*
X109861874Y-83582608D01*
X109856237Y-83536182D01*
X109800220Y-83388477D01*
X109710483Y-83258470D01*
X109710482Y-83258469D01*
X109710481Y-83258467D01*
X109679874Y-83231352D01*
X109648855Y-83178613D01*
X109654761Y-83117713D01*
X109695334Y-83071915D01*
X109745523Y-83058250D01*
X109799232Y-83058250D01*
X109799235Y-83058250D01*
X109952615Y-83020446D01*
X110092490Y-82947033D01*
X110210733Y-82842280D01*
X110300470Y-82712273D01*
X110356487Y-82564568D01*
X110375528Y-82407750D01*
X110370649Y-82367571D01*
X110356487Y-82250933D01*
X110356487Y-82250932D01*
X110300470Y-82103227D01*
X110210733Y-81973220D01*
X110092490Y-81868467D01*
X110000766Y-81820326D01*
X109952614Y-81795053D01*
X109799237Y-81757250D01*
X109799235Y-81757250D01*
X109641265Y-81757250D01*
X109641262Y-81757250D01*
X109487885Y-81795053D01*
X109348008Y-81868468D01*
X109229765Y-81973221D01*
X109140030Y-82103226D01*
X109084013Y-82250932D01*
X109084012Y-82250933D01*
X109064972Y-82407748D01*
X109064972Y-82407751D01*
X109084012Y-82564566D01*
X109084013Y-82564568D01*
X109110034Y-82633179D01*
X109140030Y-82712273D01*
X109229767Y-82842280D01*
X109229768Y-82842282D01*
X109260376Y-82869398D01*
X109291395Y-82922137D01*
X109285489Y-82983037D01*
X109244916Y-83028835D01*
X109194727Y-83042500D01*
X109141012Y-83042500D01*
X108987635Y-83080303D01*
X108847758Y-83153718D01*
X108729515Y-83258471D01*
X108639780Y-83388476D01*
X108583763Y-83536182D01*
X108583762Y-83536183D01*
X108564722Y-83692998D01*
X108564722Y-83693001D01*
X104050500Y-83693001D01*
X104050500Y-78646003D01*
X116381360Y-78646003D01*
X116401877Y-78880528D01*
X116401878Y-78880535D01*
X116401879Y-78880536D01*
X116462814Y-79107946D01*
X116562311Y-79321319D01*
X116562311Y-79321320D01*
X116640400Y-79432843D01*
X116697350Y-79514175D01*
X116863825Y-79680650D01*
X116863828Y-79680652D01*
X116863829Y-79680653D01*
X116872615Y-79686805D01*
X117056680Y-79815689D01*
X117270054Y-79915186D01*
X117497464Y-79976121D01*
X117497468Y-79976121D01*
X117497471Y-79976122D01*
X117731997Y-79996640D01*
X117732000Y-79996640D01*
X117732003Y-79996640D01*
X117966528Y-79976122D01*
X117966529Y-79976121D01*
X117966536Y-79976121D01*
X118193946Y-79915186D01*
X118407320Y-79815689D01*
X118600175Y-79680650D01*
X118766650Y-79514175D01*
X118901689Y-79321320D01*
X119001186Y-79107946D01*
X119062121Y-78880536D01*
X119062270Y-78878840D01*
X119082640Y-78646003D01*
X126491360Y-78646003D01*
X126511877Y-78880528D01*
X126511878Y-78880535D01*
X126511879Y-78880536D01*
X126572814Y-79107946D01*
X126672311Y-79321319D01*
X126672311Y-79321320D01*
X126750400Y-79432843D01*
X126807350Y-79514175D01*
X126973825Y-79680650D01*
X126973828Y-79680652D01*
X126973829Y-79680653D01*
X126982615Y-79686805D01*
X127166680Y-79815689D01*
X127380054Y-79915186D01*
X127607464Y-79976121D01*
X127607468Y-79976121D01*
X127607471Y-79976122D01*
X127841997Y-79996640D01*
X127842000Y-79996640D01*
X127842003Y-79996640D01*
X128076528Y-79976122D01*
X128076529Y-79976121D01*
X128076536Y-79976121D01*
X128303946Y-79915186D01*
X128517320Y-79815689D01*
X128710175Y-79680650D01*
X128876650Y-79514175D01*
X129011689Y-79321320D01*
X129111186Y-79107946D01*
X129172121Y-78880536D01*
X129172270Y-78878840D01*
X129192640Y-78646003D01*
X129192640Y-78645996D01*
X129172122Y-78411471D01*
X129172121Y-78411468D01*
X129172121Y-78411464D01*
X129111186Y-78184054D01*
X129011689Y-77970680D01*
X128903983Y-77816860D01*
X128876653Y-77777829D01*
X128876652Y-77777828D01*
X128876650Y-77777825D01*
X128710175Y-77611350D01*
X128710171Y-77611347D01*
X128710170Y-77611346D01*
X128517320Y-77476311D01*
X128517319Y-77476311D01*
X128303946Y-77376814D01*
X128076536Y-77315879D01*
X128076535Y-77315878D01*
X128076528Y-77315877D01*
X127842003Y-77295360D01*
X127841997Y-77295360D01*
X127607471Y-77315877D01*
X127583471Y-77322308D01*
X127380054Y-77376814D01*
X127166680Y-77476311D01*
X127166679Y-77476311D01*
X126973829Y-77611346D01*
X126807346Y-77777829D01*
X126672311Y-77970679D01*
X126672311Y-77970680D01*
X126572814Y-78184054D01*
X126542901Y-78295689D01*
X126511877Y-78411471D01*
X126491360Y-78645996D01*
X126491360Y-78646003D01*
X119082640Y-78646003D01*
X119082640Y-78645996D01*
X119062122Y-78411471D01*
X119062121Y-78411468D01*
X119062121Y-78411464D01*
X119001186Y-78184054D01*
X118901689Y-77970680D01*
X118793983Y-77816860D01*
X118766653Y-77777829D01*
X118766652Y-77777828D01*
X118766650Y-77777825D01*
X118600175Y-77611350D01*
X118600171Y-77611347D01*
X118600170Y-77611346D01*
X118407320Y-77476311D01*
X118407319Y-77476311D01*
X118193946Y-77376814D01*
X117966536Y-77315879D01*
X117966535Y-77315878D01*
X117966528Y-77315877D01*
X117732003Y-77295360D01*
X117731997Y-77295360D01*
X117497471Y-77315877D01*
X117473471Y-77322308D01*
X117270054Y-77376814D01*
X117056680Y-77476311D01*
X117056679Y-77476311D01*
X116863829Y-77611346D01*
X116697346Y-77777829D01*
X116562311Y-77970679D01*
X116562311Y-77970680D01*
X116462814Y-78184054D01*
X116432901Y-78295689D01*
X116401877Y-78411471D01*
X116381360Y-78645996D01*
X116381360Y-78646003D01*
X104050500Y-78646003D01*
X104050500Y-74900006D01*
X104394559Y-74900006D01*
X104414308Y-75276859D01*
X104414310Y-75276880D01*
X104473345Y-75649607D01*
X104571021Y-76014140D01*
X104571023Y-76014147D01*
X104706264Y-76366462D01*
X104792068Y-76534861D01*
X104877597Y-76702720D01*
X105000173Y-76891471D01*
X105083139Y-77019228D01*
X105169604Y-77126003D01*
X105320635Y-77312511D01*
X105587489Y-77579365D01*
X105626987Y-77611350D01*
X105861579Y-77801319D01*
X105880775Y-77816863D01*
X106197280Y-78022403D01*
X106468604Y-78160650D01*
X106533537Y-78193735D01*
X106620831Y-78227244D01*
X106885857Y-78328978D01*
X107250387Y-78426653D01*
X107250390Y-78426653D01*
X107250392Y-78426654D01*
X107623119Y-78485689D01*
X107623128Y-78485689D01*
X107623129Y-78485690D01*
X107623130Y-78485690D01*
X107623140Y-78485691D01*
X107784375Y-78494140D01*
X107905720Y-78500500D01*
X107905725Y-78500500D01*
X108094275Y-78500500D01*
X108094280Y-78500500D01*
X108235575Y-78493095D01*
X108376859Y-78485691D01*
X108376867Y-78485690D01*
X108376871Y-78485690D01*
X108376873Y-78485689D01*
X108376880Y-78485689D01*
X108749607Y-78426654D01*
X108749607Y-78426653D01*
X108749613Y-78426653D01*
X109114143Y-78328978D01*
X109466465Y-78193734D01*
X109802720Y-78022403D01*
X110119225Y-77816863D01*
X110412511Y-77579365D01*
X110679365Y-77312511D01*
X110830396Y-77126003D01*
X118921360Y-77126003D01*
X118941877Y-77360528D01*
X118941878Y-77360535D01*
X118941879Y-77360536D01*
X119002814Y-77587946D01*
X119102311Y-77801319D01*
X119102311Y-77801320D01*
X119220898Y-77970680D01*
X119237350Y-77994175D01*
X119403825Y-78160650D01*
X119596680Y-78295689D01*
X119810054Y-78395186D01*
X120037464Y-78456121D01*
X120037468Y-78456121D01*
X120037471Y-78456122D01*
X120271997Y-78476640D01*
X120272000Y-78476640D01*
X120272003Y-78476640D01*
X120506528Y-78456122D01*
X120506529Y-78456121D01*
X120506536Y-78456121D01*
X120733946Y-78395186D01*
X120947320Y-78295689D01*
X121140175Y-78160650D01*
X121306650Y-77994175D01*
X121441689Y-77801320D01*
X121541186Y-77587946D01*
X121602121Y-77360536D01*
X121605466Y-77322308D01*
X121622640Y-77126003D01*
X129031360Y-77126003D01*
X129051877Y-77360528D01*
X129051878Y-77360535D01*
X129051879Y-77360536D01*
X129112814Y-77587946D01*
X129212311Y-77801319D01*
X129212311Y-77801320D01*
X129330898Y-77970680D01*
X129347350Y-77994175D01*
X129513825Y-78160650D01*
X129706680Y-78295689D01*
X129920054Y-78395186D01*
X130147464Y-78456121D01*
X130147468Y-78456121D01*
X130147471Y-78456122D01*
X130381997Y-78476640D01*
X130382000Y-78476640D01*
X130382003Y-78476640D01*
X130616528Y-78456122D01*
X130616529Y-78456121D01*
X130616536Y-78456121D01*
X130843946Y-78395186D01*
X131057320Y-78295689D01*
X131250175Y-78160650D01*
X131416650Y-77994175D01*
X131551689Y-77801320D01*
X131622250Y-77650000D01*
X136809725Y-77650000D01*
X136828804Y-77941106D01*
X136885721Y-78227244D01*
X136979497Y-78503495D01*
X136979500Y-78503501D01*
X137108522Y-78765134D01*
X137108524Y-78765138D01*
X137270602Y-79007703D01*
X137270603Y-79007704D01*
X137395392Y-79150000D01*
X137462957Y-79227043D01*
X137462965Y-79227050D01*
X137462966Y-79227051D01*
X137682295Y-79419396D01*
X137682296Y-79419397D01*
X137924861Y-79581475D01*
X137924865Y-79581477D01*
X138186498Y-79710499D01*
X138186504Y-79710502D01*
X138186506Y-79710502D01*
X138186511Y-79710505D01*
X138358831Y-79769000D01*
X138462755Y-79804278D01*
X138462757Y-79804278D01*
X138462762Y-79804280D01*
X138748891Y-79861195D01*
X138942963Y-79873914D01*
X139039999Y-79880275D01*
X139040000Y-79880275D01*
X139040001Y-79880275D01*
X139112777Y-79875505D01*
X139331109Y-79861195D01*
X139617238Y-79804280D01*
X139893489Y-79710505D01*
X140155138Y-79581475D01*
X140397705Y-79419396D01*
X140617043Y-79227043D01*
X140809396Y-79007705D01*
X140971475Y-78765138D01*
X141100505Y-78503489D01*
X141194280Y-78227238D01*
X141251195Y-77941109D01*
X141270275Y-77650000D01*
X148239725Y-77650000D01*
X148258804Y-77941106D01*
X148315721Y-78227244D01*
X148409497Y-78503495D01*
X148409500Y-78503501D01*
X148538522Y-78765134D01*
X148538524Y-78765138D01*
X148700602Y-79007703D01*
X148700603Y-79007704D01*
X148825392Y-79150000D01*
X148892957Y-79227043D01*
X148892965Y-79227050D01*
X148892966Y-79227051D01*
X149112295Y-79419396D01*
X149112296Y-79419397D01*
X149354861Y-79581475D01*
X149354865Y-79581477D01*
X149616498Y-79710499D01*
X149616504Y-79710502D01*
X149616506Y-79710502D01*
X149616511Y-79710505D01*
X149788832Y-79769000D01*
X149892755Y-79804278D01*
X149892757Y-79804278D01*
X149892762Y-79804280D01*
X150178891Y-79861195D01*
X150372963Y-79873914D01*
X150469999Y-79880275D01*
X150470000Y-79880275D01*
X150470001Y-79880275D01*
X150542777Y-79875505D01*
X150761109Y-79861195D01*
X151047238Y-79804280D01*
X151323489Y-79710505D01*
X151585138Y-79581475D01*
X151827705Y-79419396D01*
X152047043Y-79227043D01*
X152114608Y-79149999D01*
X157595147Y-79149999D01*
X157614535Y-79421083D01*
X157672308Y-79686663D01*
X157767285Y-79941306D01*
X157767286Y-79941308D01*
X157897533Y-80179837D01*
X158021593Y-80345561D01*
X159013982Y-79353171D01*
X159067058Y-79455604D01*
X159165564Y-79561077D01*
X159288873Y-79636063D01*
X159295048Y-79637793D01*
X158304437Y-80628405D01*
X158470162Y-80752466D01*
X158708691Y-80882713D01*
X158708693Y-80882714D01*
X158963337Y-80977691D01*
X158963335Y-80977691D01*
X159228916Y-81035464D01*
X159499999Y-81054852D01*
X159771083Y-81035464D01*
X160036663Y-80977691D01*
X160291306Y-80882714D01*
X160291308Y-80882713D01*
X160529832Y-80752468D01*
X160695561Y-80628405D01*
X159701862Y-79634706D01*
X159775346Y-79602788D01*
X159887296Y-79511709D01*
X159970522Y-79393805D01*
X159985239Y-79352395D01*
X160978405Y-80345561D01*
X161102468Y-80179832D01*
X161232713Y-79941308D01*
X161232714Y-79941306D01*
X161327691Y-79686663D01*
X161385464Y-79421083D01*
X161404852Y-79150000D01*
X164594645Y-79150000D01*
X164614038Y-79421154D01*
X164614038Y-79421157D01*
X164614039Y-79421160D01*
X164653549Y-79602788D01*
X164671826Y-79686805D01*
X164766828Y-79941514D01*
X164766832Y-79941522D01*
X164897106Y-80180102D01*
X164897109Y-80180106D01*
X164897113Y-80180113D01*
X165060029Y-80397742D01*
X165252258Y-80589971D01*
X165469887Y-80752887D01*
X165469894Y-80752891D01*
X165469897Y-80752893D01*
X165708477Y-80883167D01*
X165708485Y-80883171D01*
X165708487Y-80883172D01*
X165963199Y-80978175D01*
X166228840Y-81035961D01*
X166500000Y-81055355D01*
X166771160Y-81035961D01*
X166936467Y-81000001D01*
X173344722Y-81000001D01*
X173363762Y-81156816D01*
X173363763Y-81156818D01*
X173414470Y-81290521D01*
X173419780Y-81304523D01*
X173509515Y-81434528D01*
X173509516Y-81434529D01*
X173509517Y-81434530D01*
X173627760Y-81539283D01*
X173767635Y-81612696D01*
X173921015Y-81650500D01*
X173921018Y-81650500D01*
X174078982Y-81650500D01*
X174078985Y-81650500D01*
X174232365Y-81612696D01*
X174372240Y-81539283D01*
X174490483Y-81434530D01*
X174580220Y-81304523D01*
X174636237Y-81156818D01*
X174655278Y-81000000D01*
X174646997Y-80931803D01*
X174641093Y-80883172D01*
X174636237Y-80843182D01*
X174580220Y-80695477D01*
X174531876Y-80625439D01*
X174490484Y-80565471D01*
X174372241Y-80460718D01*
X174372240Y-80460717D01*
X174252253Y-80397742D01*
X174232364Y-80387303D01*
X174078987Y-80349500D01*
X174078985Y-80349500D01*
X173921015Y-80349500D01*
X173921012Y-80349500D01*
X173767635Y-80387303D01*
X173627758Y-80460718D01*
X173509515Y-80565471D01*
X173419780Y-80695476D01*
X173363763Y-80843182D01*
X173363762Y-80843183D01*
X173344722Y-80999998D01*
X173344722Y-81000001D01*
X166936467Y-81000001D01*
X167036801Y-80978175D01*
X167291513Y-80883172D01*
X167530113Y-80752887D01*
X167747742Y-80589971D01*
X167939971Y-80397742D01*
X168102887Y-80180113D01*
X168233172Y-79941513D01*
X168328175Y-79686801D01*
X168385961Y-79421160D01*
X168405355Y-79150000D01*
X168385961Y-78878840D01*
X168328175Y-78613199D01*
X168233172Y-78358487D01*
X168198882Y-78295689D01*
X168102893Y-78119897D01*
X168102891Y-78119894D01*
X168102887Y-78119887D01*
X167939971Y-77902258D01*
X167747742Y-77710029D01*
X167530113Y-77547113D01*
X167530106Y-77547109D01*
X167530102Y-77547106D01*
X167291522Y-77416832D01*
X167291514Y-77416828D01*
X167036805Y-77321826D01*
X167036801Y-77321825D01*
X166771160Y-77264039D01*
X166771157Y-77264038D01*
X166771154Y-77264038D01*
X166500000Y-77244645D01*
X166228845Y-77264038D01*
X165963194Y-77321826D01*
X165708485Y-77416828D01*
X165708477Y-77416832D01*
X165469897Y-77547106D01*
X165469889Y-77547111D01*
X165469887Y-77547113D01*
X165415341Y-77587946D01*
X165252260Y-77710027D01*
X165060027Y-77902260D01*
X164897106Y-78119897D01*
X164766832Y-78358477D01*
X164766828Y-78358485D01*
X164671826Y-78613194D01*
X164614038Y-78878845D01*
X164594645Y-79150000D01*
X161404852Y-79150000D01*
X161404852Y-79149999D01*
X161385464Y-78878916D01*
X161327691Y-78613336D01*
X161232714Y-78358693D01*
X161232713Y-78358691D01*
X161102466Y-78120162D01*
X160978405Y-77954437D01*
X159986016Y-78946825D01*
X159932942Y-78844396D01*
X159834436Y-78738923D01*
X159711127Y-78663937D01*
X159704948Y-78662205D01*
X160695561Y-77671593D01*
X160529837Y-77547533D01*
X160291308Y-77417286D01*
X160291306Y-77417285D01*
X160036662Y-77322308D01*
X160036664Y-77322308D01*
X159771083Y-77264535D01*
X159500000Y-77245147D01*
X159228916Y-77264535D01*
X158963336Y-77322308D01*
X158708693Y-77417285D01*
X158708691Y-77417286D01*
X158470158Y-77547536D01*
X158304436Y-77671592D01*
X159298137Y-78665293D01*
X159224654Y-78697212D01*
X159112704Y-78788291D01*
X159029478Y-78906195D01*
X159014760Y-78947604D01*
X158021592Y-77954436D01*
X157897536Y-78120158D01*
X157767286Y-78358691D01*
X157767285Y-78358693D01*
X157672308Y-78613336D01*
X157614535Y-78878916D01*
X157595147Y-79149999D01*
X152114608Y-79149999D01*
X152239396Y-79007705D01*
X152401475Y-78765138D01*
X152530505Y-78503489D01*
X152624280Y-78227238D01*
X152681195Y-77941109D01*
X152700275Y-77650000D01*
X152681195Y-77358891D01*
X152624280Y-77072762D01*
X152530505Y-76796511D01*
X152401475Y-76534863D01*
X152239396Y-76292295D01*
X152047043Y-76072957D01*
X152026970Y-76055354D01*
X151827704Y-75880603D01*
X151827703Y-75880602D01*
X151585138Y-75718524D01*
X151585134Y-75718522D01*
X151323501Y-75589500D01*
X151323495Y-75589497D01*
X151047244Y-75495721D01*
X150761106Y-75438804D01*
X150470001Y-75419725D01*
X150469999Y-75419725D01*
X150178893Y-75438804D01*
X149892755Y-75495721D01*
X149616504Y-75589497D01*
X149354861Y-75718525D01*
X149112296Y-75880602D01*
X149112295Y-75880603D01*
X148892966Y-76072948D01*
X148892948Y-76072966D01*
X148700603Y-76292295D01*
X148700602Y-76292296D01*
X148538525Y-76534861D01*
X148409497Y-76796504D01*
X148315721Y-77072755D01*
X148258804Y-77358893D01*
X148239725Y-77649999D01*
X148239725Y-77650000D01*
X141270275Y-77650000D01*
X141251195Y-77358891D01*
X141194280Y-77072762D01*
X141100505Y-76796511D01*
X140971475Y-76534863D01*
X140809396Y-76292295D01*
X140617043Y-76072957D01*
X140596970Y-76055354D01*
X140397704Y-75880603D01*
X140397703Y-75880602D01*
X140155138Y-75718524D01*
X140155134Y-75718522D01*
X139893501Y-75589500D01*
X139893495Y-75589497D01*
X139617244Y-75495721D01*
X139331106Y-75438804D01*
X139040001Y-75419725D01*
X139039999Y-75419725D01*
X138748893Y-75438804D01*
X138462755Y-75495721D01*
X138186504Y-75589497D01*
X137924861Y-75718525D01*
X137682296Y-75880602D01*
X137682295Y-75880603D01*
X137462966Y-76072948D01*
X137462948Y-76072966D01*
X137270603Y-76292295D01*
X137270602Y-76292296D01*
X137108525Y-76534861D01*
X136979497Y-76796504D01*
X136885721Y-77072755D01*
X136828804Y-77358893D01*
X136809725Y-77649999D01*
X136809725Y-77650000D01*
X131622250Y-77650000D01*
X131651186Y-77587946D01*
X131712121Y-77360536D01*
X131715466Y-77322308D01*
X131732640Y-77126003D01*
X131732640Y-77125996D01*
X131712122Y-76891471D01*
X131712121Y-76891468D01*
X131712121Y-76891464D01*
X131651186Y-76664054D01*
X131551689Y-76450680D01*
X131416650Y-76257825D01*
X131250175Y-76091350D01*
X131250171Y-76091347D01*
X131250170Y-76091346D01*
X131057320Y-75956311D01*
X131057320Y-75956310D01*
X130843946Y-75856814D01*
X130616536Y-75795879D01*
X130616535Y-75795878D01*
X130616528Y-75795877D01*
X130382003Y-75775360D01*
X130381997Y-75775360D01*
X130147471Y-75795877D01*
X130147463Y-75795879D01*
X130147464Y-75795879D01*
X129920054Y-75856814D01*
X129706680Y-75956311D01*
X129706679Y-75956311D01*
X129513829Y-76091346D01*
X129347346Y-76257829D01*
X129212311Y-76450679D01*
X129212311Y-76450680D01*
X129112814Y-76664054D01*
X129077324Y-76796504D01*
X129051877Y-76891471D01*
X129031360Y-77125996D01*
X129031360Y-77126003D01*
X121622640Y-77126003D01*
X121622640Y-77125996D01*
X121602122Y-76891471D01*
X121602121Y-76891468D01*
X121602121Y-76891464D01*
X121541186Y-76664054D01*
X121441689Y-76450680D01*
X121306650Y-76257825D01*
X121140175Y-76091350D01*
X121140171Y-76091347D01*
X121140170Y-76091346D01*
X120947320Y-75956311D01*
X120947320Y-75956310D01*
X120733946Y-75856814D01*
X120506536Y-75795879D01*
X120506535Y-75795878D01*
X120506528Y-75795877D01*
X120272003Y-75775360D01*
X120271997Y-75775360D01*
X120037471Y-75795877D01*
X120037463Y-75795879D01*
X120037464Y-75795879D01*
X119810054Y-75856814D01*
X119596680Y-75956311D01*
X119596679Y-75956311D01*
X119403829Y-76091346D01*
X119237346Y-76257829D01*
X119102311Y-76450679D01*
X119102311Y-76450680D01*
X119002814Y-76664054D01*
X118967324Y-76796504D01*
X118941877Y-76891471D01*
X118921360Y-77125996D01*
X118921360Y-77126003D01*
X110830396Y-77126003D01*
X110916863Y-77019225D01*
X111122403Y-76702721D01*
X111293734Y-76366465D01*
X111428978Y-76014143D01*
X111526653Y-75649613D01*
X111536099Y-75589972D01*
X111585689Y-75276880D01*
X111585691Y-75276859D01*
X111605441Y-74900006D01*
X111605441Y-74899993D01*
X111585691Y-74523140D01*
X111585689Y-74523119D01*
X111526654Y-74150392D01*
X111526549Y-74150000D01*
X154094645Y-74150000D01*
X154114038Y-74421154D01*
X154114038Y-74421157D01*
X154114039Y-74421160D01*
X154121532Y-74455604D01*
X154171826Y-74686805D01*
X154266828Y-74941514D01*
X154266832Y-74941522D01*
X154397106Y-75180102D01*
X154397109Y-75180106D01*
X154397113Y-75180113D01*
X154560029Y-75397742D01*
X154752258Y-75589971D01*
X154969887Y-75752887D01*
X154969894Y-75752891D01*
X154969897Y-75752893D01*
X155208477Y-75883167D01*
X155208485Y-75883171D01*
X155208487Y-75883172D01*
X155463199Y-75978175D01*
X155728840Y-76035961D01*
X156000000Y-76055355D01*
X156271160Y-76035961D01*
X156536801Y-75978175D01*
X156791513Y-75883172D01*
X157030113Y-75752887D01*
X157247742Y-75589971D01*
X157439971Y-75397742D01*
X157602887Y-75180113D01*
X157733172Y-74941513D01*
X157828175Y-74686801D01*
X157885961Y-74421160D01*
X157905355Y-74150000D01*
X157905355Y-74149999D01*
X161095147Y-74149999D01*
X161114535Y-74421083D01*
X161172308Y-74686663D01*
X161267285Y-74941306D01*
X161267286Y-74941308D01*
X161397533Y-75179837D01*
X161521593Y-75345561D01*
X162513982Y-74353171D01*
X162567058Y-74455604D01*
X162665564Y-74561077D01*
X162788873Y-74636063D01*
X162795048Y-74637793D01*
X161804437Y-75628405D01*
X161970162Y-75752466D01*
X162208691Y-75882713D01*
X162208693Y-75882714D01*
X162463337Y-75977691D01*
X162463335Y-75977691D01*
X162728916Y-76035464D01*
X162999999Y-76054852D01*
X163271083Y-76035464D01*
X163536663Y-75977691D01*
X163791306Y-75882714D01*
X163791308Y-75882713D01*
X164029832Y-75752468D01*
X164195561Y-75628405D01*
X163201862Y-74634706D01*
X163275346Y-74602788D01*
X163387296Y-74511709D01*
X163470522Y-74393805D01*
X163485239Y-74352395D01*
X164478405Y-75345561D01*
X164602468Y-75179832D01*
X164732713Y-74941308D01*
X164732714Y-74941306D01*
X164748118Y-74900006D01*
X171394559Y-74900006D01*
X171414308Y-75276859D01*
X171414310Y-75276880D01*
X171473345Y-75649607D01*
X171571021Y-76014140D01*
X171571023Y-76014147D01*
X171706264Y-76366462D01*
X171792068Y-76534861D01*
X171877597Y-76702720D01*
X172000173Y-76891471D01*
X172083139Y-77019228D01*
X172169604Y-77126003D01*
X172320635Y-77312511D01*
X172587489Y-77579365D01*
X172626987Y-77611350D01*
X172861579Y-77801319D01*
X172880775Y-77816863D01*
X173197280Y-78022403D01*
X173468604Y-78160650D01*
X173533537Y-78193735D01*
X173620831Y-78227244D01*
X173885857Y-78328978D01*
X174250387Y-78426653D01*
X174250390Y-78426653D01*
X174250392Y-78426654D01*
X174623119Y-78485689D01*
X174623128Y-78485689D01*
X174623129Y-78485690D01*
X174623130Y-78485690D01*
X174623140Y-78485691D01*
X174784375Y-78494140D01*
X174905720Y-78500500D01*
X174905725Y-78500500D01*
X175094275Y-78500500D01*
X175094280Y-78500500D01*
X175235575Y-78493095D01*
X175376859Y-78485691D01*
X175376867Y-78485690D01*
X175376871Y-78485690D01*
X175376873Y-78485689D01*
X175376880Y-78485689D01*
X175749607Y-78426654D01*
X175749607Y-78426653D01*
X175749613Y-78426653D01*
X176114143Y-78328978D01*
X176466465Y-78193734D01*
X176802720Y-78022403D01*
X177119225Y-77816863D01*
X177412511Y-77579365D01*
X177679365Y-77312511D01*
X177916863Y-77019225D01*
X178122403Y-76702721D01*
X178293734Y-76366465D01*
X178428978Y-76014143D01*
X178526653Y-75649613D01*
X178536099Y-75589972D01*
X178585689Y-75276880D01*
X178585691Y-75276859D01*
X178605441Y-74900006D01*
X178605441Y-74899993D01*
X178585691Y-74523140D01*
X178585689Y-74523119D01*
X178526654Y-74150392D01*
X178461222Y-73906195D01*
X178428978Y-73785857D01*
X178293734Y-73433535D01*
X178122403Y-73097280D01*
X177916863Y-72780775D01*
X177859572Y-72710027D01*
X177727990Y-72547536D01*
X177679365Y-72487489D01*
X177412511Y-72220635D01*
X177382510Y-72196341D01*
X177119228Y-71983139D01*
X177119225Y-71983137D01*
X176802720Y-71777597D01*
X176766350Y-71759065D01*
X176466462Y-71606264D01*
X176114147Y-71471023D01*
X176114140Y-71471021D01*
X175749607Y-71373345D01*
X175376880Y-71314310D01*
X175376859Y-71314308D01*
X175094292Y-71299500D01*
X175094280Y-71299500D01*
X174905720Y-71299500D01*
X174905707Y-71299500D01*
X174623140Y-71314308D01*
X174623119Y-71314310D01*
X174250392Y-71373345D01*
X173885859Y-71471021D01*
X173885852Y-71471023D01*
X173533537Y-71606264D01*
X173197285Y-71777594D01*
X172880771Y-71983139D01*
X172587493Y-72220631D01*
X172320631Y-72487493D01*
X172083139Y-72780772D01*
X171877600Y-73097272D01*
X171877594Y-73097283D01*
X171706264Y-73433537D01*
X171571023Y-73785852D01*
X171571021Y-73785859D01*
X171473345Y-74150392D01*
X171414310Y-74523119D01*
X171414308Y-74523140D01*
X171394559Y-74899993D01*
X171394559Y-74900006D01*
X164748118Y-74900006D01*
X164827691Y-74686663D01*
X164885464Y-74421083D01*
X164904852Y-74149999D01*
X164885464Y-73878916D01*
X164827691Y-73613336D01*
X164732714Y-73358693D01*
X164732713Y-73358691D01*
X164602466Y-73120162D01*
X164478405Y-72954437D01*
X163486016Y-73946825D01*
X163432942Y-73844396D01*
X163334436Y-73738923D01*
X163211127Y-73663937D01*
X163204948Y-73662205D01*
X164195561Y-72671593D01*
X164029837Y-72547533D01*
X163791308Y-72417286D01*
X163791306Y-72417285D01*
X163536662Y-72322308D01*
X163536664Y-72322308D01*
X163271083Y-72264535D01*
X162999999Y-72245147D01*
X162728916Y-72264535D01*
X162463336Y-72322308D01*
X162208693Y-72417285D01*
X162208691Y-72417286D01*
X161970158Y-72547536D01*
X161804436Y-72671592D01*
X162798137Y-73665293D01*
X162724654Y-73697212D01*
X162612704Y-73788291D01*
X162529478Y-73906195D01*
X162514760Y-73947604D01*
X161521592Y-72954436D01*
X161397536Y-73120158D01*
X161267286Y-73358691D01*
X161267285Y-73358693D01*
X161172308Y-73613336D01*
X161114535Y-73878916D01*
X161095147Y-74149999D01*
X157905355Y-74149999D01*
X157885961Y-73878840D01*
X157828175Y-73613199D01*
X157733172Y-73358487D01*
X157733167Y-73358477D01*
X157602893Y-73119897D01*
X157602891Y-73119894D01*
X157602887Y-73119887D01*
X157439971Y-72902258D01*
X157247742Y-72710029D01*
X157030113Y-72547113D01*
X157030106Y-72547109D01*
X157030102Y-72547106D01*
X156791522Y-72416832D01*
X156791514Y-72416828D01*
X156536805Y-72321826D01*
X156536801Y-72321825D01*
X156271160Y-72264039D01*
X156271157Y-72264038D01*
X156271154Y-72264038D01*
X156000000Y-72244645D01*
X155728845Y-72264038D01*
X155463194Y-72321826D01*
X155208485Y-72416828D01*
X155208477Y-72416832D01*
X154969897Y-72547106D01*
X154969889Y-72547111D01*
X154969887Y-72547113D01*
X154862933Y-72627177D01*
X154752260Y-72710027D01*
X154560027Y-72902260D01*
X154520969Y-72954436D01*
X154414035Y-73097283D01*
X154397106Y-73119897D01*
X154266832Y-73358477D01*
X154266828Y-73358485D01*
X154171826Y-73613194D01*
X154114038Y-73878845D01*
X154094645Y-74150000D01*
X111526549Y-74150000D01*
X111461222Y-73906195D01*
X111428978Y-73785857D01*
X111293734Y-73433535D01*
X111122403Y-73097280D01*
X110916863Y-72780775D01*
X110859572Y-72710027D01*
X110727990Y-72547536D01*
X110679365Y-72487489D01*
X110412511Y-72220635D01*
X110382510Y-72196341D01*
X110119228Y-71983139D01*
X110119225Y-71983137D01*
X109802720Y-71777597D01*
X109766350Y-71759065D01*
X109466462Y-71606264D01*
X109114147Y-71471023D01*
X109114140Y-71471021D01*
X108749607Y-71373345D01*
X108376880Y-71314310D01*
X108376859Y-71314308D01*
X108094292Y-71299500D01*
X108094280Y-71299500D01*
X107905720Y-71299500D01*
X107905707Y-71299500D01*
X107623140Y-71314308D01*
X107623119Y-71314310D01*
X107250392Y-71373345D01*
X106885859Y-71471021D01*
X106885852Y-71471023D01*
X106533537Y-71606264D01*
X106197285Y-71777594D01*
X105880771Y-71983139D01*
X105587493Y-72220631D01*
X105320631Y-72487493D01*
X105083139Y-72780772D01*
X104877600Y-73097272D01*
X104877594Y-73097283D01*
X104706264Y-73433537D01*
X104571023Y-73785852D01*
X104571021Y-73785859D01*
X104473345Y-74150392D01*
X104414310Y-74523119D01*
X104414308Y-74523140D01*
X104394559Y-74899993D01*
X104394559Y-74900006D01*
X104050500Y-74900006D01*
X104050500Y-71049500D01*
X104069407Y-70991309D01*
X104118907Y-70955345D01*
X104149500Y-70950500D01*
X178850500Y-70950500D01*
X178908691Y-70969407D01*
G37*
%TD.AperFunction*%
%TD*%
M02*
