%TF.GenerationSoftware,KiCad,Pcbnew,7.0.5*%
%TF.CreationDate,2023-07-03T12:53:44+02:00*%
%TF.ProjectId,mqtt_gateway,6d717474-5f67-4617-9465-7761792e6b69,rev?*%
%TF.SameCoordinates,Original*%
%TF.FileFunction,Legend,Bot*%
%TF.FilePolarity,Positive*%
%FSLAX46Y46*%
G04 Gerber Fmt 4.6, Leading zero omitted, Abs format (unit mm)*
G04 Created by KiCad (PCBNEW 7.0.5) date 2023-07-03 12:53:44*
%MOMM*%
%LPD*%
G01*
G04 APERTURE LIST*
G04 Aperture macros list*
%AMRoundRect*
0 Rectangle with rounded corners*
0 $1 Rounding radius*
0 $2 $3 $4 $5 $6 $7 $8 $9 X,Y pos of 4 corners*
0 Add a 4 corners polygon primitive as box body*
4,1,4,$2,$3,$4,$5,$6,$7,$8,$9,$2,$3,0*
0 Add four circle primitives for the rounded corners*
1,1,$1+$1,$2,$3*
1,1,$1+$1,$4,$5*
1,1,$1+$1,$6,$7*
1,1,$1+$1,$8,$9*
0 Add four rect primitives between the rounded corners*
20,1,$1+$1,$2,$3,$4,$5,0*
20,1,$1+$1,$4,$5,$6,$7,0*
20,1,$1+$1,$6,$7,$8,$9,0*
20,1,$1+$1,$8,$9,$2,$3,0*%
G04 Aperture macros list end*
%ADD10C,0.150000*%
%ADD11C,0.120000*%
%ADD12C,3.650000*%
%ADD13RoundRect,0.237500X0.250000X0.237500X-0.250000X0.237500X-0.250000X-0.237500X0.250000X-0.237500X0*%
%ADD14R,1.500000X1.500000*%
%ADD15C,1.500000*%
%ADD16C,3.250000*%
%ADD17C,2.600000*%
%ADD18C,1.890000*%
%ADD19R,1.900000X1.900000*%
%ADD20C,1.900000*%
%ADD21C,7.200000*%
%ADD22C,3.000000*%
%ADD23C,2.100000*%
%ADD24C,2.500000*%
%ADD25C,1.850000*%
%ADD26RoundRect,0.237500X-0.250000X-0.237500X0.250000X-0.237500X0.250000X0.237500X-0.250000X0.237500X0*%
G04 APERTURE END LIST*
D10*
%TO.C,R16*%
X116847857Y-109166819D02*
X117181190Y-108690628D01*
X117419285Y-109166819D02*
X117419285Y-108166819D01*
X117419285Y-108166819D02*
X117038333Y-108166819D01*
X117038333Y-108166819D02*
X116943095Y-108214438D01*
X116943095Y-108214438D02*
X116895476Y-108262057D01*
X116895476Y-108262057D02*
X116847857Y-108357295D01*
X116847857Y-108357295D02*
X116847857Y-108500152D01*
X116847857Y-108500152D02*
X116895476Y-108595390D01*
X116895476Y-108595390D02*
X116943095Y-108643009D01*
X116943095Y-108643009D02*
X117038333Y-108690628D01*
X117038333Y-108690628D02*
X117419285Y-108690628D01*
X115895476Y-109166819D02*
X116466904Y-109166819D01*
X116181190Y-109166819D02*
X116181190Y-108166819D01*
X116181190Y-108166819D02*
X116276428Y-108309676D01*
X116276428Y-108309676D02*
X116371666Y-108404914D01*
X116371666Y-108404914D02*
X116466904Y-108452533D01*
X115038333Y-108166819D02*
X115228809Y-108166819D01*
X115228809Y-108166819D02*
X115324047Y-108214438D01*
X115324047Y-108214438D02*
X115371666Y-108262057D01*
X115371666Y-108262057D02*
X115466904Y-108404914D01*
X115466904Y-108404914D02*
X115514523Y-108595390D01*
X115514523Y-108595390D02*
X115514523Y-108976342D01*
X115514523Y-108976342D02*
X115466904Y-109071580D01*
X115466904Y-109071580D02*
X115419285Y-109119200D01*
X115419285Y-109119200D02*
X115324047Y-109166819D01*
X115324047Y-109166819D02*
X115133571Y-109166819D01*
X115133571Y-109166819D02*
X115038333Y-109119200D01*
X115038333Y-109119200D02*
X114990714Y-109071580D01*
X114990714Y-109071580D02*
X114943095Y-108976342D01*
X114943095Y-108976342D02*
X114943095Y-108738247D01*
X114943095Y-108738247D02*
X114990714Y-108643009D01*
X114990714Y-108643009D02*
X115038333Y-108595390D01*
X115038333Y-108595390D02*
X115133571Y-108547771D01*
X115133571Y-108547771D02*
X115324047Y-108547771D01*
X115324047Y-108547771D02*
X115419285Y-108595390D01*
X115419285Y-108595390D02*
X115466904Y-108643009D01*
X115466904Y-108643009D02*
X115514523Y-108738247D01*
%TO.C,R2*%
X115990666Y-110944819D02*
X116323999Y-110468628D01*
X116562094Y-110944819D02*
X116562094Y-109944819D01*
X116562094Y-109944819D02*
X116181142Y-109944819D01*
X116181142Y-109944819D02*
X116085904Y-109992438D01*
X116085904Y-109992438D02*
X116038285Y-110040057D01*
X116038285Y-110040057D02*
X115990666Y-110135295D01*
X115990666Y-110135295D02*
X115990666Y-110278152D01*
X115990666Y-110278152D02*
X116038285Y-110373390D01*
X116038285Y-110373390D02*
X116085904Y-110421009D01*
X116085904Y-110421009D02*
X116181142Y-110468628D01*
X116181142Y-110468628D02*
X116562094Y-110468628D01*
X115609713Y-110040057D02*
X115562094Y-109992438D01*
X115562094Y-109992438D02*
X115466856Y-109944819D01*
X115466856Y-109944819D02*
X115228761Y-109944819D01*
X115228761Y-109944819D02*
X115133523Y-109992438D01*
X115133523Y-109992438D02*
X115085904Y-110040057D01*
X115085904Y-110040057D02*
X115038285Y-110135295D01*
X115038285Y-110135295D02*
X115038285Y-110230533D01*
X115038285Y-110230533D02*
X115085904Y-110373390D01*
X115085904Y-110373390D02*
X115657332Y-110944819D01*
X115657332Y-110944819D02*
X115038285Y-110944819D01*
%TO.C,R20*%
X135042857Y-96284819D02*
X135376190Y-95808628D01*
X135614285Y-96284819D02*
X135614285Y-95284819D01*
X135614285Y-95284819D02*
X135233333Y-95284819D01*
X135233333Y-95284819D02*
X135138095Y-95332438D01*
X135138095Y-95332438D02*
X135090476Y-95380057D01*
X135090476Y-95380057D02*
X135042857Y-95475295D01*
X135042857Y-95475295D02*
X135042857Y-95618152D01*
X135042857Y-95618152D02*
X135090476Y-95713390D01*
X135090476Y-95713390D02*
X135138095Y-95761009D01*
X135138095Y-95761009D02*
X135233333Y-95808628D01*
X135233333Y-95808628D02*
X135614285Y-95808628D01*
X134661904Y-95380057D02*
X134614285Y-95332438D01*
X134614285Y-95332438D02*
X134519047Y-95284819D01*
X134519047Y-95284819D02*
X134280952Y-95284819D01*
X134280952Y-95284819D02*
X134185714Y-95332438D01*
X134185714Y-95332438D02*
X134138095Y-95380057D01*
X134138095Y-95380057D02*
X134090476Y-95475295D01*
X134090476Y-95475295D02*
X134090476Y-95570533D01*
X134090476Y-95570533D02*
X134138095Y-95713390D01*
X134138095Y-95713390D02*
X134709523Y-96284819D01*
X134709523Y-96284819D02*
X134090476Y-96284819D01*
X133471428Y-95284819D02*
X133376190Y-95284819D01*
X133376190Y-95284819D02*
X133280952Y-95332438D01*
X133280952Y-95332438D02*
X133233333Y-95380057D01*
X133233333Y-95380057D02*
X133185714Y-95475295D01*
X133185714Y-95475295D02*
X133138095Y-95665771D01*
X133138095Y-95665771D02*
X133138095Y-95903866D01*
X133138095Y-95903866D02*
X133185714Y-96094342D01*
X133185714Y-96094342D02*
X133233333Y-96189580D01*
X133233333Y-96189580D02*
X133280952Y-96237200D01*
X133280952Y-96237200D02*
X133376190Y-96284819D01*
X133376190Y-96284819D02*
X133471428Y-96284819D01*
X133471428Y-96284819D02*
X133566666Y-96237200D01*
X133566666Y-96237200D02*
X133614285Y-96189580D01*
X133614285Y-96189580D02*
X133661904Y-96094342D01*
X133661904Y-96094342D02*
X133709523Y-95903866D01*
X133709523Y-95903866D02*
X133709523Y-95665771D01*
X133709523Y-95665771D02*
X133661904Y-95475295D01*
X133661904Y-95475295D02*
X133614285Y-95380057D01*
X133614285Y-95380057D02*
X133566666Y-95332438D01*
X133566666Y-95332438D02*
X133471428Y-95284819D01*
%TO.C,R21*%
X131242857Y-93424819D02*
X131576190Y-92948628D01*
X131814285Y-93424819D02*
X131814285Y-92424819D01*
X131814285Y-92424819D02*
X131433333Y-92424819D01*
X131433333Y-92424819D02*
X131338095Y-92472438D01*
X131338095Y-92472438D02*
X131290476Y-92520057D01*
X131290476Y-92520057D02*
X131242857Y-92615295D01*
X131242857Y-92615295D02*
X131242857Y-92758152D01*
X131242857Y-92758152D02*
X131290476Y-92853390D01*
X131290476Y-92853390D02*
X131338095Y-92901009D01*
X131338095Y-92901009D02*
X131433333Y-92948628D01*
X131433333Y-92948628D02*
X131814285Y-92948628D01*
X130861904Y-92520057D02*
X130814285Y-92472438D01*
X130814285Y-92472438D02*
X130719047Y-92424819D01*
X130719047Y-92424819D02*
X130480952Y-92424819D01*
X130480952Y-92424819D02*
X130385714Y-92472438D01*
X130385714Y-92472438D02*
X130338095Y-92520057D01*
X130338095Y-92520057D02*
X130290476Y-92615295D01*
X130290476Y-92615295D02*
X130290476Y-92710533D01*
X130290476Y-92710533D02*
X130338095Y-92853390D01*
X130338095Y-92853390D02*
X130909523Y-93424819D01*
X130909523Y-93424819D02*
X130290476Y-93424819D01*
X129338095Y-93424819D02*
X129909523Y-93424819D01*
X129623809Y-93424819D02*
X129623809Y-92424819D01*
X129623809Y-92424819D02*
X129719047Y-92567676D01*
X129719047Y-92567676D02*
X129814285Y-92662914D01*
X129814285Y-92662914D02*
X129909523Y-92710533D01*
%TO.C,R22*%
X127442857Y-96284819D02*
X127776190Y-95808628D01*
X128014285Y-96284819D02*
X128014285Y-95284819D01*
X128014285Y-95284819D02*
X127633333Y-95284819D01*
X127633333Y-95284819D02*
X127538095Y-95332438D01*
X127538095Y-95332438D02*
X127490476Y-95380057D01*
X127490476Y-95380057D02*
X127442857Y-95475295D01*
X127442857Y-95475295D02*
X127442857Y-95618152D01*
X127442857Y-95618152D02*
X127490476Y-95713390D01*
X127490476Y-95713390D02*
X127538095Y-95761009D01*
X127538095Y-95761009D02*
X127633333Y-95808628D01*
X127633333Y-95808628D02*
X128014285Y-95808628D01*
X127061904Y-95380057D02*
X127014285Y-95332438D01*
X127014285Y-95332438D02*
X126919047Y-95284819D01*
X126919047Y-95284819D02*
X126680952Y-95284819D01*
X126680952Y-95284819D02*
X126585714Y-95332438D01*
X126585714Y-95332438D02*
X126538095Y-95380057D01*
X126538095Y-95380057D02*
X126490476Y-95475295D01*
X126490476Y-95475295D02*
X126490476Y-95570533D01*
X126490476Y-95570533D02*
X126538095Y-95713390D01*
X126538095Y-95713390D02*
X127109523Y-96284819D01*
X127109523Y-96284819D02*
X126490476Y-96284819D01*
X126109523Y-95380057D02*
X126061904Y-95332438D01*
X126061904Y-95332438D02*
X125966666Y-95284819D01*
X125966666Y-95284819D02*
X125728571Y-95284819D01*
X125728571Y-95284819D02*
X125633333Y-95332438D01*
X125633333Y-95332438D02*
X125585714Y-95380057D01*
X125585714Y-95380057D02*
X125538095Y-95475295D01*
X125538095Y-95475295D02*
X125538095Y-95570533D01*
X125538095Y-95570533D02*
X125585714Y-95713390D01*
X125585714Y-95713390D02*
X126157142Y-96284819D01*
X126157142Y-96284819D02*
X125538095Y-96284819D01*
%TO.C,R23*%
X123642857Y-93424819D02*
X123976190Y-92948628D01*
X124214285Y-93424819D02*
X124214285Y-92424819D01*
X124214285Y-92424819D02*
X123833333Y-92424819D01*
X123833333Y-92424819D02*
X123738095Y-92472438D01*
X123738095Y-92472438D02*
X123690476Y-92520057D01*
X123690476Y-92520057D02*
X123642857Y-92615295D01*
X123642857Y-92615295D02*
X123642857Y-92758152D01*
X123642857Y-92758152D02*
X123690476Y-92853390D01*
X123690476Y-92853390D02*
X123738095Y-92901009D01*
X123738095Y-92901009D02*
X123833333Y-92948628D01*
X123833333Y-92948628D02*
X124214285Y-92948628D01*
X123261904Y-92520057D02*
X123214285Y-92472438D01*
X123214285Y-92472438D02*
X123119047Y-92424819D01*
X123119047Y-92424819D02*
X122880952Y-92424819D01*
X122880952Y-92424819D02*
X122785714Y-92472438D01*
X122785714Y-92472438D02*
X122738095Y-92520057D01*
X122738095Y-92520057D02*
X122690476Y-92615295D01*
X122690476Y-92615295D02*
X122690476Y-92710533D01*
X122690476Y-92710533D02*
X122738095Y-92853390D01*
X122738095Y-92853390D02*
X123309523Y-93424819D01*
X123309523Y-93424819D02*
X122690476Y-93424819D01*
X122357142Y-92424819D02*
X121738095Y-92424819D01*
X121738095Y-92424819D02*
X122071428Y-92805771D01*
X122071428Y-92805771D02*
X121928571Y-92805771D01*
X121928571Y-92805771D02*
X121833333Y-92853390D01*
X121833333Y-92853390D02*
X121785714Y-92901009D01*
X121785714Y-92901009D02*
X121738095Y-92996247D01*
X121738095Y-92996247D02*
X121738095Y-93234342D01*
X121738095Y-93234342D02*
X121785714Y-93329580D01*
X121785714Y-93329580D02*
X121833333Y-93377200D01*
X121833333Y-93377200D02*
X121928571Y-93424819D01*
X121928571Y-93424819D02*
X122214285Y-93424819D01*
X122214285Y-93424819D02*
X122309523Y-93377200D01*
X122309523Y-93377200D02*
X122357142Y-93329580D01*
D11*
%TO.C,R16*%
X113388224Y-108189500D02*
X112878776Y-108189500D01*
X113388224Y-109234500D02*
X112878776Y-109234500D01*
%TO.C,R2*%
X113388224Y-109967500D02*
X112878776Y-109967500D01*
X113388224Y-111012500D02*
X112878776Y-111012500D01*
%TO.C,R20*%
X134145276Y-94922500D02*
X134654724Y-94922500D01*
X134145276Y-93877500D02*
X134654724Y-93877500D01*
%TO.C,R21*%
X130854724Y-93877500D02*
X130345276Y-93877500D01*
X130854724Y-94922500D02*
X130345276Y-94922500D01*
%TO.C,R22*%
X126545276Y-94922500D02*
X127054724Y-94922500D01*
X126545276Y-93877500D02*
X127054724Y-93877500D01*
%TO.C,R23*%
X123254724Y-93877500D02*
X122745276Y-93877500D01*
X123254724Y-94922500D02*
X122745276Y-94922500D01*
%TD*%
D12*
%TO.C,J1*%
X139040000Y-77650000D03*
X150470000Y-77650000D03*
%TD*%
%LPC*%
D13*
%TO.C,R16*%
X114046000Y-108712000D03*
X112221000Y-108712000D03*
%TD*%
%TO.C,R2*%
X114046000Y-110490000D03*
X112221000Y-110490000D03*
%TD*%
D12*
%TO.C,J1*%
X139040000Y-77650000D03*
X150470000Y-77650000D03*
D14*
X149200000Y-84000000D03*
D15*
X147930000Y-86540000D03*
X146660000Y-84000000D03*
X145390000Y-86540000D03*
X144120000Y-84000000D03*
X142850000Y-86540000D03*
X141580000Y-84000000D03*
X140310000Y-86540000D03*
%TD*%
D16*
%TO.C,J3*%
X129772000Y-82026000D03*
X118342000Y-82026000D03*
D17*
X131832000Y-85076000D03*
X116282000Y-85076000D03*
D18*
X117732000Y-78646000D03*
X120272000Y-77126000D03*
X127842000Y-78646000D03*
X130382000Y-77126000D03*
D19*
X128502000Y-88366000D03*
D20*
X127232000Y-90906000D03*
X125962000Y-88366000D03*
X124692000Y-90906000D03*
X123422000Y-88366000D03*
X122152000Y-90906000D03*
X120882000Y-88366000D03*
X119612000Y-90906000D03*
%TD*%
D21*
%TO.C,H2*%
X175000000Y-117900000D03*
%TD*%
%TO.C,H3*%
X108000000Y-117900000D03*
%TD*%
%TO.C,H4*%
X108000000Y-74900000D03*
%TD*%
%TO.C,H1*%
X175000000Y-74900000D03*
%TD*%
D22*
%TO.C,J4*%
X156000000Y-74150000D03*
X159500000Y-79150000D03*
X163000000Y-74150000D03*
X166500000Y-79150000D03*
%TD*%
D23*
%TO.C,U1*%
X157099000Y-117789000D03*
D24*
X159639000Y-108779000D03*
D25*
X157099000Y-110109000D03*
X159639000Y-111379000D03*
X157099000Y-112649000D03*
X159639000Y-113919000D03*
X157099000Y-115189000D03*
X159639000Y-116459000D03*
%TD*%
D26*
%TO.C,R20*%
X133487500Y-94400000D03*
X135312500Y-94400000D03*
%TD*%
D13*
%TO.C,R21*%
X131512500Y-94400000D03*
X129687500Y-94400000D03*
%TD*%
D26*
%TO.C,R22*%
X125887500Y-94400000D03*
X127712500Y-94400000D03*
%TD*%
D13*
%TO.C,R23*%
X123912500Y-94400000D03*
X122087500Y-94400000D03*
%TD*%
%LPD*%
M02*
