M48
; DRILL file {KiCad 7.0.5} date Mon 03 Jul 2023 12:53:45 PM CEST
; FORMAT={-:-/ absolute / inch / decimal}
; #@! TF.CreationDate,2023-07-03T12:53:45+02:00
; #@! TF.GenerationSoftware,Kicad,Pcbnew,7.0.5
; #@! TF.FileFunction,Plated,1,4,PTH
FMAT,2
INCH
; #@! TA.AperFunction,Plated,PTH,ViaDrill
T1C0.0118
; #@! TA.AperFunction,Plated,PTH,ViaDrill
T2C0.0157
; #@! TA.AperFunction,Plated,PTH,ComponentDrill
T3C0.0350
; #@! TA.AperFunction,Plated,PTH,ComponentDrill
T4C0.0354
; #@! TA.AperFunction,Plated,PTH,ComponentDrill
T5C0.0413
; #@! TA.AperFunction,Plated,PTH,ComponentDrill
T6C0.0571
; #@! TA.AperFunction,Plated,PTH,ComponentDrill
T7C0.0630
%
G90
G05
T1
X4.2165Y-3.9134
X4.3Y-3.295
X4.31Y-4.32
X4.315Y-3.8661
X4.3164Y-4.2836
X4.3197Y-3.2444
X4.335Y-4.135
X4.335Y-4.215
X4.425Y-4.185
X4.44Y-4.215
X4.53Y-4.35
X4.555Y-4.235
X4.585Y-4.21
X4.5866Y-4.13
X4.72Y-4.41
X4.76Y-4.2
X4.78Y-4.26
X4.865Y-4.41
X4.895Y-4.44
X4.9685Y-3.83
X4.9685Y-3.8858
X5.0039Y-3.8622
X5.03Y-3.99
X5.26Y-3.585
X5.6496Y-3.7402
X5.68Y-3.99
X5.685Y-4.252
X5.7087Y-3.937
X5.7126Y-4.0394
X5.8189Y-3.8386
X5.8189Y-4.089
X5.8189Y-4.139
X5.8189Y-4.189
X5.8189Y-4.239
X5.9488Y-4.2992
X6.0039Y-4.0354
X6.2175Y-3.248
X6.4449Y-3.5984
X6.6102Y-3.5394
X6.6181Y-3.4567
X6.7008Y-3.2756
X6.7598Y-3.437
X6.8465Y-3.7362
X6.8504Y-3.189
X6.8504Y-3.2638
T2
X4.15Y-4.42
X4.16Y-4.22
X4.1705Y-3.4067
X4.265Y-3.995
X4.3937Y-3.7205
X4.5Y-4.53
X4.69Y-4.055
X4.698Y-3.743
X4.7025Y-3.8275
X4.77Y-4.36
X4.875Y-3.75
X4.895Y-4.05
X5.1693Y-4.3386
X5.2559Y-4.4213
X5.4646Y-4.3143
X5.9488Y-4.4331
X5.9488Y-4.4961
X6.1969Y-3.4843
X6.1999Y-3.9095
X6.2402Y-3.9055
X6.248Y-3.4843
X6.4488Y-4.0487
X6.4488Y-4.1181
X6.5295Y-3.6673
X6.748Y-3.6417
X6.9449Y-3.5974
T3
X4.6351Y-3.0963
X4.7351Y-3.0365
X5.0331Y-3.0963
X5.1331Y-3.0365
T4
X4.7091Y-3.579
X4.7591Y-3.479
X4.8091Y-3.579
X4.8591Y-3.479
X4.9091Y-3.579
X4.9591Y-3.479
X5.0091Y-3.579
X5.0591Y-3.479
X5.524Y-3.4071
X5.574Y-3.3071
X5.624Y-3.4071
X5.674Y-3.3071
X5.724Y-3.4071
X5.774Y-3.3071
X5.824Y-3.4071
X5.874Y-3.3071
T5
X6.1417Y-2.9193
X6.2795Y-3.1161
X6.4173Y-2.9193
X6.5551Y-3.1161
T6
X6.185Y-4.335
X6.185Y-4.435
X6.185Y-4.535
X6.285Y-4.385
X6.285Y-4.485
X6.285Y-4.585
T7
X4.578Y-3.3494
X5.1902Y-3.3494
T0
M30
