%TF.GenerationSoftware,KiCad,Pcbnew,7.0.5*%
%TF.CreationDate,2023-07-03T12:53:43+02:00*%
%TF.ProjectId,mqtt_gateway,6d717474-5f67-4617-9465-7761792e6b69,rev?*%
%TF.SameCoordinates,Original*%
%TF.FileFunction,Copper,L4,Bot*%
%TF.FilePolarity,Positive*%
%FSLAX46Y46*%
G04 Gerber Fmt 4.6, Leading zero omitted, Abs format (unit mm)*
G04 Created by KiCad (PCBNEW 7.0.5) date 2023-07-03 12:53:43*
%MOMM*%
%LPD*%
G01*
G04 APERTURE LIST*
G04 Aperture macros list*
%AMRoundRect*
0 Rectangle with rounded corners*
0 $1 Rounding radius*
0 $2 $3 $4 $5 $6 $7 $8 $9 X,Y pos of 4 corners*
0 Add a 4 corners polygon primitive as box body*
4,1,4,$2,$3,$4,$5,$6,$7,$8,$9,$2,$3,0*
0 Add four circle primitives for the rounded corners*
1,1,$1+$1,$2,$3*
1,1,$1+$1,$4,$5*
1,1,$1+$1,$6,$7*
1,1,$1+$1,$8,$9*
0 Add four rect primitives between the rounded corners*
20,1,$1+$1,$2,$3,$4,$5,0*
20,1,$1+$1,$4,$5,$6,$7,0*
20,1,$1+$1,$6,$7,$8,$9,0*
20,1,$1+$1,$8,$9,$2,$3,0*%
G04 Aperture macros list end*
%TA.AperFunction,SMDPad,CuDef*%
%ADD10RoundRect,0.237500X0.250000X0.237500X-0.250000X0.237500X-0.250000X-0.237500X0.250000X-0.237500X0*%
%TD*%
%TA.AperFunction,WasherPad*%
%ADD11C,3.650000*%
%TD*%
%TA.AperFunction,ComponentPad*%
%ADD12R,1.500000X1.500000*%
%TD*%
%TA.AperFunction,ComponentPad*%
%ADD13C,1.500000*%
%TD*%
%TA.AperFunction,ComponentPad*%
%ADD14C,2.600000*%
%TD*%
%TA.AperFunction,ComponentPad*%
%ADD15C,1.890000*%
%TD*%
%TA.AperFunction,ComponentPad*%
%ADD16R,1.900000X1.900000*%
%TD*%
%TA.AperFunction,ComponentPad*%
%ADD17C,1.900000*%
%TD*%
%TA.AperFunction,ComponentPad*%
%ADD18C,3.000000*%
%TD*%
%TA.AperFunction,ComponentPad*%
%ADD19C,1.850000*%
%TD*%
%TA.AperFunction,SMDPad,CuDef*%
%ADD20RoundRect,0.237500X-0.250000X-0.237500X0.250000X-0.237500X0.250000X0.237500X-0.250000X0.237500X0*%
%TD*%
%TA.AperFunction,ViaPad*%
%ADD21C,0.800000*%
%TD*%
%TA.AperFunction,ViaPad*%
%ADD22C,0.500000*%
%TD*%
%TA.AperFunction,Conductor*%
%ADD23C,0.250000*%
%TD*%
%TA.AperFunction,Conductor*%
%ADD24C,0.200000*%
%TD*%
%TA.AperFunction,Conductor*%
%ADD25C,1.000000*%
%TD*%
G04 APERTURE END LIST*
D10*
%TO.P,R16,1*%
%TO.N,/RXD1*%
X114046000Y-108712000D03*
%TO.P,R16,2*%
%TO.N,Net-(U5-RXD1{slash}PHYAD2)*%
X112221000Y-108712000D03*
%TD*%
%TO.P,R2,1*%
%TO.N,/RXD0*%
X114046000Y-110490000D03*
%TO.P,R2,2*%
%TO.N,Net-(U5-RXD0{slash}DUPLEX)*%
X112221000Y-110490000D03*
%TD*%
D11*
%TO.P,J1,*%
%TO.N,*%
X139040000Y-77650000D03*
X150470000Y-77650000D03*
D12*
%TO.P,J1,1,GND*%
%TO.N,GND*%
X149200000Y-84000000D03*
D13*
%TO.P,J1,2,+12V*%
%TO.N,+12V*%
X147930000Y-86540000D03*
%TO.P,J1,3,CANL*%
%TO.N,Net-(U3-CANL)*%
X146660000Y-84000000D03*
%TO.P,J1,4,CANL*%
X145390000Y-86540000D03*
%TO.P,J1,5,CANH*%
%TO.N,Net-(U3-CANH)*%
X144120000Y-84000000D03*
%TO.P,J1,6,CANH*%
X142850000Y-86540000D03*
%TO.P,J1,7,+5V*%
%TO.N,+5V*%
X141580000Y-84000000D03*
%TO.P,J1,8,GND*%
%TO.N,GND*%
X140310000Y-86540000D03*
%TD*%
D14*
%TO.P,J3,13,SHIELD*%
%TO.N,GND*%
X131832000Y-85076000D03*
X116282000Y-85076000D03*
D15*
%TO.P,J3,L1,LEDY_A*%
%TO.N,Net-(J3-LEDY_A)*%
X117732000Y-78646000D03*
%TO.P,J3,L2,LEDY_K*%
%TO.N,Net-(J3-LEDY_K)*%
X120272000Y-77126000D03*
%TO.P,J3,L3,LEDG_K*%
%TO.N,Net-(J3-LEDG_K)*%
X127842000Y-78646000D03*
%TO.P,J3,L4,LEDG_A*%
%TO.N,Net-(J3-LEDG_A)*%
X130382000Y-77126000D03*
D16*
%TO.P,J3,R1,TD+*%
%TO.N,Net-(J3-TD+)*%
X128502000Y-88366000D03*
D17*
%TO.P,J3,R2,TD-*%
%TO.N,Net-(J3-TD-)*%
X127232000Y-90906000D03*
%TO.P,J3,R3,RD+*%
%TO.N,Net-(J3-RD+)*%
X125962000Y-88366000D03*
%TO.P,J3,R4,TCT*%
%TO.N,VDDA*%
X124692000Y-90906000D03*
%TO.P,J3,R5,RCT*%
X123422000Y-88366000D03*
%TO.P,J3,R6,RD-*%
%TO.N,Net-(J3-RD-)*%
X122152000Y-90906000D03*
%TO.P,J3,R7,NC*%
%TO.N,unconnected-(J3-NC-PadR7)*%
X120882000Y-88366000D03*
%TO.P,J3,R8,GND*%
%TO.N,GND*%
X119612000Y-90906000D03*
%TD*%
D18*
%TO.P,J4,1,1*%
%TO.N,+5V*%
X156000000Y-74150000D03*
%TO.P,J4,2,2*%
%TO.N,GND*%
X159500000Y-79150000D03*
%TO.P,J4,3,3*%
X163000000Y-74150000D03*
%TO.P,J4,4,4*%
%TO.N,+12V*%
X166500000Y-79150000D03*
%TD*%
D19*
%TO.P,U1,1,EN*%
%TO.N,/EN*%
X157099000Y-110109000D03*
%TO.P,U1,2,GND*%
%TO.N,GND*%
X159639000Y-111379000D03*
%TO.P,U1,3,3V3*%
%TO.N,+3.3V*%
X157099000Y-112649000D03*
%TO.P,U1,4,TXD*%
%TO.N,/TXD*%
X159639000Y-113919000D03*
%TO.P,U1,5,RXD*%
%TO.N,/RXD*%
X157099000Y-115189000D03*
%TO.P,U1,6,BOOT0*%
%TO.N,/BOOT0*%
X159639000Y-116459000D03*
%TD*%
D20*
%TO.P,R20,1*%
%TO.N,VDDA*%
X133487500Y-94400000D03*
%TO.P,R20,2*%
%TO.N,Net-(J3-TD+)*%
X135312500Y-94400000D03*
%TD*%
D10*
%TO.P,R21,1*%
%TO.N,VDDA*%
X131512500Y-94400000D03*
%TO.P,R21,2*%
%TO.N,Net-(J3-TD-)*%
X129687500Y-94400000D03*
%TD*%
D20*
%TO.P,R22,1*%
%TO.N,VDDA*%
X125887500Y-94400000D03*
%TO.P,R22,2*%
%TO.N,Net-(J3-RD+)*%
X127712500Y-94400000D03*
%TD*%
D10*
%TO.P,R23,1*%
%TO.N,VDDA*%
X123912500Y-94400000D03*
%TO.P,R23,2*%
%TO.N,Net-(J3-RD-)*%
X122087500Y-94400000D03*
%TD*%
D21*
%TO.N,GND*%
X119126000Y-102997000D03*
X124333000Y-102870000D03*
D22*
%TO.N,+3.3V*%
X133604000Y-91059000D03*
%TO.N,Net-(J3-LEDY_K)*%
X112395000Y-106299000D03*
%TO.N,Net-(J3-LEDG_K)*%
X112776000Y-107061000D03*
%TO.N,Net-(C14-Pad2)*%
X116500000Y-104902000D03*
X116459000Y-106934000D03*
%TO.N,GND*%
X110109000Y-107061000D03*
X110109000Y-105029000D03*
D21*
X114300000Y-115062000D03*
X121158000Y-110744000D03*
%TO.N,VDDA*%
X119443500Y-97218500D03*
%TO.N,+3.3V*%
X108331000Y-101473000D03*
X105664000Y-107188000D03*
X105410000Y-112268000D03*
X119328500Y-95071500D03*
D22*
%TO.N,/CRS*%
X121412000Y-108204000D03*
%TO.N,/MDIO*%
X120904000Y-106680000D03*
X115697000Y-107569000D03*
%TO.N,/MDC*%
X124333000Y-112776000D03*
%TO.N,/TXD1*%
X123571000Y-112014000D03*
X119888000Y-112014000D03*
%TO.N,/MDC*%
X115062000Y-110490000D03*
%TO.N,Net-(U5-RXD0{slash}DUPLEX)*%
X109474000Y-109728000D03*
%TO.N,Net-(U5-RXD1{slash}PHYAD2)*%
X109637704Y-108802296D03*
%TO.N,/RXD1*%
X144272000Y-101346000D03*
%TO.N,GND*%
X167900000Y-89900000D03*
X168100000Y-87800000D03*
X157924500Y-82500000D03*
D21*
X138800000Y-109583500D03*
X157400000Y-88500000D03*
D22*
X143500000Y-95000000D03*
D21*
X171400000Y-92500000D03*
D22*
X170200000Y-83200000D03*
D21*
X157478594Y-99302141D03*
D22*
X147800000Y-97500000D03*
X151100000Y-109200000D03*
D21*
X163800000Y-104600000D03*
X105930000Y-86530000D03*
X151100000Y-114200000D03*
%TO.N,+5V*%
X165850000Y-93150000D03*
X158500000Y-99200000D03*
%TO.N,+3.3V*%
X111600000Y-94500000D03*
X176400000Y-91373500D03*
X158700000Y-88500000D03*
X163800000Y-102837500D03*
D22*
X152500000Y-102500000D03*
D21*
X151100000Y-112600000D03*
D22*
X163700000Y-91400000D03*
D21*
%TO.N,VDDA*%
X123825000Y-95250000D03*
D22*
%TO.N,/B4-0*%
X127762000Y-101346000D03*
X107100000Y-99400000D03*
%TO.N,/B3-0*%
X109220000Y-83693000D03*
X126200000Y-97282000D03*
%TO.N,/B4-1*%
X147800000Y-107670000D03*
X173900000Y-94900000D03*
%TO.N,/B3-1*%
X147800000Y-106400000D03*
X174000000Y-82900000D03*
D21*
%TO.N,/RXD*%
X133500000Y-112300000D03*
%TO.N,/TXD*%
X131300000Y-110200000D03*
D22*
%TO.N,/BOOT0*%
X144400000Y-108000000D03*
%TO.N,/RXD0*%
X145100000Y-102600000D03*
%TO.N,/CRS*%
X145000000Y-100000000D03*
%TO.N,/B2-0{slash}SCL*%
X109600000Y-98200000D03*
X127100000Y-98100000D03*
%TO.N,/B1-0{slash}SDA*%
X109720250Y-82407750D03*
X126200000Y-98700000D03*
%TO.N,/B2-1{slash}SCL*%
X147800000Y-105130000D03*
X171700000Y-87300000D03*
%TO.N,/B1-1{slash}SDA*%
X147800000Y-103860000D03*
X174000000Y-81000000D03*
%TD*%
D23*
%TO.N,VDDA*%
X123825000Y-95250000D02*
X124000000Y-95075000D01*
X124000000Y-95075000D02*
X124000000Y-94400000D01*
D24*
%TO.N,/TXD1*%
X119888000Y-112014000D02*
X123571000Y-112014000D01*
%TO.N,/MDC*%
X124333000Y-112776000D02*
X117856000Y-112776000D01*
X117856000Y-112776000D02*
X115570000Y-110490000D01*
X115570000Y-110490000D02*
X115062000Y-110490000D01*
%TO.N,Net-(J3-LEDG_K)*%
X112776000Y-107061000D02*
X111887000Y-107061000D01*
X113446893Y-75946000D02*
X125142000Y-75946000D01*
X111887000Y-107061000D02*
X111125000Y-106299000D01*
X111125000Y-106299000D02*
X108077000Y-106299000D01*
X108077000Y-106299000D02*
X105303000Y-103525000D01*
X105303000Y-103525000D02*
X105303000Y-84089893D01*
X105303000Y-84089893D02*
X113446893Y-75946000D01*
X125142000Y-75946000D02*
X127842000Y-78646000D01*
%TO.N,Net-(J3-LEDY_K)*%
X112395000Y-106299000D02*
X112270288Y-106299000D01*
X112270288Y-106299000D02*
X106600000Y-100628712D01*
X106600000Y-100628712D02*
X106600000Y-84027000D01*
X106600000Y-84027000D02*
X113538000Y-77089000D01*
X113538000Y-77089000D02*
X120235000Y-77089000D01*
X120235000Y-77089000D02*
X120272000Y-77126000D01*
%TO.N,/B1-0{slash}SDA*%
X109720250Y-82407750D02*
X109712500Y-82400000D01*
X109712500Y-82400000D02*
X109497000Y-82400000D01*
X109497000Y-82400000D02*
X107700000Y-84197000D01*
X107700000Y-98556000D02*
X109982000Y-100838000D01*
X107700000Y-84197000D02*
X107700000Y-98556000D01*
X109982000Y-100838000D02*
X124062000Y-100838000D01*
X124062000Y-100838000D02*
X126200000Y-98700000D01*
%TO.N,/B3-0*%
X109220000Y-83693000D02*
X108500000Y-84413000D01*
X108500000Y-84413000D02*
X108500000Y-95400000D01*
X108500000Y-95400000D02*
X112922000Y-99822000D01*
X112922000Y-99822000D02*
X122428000Y-99822000D01*
X122428000Y-99822000D02*
X124968000Y-97282000D01*
X124968000Y-97282000D02*
X126200000Y-97282000D01*
%TO.N,Net-(C14-Pad2)*%
X116459000Y-104943000D02*
X116500000Y-104902000D01*
X116459000Y-106934000D02*
X116459000Y-104943000D01*
%TO.N,/MDIO*%
X120904000Y-106680000D02*
X120015000Y-107569000D01*
X120015000Y-107569000D02*
X115697000Y-107569000D01*
%TO.N,Net-(U5-RXD1{slash}PHYAD2)*%
X109637704Y-108802296D02*
X109728000Y-108712000D01*
X109728000Y-108712000D02*
X112221000Y-108712000D01*
%TO.N,/B2-0{slash}SCL*%
X127100000Y-98100000D02*
X125364608Y-98100000D01*
X125364608Y-98100000D02*
X123134608Y-100330000D01*
X111730000Y-100330000D02*
X109600000Y-98200000D01*
X123134608Y-100330000D02*
X111730000Y-100330000D01*
%TO.N,/B4-0*%
X127762000Y-101346000D02*
X109220000Y-101346000D01*
X109220000Y-101346000D02*
X107274000Y-99400000D01*
X107274000Y-99400000D02*
X107100000Y-99400000D01*
%TO.N,Net-(U5-RXD0{slash}DUPLEX)*%
X109474000Y-109728000D02*
X110236000Y-110490000D01*
X110236000Y-110490000D02*
X112221000Y-110490000D01*
%TO.N,/CRS*%
X121412000Y-108204000D02*
X121666000Y-108458000D01*
X121666000Y-108458000D02*
X126542000Y-108458000D01*
X126542000Y-108458000D02*
X135400000Y-99600000D01*
X135400000Y-99600000D02*
X144600000Y-99600000D01*
X144600000Y-99600000D02*
X145000000Y-100000000D01*
%TO.N,/RXD1*%
X144272000Y-101346000D02*
X135636000Y-101346000D01*
X135636000Y-101346000D02*
X127762000Y-109220000D01*
X127762000Y-109220000D02*
X114554000Y-109220000D01*
X114554000Y-109220000D02*
X114046000Y-108712000D01*
%TO.N,/RXD0*%
X145100000Y-102600000D02*
X136300000Y-102600000D01*
X136300000Y-102600000D02*
X128918000Y-109982000D01*
X128918000Y-109982000D02*
X114554000Y-109982000D01*
X114554000Y-109982000D02*
X114046000Y-110490000D01*
D25*
%TO.N,GND*%
X163000000Y-81000000D02*
X163000000Y-74150000D01*
X138900000Y-82300000D02*
X140500000Y-80700000D01*
X140500000Y-80700000D02*
X157950000Y-80700000D01*
X138900000Y-85130000D02*
X138900000Y-82300000D01*
X140310000Y-86540000D02*
X138900000Y-85130000D01*
X160000000Y-84000000D02*
X163000000Y-81000000D01*
X157950000Y-80700000D02*
X159500000Y-79150000D01*
X149200000Y-84000000D02*
X160000000Y-84000000D01*
D23*
%TO.N,VDDA*%
X127200000Y-95800000D02*
X125800000Y-94400000D01*
X124692000Y-90906000D02*
X124692000Y-92508000D01*
X130200000Y-95800000D02*
X127200000Y-95800000D01*
X124692000Y-92508000D02*
X124000000Y-93200000D01*
X131600000Y-94400000D02*
X130200000Y-95800000D01*
X124000000Y-94400000D02*
X125800000Y-94400000D01*
X124000000Y-93200000D02*
X124000000Y-94400000D01*
X133400000Y-94400000D02*
X131600000Y-94400000D01*
%TO.N,Net-(J3-RD-)*%
X122000000Y-91058000D02*
X122152000Y-90906000D01*
X122000000Y-94400000D02*
X122000000Y-91058000D01*
%TO.N,Net-(J3-RD+)*%
X125962000Y-91362000D02*
X125962000Y-88366000D01*
X127800000Y-93200000D02*
X125962000Y-91362000D01*
X127800000Y-94400000D02*
X127800000Y-93200000D01*
%TO.N,Net-(J3-TD-)*%
X129600000Y-92000000D02*
X128506000Y-90906000D01*
X128506000Y-90906000D02*
X127232000Y-90906000D01*
X129600000Y-94400000D02*
X129600000Y-92000000D01*
%TO.N,Net-(J3-TD+)*%
X132866000Y-88366000D02*
X128502000Y-88366000D01*
X135400000Y-90900000D02*
X132866000Y-88366000D01*
X135400000Y-94400000D02*
X135400000Y-90900000D01*
D24*
%TO.N,/B4-1*%
X160700000Y-104600000D02*
X165300000Y-100000000D01*
X147800000Y-107670000D02*
X153381098Y-107670000D01*
X153381098Y-107670000D02*
X156451098Y-104600000D01*
X156451098Y-104600000D02*
X160700000Y-104600000D01*
X173900000Y-95200000D02*
X173900000Y-94900000D01*
X169100000Y-100000000D02*
X173900000Y-95200000D01*
X165300000Y-100000000D02*
X169100000Y-100000000D01*
%TO.N,/B3-1*%
X169000000Y-99100000D02*
X173000000Y-95100000D01*
X173000000Y-95100000D02*
X173000000Y-83900000D01*
X164650000Y-99100000D02*
X169000000Y-99100000D01*
X156394325Y-103600000D02*
X160150000Y-103600000D01*
X173000000Y-83900000D02*
X174000000Y-82900000D01*
X147800000Y-106400000D02*
X153594325Y-106400000D01*
X153594325Y-106400000D02*
X156394325Y-103600000D01*
X160150000Y-103600000D02*
X164650000Y-99100000D01*
D25*
%TO.N,+12V*%
X147930000Y-86540000D02*
X162460000Y-86540000D01*
X162460000Y-86540000D02*
X166500000Y-82500000D01*
X166500000Y-82500000D02*
X166500000Y-79150000D01*
D24*
%TO.N,/RXD*%
X149189000Y-115189000D02*
X157099000Y-115189000D01*
X133550000Y-112250000D02*
X146250000Y-112250000D01*
X146250000Y-112250000D02*
X149189000Y-115189000D01*
X133500000Y-112300000D02*
X133550000Y-112250000D01*
%TO.N,/TXD*%
X131500000Y-110400000D02*
X131300000Y-110200000D01*
X159639000Y-113919000D02*
X154319000Y-113919000D01*
X154319000Y-113919000D02*
X150800000Y-110400000D01*
X150800000Y-110400000D02*
X131500000Y-110400000D01*
D23*
%TO.N,/BOOT0*%
X161041000Y-116459000D02*
X162500000Y-115000000D01*
X161100000Y-105900000D02*
X156600000Y-105900000D01*
X162500000Y-115000000D02*
X162500000Y-107300000D01*
X156600000Y-105900000D02*
X154285000Y-108215000D01*
X162500000Y-107300000D02*
X161100000Y-105900000D01*
X159639000Y-116459000D02*
X161041000Y-116459000D01*
X154285000Y-108215000D02*
X144615000Y-108215000D01*
X144615000Y-108215000D02*
X144400000Y-108000000D01*
D24*
%TO.N,/B2-1{slash}SCL*%
X152235392Y-105500000D02*
X152720000Y-105015392D01*
X152720000Y-105015392D02*
X152720000Y-104880000D01*
X147800000Y-105130000D02*
X148170000Y-105500000D01*
X148170000Y-105500000D02*
X152235392Y-105500000D01*
X172200000Y-87800000D02*
X171700000Y-87300000D01*
X172200000Y-95000000D02*
X172200000Y-87800000D01*
X155100000Y-102500000D02*
X159500000Y-102500000D01*
X152720000Y-104880000D02*
X155100000Y-102500000D01*
X163700000Y-98300000D02*
X168900000Y-98300000D01*
X159500000Y-102500000D02*
X163700000Y-98300000D01*
X168900000Y-98300000D02*
X172200000Y-95000000D01*
%TO.N,/B1-1{slash}SDA*%
X170400000Y-84600000D02*
X174000000Y-81000000D01*
X159000000Y-101400000D02*
X163100000Y-97300000D01*
X163100000Y-97300000D02*
X168500000Y-97300000D01*
X151400000Y-101400000D02*
X159000000Y-101400000D01*
X148940000Y-103860000D02*
X151400000Y-101400000D01*
X168500000Y-97300000D02*
X170400000Y-95400000D01*
X147800000Y-103860000D02*
X148940000Y-103860000D01*
X170400000Y-95400000D02*
X170400000Y-84600000D01*
%TD*%
%TA.AperFunction,Conductor*%
%TO.N,GND*%
G36*
X106045445Y-84152003D02*
G01*
X106088710Y-84195268D01*
X106099500Y-84240213D01*
X106099500Y-100564254D01*
X106097238Y-100585297D01*
X106095641Y-100592638D01*
X106099374Y-100644830D01*
X106099500Y-100648363D01*
X106099500Y-100664511D01*
X106101798Y-100680500D01*
X106102176Y-100684013D01*
X106105908Y-100736195D01*
X106108533Y-100743232D01*
X106113764Y-100763726D01*
X106114834Y-100771166D01*
X106114835Y-100771170D01*
X106136569Y-100818761D01*
X106137921Y-100822026D01*
X106156202Y-100871039D01*
X106156203Y-100871040D01*
X106156204Y-100871043D01*
X106159918Y-100876005D01*
X106160708Y-100877060D01*
X106171501Y-100895250D01*
X106174623Y-100902085D01*
X106208888Y-100941629D01*
X106211080Y-100944348D01*
X106220779Y-100957305D01*
X106220781Y-100957307D01*
X106232211Y-100968738D01*
X106234610Y-100971315D01*
X106268168Y-101010042D01*
X106268873Y-101010856D01*
X106275183Y-101014911D01*
X106291666Y-101028192D01*
X110892970Y-105629496D01*
X110920747Y-105684013D01*
X110911176Y-105744445D01*
X110867911Y-105787710D01*
X110822966Y-105798500D01*
X108325322Y-105798500D01*
X108267131Y-105779593D01*
X108255318Y-105769504D01*
X105832496Y-103346682D01*
X105804719Y-103292165D01*
X105803500Y-103276678D01*
X105803500Y-84338213D01*
X105822407Y-84280022D01*
X105832484Y-84268222D01*
X105930499Y-84170207D01*
X105985013Y-84142432D01*
X106045445Y-84152003D01*
G37*
%TD.AperFunction*%
%TA.AperFunction,Conductor*%
G36*
X120535232Y-89671224D02*
G01*
X120646592Y-89701063D01*
X120646596Y-89701063D01*
X120646599Y-89701064D01*
X120881996Y-89721659D01*
X120882000Y-89721659D01*
X120882004Y-89721659D01*
X121117400Y-89701064D01*
X121117401Y-89701063D01*
X121117408Y-89701063D01*
X121224488Y-89672371D01*
X121285585Y-89675573D01*
X121333135Y-89714078D01*
X121348971Y-89773179D01*
X121327045Y-89830300D01*
X121306892Y-89849093D01*
X121280605Y-89867499D01*
X121113501Y-90034603D01*
X120977963Y-90228173D01*
X120977962Y-90228176D01*
X120971445Y-90242150D01*
X120929714Y-90286895D01*
X120869652Y-90298566D01*
X120814201Y-90272705D01*
X120791997Y-90242141D01*
X120785601Y-90228425D01*
X120785601Y-90228424D01*
X120697805Y-90103037D01*
X120038884Y-90761957D01*
X120006113Y-90678459D01*
X119921535Y-90572401D01*
X119809453Y-90495984D01*
X119755738Y-90479415D01*
X120414962Y-89820192D01*
X120411052Y-89775496D01*
X120424815Y-89715879D01*
X120470993Y-89675738D01*
X120531945Y-89670405D01*
X120535232Y-89671224D01*
G37*
%TD.AperFunction*%
%TA.AperFunction,Conductor*%
G36*
X178908691Y-70969407D02*
G01*
X178944655Y-71018907D01*
X178949500Y-71049500D01*
X178949500Y-121750500D01*
X178930593Y-121808691D01*
X178881093Y-121844655D01*
X178850500Y-121849500D01*
X152099000Y-121849500D01*
X152040809Y-121830593D01*
X152004845Y-121781093D01*
X152000000Y-121750500D01*
X152000000Y-115788500D01*
X152018907Y-115730309D01*
X152068407Y-115694345D01*
X152099000Y-115689500D01*
X155806790Y-115689500D01*
X155864981Y-115708407D01*
X155896514Y-115746659D01*
X155946699Y-115854282D01*
X155975593Y-115895547D01*
X156044648Y-115994168D01*
X156079730Y-116044269D01*
X156243731Y-116208270D01*
X156433718Y-116341301D01*
X156558044Y-116399275D01*
X156602792Y-116441004D01*
X156614467Y-116501065D01*
X156588609Y-116556518D01*
X156558044Y-116578724D01*
X156433729Y-116636693D01*
X156433721Y-116636697D01*
X156243735Y-116769726D01*
X156079726Y-116933735D01*
X155946698Y-117123719D01*
X155894386Y-117235903D01*
X155857847Y-117314264D01*
X155848680Y-117333922D01*
X155788649Y-117557957D01*
X155768437Y-117788996D01*
X155768437Y-117789003D01*
X155788649Y-118020042D01*
X155788650Y-118020049D01*
X155788651Y-118020050D01*
X155848680Y-118244079D01*
X155946699Y-118454281D01*
X156079730Y-118644269D01*
X156243731Y-118808270D01*
X156433719Y-118941301D01*
X156643921Y-119039320D01*
X156867950Y-119099349D01*
X156867954Y-119099349D01*
X156867957Y-119099350D01*
X157041121Y-119114500D01*
X157041129Y-119114500D01*
X157156879Y-119114500D01*
X157330042Y-119099350D01*
X157330043Y-119099349D01*
X157330050Y-119099349D01*
X157554079Y-119039320D01*
X157764281Y-118941301D01*
X157954269Y-118808270D01*
X158118270Y-118644269D01*
X158251301Y-118454282D01*
X158349320Y-118244079D01*
X158409349Y-118020050D01*
X158419852Y-117900006D01*
X171394559Y-117900006D01*
X171414308Y-118276859D01*
X171414310Y-118276880D01*
X171473345Y-118649607D01*
X171571021Y-119014140D01*
X171571023Y-119014147D01*
X171706264Y-119366462D01*
X171706266Y-119366465D01*
X171877597Y-119702720D01*
X171877602Y-119702727D01*
X172083138Y-120019227D01*
X172320635Y-120312511D01*
X172587489Y-120579365D01*
X172880775Y-120816863D01*
X173197280Y-121022403D01*
X173533535Y-121193734D01*
X173533537Y-121193735D01*
X173795026Y-121294111D01*
X173885857Y-121328978D01*
X174250387Y-121426653D01*
X174250390Y-121426653D01*
X174250392Y-121426654D01*
X174623119Y-121485689D01*
X174623128Y-121485689D01*
X174623129Y-121485690D01*
X174623130Y-121485690D01*
X174623140Y-121485691D01*
X174784375Y-121494140D01*
X174905720Y-121500500D01*
X174905725Y-121500500D01*
X175094275Y-121500500D01*
X175094280Y-121500500D01*
X175235575Y-121493095D01*
X175376859Y-121485691D01*
X175376867Y-121485690D01*
X175376871Y-121485690D01*
X175376873Y-121485689D01*
X175376880Y-121485689D01*
X175749607Y-121426654D01*
X175749607Y-121426653D01*
X175749613Y-121426653D01*
X176114143Y-121328978D01*
X176466465Y-121193734D01*
X176802720Y-121022403D01*
X177119225Y-120816863D01*
X177412511Y-120579365D01*
X177679365Y-120312511D01*
X177916863Y-120019225D01*
X178122403Y-119702721D01*
X178293734Y-119366465D01*
X178428978Y-119014143D01*
X178526653Y-118649613D01*
X178585690Y-118276871D01*
X178599150Y-118020050D01*
X178605441Y-117900006D01*
X178605441Y-117899993D01*
X178585691Y-117523140D01*
X178585689Y-117523119D01*
X178526654Y-117150392D01*
X178519658Y-117124282D01*
X178428978Y-116785857D01*
X178340943Y-116556518D01*
X178293735Y-116433537D01*
X178178955Y-116208270D01*
X178122403Y-116097280D01*
X177916863Y-115780775D01*
X177896192Y-115755249D01*
X177679368Y-115487493D01*
X177679365Y-115487489D01*
X177412511Y-115220635D01*
X177251569Y-115090307D01*
X177119228Y-114983139D01*
X177050140Y-114938273D01*
X176802720Y-114777597D01*
X176717001Y-114733921D01*
X176466462Y-114606264D01*
X176114147Y-114471023D01*
X176114140Y-114471021D01*
X175749607Y-114373345D01*
X175376880Y-114314310D01*
X175376859Y-114314308D01*
X175094292Y-114299500D01*
X175094280Y-114299500D01*
X174905720Y-114299500D01*
X174905707Y-114299500D01*
X174623140Y-114314308D01*
X174623119Y-114314310D01*
X174250392Y-114373345D01*
X173885859Y-114471021D01*
X173885852Y-114471023D01*
X173533537Y-114606264D01*
X173197285Y-114777594D01*
X173197281Y-114777596D01*
X173197280Y-114777597D01*
X173163532Y-114799513D01*
X172880771Y-114983139D01*
X172587493Y-115220631D01*
X172320631Y-115487493D01*
X172083139Y-115780772D01*
X171877600Y-116097272D01*
X171877594Y-116097283D01*
X171706264Y-116433537D01*
X171571023Y-116785852D01*
X171571021Y-116785859D01*
X171473345Y-117150392D01*
X171414310Y-117523119D01*
X171414308Y-117523140D01*
X171394559Y-117899993D01*
X171394559Y-117900006D01*
X158419852Y-117900006D01*
X158429563Y-117789003D01*
X158429563Y-117788996D01*
X158409350Y-117557957D01*
X158409349Y-117557954D01*
X158409349Y-117557950D01*
X158349320Y-117333921D01*
X158251301Y-117123719D01*
X158147581Y-116975591D01*
X158118273Y-116933735D01*
X158118272Y-116933734D01*
X158118270Y-116933731D01*
X157954269Y-116769730D01*
X157954265Y-116769727D01*
X157954264Y-116769726D01*
X157840463Y-116690042D01*
X157764281Y-116636699D01*
X157639954Y-116578724D01*
X157595207Y-116536996D01*
X157583532Y-116476935D01*
X157609390Y-116421482D01*
X157639953Y-116399276D01*
X157764282Y-116341301D01*
X157954269Y-116208270D01*
X158118270Y-116044269D01*
X158222407Y-115895545D01*
X158271270Y-115858725D01*
X158332447Y-115857657D01*
X158382567Y-115892751D01*
X158402487Y-115950603D01*
X158393228Y-115994168D01*
X158388680Y-116003921D01*
X158328649Y-116227957D01*
X158308437Y-116458996D01*
X158308437Y-116459003D01*
X158328649Y-116690042D01*
X158328650Y-116690049D01*
X158328651Y-116690050D01*
X158388680Y-116914079D01*
X158486699Y-117124282D01*
X158619730Y-117314269D01*
X158783731Y-117478270D01*
X158973718Y-117611301D01*
X159183921Y-117709320D01*
X159407950Y-117769349D01*
X159407954Y-117769349D01*
X159407957Y-117769350D01*
X159638997Y-117789563D01*
X159639000Y-117789563D01*
X159639003Y-117789563D01*
X159870042Y-117769350D01*
X159870043Y-117769349D01*
X159870050Y-117769349D01*
X160094079Y-117709320D01*
X160304282Y-117611301D01*
X160494269Y-117478270D01*
X160658270Y-117314269D01*
X160791301Y-117124282D01*
X160794478Y-117117468D01*
X160829829Y-117041661D01*
X160871557Y-116996913D01*
X160919553Y-116984500D01*
X161031179Y-116984500D01*
X161032860Y-116984528D01*
X161095245Y-116986660D01*
X161136777Y-116976538D01*
X161141740Y-116975594D01*
X161184111Y-116969771D01*
X161201355Y-116962280D01*
X161217343Y-116956904D01*
X161235594Y-116952457D01*
X161272855Y-116931505D01*
X161277385Y-116929255D01*
X161316609Y-116912219D01*
X161331184Y-116900360D01*
X161345136Y-116890864D01*
X161361512Y-116881658D01*
X161391749Y-116851419D01*
X161395493Y-116848040D01*
X161428665Y-116821054D01*
X161439499Y-116805704D01*
X161450363Y-116792805D01*
X162864650Y-115378519D01*
X162865866Y-115377344D01*
X162911469Y-115334755D01*
X162933682Y-115298226D01*
X162936520Y-115294054D01*
X162962365Y-115259975D01*
X162969260Y-115242489D01*
X162976770Y-115227370D01*
X162980866Y-115220635D01*
X162986526Y-115211328D01*
X162998059Y-115170164D01*
X162999674Y-115165364D01*
X163015360Y-115125589D01*
X163017281Y-115106898D01*
X163020434Y-115090307D01*
X163025500Y-115072228D01*
X163025500Y-115029487D01*
X163025760Y-115024422D01*
X163026455Y-115017655D01*
X163030132Y-114981890D01*
X163026939Y-114963376D01*
X163025500Y-114946555D01*
X163025500Y-107309820D01*
X163025529Y-107308130D01*
X163027660Y-107245755D01*
X163017534Y-107204206D01*
X163016594Y-107199258D01*
X163010771Y-107156889D01*
X163003280Y-107139645D01*
X162997903Y-107123654D01*
X162993457Y-107105406D01*
X162972509Y-107068150D01*
X162970252Y-107063607D01*
X162969119Y-107060998D01*
X162953219Y-107024391D01*
X162941363Y-107009819D01*
X162931862Y-106995858D01*
X162922660Y-106979490D01*
X162892422Y-106949251D01*
X162889024Y-106945486D01*
X162883977Y-106939283D01*
X162862054Y-106912335D01*
X162862053Y-106912334D01*
X162862052Y-106912333D01*
X162846709Y-106901502D01*
X162833797Y-106890627D01*
X161478532Y-105535362D01*
X161477357Y-105534146D01*
X161434754Y-105488530D01*
X161398232Y-105466321D01*
X161394039Y-105463467D01*
X161359973Y-105437634D01*
X161342492Y-105430740D01*
X161327381Y-105423235D01*
X161311325Y-105413472D01*
X161270166Y-105401940D01*
X161265360Y-105400324D01*
X161225589Y-105384641D01*
X161225592Y-105384641D01*
X161213628Y-105383411D01*
X161206892Y-105382718D01*
X161190314Y-105379567D01*
X161172228Y-105374500D01*
X161129478Y-105374500D01*
X161124414Y-105374240D01*
X161090061Y-105370709D01*
X161081890Y-105369869D01*
X161081889Y-105369869D01*
X161063375Y-105373061D01*
X161046556Y-105374500D01*
X156623419Y-105374500D01*
X156565228Y-105355593D01*
X156529264Y-105306093D01*
X156529264Y-105244907D01*
X156553413Y-105205497D01*
X156629416Y-105129495D01*
X156683932Y-105101719D01*
X156699419Y-105100500D01*
X160635544Y-105100500D01*
X160656590Y-105102763D01*
X160657830Y-105103032D01*
X160663927Y-105104359D01*
X160711412Y-105100962D01*
X160716119Y-105100626D01*
X160719652Y-105100500D01*
X160735799Y-105100500D01*
X160751799Y-105098199D01*
X160755272Y-105097824D01*
X160807483Y-105094091D01*
X160814515Y-105091467D01*
X160835022Y-105086233D01*
X160842457Y-105085165D01*
X160890049Y-105063429D01*
X160893295Y-105062084D01*
X160942331Y-105043796D01*
X160948341Y-105039296D01*
X160966549Y-105028492D01*
X160973373Y-105025377D01*
X161012917Y-104991110D01*
X161015642Y-104988914D01*
X161028593Y-104979221D01*
X161040042Y-104967770D01*
X161042579Y-104965408D01*
X161082143Y-104931128D01*
X161086202Y-104924811D01*
X161099477Y-104908335D01*
X162897113Y-103110699D01*
X162951628Y-103082924D01*
X163012060Y-103092495D01*
X163055325Y-103135760D01*
X163060559Y-103148007D01*
X163074211Y-103187022D01*
X163074211Y-103187023D01*
X163170181Y-103339758D01*
X163170184Y-103339762D01*
X163297738Y-103467316D01*
X163297740Y-103467317D01*
X163297741Y-103467318D01*
X163438043Y-103555476D01*
X163450478Y-103563289D01*
X163489056Y-103576788D01*
X163620738Y-103622866D01*
X163620742Y-103622867D01*
X163620745Y-103622868D01*
X163800000Y-103643065D01*
X163979255Y-103622868D01*
X164149522Y-103563289D01*
X164302262Y-103467316D01*
X164429816Y-103339762D01*
X164525789Y-103187022D01*
X164585368Y-103016755D01*
X164605565Y-102837500D01*
X164585368Y-102658245D01*
X164584868Y-102656817D01*
X164561014Y-102588645D01*
X164525789Y-102487978D01*
X164497642Y-102443183D01*
X164429818Y-102335241D01*
X164429817Y-102335240D01*
X164429816Y-102335238D01*
X164302262Y-102207684D01*
X164302259Y-102207682D01*
X164302258Y-102207681D01*
X164149523Y-102111711D01*
X164110507Y-102098059D01*
X164061827Y-102060994D01*
X164044230Y-102002394D01*
X164064438Y-101944642D01*
X164073193Y-101934619D01*
X165478317Y-100529496D01*
X165532835Y-100501719D01*
X165548322Y-100500500D01*
X169035544Y-100500500D01*
X169056590Y-100502763D01*
X169057830Y-100503032D01*
X169063927Y-100504359D01*
X169111412Y-100500962D01*
X169116119Y-100500626D01*
X169119652Y-100500500D01*
X169135799Y-100500500D01*
X169151799Y-100498199D01*
X169155272Y-100497824D01*
X169207483Y-100494091D01*
X169214515Y-100491467D01*
X169235022Y-100486233D01*
X169242457Y-100485165D01*
X169290049Y-100463429D01*
X169293295Y-100462084D01*
X169342331Y-100443796D01*
X169348341Y-100439296D01*
X169366549Y-100428492D01*
X169373373Y-100425377D01*
X169412917Y-100391110D01*
X169415642Y-100388914D01*
X169428593Y-100379221D01*
X169440042Y-100367770D01*
X169442579Y-100365408D01*
X169482143Y-100331128D01*
X169486202Y-100324811D01*
X169499477Y-100308335D01*
X174208335Y-95599477D01*
X174224811Y-95586202D01*
X174231128Y-95582143D01*
X174265408Y-95542579D01*
X174267770Y-95540042D01*
X174279221Y-95528593D01*
X174288914Y-95515642D01*
X174291110Y-95512917D01*
X174325377Y-95473373D01*
X174328492Y-95466549D01*
X174339296Y-95448342D01*
X174340004Y-95447396D01*
X174343796Y-95442331D01*
X174362080Y-95393305D01*
X174363431Y-95390045D01*
X174372286Y-95370656D01*
X174381843Y-95349728D01*
X174390419Y-95334623D01*
X174480217Y-95204527D01*
X174480220Y-95204523D01*
X174536237Y-95056818D01*
X174552330Y-94924282D01*
X174555278Y-94900001D01*
X174555278Y-94899998D01*
X174536237Y-94743183D01*
X174536237Y-94743182D01*
X174480220Y-94595477D01*
X174390483Y-94465470D01*
X174272240Y-94360717D01*
X174174118Y-94309218D01*
X174132364Y-94287303D01*
X173978987Y-94249500D01*
X173978985Y-94249500D01*
X173821015Y-94249500D01*
X173821012Y-94249500D01*
X173667637Y-94287303D01*
X173645507Y-94298918D01*
X173585195Y-94309218D01*
X173530347Y-94282101D01*
X173501913Y-94227923D01*
X173500500Y-94211257D01*
X173500500Y-91373499D01*
X175594435Y-91373499D01*
X175614632Y-91552757D01*
X175614633Y-91552761D01*
X175674211Y-91723022D01*
X175674211Y-91723023D01*
X175770181Y-91875758D01*
X175770184Y-91875762D01*
X175897738Y-92003316D01*
X175897740Y-92003317D01*
X175897741Y-92003318D01*
X176019141Y-92079599D01*
X176050478Y-92099289D01*
X176118657Y-92123146D01*
X176220738Y-92158866D01*
X176220742Y-92158867D01*
X176220745Y-92158868D01*
X176400000Y-92179065D01*
X176579255Y-92158868D01*
X176749522Y-92099289D01*
X176902262Y-92003316D01*
X177029816Y-91875762D01*
X177125789Y-91723022D01*
X177185368Y-91552755D01*
X177205565Y-91373500D01*
X177185368Y-91194245D01*
X177125789Y-91023978D01*
X177051658Y-90906000D01*
X177029818Y-90871241D01*
X177029817Y-90871240D01*
X177029816Y-90871238D01*
X176902262Y-90743684D01*
X176902259Y-90743682D01*
X176902258Y-90743681D01*
X176749523Y-90647711D01*
X176579261Y-90588133D01*
X176579257Y-90588132D01*
X176400000Y-90567935D01*
X176220742Y-90588132D01*
X176220738Y-90588133D01*
X176050477Y-90647711D01*
X176050476Y-90647711D01*
X175897741Y-90743681D01*
X175770181Y-90871241D01*
X175674211Y-91023976D01*
X175674211Y-91023977D01*
X175614633Y-91194238D01*
X175614632Y-91194242D01*
X175594435Y-91373499D01*
X173500500Y-91373499D01*
X173500500Y-84148321D01*
X173519407Y-84090130D01*
X173529496Y-84078317D01*
X173774785Y-83833028D01*
X174030713Y-83577100D01*
X174077024Y-83550983D01*
X174078984Y-83550500D01*
X174078985Y-83550500D01*
X174232365Y-83512696D01*
X174372240Y-83439283D01*
X174490483Y-83334530D01*
X174580220Y-83204523D01*
X174636237Y-83056818D01*
X174651656Y-82929827D01*
X174655278Y-82900001D01*
X174655278Y-82899998D01*
X174637774Y-82755843D01*
X174636237Y-82743182D01*
X174580220Y-82595477D01*
X174515462Y-82501658D01*
X174490484Y-82465471D01*
X174425328Y-82407748D01*
X174372240Y-82360717D01*
X174302302Y-82324010D01*
X174232364Y-82287303D01*
X174078987Y-82249500D01*
X174078985Y-82249500D01*
X173921015Y-82249500D01*
X173921012Y-82249500D01*
X173767635Y-82287303D01*
X173627758Y-82360718D01*
X173619844Y-82367729D01*
X173563748Y-82392161D01*
X173504005Y-82378956D01*
X173463434Y-82333156D01*
X173457531Y-82272256D01*
X173484192Y-82223621D01*
X174030713Y-81677100D01*
X174077024Y-81650983D01*
X174078984Y-81650500D01*
X174078985Y-81650500D01*
X174232365Y-81612696D01*
X174372240Y-81539283D01*
X174490483Y-81434530D01*
X174580220Y-81304523D01*
X174636237Y-81156818D01*
X174655278Y-81000000D01*
X174646997Y-80931803D01*
X174636237Y-80843183D01*
X174636237Y-80843182D01*
X174580220Y-80695477D01*
X174531876Y-80625439D01*
X174490484Y-80565471D01*
X174372241Y-80460718D01*
X174372240Y-80460717D01*
X174252253Y-80397742D01*
X174232364Y-80387303D01*
X174078987Y-80349500D01*
X174078985Y-80349500D01*
X173921015Y-80349500D01*
X173921012Y-80349500D01*
X173767635Y-80387303D01*
X173627758Y-80460718D01*
X173509515Y-80565471D01*
X173419780Y-80695476D01*
X173363763Y-80843182D01*
X173363763Y-80843183D01*
X173356100Y-80906288D01*
X173330316Y-80961775D01*
X173327826Y-80964358D01*
X170091665Y-84200519D01*
X170075194Y-84213793D01*
X170068872Y-84217856D01*
X170068868Y-84217859D01*
X170034606Y-84257401D01*
X170032199Y-84259986D01*
X170020778Y-84271407D01*
X170011089Y-84284348D01*
X170008874Y-84287097D01*
X169974622Y-84326626D01*
X169971500Y-84333463D01*
X169960712Y-84351646D01*
X169956203Y-84357669D01*
X169956202Y-84357671D01*
X169937917Y-84406695D01*
X169936565Y-84409959D01*
X169914836Y-84457540D01*
X169914834Y-84457547D01*
X169913764Y-84464985D01*
X169908536Y-84485471D01*
X169905908Y-84492517D01*
X169902176Y-84544700D01*
X169901798Y-84548212D01*
X169899500Y-84564200D01*
X169899500Y-84580347D01*
X169899374Y-84583880D01*
X169895641Y-84636073D01*
X169897237Y-84643408D01*
X169899500Y-84664456D01*
X169899500Y-95151678D01*
X169880593Y-95209869D01*
X169870504Y-95221682D01*
X168321682Y-96770504D01*
X168267165Y-96798281D01*
X168251678Y-96799500D01*
X163164456Y-96799500D01*
X163143410Y-96797237D01*
X163136074Y-96795641D01*
X163136073Y-96795641D01*
X163119394Y-96796834D01*
X163083881Y-96799374D01*
X163080348Y-96799500D01*
X163064200Y-96799500D01*
X163048212Y-96801798D01*
X163044700Y-96802176D01*
X162992517Y-96805908D01*
X162985471Y-96808536D01*
X162964985Y-96813764D01*
X162957547Y-96814834D01*
X162957544Y-96814834D01*
X162957543Y-96814835D01*
X162957542Y-96814835D01*
X162957540Y-96814836D01*
X162909959Y-96836565D01*
X162906695Y-96837917D01*
X162857671Y-96856202D01*
X162857669Y-96856203D01*
X162851646Y-96860712D01*
X162833463Y-96871500D01*
X162826626Y-96874622D01*
X162787097Y-96908874D01*
X162784348Y-96911089D01*
X162771407Y-96920778D01*
X162759986Y-96932199D01*
X162757401Y-96934606D01*
X162717859Y-96968868D01*
X162717856Y-96968872D01*
X162713793Y-96975194D01*
X162700519Y-96991665D01*
X158821682Y-100870504D01*
X158767165Y-100898281D01*
X158751678Y-100899500D01*
X151464456Y-100899500D01*
X151443410Y-100897237D01*
X151436074Y-100895641D01*
X151436073Y-100895641D01*
X151415874Y-100897085D01*
X151383881Y-100899374D01*
X151380348Y-100899500D01*
X151364200Y-100899500D01*
X151348212Y-100901798D01*
X151344700Y-100902176D01*
X151292517Y-100905908D01*
X151285471Y-100908536D01*
X151264985Y-100913764D01*
X151257547Y-100914834D01*
X151257544Y-100914834D01*
X151257543Y-100914835D01*
X151257542Y-100914835D01*
X151257540Y-100914836D01*
X151209959Y-100936565D01*
X151206695Y-100937917D01*
X151157671Y-100956202D01*
X151157669Y-100956203D01*
X151151646Y-100960712D01*
X151133463Y-100971500D01*
X151126628Y-100974622D01*
X151087088Y-101008882D01*
X151084339Y-101011097D01*
X151071405Y-101020781D01*
X151059991Y-101032194D01*
X151057408Y-101034598D01*
X151017854Y-101068874D01*
X151013792Y-101075195D01*
X151000516Y-101091669D01*
X148761682Y-103330504D01*
X148707165Y-103358281D01*
X148691678Y-103359500D01*
X148253563Y-103359500D01*
X148195372Y-103340593D01*
X148187913Y-103334602D01*
X148172241Y-103320718D01*
X148172240Y-103320717D01*
X148073459Y-103268872D01*
X148032364Y-103247303D01*
X147878987Y-103209500D01*
X147878985Y-103209500D01*
X147721015Y-103209500D01*
X147721012Y-103209500D01*
X147567635Y-103247303D01*
X147427758Y-103320718D01*
X147309515Y-103425471D01*
X147219780Y-103555476D01*
X147163763Y-103703182D01*
X147163762Y-103703183D01*
X147144722Y-103859998D01*
X147144722Y-103860001D01*
X147163762Y-104016816D01*
X147163763Y-104016818D01*
X147181163Y-104062697D01*
X147219780Y-104164523D01*
X147309515Y-104294528D01*
X147309516Y-104294529D01*
X147309517Y-104294530D01*
X147427760Y-104399283D01*
X147443110Y-104407339D01*
X147485848Y-104451121D01*
X147494690Y-104511664D01*
X147466257Y-104565842D01*
X147443115Y-104582657D01*
X147427759Y-104590717D01*
X147309515Y-104695471D01*
X147219780Y-104825476D01*
X147163763Y-104973182D01*
X147163762Y-104973183D01*
X147144722Y-105129998D01*
X147144722Y-105130001D01*
X147163762Y-105286816D01*
X147163763Y-105286818D01*
X147200263Y-105383061D01*
X147219780Y-105434523D01*
X147309515Y-105564528D01*
X147309516Y-105564529D01*
X147309517Y-105564530D01*
X147427760Y-105669283D01*
X147443110Y-105677339D01*
X147485848Y-105721121D01*
X147494690Y-105781664D01*
X147466257Y-105835842D01*
X147443115Y-105852657D01*
X147427759Y-105860717D01*
X147309515Y-105965471D01*
X147219780Y-106095476D01*
X147163763Y-106243182D01*
X147163762Y-106243183D01*
X147144722Y-106399998D01*
X147144722Y-106400001D01*
X147163762Y-106556816D01*
X147163763Y-106556818D01*
X147204998Y-106665546D01*
X147219780Y-106704523D01*
X147309515Y-106834528D01*
X147309516Y-106834529D01*
X147309517Y-106834530D01*
X147427760Y-106939283D01*
X147443110Y-106947339D01*
X147485848Y-106991121D01*
X147494690Y-107051664D01*
X147466257Y-107105842D01*
X147443115Y-107122657D01*
X147427759Y-107130717D01*
X147309515Y-107235471D01*
X147219780Y-107365476D01*
X147163763Y-107513182D01*
X147163762Y-107513183D01*
X147152926Y-107602433D01*
X147127143Y-107657921D01*
X147073668Y-107687656D01*
X147054648Y-107689500D01*
X145028054Y-107689500D01*
X144969863Y-107670593D01*
X144946578Y-107646738D01*
X144890484Y-107565471D01*
X144890357Y-107565358D01*
X144772240Y-107460717D01*
X144701981Y-107423842D01*
X144632364Y-107387303D01*
X144478987Y-107349500D01*
X144478985Y-107349500D01*
X144321015Y-107349500D01*
X144321012Y-107349500D01*
X144167635Y-107387303D01*
X144027758Y-107460718D01*
X143909515Y-107565471D01*
X143819780Y-107695476D01*
X143763763Y-107843182D01*
X143763762Y-107843183D01*
X143744722Y-107999998D01*
X143744722Y-108000001D01*
X143763762Y-108156816D01*
X143763763Y-108156818D01*
X143781656Y-108203998D01*
X143819780Y-108304523D01*
X143909515Y-108434528D01*
X143909516Y-108434529D01*
X143909517Y-108434530D01*
X144027760Y-108539283D01*
X144167635Y-108612696D01*
X144299075Y-108645091D01*
X144335199Y-108662329D01*
X144355025Y-108677364D01*
X144355026Y-108677364D01*
X144355027Y-108677365D01*
X144372499Y-108684255D01*
X144387618Y-108691764D01*
X144403668Y-108701524D01*
X144403670Y-108701525D01*
X144403672Y-108701526D01*
X144444837Y-108713059D01*
X144449630Y-108714671D01*
X144489411Y-108730359D01*
X144508091Y-108732279D01*
X144524682Y-108735432D01*
X144542768Y-108740499D01*
X144542770Y-108740500D01*
X144542772Y-108740500D01*
X144585522Y-108740500D01*
X144590586Y-108740760D01*
X144602059Y-108741939D01*
X144633110Y-108745131D01*
X144648316Y-108742509D01*
X144651625Y-108741939D01*
X144668444Y-108740500D01*
X154275179Y-108740500D01*
X154276860Y-108740528D01*
X154339245Y-108742660D01*
X154380777Y-108732538D01*
X154385740Y-108731594D01*
X154428111Y-108725771D01*
X154445355Y-108718280D01*
X154461343Y-108712904D01*
X154479594Y-108708457D01*
X154516855Y-108687505D01*
X154521385Y-108685255D01*
X154560609Y-108668219D01*
X154575184Y-108656360D01*
X154589136Y-108646864D01*
X154605512Y-108637658D01*
X154635749Y-108607419D01*
X154639493Y-108604040D01*
X154672665Y-108577054D01*
X154683499Y-108561704D01*
X154694363Y-108548805D01*
X156788673Y-106454495D01*
X156843190Y-106426719D01*
X156858677Y-106425500D01*
X160841322Y-106425500D01*
X160899513Y-106444407D01*
X160911326Y-106454496D01*
X161945504Y-107488673D01*
X161973281Y-107543190D01*
X161974500Y-107558677D01*
X161974500Y-114741322D01*
X161955593Y-114799513D01*
X161945504Y-114811326D01*
X160945418Y-115811411D01*
X160890901Y-115839188D01*
X160830469Y-115829617D01*
X160795263Y-115796221D01*
X160793780Y-115797260D01*
X160788937Y-115790344D01*
X160658270Y-115603731D01*
X160494269Y-115439730D01*
X160494265Y-115439727D01*
X160494264Y-115439726D01*
X160344348Y-115334754D01*
X160304282Y-115306699D01*
X160244290Y-115278724D01*
X160199543Y-115236996D01*
X160187868Y-115176935D01*
X160213726Y-115121482D01*
X160244291Y-115099275D01*
X160246024Y-115098467D01*
X160304282Y-115071301D01*
X160494269Y-114938270D01*
X160658270Y-114774269D01*
X160791301Y-114584282D01*
X160889320Y-114374079D01*
X160949349Y-114150050D01*
X160969563Y-113919000D01*
X160949349Y-113687950D01*
X160889320Y-113463921D01*
X160791301Y-113253719D01*
X160658270Y-113063731D01*
X160494269Y-112899730D01*
X160494265Y-112899727D01*
X160494264Y-112899726D01*
X160322214Y-112779255D01*
X160304282Y-112766699D01*
X160304281Y-112766698D01*
X160304279Y-112766697D01*
X160304271Y-112766693D01*
X160243700Y-112738448D01*
X160198952Y-112696720D01*
X160187277Y-112636659D01*
X160213135Y-112581206D01*
X160243701Y-112558999D01*
X160304026Y-112530869D01*
X160304028Y-112530868D01*
X160424011Y-112446855D01*
X159991844Y-112014688D01*
X160108194Y-111938163D01*
X160224499Y-111814888D01*
X160273265Y-111730421D01*
X160706855Y-112164011D01*
X160790867Y-112044029D01*
X160888848Y-111833907D01*
X160948855Y-111609955D01*
X160969061Y-111379004D01*
X160969061Y-111378995D01*
X160948855Y-111148044D01*
X160888847Y-110924087D01*
X160790871Y-110713978D01*
X160790866Y-110713968D01*
X160706854Y-110593988D01*
X160275864Y-111024977D01*
X160271143Y-111014032D01*
X160169936Y-110878088D01*
X160040106Y-110769147D01*
X159990779Y-110744374D01*
X160424011Y-110311143D01*
X160377999Y-110278926D01*
X160341177Y-110230062D01*
X160340109Y-110168886D01*
X160375203Y-110118765D01*
X160381853Y-110114168D01*
X160558414Y-110002518D01*
X160742774Y-109839189D01*
X160898546Y-109648402D01*
X161021697Y-109435098D01*
X161109037Y-109204802D01*
X161158304Y-108963477D01*
X161168222Y-108717374D01*
X161138533Y-108472868D01*
X161070008Y-108236290D01*
X160964420Y-108013769D01*
X160885979Y-107900128D01*
X160824505Y-107811067D01*
X160803217Y-107788904D01*
X160653885Y-107633432D01*
X160653882Y-107633429D01*
X160456981Y-107485468D01*
X160238892Y-107371007D01*
X160238883Y-107371003D01*
X160005267Y-107293010D01*
X160005266Y-107293009D01*
X160005264Y-107293009D01*
X160005261Y-107293008D01*
X160005255Y-107293007D01*
X159762152Y-107253500D01*
X159762151Y-107253500D01*
X159577522Y-107253500D01*
X159524605Y-107257771D01*
X159393496Y-107268355D01*
X159393491Y-107268356D01*
X159154350Y-107327300D01*
X158927757Y-107423842D01*
X158719585Y-107555481D01*
X158719584Y-107555483D01*
X158535231Y-107718805D01*
X158535224Y-107718813D01*
X158379455Y-107909596D01*
X158256302Y-108122903D01*
X158168962Y-108353201D01*
X158119696Y-108594519D01*
X158119696Y-108594522D01*
X158119696Y-108594523D01*
X158113627Y-108745131D01*
X158109778Y-108840630D01*
X158131116Y-109016359D01*
X158119361Y-109076404D01*
X158074557Y-109118072D01*
X158013818Y-109125448D01*
X157962836Y-109098297D01*
X157954269Y-109089730D01*
X157954265Y-109089727D01*
X157954264Y-109089726D01*
X157773966Y-108963480D01*
X157764282Y-108956699D01*
X157554079Y-108858680D01*
X157330050Y-108798651D01*
X157330049Y-108798650D01*
X157330042Y-108798649D01*
X157099003Y-108778437D01*
X157098997Y-108778437D01*
X156867957Y-108798649D01*
X156854343Y-108802297D01*
X156643921Y-108858680D01*
X156545902Y-108904386D01*
X156433720Y-108956698D01*
X156243735Y-109089726D01*
X156079726Y-109253735D01*
X155946698Y-109443720D01*
X155901951Y-109539681D01*
X155848680Y-109653921D01*
X155824443Y-109744373D01*
X155788649Y-109877957D01*
X155768437Y-110108996D01*
X155768437Y-110109003D01*
X155788649Y-110340042D01*
X155788650Y-110340049D01*
X155788651Y-110340050D01*
X155848680Y-110564079D01*
X155913114Y-110702258D01*
X155944304Y-110769147D01*
X155946699Y-110774282D01*
X155979501Y-110821128D01*
X156075673Y-110958476D01*
X156079730Y-110964269D01*
X156243731Y-111128270D01*
X156433718Y-111261301D01*
X156493709Y-111289275D01*
X156538457Y-111331004D01*
X156550132Y-111391065D01*
X156524274Y-111446518D01*
X156493709Y-111468724D01*
X156433729Y-111496693D01*
X156433721Y-111496697D01*
X156243735Y-111629726D01*
X156079726Y-111793735D01*
X155946698Y-111983720D01*
X155907714Y-112067322D01*
X155848680Y-112193921D01*
X155826821Y-112275500D01*
X155788649Y-112417957D01*
X155768437Y-112648996D01*
X155768437Y-112649003D01*
X155788649Y-112880042D01*
X155788650Y-112880049D01*
X155788651Y-112880050D01*
X155848679Y-113104077D01*
X155848681Y-113104082D01*
X155929622Y-113277661D01*
X155937079Y-113338390D01*
X155907416Y-113391904D01*
X155851963Y-113417762D01*
X155839898Y-113418500D01*
X154567322Y-113418500D01*
X154509131Y-113399593D01*
X154497318Y-113389504D01*
X151199480Y-110091666D01*
X151186199Y-110075183D01*
X151182144Y-110068873D01*
X151182143Y-110068872D01*
X151142603Y-110034610D01*
X151140026Y-110032211D01*
X151128595Y-110020781D01*
X151128593Y-110020779D01*
X151115636Y-110011080D01*
X151112917Y-110008888D01*
X151073373Y-109974623D01*
X151066538Y-109971501D01*
X151048348Y-109960708D01*
X151047293Y-109959918D01*
X151042331Y-109956204D01*
X151042328Y-109956203D01*
X151042327Y-109956202D01*
X150993314Y-109937921D01*
X150990049Y-109936569D01*
X150942458Y-109914835D01*
X150942454Y-109914834D01*
X150935014Y-109913764D01*
X150914520Y-109908533D01*
X150907482Y-109905908D01*
X150907483Y-109905908D01*
X150855301Y-109902176D01*
X150851788Y-109901798D01*
X150835800Y-109899500D01*
X150835799Y-109899500D01*
X150819652Y-109899500D01*
X150816119Y-109899374D01*
X150786240Y-109897237D01*
X150763927Y-109895641D01*
X150763926Y-109895641D01*
X150763925Y-109895641D01*
X150756590Y-109897237D01*
X150735544Y-109899500D01*
X132111308Y-109899500D01*
X132053117Y-109880593D01*
X132027482Y-109853171D01*
X131929818Y-109697741D01*
X131929817Y-109697740D01*
X131929816Y-109697738D01*
X131802262Y-109570184D01*
X131802259Y-109570182D01*
X131802258Y-109570181D01*
X131649523Y-109474211D01*
X131479261Y-109414633D01*
X131479257Y-109414632D01*
X131300000Y-109394435D01*
X131120742Y-109414632D01*
X131120738Y-109414633D01*
X130950477Y-109474211D01*
X130950476Y-109474211D01*
X130797741Y-109570181D01*
X130670181Y-109697741D01*
X130574211Y-109850476D01*
X130574211Y-109850477D01*
X130514633Y-110020738D01*
X130514632Y-110020742D01*
X130494435Y-110200000D01*
X130514632Y-110379257D01*
X130514633Y-110379261D01*
X130574211Y-110549522D01*
X130574211Y-110549523D01*
X130670181Y-110702258D01*
X130670184Y-110702262D01*
X130797738Y-110829816D01*
X130797740Y-110829817D01*
X130797741Y-110829818D01*
X130950474Y-110925787D01*
X130950478Y-110925789D01*
X131018657Y-110949646D01*
X131120738Y-110985366D01*
X131120742Y-110985367D01*
X131120745Y-110985368D01*
X131300000Y-111005565D01*
X131479255Y-110985368D01*
X131482905Y-110984091D01*
X131539552Y-110964269D01*
X131649522Y-110925789D01*
X131659679Y-110919407D01*
X131665619Y-110915675D01*
X131718291Y-110900500D01*
X150551678Y-110900500D01*
X150609869Y-110919407D01*
X150621682Y-110929496D01*
X151335654Y-111643468D01*
X151363431Y-111697985D01*
X151353860Y-111758417D01*
X151310595Y-111801682D01*
X151254566Y-111811850D01*
X151100000Y-111794435D01*
X150920742Y-111814632D01*
X150920738Y-111814633D01*
X150750477Y-111874211D01*
X150750476Y-111874211D01*
X150597741Y-111970181D01*
X150470181Y-112097741D01*
X150374211Y-112250476D01*
X150374211Y-112250477D01*
X150314633Y-112420738D01*
X150314632Y-112420742D01*
X150294435Y-112600000D01*
X150314632Y-112779257D01*
X150314633Y-112779261D01*
X150374211Y-112949522D01*
X150374211Y-112949523D01*
X150470181Y-113102258D01*
X150470184Y-113102262D01*
X150597738Y-113229816D01*
X150597740Y-113229817D01*
X150597741Y-113229818D01*
X150733757Y-113315283D01*
X150750478Y-113325789D01*
X150786490Y-113338390D01*
X150920738Y-113385366D01*
X150920742Y-113385367D01*
X150920745Y-113385368D01*
X151100000Y-113405565D01*
X151279255Y-113385368D01*
X151449522Y-113325789D01*
X151602262Y-113229816D01*
X151729816Y-113102262D01*
X151825789Y-112949522D01*
X151885368Y-112779255D01*
X151905565Y-112600000D01*
X151888149Y-112445431D01*
X151900423Y-112385492D01*
X151945585Y-112344212D01*
X152006385Y-112337361D01*
X152056531Y-112364345D01*
X153919518Y-114227332D01*
X153932796Y-114243810D01*
X153936856Y-114250127D01*
X153936857Y-114250129D01*
X153976394Y-114284387D01*
X153978982Y-114286796D01*
X153990407Y-114298221D01*
X153992116Y-114299500D01*
X154003345Y-114307906D01*
X154006095Y-114310122D01*
X154010928Y-114314310D01*
X154045624Y-114344375D01*
X154045625Y-114344375D01*
X154045627Y-114344377D01*
X154052454Y-114347495D01*
X154070651Y-114358291D01*
X154076669Y-114362796D01*
X154125697Y-114381081D01*
X154128941Y-114382425D01*
X154176543Y-114404165D01*
X154183978Y-114405233D01*
X154204484Y-114410468D01*
X154211517Y-114413091D01*
X154263729Y-114416825D01*
X154267196Y-114417198D01*
X154283201Y-114419500D01*
X154299348Y-114419500D01*
X154302881Y-114419626D01*
X154307871Y-114419982D01*
X154355073Y-114423359D01*
X154361470Y-114421967D01*
X154362410Y-114421763D01*
X154383456Y-114419500D01*
X155839898Y-114419500D01*
X155898089Y-114438407D01*
X155934053Y-114487907D01*
X155934053Y-114549093D01*
X155929622Y-114560339D01*
X155896514Y-114631339D01*
X155854786Y-114676087D01*
X155806790Y-114688500D01*
X149437322Y-114688500D01*
X149379131Y-114669593D01*
X149367318Y-114659504D01*
X146649480Y-111941666D01*
X146636199Y-111925183D01*
X146632144Y-111918873D01*
X146631686Y-111918476D01*
X146592603Y-111884610D01*
X146590026Y-111882211D01*
X146578595Y-111870781D01*
X146578593Y-111870779D01*
X146565636Y-111861080D01*
X146562917Y-111858888D01*
X146523373Y-111824623D01*
X146516538Y-111821501D01*
X146498348Y-111810708D01*
X146497293Y-111809918D01*
X146492331Y-111806204D01*
X146492328Y-111806203D01*
X146492327Y-111806202D01*
X146443314Y-111787921D01*
X146440049Y-111786569D01*
X146392458Y-111764835D01*
X146392454Y-111764834D01*
X146385014Y-111763764D01*
X146364520Y-111758533D01*
X146357482Y-111755908D01*
X146357483Y-111755908D01*
X146305301Y-111752176D01*
X146301788Y-111751798D01*
X146285800Y-111749500D01*
X146285799Y-111749500D01*
X146269652Y-111749500D01*
X146266119Y-111749374D01*
X146236240Y-111747237D01*
X146213927Y-111745641D01*
X146213926Y-111745641D01*
X146213925Y-111745641D01*
X146206590Y-111747237D01*
X146185544Y-111749500D01*
X134122586Y-111749500D01*
X134064395Y-111730593D01*
X134052583Y-111720504D01*
X134002263Y-111670185D01*
X134002258Y-111670181D01*
X133849523Y-111574211D01*
X133679261Y-111514633D01*
X133679257Y-111514632D01*
X133500000Y-111494435D01*
X133320742Y-111514632D01*
X133320738Y-111514633D01*
X133150477Y-111574211D01*
X133150476Y-111574211D01*
X132997741Y-111670181D01*
X132870181Y-111797741D01*
X132774211Y-111950476D01*
X132774211Y-111950477D01*
X132714633Y-112120738D01*
X132714632Y-112120742D01*
X132694435Y-112300000D01*
X132714632Y-112479257D01*
X132714633Y-112479261D01*
X132774211Y-112649522D01*
X132774211Y-112649523D01*
X132855731Y-112779261D01*
X132870184Y-112802262D01*
X132997738Y-112929816D01*
X132997740Y-112929817D01*
X132997741Y-112929818D01*
X133099548Y-112993788D01*
X133150478Y-113025789D01*
X133218657Y-113049646D01*
X133320738Y-113085366D01*
X133320742Y-113085367D01*
X133320745Y-113085368D01*
X133500000Y-113105565D01*
X133679255Y-113085368D01*
X133849522Y-113025789D01*
X134002262Y-112929816D01*
X134129816Y-112802262D01*
X134133229Y-112796829D01*
X134180199Y-112757617D01*
X134217056Y-112750500D01*
X146001678Y-112750500D01*
X146059869Y-112769407D01*
X146071682Y-112779496D01*
X148523182Y-115230996D01*
X148550959Y-115285513D01*
X148541388Y-115345945D01*
X148498123Y-115389210D01*
X148453178Y-115400000D01*
X123500000Y-115400000D01*
X123500000Y-115400001D01*
X123500000Y-121750500D01*
X123481093Y-121808691D01*
X123431593Y-121844655D01*
X123401000Y-121849500D01*
X104149500Y-121849500D01*
X104091309Y-121830593D01*
X104055345Y-121781093D01*
X104050500Y-121750500D01*
X104050500Y-117900006D01*
X104394559Y-117900006D01*
X104414308Y-118276859D01*
X104414310Y-118276880D01*
X104473345Y-118649607D01*
X104571021Y-119014140D01*
X104571023Y-119014147D01*
X104706264Y-119366462D01*
X104706266Y-119366465D01*
X104877597Y-119702720D01*
X104877602Y-119702727D01*
X105083138Y-120019227D01*
X105320635Y-120312511D01*
X105587489Y-120579365D01*
X105880775Y-120816863D01*
X106197280Y-121022403D01*
X106533535Y-121193734D01*
X106533537Y-121193735D01*
X106795026Y-121294111D01*
X106885857Y-121328978D01*
X107250387Y-121426653D01*
X107250390Y-121426653D01*
X107250392Y-121426654D01*
X107623119Y-121485689D01*
X107623128Y-121485689D01*
X107623129Y-121485690D01*
X107623130Y-121485690D01*
X107623140Y-121485691D01*
X107784375Y-121494140D01*
X107905720Y-121500500D01*
X107905725Y-121500500D01*
X108094275Y-121500500D01*
X108094280Y-121500500D01*
X108235575Y-121493095D01*
X108376859Y-121485691D01*
X108376867Y-121485690D01*
X108376871Y-121485690D01*
X108376873Y-121485689D01*
X108376880Y-121485689D01*
X108749607Y-121426654D01*
X108749607Y-121426653D01*
X108749613Y-121426653D01*
X109114143Y-121328978D01*
X109466465Y-121193734D01*
X109802720Y-121022403D01*
X110119225Y-120816863D01*
X110412511Y-120579365D01*
X110679365Y-120312511D01*
X110916863Y-120019225D01*
X111122403Y-119702721D01*
X111293734Y-119366465D01*
X111428978Y-119014143D01*
X111526653Y-118649613D01*
X111585690Y-118276871D01*
X111599150Y-118020050D01*
X111605441Y-117900006D01*
X111605441Y-117899993D01*
X111585691Y-117523140D01*
X111585689Y-117523119D01*
X111526654Y-117150392D01*
X111519658Y-117124282D01*
X111428978Y-116785857D01*
X111340943Y-116556518D01*
X111293735Y-116433537D01*
X111178955Y-116208270D01*
X111122403Y-116097280D01*
X110916863Y-115780775D01*
X110896192Y-115755249D01*
X110679368Y-115487493D01*
X110679365Y-115487489D01*
X110412511Y-115220635D01*
X110251569Y-115090307D01*
X110119228Y-114983139D01*
X110050140Y-114938273D01*
X109802720Y-114777597D01*
X109717001Y-114733921D01*
X109466462Y-114606264D01*
X109114147Y-114471023D01*
X109114140Y-114471021D01*
X108749607Y-114373345D01*
X108376880Y-114314310D01*
X108376859Y-114314308D01*
X108094292Y-114299500D01*
X108094280Y-114299500D01*
X107905720Y-114299500D01*
X107905707Y-114299500D01*
X107623140Y-114314308D01*
X107623119Y-114314310D01*
X107250392Y-114373345D01*
X106885859Y-114471021D01*
X106885852Y-114471023D01*
X106533537Y-114606264D01*
X106197285Y-114777594D01*
X106197281Y-114777596D01*
X106197280Y-114777597D01*
X106163532Y-114799513D01*
X105880771Y-114983139D01*
X105587493Y-115220631D01*
X105320631Y-115487493D01*
X105083139Y-115780772D01*
X104877600Y-116097272D01*
X104877594Y-116097283D01*
X104706264Y-116433537D01*
X104571023Y-116785852D01*
X104571021Y-116785859D01*
X104473345Y-117150392D01*
X104414310Y-117523119D01*
X104414308Y-117523140D01*
X104394559Y-117899993D01*
X104394559Y-117900006D01*
X104050500Y-117900006D01*
X104050500Y-112268000D01*
X104604435Y-112268000D01*
X104624632Y-112447257D01*
X104624633Y-112447261D01*
X104684211Y-112617522D01*
X104684211Y-112617523D01*
X104780181Y-112770258D01*
X104780184Y-112770262D01*
X104907738Y-112897816D01*
X104907740Y-112897817D01*
X104907741Y-112897818D01*
X104990027Y-112949522D01*
X105060478Y-112993789D01*
X105128657Y-113017646D01*
X105230738Y-113053366D01*
X105230742Y-113053367D01*
X105230745Y-113053368D01*
X105410000Y-113073565D01*
X105589255Y-113053368D01*
X105759522Y-112993789D01*
X105912262Y-112897816D01*
X106039816Y-112770262D01*
X106135789Y-112617522D01*
X106195368Y-112447255D01*
X106215565Y-112268000D01*
X106195368Y-112088745D01*
X106193337Y-112082941D01*
X106155431Y-111974613D01*
X106135789Y-111918478D01*
X106113781Y-111883453D01*
X106039818Y-111765741D01*
X106039817Y-111765740D01*
X106039816Y-111765738D01*
X105912262Y-111638184D01*
X105912259Y-111638182D01*
X105912258Y-111638181D01*
X105759523Y-111542211D01*
X105589261Y-111482633D01*
X105589257Y-111482632D01*
X105410000Y-111462435D01*
X105230742Y-111482632D01*
X105230738Y-111482633D01*
X105060477Y-111542211D01*
X105060476Y-111542211D01*
X104907741Y-111638181D01*
X104780181Y-111765741D01*
X104684211Y-111918476D01*
X104684211Y-111918477D01*
X104624633Y-112088738D01*
X104624632Y-112088742D01*
X104604435Y-112268000D01*
X104050500Y-112268000D01*
X104050500Y-107188000D01*
X104858435Y-107188000D01*
X104878632Y-107367257D01*
X104878633Y-107367261D01*
X104938211Y-107537522D01*
X104938211Y-107537523D01*
X105033705Y-107689500D01*
X105034184Y-107690262D01*
X105161738Y-107817816D01*
X105161740Y-107817817D01*
X105161741Y-107817818D01*
X105307804Y-107909596D01*
X105314478Y-107913789D01*
X105356531Y-107928504D01*
X105484738Y-107973366D01*
X105484742Y-107973367D01*
X105484745Y-107973368D01*
X105664000Y-107993565D01*
X105843255Y-107973368D01*
X106013522Y-107913789D01*
X106166262Y-107817816D01*
X106293816Y-107690262D01*
X106389789Y-107537522D01*
X106443974Y-107382667D01*
X106449366Y-107367261D01*
X106449367Y-107367257D01*
X106449368Y-107367255D01*
X106469565Y-107188000D01*
X106449368Y-107008745D01*
X106440892Y-106984523D01*
X106411491Y-106900500D01*
X106389789Y-106838478D01*
X106388745Y-106836817D01*
X106293818Y-106685741D01*
X106293817Y-106685740D01*
X106293816Y-106685738D01*
X106166262Y-106558184D01*
X106166259Y-106558182D01*
X106166258Y-106558181D01*
X106013523Y-106462211D01*
X105843261Y-106402633D01*
X105843257Y-106402632D01*
X105664000Y-106382435D01*
X105484742Y-106402632D01*
X105484738Y-106402633D01*
X105314477Y-106462211D01*
X105314476Y-106462211D01*
X105161741Y-106558181D01*
X105034181Y-106685741D01*
X104938211Y-106838476D01*
X104938211Y-106838477D01*
X104878633Y-107008738D01*
X104878632Y-107008742D01*
X104858435Y-107188000D01*
X104050500Y-107188000D01*
X104050500Y-103488925D01*
X104798640Y-103488925D01*
X104802374Y-103541118D01*
X104802500Y-103544651D01*
X104802500Y-103560799D01*
X104804798Y-103576788D01*
X104805176Y-103580301D01*
X104808908Y-103632483D01*
X104811533Y-103639520D01*
X104816764Y-103660014D01*
X104817834Y-103667454D01*
X104817835Y-103667458D01*
X104839569Y-103715049D01*
X104840921Y-103718314D01*
X104859202Y-103767327D01*
X104859203Y-103767328D01*
X104859204Y-103767331D01*
X104862918Y-103772293D01*
X104863708Y-103773348D01*
X104874501Y-103791538D01*
X104877623Y-103798373D01*
X104911888Y-103837917D01*
X104914080Y-103840636D01*
X104923779Y-103853593D01*
X104923781Y-103853595D01*
X104935211Y-103865026D01*
X104937610Y-103867603D01*
X104971872Y-103907143D01*
X104971873Y-103907144D01*
X104978183Y-103911199D01*
X104994666Y-103924480D01*
X107677518Y-106607332D01*
X107690796Y-106623810D01*
X107694856Y-106630127D01*
X107694857Y-106630129D01*
X107734394Y-106664387D01*
X107736982Y-106666796D01*
X107748406Y-106678220D01*
X107748412Y-106678225D01*
X107748417Y-106678229D01*
X107761338Y-106687900D01*
X107764090Y-106690118D01*
X107803627Y-106724377D01*
X107810456Y-106727495D01*
X107828657Y-106738294D01*
X107834669Y-106742795D01*
X107883691Y-106761079D01*
X107886942Y-106762426D01*
X107934543Y-106784165D01*
X107941977Y-106785233D01*
X107962484Y-106790467D01*
X107969517Y-106793091D01*
X108021711Y-106796823D01*
X108025177Y-106797195D01*
X108041201Y-106799500D01*
X108057358Y-106799500D01*
X108060890Y-106799626D01*
X108063844Y-106799837D01*
X108113073Y-106803358D01*
X108120410Y-106801761D01*
X108141453Y-106799500D01*
X110876678Y-106799500D01*
X110934869Y-106818407D01*
X110946682Y-106828496D01*
X111487518Y-107369332D01*
X111500796Y-107385810D01*
X111504856Y-107392127D01*
X111504857Y-107392129D01*
X111544394Y-107426387D01*
X111546982Y-107428796D01*
X111558407Y-107440221D01*
X111571345Y-107449906D01*
X111574097Y-107452124D01*
X111613624Y-107486375D01*
X111613625Y-107486375D01*
X111613627Y-107486377D01*
X111620454Y-107489495D01*
X111638651Y-107500291D01*
X111644669Y-107504796D01*
X111693697Y-107523081D01*
X111696941Y-107524425D01*
X111744543Y-107546165D01*
X111751978Y-107547233D01*
X111772484Y-107552468D01*
X111775251Y-107553500D01*
X111779517Y-107555091D01*
X111831729Y-107558825D01*
X111835196Y-107559198D01*
X111851201Y-107561500D01*
X111867348Y-107561500D01*
X111870881Y-107561626D01*
X111875871Y-107561982D01*
X111923073Y-107565359D01*
X111929470Y-107563967D01*
X111930410Y-107563763D01*
X111951456Y-107561500D01*
X112322437Y-107561500D01*
X112380628Y-107580407D01*
X112388087Y-107586398D01*
X112403760Y-107600283D01*
X112498182Y-107649840D01*
X112540921Y-107693625D01*
X112549761Y-107754168D01*
X112521326Y-107808345D01*
X112466478Y-107835461D01*
X112452174Y-107836500D01*
X111906570Y-107836500D01*
X111874127Y-107839052D01*
X111870402Y-107839346D01*
X111715606Y-107884319D01*
X111576858Y-107966373D01*
X111462873Y-108080358D01*
X111414062Y-108162895D01*
X111368166Y-108203358D01*
X111328848Y-108211500D01*
X109936197Y-108211500D01*
X109890188Y-108200159D01*
X109870070Y-108189600D01*
X109716692Y-108151796D01*
X109716689Y-108151796D01*
X109558719Y-108151796D01*
X109558716Y-108151796D01*
X109405339Y-108189599D01*
X109265462Y-108263014D01*
X109147219Y-108367767D01*
X109057484Y-108497772D01*
X109001467Y-108645478D01*
X109001466Y-108645479D01*
X108982426Y-108802294D01*
X108982426Y-108802297D01*
X109001466Y-108959112D01*
X109001467Y-108959114D01*
X109057484Y-109106819D01*
X109057485Y-109106820D01*
X109059543Y-109109802D01*
X109060192Y-109111979D01*
X109060267Y-109112121D01*
X109060239Y-109112135D01*
X109077036Y-109168433D01*
X109056726Y-109226149D01*
X109043714Y-109240139D01*
X108983518Y-109293467D01*
X108983517Y-109293469D01*
X108893780Y-109423476D01*
X108837763Y-109571182D01*
X108837762Y-109571183D01*
X108818722Y-109727998D01*
X108818722Y-109728001D01*
X108837762Y-109884816D01*
X108837763Y-109884818D01*
X108872079Y-109975302D01*
X108893780Y-110032523D01*
X108983515Y-110162528D01*
X108983516Y-110162529D01*
X108983517Y-110162530D01*
X109101760Y-110267283D01*
X109241635Y-110340696D01*
X109395015Y-110378500D01*
X109395016Y-110378500D01*
X109396976Y-110378983D01*
X109443288Y-110405102D01*
X109836518Y-110798332D01*
X109849796Y-110814810D01*
X109853856Y-110821127D01*
X109853857Y-110821129D01*
X109893394Y-110855387D01*
X109895982Y-110857796D01*
X109907407Y-110869221D01*
X109919252Y-110878088D01*
X109920345Y-110878906D01*
X109923097Y-110881124D01*
X109962624Y-110915375D01*
X109962625Y-110915375D01*
X109962627Y-110915377D01*
X109969454Y-110918495D01*
X109987651Y-110929291D01*
X109993669Y-110933796D01*
X110042697Y-110952081D01*
X110045941Y-110953425D01*
X110093543Y-110975165D01*
X110100978Y-110976233D01*
X110121484Y-110981468D01*
X110125308Y-110982894D01*
X110128517Y-110984091D01*
X110180729Y-110987825D01*
X110184196Y-110988198D01*
X110200201Y-110990500D01*
X110216348Y-110990500D01*
X110219881Y-110990626D01*
X110224871Y-110990982D01*
X110272073Y-110994359D01*
X110278470Y-110992967D01*
X110279410Y-110992763D01*
X110300456Y-110990500D01*
X111328848Y-110990500D01*
X111387039Y-111009407D01*
X111414060Y-111039103D01*
X111462874Y-111121643D01*
X111576857Y-111235626D01*
X111715606Y-111317681D01*
X111870402Y-111362654D01*
X111906565Y-111365500D01*
X112535434Y-111365499D01*
X112571598Y-111362654D01*
X112726394Y-111317681D01*
X112865143Y-111235626D01*
X112979126Y-111121643D01*
X113048287Y-111004695D01*
X113094182Y-110964235D01*
X113155096Y-110958476D01*
X113207761Y-110989622D01*
X113218709Y-111004690D01*
X113287874Y-111121643D01*
X113401857Y-111235626D01*
X113540606Y-111317681D01*
X113695402Y-111362654D01*
X113731565Y-111365500D01*
X114360434Y-111365499D01*
X114396598Y-111362654D01*
X114551394Y-111317681D01*
X114690143Y-111235626D01*
X114784890Y-111140878D01*
X114839404Y-111113102D01*
X114878581Y-111114759D01*
X114983015Y-111140500D01*
X114983018Y-111140500D01*
X115140982Y-111140500D01*
X115140985Y-111140500D01*
X115294365Y-111102696D01*
X115348244Y-111074417D01*
X115408557Y-111064115D01*
X115463405Y-111091230D01*
X115464258Y-111092072D01*
X117456518Y-113084332D01*
X117469796Y-113100810D01*
X117473856Y-113107127D01*
X117473857Y-113107129D01*
X117513394Y-113141387D01*
X117515982Y-113143796D01*
X117527407Y-113155221D01*
X117540345Y-113164906D01*
X117543097Y-113167124D01*
X117582624Y-113201375D01*
X117582625Y-113201375D01*
X117582627Y-113201377D01*
X117589454Y-113204495D01*
X117607651Y-113215291D01*
X117613669Y-113219796D01*
X117662697Y-113238081D01*
X117665941Y-113239425D01*
X117713543Y-113261165D01*
X117720978Y-113262233D01*
X117741484Y-113267468D01*
X117748517Y-113270091D01*
X117800729Y-113273825D01*
X117804196Y-113274198D01*
X117820201Y-113276500D01*
X117836348Y-113276500D01*
X117839881Y-113276626D01*
X117844871Y-113276982D01*
X117892073Y-113280359D01*
X117898470Y-113278967D01*
X117899410Y-113278763D01*
X117920456Y-113276500D01*
X123879437Y-113276500D01*
X123937628Y-113295407D01*
X123945087Y-113301398D01*
X123960760Y-113315283D01*
X124100635Y-113388696D01*
X124254015Y-113426500D01*
X124254018Y-113426500D01*
X124411982Y-113426500D01*
X124411985Y-113426500D01*
X124565365Y-113388696D01*
X124705240Y-113315283D01*
X124823483Y-113210530D01*
X124913220Y-113080523D01*
X124969237Y-112932818D01*
X124988278Y-112776000D01*
X124987581Y-112770262D01*
X124972858Y-112649003D01*
X124969237Y-112619182D01*
X124913220Y-112471477D01*
X124853869Y-112385492D01*
X124823484Y-112341471D01*
X124776673Y-112300000D01*
X124705240Y-112236717D01*
X124579682Y-112170818D01*
X124565364Y-112163303D01*
X124411987Y-112125500D01*
X124411985Y-112125500D01*
X124324487Y-112125500D01*
X124266296Y-112106593D01*
X124230332Y-112057093D01*
X124226736Y-112019989D01*
X124226278Y-112019989D01*
X124226278Y-112015262D01*
X124226210Y-112014561D01*
X124226278Y-112014001D01*
X124226278Y-112013998D01*
X124207712Y-111861094D01*
X124207237Y-111857182D01*
X124151220Y-111709477D01*
X124061483Y-111579470D01*
X123943240Y-111474717D01*
X123873302Y-111438010D01*
X123803364Y-111401303D01*
X123649987Y-111363500D01*
X123649985Y-111363500D01*
X123492015Y-111363500D01*
X123492012Y-111363500D01*
X123338635Y-111401303D01*
X123198758Y-111474718D01*
X123183087Y-111488602D01*
X123126993Y-111513038D01*
X123117437Y-111513500D01*
X120341563Y-111513500D01*
X120283372Y-111494593D01*
X120275913Y-111488602D01*
X120260241Y-111474718D01*
X120260240Y-111474717D01*
X120190302Y-111438010D01*
X120120364Y-111401303D01*
X119966987Y-111363500D01*
X119966985Y-111363500D01*
X119809015Y-111363500D01*
X119809012Y-111363500D01*
X119655635Y-111401303D01*
X119515758Y-111474718D01*
X119397515Y-111579471D01*
X119307780Y-111709476D01*
X119251763Y-111857182D01*
X119251762Y-111857183D01*
X119232722Y-112013998D01*
X119232722Y-112014001D01*
X119251004Y-112164567D01*
X119239249Y-112224612D01*
X119194445Y-112266281D01*
X119152726Y-112275500D01*
X118104322Y-112275500D01*
X118046131Y-112256593D01*
X118034318Y-112246504D01*
X116439318Y-110651504D01*
X116411541Y-110596987D01*
X116421112Y-110536555D01*
X116464377Y-110493290D01*
X116509322Y-110482500D01*
X128853544Y-110482500D01*
X128874590Y-110484763D01*
X128875830Y-110485032D01*
X128881927Y-110486359D01*
X128929412Y-110482962D01*
X128934119Y-110482626D01*
X128937652Y-110482500D01*
X128953799Y-110482500D01*
X128969799Y-110480199D01*
X128973272Y-110479824D01*
X129025483Y-110476091D01*
X129032515Y-110473467D01*
X129053022Y-110468233D01*
X129060457Y-110467165D01*
X129108049Y-110445429D01*
X129111295Y-110444084D01*
X129160331Y-110425796D01*
X129166341Y-110421296D01*
X129184549Y-110410492D01*
X129191373Y-110407377D01*
X129230917Y-110373110D01*
X129233642Y-110370914D01*
X129246593Y-110361221D01*
X129258042Y-110349770D01*
X129260579Y-110347408D01*
X129300143Y-110313128D01*
X129304202Y-110306811D01*
X129317477Y-110290335D01*
X136478317Y-103129496D01*
X136532835Y-103101719D01*
X136548322Y-103100500D01*
X144646437Y-103100500D01*
X144704628Y-103119407D01*
X144712087Y-103125398D01*
X144727760Y-103139283D01*
X144867635Y-103212696D01*
X145021015Y-103250500D01*
X145021018Y-103250500D01*
X145178982Y-103250500D01*
X145178985Y-103250500D01*
X145332365Y-103212696D01*
X145472240Y-103139283D01*
X145590483Y-103034530D01*
X145680220Y-102904523D01*
X145736237Y-102756818D01*
X145755278Y-102600000D01*
X145736237Y-102443182D01*
X145680220Y-102295477D01*
X145608567Y-102191669D01*
X145590484Y-102165471D01*
X145580023Y-102156203D01*
X145472240Y-102060717D01*
X145402302Y-102024010D01*
X145332364Y-101987303D01*
X145178987Y-101949500D01*
X145178985Y-101949500D01*
X145021015Y-101949500D01*
X145021012Y-101949500D01*
X144867635Y-101987303D01*
X144758934Y-102044355D01*
X144698622Y-102054656D01*
X144643773Y-102027539D01*
X144615339Y-101973362D01*
X144624180Y-101912819D01*
X144647275Y-101882593D01*
X144762483Y-101780530D01*
X144852220Y-101650523D01*
X144908237Y-101502818D01*
X144927278Y-101346000D01*
X144908237Y-101189182D01*
X144852220Y-101041477D01*
X144794122Y-100957307D01*
X144762484Y-100911471D01*
X144752023Y-100902203D01*
X144644240Y-100806717D01*
X144562329Y-100763726D01*
X144504364Y-100733303D01*
X144350987Y-100695500D01*
X144350985Y-100695500D01*
X144193015Y-100695500D01*
X144193012Y-100695500D01*
X144039635Y-100733303D01*
X143899758Y-100806718D01*
X143884087Y-100820602D01*
X143827993Y-100845038D01*
X143818437Y-100845500D01*
X135700456Y-100845500D01*
X135679410Y-100843237D01*
X135672074Y-100841641D01*
X135672073Y-100841641D01*
X135651874Y-100843085D01*
X135619881Y-100845374D01*
X135616348Y-100845500D01*
X135600200Y-100845500D01*
X135584212Y-100847798D01*
X135580700Y-100848176D01*
X135528517Y-100851908D01*
X135521471Y-100854536D01*
X135500985Y-100859764D01*
X135493547Y-100860834D01*
X135493544Y-100860834D01*
X135493543Y-100860835D01*
X135493542Y-100860835D01*
X135493540Y-100860836D01*
X135445959Y-100882565D01*
X135442695Y-100883917D01*
X135393671Y-100902202D01*
X135393669Y-100902203D01*
X135387646Y-100906712D01*
X135369463Y-100917500D01*
X135362626Y-100920622D01*
X135323097Y-100954874D01*
X135320348Y-100957089D01*
X135307407Y-100966778D01*
X135295986Y-100978199D01*
X135293401Y-100980606D01*
X135253859Y-101014868D01*
X135253856Y-101014872D01*
X135249793Y-101021194D01*
X135236519Y-101037665D01*
X127583682Y-108690504D01*
X127529165Y-108718281D01*
X127513678Y-108719500D01*
X127227322Y-108719500D01*
X127169131Y-108700593D01*
X127133167Y-108651093D01*
X127133167Y-108589907D01*
X127157318Y-108550496D01*
X135578318Y-100129496D01*
X135632835Y-100101719D01*
X135648322Y-100100500D01*
X144274070Y-100100500D01*
X144332261Y-100119407D01*
X144366635Y-100164391D01*
X144411786Y-100283445D01*
X144419780Y-100304523D01*
X144509515Y-100434528D01*
X144509516Y-100434529D01*
X144509517Y-100434530D01*
X144627760Y-100539283D01*
X144767635Y-100612696D01*
X144921015Y-100650500D01*
X144921018Y-100650500D01*
X145078982Y-100650500D01*
X145078985Y-100650500D01*
X145232365Y-100612696D01*
X145372240Y-100539283D01*
X145490483Y-100434530D01*
X145580220Y-100304523D01*
X145636237Y-100156818D01*
X145654602Y-100005565D01*
X145655278Y-100000001D01*
X145655278Y-99999998D01*
X145636237Y-99843183D01*
X145636237Y-99843182D01*
X145580220Y-99695477D01*
X145521247Y-99610039D01*
X145490484Y-99565471D01*
X145372241Y-99460718D01*
X145372240Y-99460717D01*
X145302302Y-99424010D01*
X145232364Y-99387303D01*
X145077023Y-99349016D01*
X145030711Y-99322897D01*
X144999480Y-99291666D01*
X144986199Y-99275183D01*
X144982144Y-99268873D01*
X144947995Y-99239283D01*
X144942598Y-99234606D01*
X144940026Y-99232211D01*
X144928595Y-99220781D01*
X144928593Y-99220779D01*
X144915636Y-99211080D01*
X144912917Y-99208888D01*
X144902660Y-99200000D01*
X157694435Y-99200000D01*
X157714632Y-99379257D01*
X157714633Y-99379261D01*
X157774211Y-99549522D01*
X157774211Y-99549523D01*
X157870181Y-99702258D01*
X157870184Y-99702262D01*
X157997738Y-99829816D01*
X158150478Y-99925789D01*
X158218657Y-99949646D01*
X158320738Y-99985366D01*
X158320742Y-99985367D01*
X158320745Y-99985368D01*
X158500000Y-100005565D01*
X158679255Y-99985368D01*
X158849522Y-99925789D01*
X159002262Y-99829816D01*
X159129816Y-99702262D01*
X159225789Y-99549522D01*
X159285368Y-99379255D01*
X159305565Y-99200000D01*
X159285368Y-99020745D01*
X159225789Y-98850478D01*
X159155920Y-98739283D01*
X159129818Y-98697741D01*
X159129817Y-98697740D01*
X159129816Y-98697738D01*
X159002262Y-98570184D01*
X159002259Y-98570182D01*
X159002258Y-98570181D01*
X158849523Y-98474211D01*
X158679261Y-98414633D01*
X158679257Y-98414632D01*
X158500000Y-98394435D01*
X158320742Y-98414632D01*
X158320738Y-98414633D01*
X158150477Y-98474211D01*
X158150476Y-98474211D01*
X157997741Y-98570181D01*
X157870181Y-98697741D01*
X157774211Y-98850476D01*
X157774211Y-98850477D01*
X157714633Y-99020738D01*
X157714632Y-99020742D01*
X157694435Y-99200000D01*
X144902660Y-99200000D01*
X144873373Y-99174623D01*
X144866538Y-99171501D01*
X144848348Y-99160708D01*
X144847293Y-99159918D01*
X144842331Y-99156204D01*
X144842328Y-99156203D01*
X144842327Y-99156202D01*
X144793314Y-99137921D01*
X144790049Y-99136569D01*
X144742458Y-99114835D01*
X144742454Y-99114834D01*
X144735014Y-99113764D01*
X144714520Y-99108533D01*
X144707482Y-99105908D01*
X144707483Y-99105908D01*
X144655301Y-99102176D01*
X144651788Y-99101798D01*
X144635800Y-99099500D01*
X144635799Y-99099500D01*
X144619652Y-99099500D01*
X144616119Y-99099374D01*
X144586240Y-99097237D01*
X144563927Y-99095641D01*
X144563926Y-99095641D01*
X144563925Y-99095641D01*
X144556590Y-99097237D01*
X144535544Y-99099500D01*
X135464456Y-99099500D01*
X135443410Y-99097237D01*
X135436074Y-99095641D01*
X135436073Y-99095641D01*
X135415874Y-99097085D01*
X135383881Y-99099374D01*
X135380348Y-99099500D01*
X135364200Y-99099500D01*
X135348212Y-99101798D01*
X135344700Y-99102176D01*
X135292517Y-99105908D01*
X135285471Y-99108536D01*
X135264985Y-99113764D01*
X135257547Y-99114834D01*
X135257544Y-99114834D01*
X135257543Y-99114835D01*
X135257542Y-99114835D01*
X135257540Y-99114836D01*
X135209959Y-99136565D01*
X135206695Y-99137917D01*
X135157671Y-99156202D01*
X135157669Y-99156203D01*
X135151646Y-99160712D01*
X135133463Y-99171500D01*
X135126626Y-99174622D01*
X135087097Y-99208874D01*
X135084348Y-99211089D01*
X135071407Y-99220778D01*
X135059986Y-99232199D01*
X135057401Y-99234606D01*
X135017859Y-99268868D01*
X135017856Y-99268872D01*
X135013793Y-99275194D01*
X135000519Y-99291665D01*
X126363682Y-107928504D01*
X126309165Y-107956281D01*
X126293678Y-107957500D01*
X122082520Y-107957500D01*
X122024329Y-107938593D01*
X121994859Y-107904506D01*
X121992220Y-107899478D01*
X121992220Y-107899477D01*
X121902483Y-107769470D01*
X121784240Y-107664717D01*
X121714302Y-107628010D01*
X121644364Y-107591303D01*
X121490987Y-107553500D01*
X121490985Y-107553500D01*
X121333015Y-107553500D01*
X121333012Y-107553500D01*
X121179635Y-107591303D01*
X121039758Y-107664718D01*
X120921515Y-107769471D01*
X120831780Y-107899476D01*
X120775763Y-108047182D01*
X120775762Y-108047183D01*
X120756722Y-108203998D01*
X120756722Y-108204001D01*
X120775762Y-108360816D01*
X120775763Y-108360818D01*
X120831780Y-108508523D01*
X120859580Y-108548799D01*
X120870254Y-108564262D01*
X120887749Y-108622893D01*
X120867441Y-108680609D01*
X120817086Y-108715366D01*
X120788778Y-108719500D01*
X115033000Y-108719500D01*
X114974809Y-108700593D01*
X114938845Y-108651093D01*
X114934000Y-108620500D01*
X114933999Y-108410070D01*
X114933999Y-108410065D01*
X114931154Y-108373902D01*
X114886181Y-108219106D01*
X114804126Y-108080357D01*
X114690143Y-107966374D01*
X114551394Y-107884319D01*
X114396598Y-107839346D01*
X114396594Y-107839345D01*
X114375183Y-107837660D01*
X114360435Y-107836500D01*
X114360429Y-107836500D01*
X113731570Y-107836500D01*
X113699127Y-107839052D01*
X113695402Y-107839346D01*
X113540606Y-107884319D01*
X113401858Y-107966373D01*
X113287873Y-108080358D01*
X113218714Y-108197302D01*
X113172818Y-108237765D01*
X113111904Y-108243523D01*
X113059239Y-108212377D01*
X113048286Y-108197302D01*
X113043731Y-108189600D01*
X112979126Y-108080357D01*
X112865143Y-107966374D01*
X112745659Y-107895712D01*
X112705199Y-107849818D01*
X112699440Y-107788904D01*
X112730586Y-107736239D01*
X112786739Y-107711939D01*
X112796056Y-107711500D01*
X112854982Y-107711500D01*
X112854985Y-107711500D01*
X113008365Y-107673696D01*
X113148240Y-107600283D01*
X113183550Y-107569001D01*
X115041722Y-107569001D01*
X115060762Y-107725816D01*
X115060763Y-107725818D01*
X115103818Y-107839345D01*
X115116780Y-107873523D01*
X115206515Y-108003528D01*
X115206516Y-108003529D01*
X115206517Y-108003530D01*
X115324760Y-108108283D01*
X115464635Y-108181696D01*
X115618015Y-108219500D01*
X115618018Y-108219500D01*
X115775982Y-108219500D01*
X115775985Y-108219500D01*
X115929365Y-108181696D01*
X116069240Y-108108283D01*
X116084912Y-108094398D01*
X116141007Y-108069962D01*
X116150563Y-108069500D01*
X119950544Y-108069500D01*
X119971590Y-108071763D01*
X119972830Y-108072032D01*
X119978927Y-108073359D01*
X120026412Y-108069962D01*
X120031119Y-108069626D01*
X120034652Y-108069500D01*
X120050799Y-108069500D01*
X120066799Y-108067199D01*
X120070272Y-108066824D01*
X120122483Y-108063091D01*
X120129515Y-108060467D01*
X120150022Y-108055233D01*
X120157457Y-108054165D01*
X120205049Y-108032429D01*
X120208295Y-108031084D01*
X120257331Y-108012796D01*
X120263341Y-108008296D01*
X120281549Y-107997492D01*
X120288373Y-107994377D01*
X120327917Y-107960110D01*
X120330642Y-107957914D01*
X120343593Y-107948221D01*
X120355042Y-107936770D01*
X120357579Y-107934408D01*
X120397143Y-107900128D01*
X120401202Y-107893811D01*
X120414477Y-107877335D01*
X120934713Y-107357100D01*
X120981024Y-107330983D01*
X120982984Y-107330500D01*
X120982985Y-107330500D01*
X121136365Y-107292696D01*
X121276240Y-107219283D01*
X121394483Y-107114530D01*
X121484220Y-106984523D01*
X121540237Y-106836818D01*
X121556300Y-106704523D01*
X121559278Y-106680001D01*
X121559278Y-106679998D01*
X121544321Y-106556816D01*
X121540237Y-106523182D01*
X121484220Y-106375477D01*
X121394483Y-106245470D01*
X121276240Y-106140717D01*
X121206302Y-106104010D01*
X121136364Y-106067303D01*
X120982987Y-106029500D01*
X120982985Y-106029500D01*
X120825015Y-106029500D01*
X120825012Y-106029500D01*
X120671635Y-106067303D01*
X120531758Y-106140718D01*
X120413515Y-106245471D01*
X120323780Y-106375476D01*
X120267763Y-106523182D01*
X120267763Y-106523183D01*
X120260100Y-106586290D01*
X120234316Y-106641777D01*
X120231826Y-106644359D01*
X119836683Y-107039503D01*
X119782166Y-107067281D01*
X119766679Y-107068500D01*
X117209695Y-107068500D01*
X117151504Y-107049593D01*
X117115540Y-107000093D01*
X117111417Y-106957568D01*
X117114278Y-106934002D01*
X117114278Y-106933998D01*
X117098415Y-106803357D01*
X117095237Y-106777182D01*
X117039220Y-106629477D01*
X117037145Y-106626471D01*
X116977024Y-106539370D01*
X116959500Y-106483135D01*
X116959500Y-105408534D01*
X116978407Y-105350343D01*
X116986717Y-105341190D01*
X116986514Y-105341010D01*
X116990478Y-105336534D01*
X116990483Y-105336530D01*
X117080220Y-105206523D01*
X117136237Y-105058818D01*
X117153596Y-104915856D01*
X117155278Y-104902001D01*
X117155278Y-104901998D01*
X117142583Y-104797454D01*
X117136237Y-104745182D01*
X117080220Y-104597477D01*
X117009486Y-104495000D01*
X116990484Y-104467471D01*
X116972029Y-104451121D01*
X116872240Y-104362717D01*
X116759977Y-104303796D01*
X116732364Y-104289303D01*
X116578987Y-104251500D01*
X116578985Y-104251500D01*
X116421015Y-104251500D01*
X116421012Y-104251500D01*
X116267635Y-104289303D01*
X116127758Y-104362718D01*
X116009515Y-104467471D01*
X115919780Y-104597476D01*
X115863763Y-104745182D01*
X115863762Y-104745183D01*
X115844722Y-104901998D01*
X115844722Y-104902001D01*
X115863762Y-105058816D01*
X115863763Y-105058818D01*
X115901321Y-105157850D01*
X115919780Y-105206523D01*
X115940975Y-105237229D01*
X115958499Y-105293467D01*
X115958500Y-106483132D01*
X115940976Y-106539370D01*
X115878780Y-106629476D01*
X115822763Y-106777182D01*
X115822762Y-106777183D01*
X115818071Y-106815817D01*
X115816533Y-106828496D01*
X115816176Y-106831433D01*
X115790393Y-106886920D01*
X115736919Y-106916656D01*
X115717898Y-106918500D01*
X115618012Y-106918500D01*
X115464635Y-106956303D01*
X115324758Y-107029718D01*
X115206515Y-107134471D01*
X115116780Y-107264476D01*
X115060763Y-107412182D01*
X115060762Y-107412183D01*
X115041722Y-107568998D01*
X115041722Y-107569001D01*
X113183550Y-107569001D01*
X113266483Y-107495530D01*
X113356220Y-107365523D01*
X113412237Y-107217818D01*
X113429108Y-107078872D01*
X113431278Y-107061001D01*
X113431278Y-107060998D01*
X113415858Y-106934002D01*
X113412237Y-106904182D01*
X113356220Y-106756477D01*
X113269008Y-106630128D01*
X113266484Y-106626471D01*
X113148241Y-106521718D01*
X113148240Y-106521717D01*
X113091230Y-106491795D01*
X113048492Y-106448011D01*
X113038961Y-106392203D01*
X113050278Y-106299001D01*
X113050278Y-106298998D01*
X113031237Y-106142183D01*
X113031237Y-106142182D01*
X112975220Y-105994477D01*
X112930351Y-105929473D01*
X112885484Y-105864471D01*
X112830609Y-105815856D01*
X112767240Y-105759717D01*
X112693702Y-105721121D01*
X112627364Y-105686303D01*
X112473987Y-105648500D01*
X112473985Y-105648500D01*
X112368610Y-105648500D01*
X112310419Y-105629593D01*
X112298606Y-105619504D01*
X108877593Y-102198491D01*
X108849816Y-102143974D01*
X108859387Y-102083542D01*
X108877591Y-102058486D01*
X108960816Y-101975262D01*
X109017006Y-101885836D01*
X109063973Y-101846625D01*
X109107892Y-101839760D01*
X109112516Y-101840090D01*
X109112517Y-101840091D01*
X109164732Y-101843825D01*
X109168196Y-101844198D01*
X109184201Y-101846500D01*
X109200348Y-101846500D01*
X109203881Y-101846626D01*
X109208871Y-101846982D01*
X109256073Y-101850359D01*
X109262470Y-101848967D01*
X109263410Y-101848763D01*
X109284456Y-101846500D01*
X127308437Y-101846500D01*
X127366628Y-101865407D01*
X127374087Y-101871398D01*
X127389760Y-101885283D01*
X127529635Y-101958696D01*
X127683015Y-101996500D01*
X127683018Y-101996500D01*
X127840982Y-101996500D01*
X127840985Y-101996500D01*
X127994365Y-101958696D01*
X128134240Y-101885283D01*
X128252483Y-101780530D01*
X128342220Y-101650523D01*
X128398237Y-101502818D01*
X128417278Y-101346000D01*
X128398237Y-101189182D01*
X128342220Y-101041477D01*
X128284122Y-100957307D01*
X128252484Y-100911471D01*
X128242023Y-100902203D01*
X128134240Y-100806717D01*
X128052329Y-100763726D01*
X127994364Y-100733303D01*
X127840987Y-100695500D01*
X127840985Y-100695500D01*
X127683015Y-100695500D01*
X127683012Y-100695500D01*
X127529635Y-100733303D01*
X127389758Y-100806718D01*
X127374087Y-100820602D01*
X127317993Y-100845038D01*
X127308437Y-100845500D01*
X125001322Y-100845500D01*
X124943131Y-100826593D01*
X124907167Y-100777093D01*
X124907167Y-100715907D01*
X124931318Y-100676496D01*
X125564769Y-100043045D01*
X126230713Y-99377100D01*
X126277024Y-99350983D01*
X126278984Y-99350500D01*
X126278985Y-99350500D01*
X126432365Y-99312696D01*
X126572240Y-99239283D01*
X126690483Y-99134530D01*
X126780220Y-99004523D01*
X126836237Y-98856818D01*
X126840670Y-98820301D01*
X126866452Y-98764816D01*
X126919926Y-98735080D01*
X126962639Y-98736111D01*
X127021015Y-98750500D01*
X127021018Y-98750500D01*
X127178982Y-98750500D01*
X127178985Y-98750500D01*
X127332365Y-98712696D01*
X127472240Y-98639283D01*
X127590483Y-98534530D01*
X127680220Y-98404523D01*
X127736237Y-98256818D01*
X127755278Y-98100000D01*
X127736237Y-97943182D01*
X127680220Y-97795477D01*
X127590483Y-97665470D01*
X127472240Y-97560717D01*
X127355151Y-97499263D01*
X127332364Y-97487303D01*
X127178987Y-97449500D01*
X127178985Y-97449500D01*
X127021015Y-97449500D01*
X127021011Y-97449500D01*
X126968457Y-97462454D01*
X126907432Y-97458022D01*
X126860667Y-97418567D01*
X126846025Y-97359159D01*
X126846487Y-97354397D01*
X126855278Y-97281999D01*
X126855278Y-97281998D01*
X126836237Y-97125183D01*
X126836237Y-97125182D01*
X126780220Y-96977477D01*
X126705328Y-96868977D01*
X126690484Y-96847471D01*
X126679006Y-96837302D01*
X126572240Y-96742717D01*
X126502302Y-96706010D01*
X126432364Y-96669303D01*
X126278987Y-96631500D01*
X126278985Y-96631500D01*
X126121015Y-96631500D01*
X126121012Y-96631500D01*
X125967635Y-96669303D01*
X125827758Y-96742718D01*
X125812087Y-96756602D01*
X125755993Y-96781038D01*
X125746437Y-96781500D01*
X125032453Y-96781500D01*
X125011410Y-96779238D01*
X125004073Y-96777642D01*
X125004072Y-96777642D01*
X124951890Y-96781374D01*
X124948358Y-96781500D01*
X124932198Y-96781500D01*
X124916201Y-96783799D01*
X124912690Y-96784177D01*
X124860515Y-96787908D01*
X124853476Y-96790534D01*
X124832986Y-96795764D01*
X124825543Y-96796834D01*
X124825542Y-96796835D01*
X124777943Y-96818571D01*
X124774681Y-96819923D01*
X124725670Y-96838204D01*
X124725664Y-96838208D01*
X124719649Y-96842710D01*
X124701463Y-96853500D01*
X124694628Y-96856622D01*
X124694625Y-96856623D01*
X124655083Y-96890885D01*
X124652334Y-96893101D01*
X124639406Y-96902779D01*
X124627986Y-96914199D01*
X124625401Y-96916606D01*
X124585859Y-96950868D01*
X124585856Y-96950872D01*
X124581793Y-96957194D01*
X124568519Y-96973665D01*
X122249682Y-99292504D01*
X122195165Y-99320281D01*
X122179678Y-99321500D01*
X113170321Y-99321500D01*
X113112130Y-99302593D01*
X113100317Y-99292504D01*
X111026314Y-97218500D01*
X118637935Y-97218500D01*
X118658132Y-97397757D01*
X118658133Y-97397761D01*
X118717711Y-97568022D01*
X118717711Y-97568023D01*
X118778942Y-97665471D01*
X118813684Y-97720762D01*
X118941238Y-97848316D01*
X118941240Y-97848317D01*
X118941241Y-97848318D01*
X119092217Y-97943183D01*
X119093978Y-97944289D01*
X119162157Y-97968146D01*
X119264238Y-98003866D01*
X119264242Y-98003867D01*
X119264245Y-98003868D01*
X119443500Y-98024065D01*
X119622755Y-98003868D01*
X119793022Y-97944289D01*
X119945762Y-97848316D01*
X120073316Y-97720762D01*
X120169289Y-97568022D01*
X120228868Y-97397755D01*
X120249065Y-97218500D01*
X120228868Y-97039245D01*
X120169289Y-96868978D01*
X120168098Y-96867083D01*
X120073318Y-96716241D01*
X120073317Y-96716240D01*
X120073316Y-96716238D01*
X119945762Y-96588684D01*
X119945759Y-96588682D01*
X119945758Y-96588681D01*
X119793023Y-96492711D01*
X119622761Y-96433133D01*
X119622757Y-96433132D01*
X119443500Y-96412935D01*
X119264242Y-96433132D01*
X119264238Y-96433133D01*
X119093977Y-96492711D01*
X119093976Y-96492711D01*
X118941241Y-96588681D01*
X118813681Y-96716241D01*
X118717711Y-96868976D01*
X118717711Y-96868977D01*
X118658133Y-97039238D01*
X118658132Y-97039242D01*
X118637935Y-97218500D01*
X111026314Y-97218500D01*
X109029496Y-95221682D01*
X109001719Y-95167165D01*
X109000500Y-95151678D01*
X109000500Y-94500000D01*
X110794435Y-94500000D01*
X110814632Y-94679257D01*
X110814633Y-94679261D01*
X110874211Y-94849522D01*
X110874211Y-94849523D01*
X110968811Y-95000077D01*
X110970184Y-95002262D01*
X111097738Y-95129816D01*
X111097740Y-95129817D01*
X111097741Y-95129818D01*
X111243941Y-95221682D01*
X111250478Y-95225789D01*
X111318657Y-95249646D01*
X111420738Y-95285366D01*
X111420742Y-95285367D01*
X111420745Y-95285368D01*
X111600000Y-95305565D01*
X111779255Y-95285368D01*
X111949522Y-95225789D01*
X112102262Y-95129816D01*
X112160578Y-95071500D01*
X118522935Y-95071500D01*
X118543132Y-95250757D01*
X118543133Y-95250761D01*
X118602711Y-95421022D01*
X118602711Y-95421023D01*
X118698681Y-95573758D01*
X118698684Y-95573762D01*
X118826238Y-95701316D01*
X118826240Y-95701317D01*
X118826241Y-95701318D01*
X118907311Y-95752258D01*
X118978978Y-95797289D01*
X119010483Y-95808313D01*
X119149238Y-95856866D01*
X119149242Y-95856867D01*
X119149245Y-95856868D01*
X119328500Y-95877065D01*
X119507755Y-95856868D01*
X119678022Y-95797289D01*
X119830762Y-95701316D01*
X119958316Y-95573762D01*
X120054289Y-95421022D01*
X120113868Y-95250755D01*
X120134065Y-95071500D01*
X120113868Y-94892245D01*
X120054289Y-94721978D01*
X120041691Y-94701929D01*
X119958318Y-94569241D01*
X119958317Y-94569240D01*
X119958316Y-94569238D01*
X119830762Y-94441684D01*
X119830759Y-94441682D01*
X119830758Y-94441681D01*
X119678023Y-94345711D01*
X119507761Y-94286133D01*
X119507757Y-94286132D01*
X119328500Y-94265935D01*
X119149242Y-94286132D01*
X119149238Y-94286133D01*
X118978977Y-94345711D01*
X118978976Y-94345711D01*
X118826241Y-94441681D01*
X118698681Y-94569241D01*
X118602711Y-94721976D01*
X118602711Y-94721977D01*
X118543133Y-94892238D01*
X118543132Y-94892242D01*
X118522935Y-95071500D01*
X112160578Y-95071500D01*
X112229816Y-95002262D01*
X112325789Y-94849522D01*
X112385368Y-94679255D01*
X112405565Y-94500000D01*
X112385368Y-94320745D01*
X112377730Y-94298918D01*
X112347056Y-94211257D01*
X112325789Y-94150478D01*
X112292856Y-94098066D01*
X112229818Y-93997741D01*
X112229817Y-93997740D01*
X112229816Y-93997738D01*
X112102262Y-93870184D01*
X112102259Y-93870182D01*
X112102258Y-93870181D01*
X111949523Y-93774211D01*
X111779261Y-93714633D01*
X111779257Y-93714632D01*
X111600000Y-93694435D01*
X111420742Y-93714632D01*
X111420738Y-93714633D01*
X111250477Y-93774211D01*
X111250476Y-93774211D01*
X111097741Y-93870181D01*
X110970181Y-93997741D01*
X110874211Y-94150476D01*
X110874211Y-94150477D01*
X110814633Y-94320738D01*
X110814632Y-94320742D01*
X110794435Y-94500000D01*
X109000500Y-94500000D01*
X109000500Y-90906003D01*
X118256843Y-90906003D01*
X118277429Y-91141313D01*
X118338569Y-91369489D01*
X118438399Y-91583577D01*
X118526193Y-91708961D01*
X119185114Y-91050039D01*
X119217887Y-91133541D01*
X119302465Y-91239599D01*
X119414547Y-91316016D01*
X119468258Y-91332583D01*
X118809037Y-91991805D01*
X118934422Y-92079600D01*
X119148510Y-92179430D01*
X119376686Y-92240570D01*
X119611997Y-92261157D01*
X119612003Y-92261157D01*
X119847313Y-92240570D01*
X120075489Y-92179430D01*
X120289579Y-92079599D01*
X120289580Y-92079599D01*
X120414961Y-91991805D01*
X119758208Y-91335052D01*
X119868357Y-91282007D01*
X119967798Y-91189740D01*
X120035625Y-91072260D01*
X120040359Y-91051515D01*
X120697805Y-91708961D01*
X120785596Y-91583583D01*
X120785599Y-91583579D01*
X120791996Y-91569860D01*
X120833722Y-91525109D01*
X120893783Y-91513431D01*
X120949237Y-91539286D01*
X120971447Y-91569853D01*
X120977963Y-91583827D01*
X121107024Y-91768146D01*
X121113505Y-91777401D01*
X121280599Y-91944495D01*
X121280602Y-91944497D01*
X121280603Y-91944498D01*
X121432284Y-92050706D01*
X121469106Y-92099571D01*
X121474500Y-92131802D01*
X121474500Y-93582223D01*
X121455593Y-93640414D01*
X121445504Y-93652226D01*
X121329375Y-93768355D01*
X121247319Y-93907105D01*
X121202346Y-94061901D01*
X121202345Y-94061905D01*
X121199500Y-94098070D01*
X121199500Y-94701929D01*
X121201078Y-94721976D01*
X121202346Y-94738098D01*
X121247319Y-94892894D01*
X121329374Y-95031643D01*
X121443357Y-95145626D01*
X121582106Y-95227681D01*
X121736902Y-95272654D01*
X121773065Y-95275500D01*
X122401934Y-95275499D01*
X122438098Y-95272654D01*
X122592894Y-95227681D01*
X122731643Y-95145626D01*
X122845626Y-95031643D01*
X122855377Y-95015153D01*
X122901271Y-94974691D01*
X122962185Y-94968932D01*
X123014851Y-95000077D01*
X123039151Y-95056229D01*
X123038969Y-95076629D01*
X123032976Y-95129818D01*
X123019436Y-95249995D01*
X123019435Y-95250000D01*
X123022308Y-95275499D01*
X123039632Y-95429257D01*
X123039633Y-95429261D01*
X123099211Y-95599522D01*
X123099211Y-95599523D01*
X123195181Y-95752258D01*
X123195184Y-95752262D01*
X123322738Y-95879816D01*
X123322740Y-95879817D01*
X123322741Y-95879818D01*
X123439473Y-95953166D01*
X123475478Y-95975789D01*
X123543657Y-95999646D01*
X123645738Y-96035366D01*
X123645742Y-96035367D01*
X123645745Y-96035368D01*
X123825000Y-96055565D01*
X124004255Y-96035368D01*
X124174522Y-95975789D01*
X124327262Y-95879816D01*
X124454816Y-95752262D01*
X124550789Y-95599522D01*
X124610368Y-95429255D01*
X124630565Y-95250000D01*
X124630565Y-95249996D01*
X124630565Y-95249995D01*
X124617848Y-95137135D01*
X124630120Y-95077193D01*
X124646222Y-95056046D01*
X124670626Y-95031643D01*
X124704653Y-94974104D01*
X124750549Y-94933642D01*
X124789867Y-94925500D01*
X125010133Y-94925500D01*
X125068324Y-94944407D01*
X125095345Y-94974103D01*
X125129374Y-95031643D01*
X125243357Y-95145626D01*
X125382106Y-95227681D01*
X125536902Y-95272654D01*
X125573065Y-95275500D01*
X125891321Y-95275499D01*
X125949511Y-95294406D01*
X125961325Y-95304495D01*
X126821466Y-96164636D01*
X126822641Y-96165852D01*
X126847463Y-96192429D01*
X126865245Y-96211469D01*
X126901769Y-96233679D01*
X126905957Y-96236530D01*
X126926054Y-96251770D01*
X126940025Y-96262364D01*
X126940026Y-96262364D01*
X126940027Y-96262365D01*
X126957499Y-96269255D01*
X126972618Y-96276764D01*
X126988668Y-96286524D01*
X126988670Y-96286525D01*
X126988672Y-96286526D01*
X127029837Y-96298059D01*
X127034630Y-96299671D01*
X127074411Y-96315359D01*
X127093091Y-96317279D01*
X127109682Y-96320432D01*
X127127768Y-96325499D01*
X127127770Y-96325500D01*
X127127772Y-96325500D01*
X127170522Y-96325500D01*
X127175586Y-96325760D01*
X127187059Y-96326939D01*
X127218110Y-96330131D01*
X127233316Y-96327509D01*
X127236625Y-96326939D01*
X127253444Y-96325500D01*
X130190179Y-96325500D01*
X130191860Y-96325528D01*
X130254245Y-96327660D01*
X130295777Y-96317538D01*
X130300740Y-96316594D01*
X130343111Y-96310771D01*
X130360355Y-96303280D01*
X130376343Y-96297904D01*
X130394594Y-96293457D01*
X130431855Y-96272505D01*
X130436385Y-96270255D01*
X130475609Y-96253219D01*
X130490184Y-96241360D01*
X130504136Y-96231864D01*
X130520512Y-96222658D01*
X130550749Y-96192419D01*
X130554493Y-96189040D01*
X130587665Y-96162054D01*
X130598499Y-96146704D01*
X130609363Y-96133805D01*
X131438673Y-95304494D01*
X131493190Y-95276718D01*
X131508677Y-95275499D01*
X131826929Y-95275499D01*
X131826934Y-95275499D01*
X131863098Y-95272654D01*
X132017894Y-95227681D01*
X132156643Y-95145626D01*
X132270626Y-95031643D01*
X132304653Y-94974104D01*
X132350549Y-94933642D01*
X132389867Y-94925500D01*
X132610133Y-94925500D01*
X132668324Y-94944407D01*
X132695345Y-94974103D01*
X132729374Y-95031643D01*
X132843357Y-95145626D01*
X132982106Y-95227681D01*
X133136902Y-95272654D01*
X133173065Y-95275500D01*
X133801934Y-95275499D01*
X133838098Y-95272654D01*
X133992894Y-95227681D01*
X134131643Y-95145626D01*
X134245626Y-95031643D01*
X134314787Y-94914695D01*
X134360682Y-94874235D01*
X134421596Y-94868476D01*
X134474261Y-94899622D01*
X134485209Y-94914690D01*
X134554374Y-95031643D01*
X134668357Y-95145626D01*
X134807106Y-95227681D01*
X134961902Y-95272654D01*
X134998065Y-95275500D01*
X135626934Y-95275499D01*
X135663098Y-95272654D01*
X135817894Y-95227681D01*
X135956643Y-95145626D01*
X136070626Y-95031643D01*
X136152681Y-94892894D01*
X136197654Y-94738098D01*
X136200500Y-94701935D01*
X136200499Y-94098066D01*
X136197654Y-94061902D01*
X136152681Y-93907106D01*
X136070626Y-93768357D01*
X136016901Y-93714632D01*
X135954496Y-93652226D01*
X135926719Y-93597710D01*
X135925500Y-93582223D01*
X135925500Y-93150000D01*
X165044435Y-93150000D01*
X165064632Y-93329257D01*
X165064633Y-93329261D01*
X165124211Y-93499522D01*
X165124211Y-93499523D01*
X165220181Y-93652258D01*
X165220184Y-93652262D01*
X165347738Y-93779816D01*
X165347740Y-93779817D01*
X165347741Y-93779818D01*
X165498426Y-93874500D01*
X165500478Y-93875789D01*
X165527665Y-93885302D01*
X165670738Y-93935366D01*
X165670742Y-93935367D01*
X165670745Y-93935368D01*
X165850000Y-93955565D01*
X166029255Y-93935368D01*
X166199522Y-93875789D01*
X166352262Y-93779816D01*
X166479816Y-93652262D01*
X166575789Y-93499522D01*
X166635368Y-93329255D01*
X166655565Y-93150000D01*
X166635368Y-92970745D01*
X166630735Y-92957506D01*
X166605896Y-92886519D01*
X166575789Y-92800478D01*
X166539429Y-92742612D01*
X166479818Y-92647741D01*
X166479817Y-92647740D01*
X166479816Y-92647738D01*
X166352262Y-92520184D01*
X166352259Y-92520182D01*
X166352258Y-92520181D01*
X166199523Y-92424211D01*
X166029261Y-92364633D01*
X166029257Y-92364632D01*
X165850000Y-92344435D01*
X165670742Y-92364632D01*
X165670738Y-92364633D01*
X165500477Y-92424211D01*
X165500476Y-92424211D01*
X165347741Y-92520181D01*
X165220181Y-92647741D01*
X165124211Y-92800476D01*
X165124211Y-92800477D01*
X165064633Y-92970738D01*
X165064632Y-92970742D01*
X165044435Y-93150000D01*
X135925500Y-93150000D01*
X135925500Y-91400001D01*
X163044722Y-91400001D01*
X163063762Y-91556816D01*
X163063763Y-91556818D01*
X163102937Y-91660112D01*
X163119780Y-91704523D01*
X163209515Y-91834528D01*
X163209516Y-91834529D01*
X163209517Y-91834530D01*
X163327760Y-91939283D01*
X163467635Y-92012696D01*
X163621015Y-92050500D01*
X163621018Y-92050500D01*
X163778982Y-92050500D01*
X163778985Y-92050500D01*
X163932365Y-92012696D01*
X164072240Y-91939283D01*
X164190483Y-91834530D01*
X164280220Y-91704523D01*
X164336237Y-91556818D01*
X164355278Y-91400000D01*
X164352060Y-91373500D01*
X164336237Y-91243183D01*
X164336237Y-91243182D01*
X164280220Y-91095477D01*
X164190483Y-90965470D01*
X164072240Y-90860717D01*
X163964605Y-90804225D01*
X163932364Y-90787303D01*
X163778987Y-90749500D01*
X163778985Y-90749500D01*
X163621015Y-90749500D01*
X163621012Y-90749500D01*
X163467635Y-90787303D01*
X163327758Y-90860718D01*
X163209515Y-90965471D01*
X163119780Y-91095476D01*
X163063763Y-91243182D01*
X163063762Y-91243183D01*
X163044722Y-91399998D01*
X163044722Y-91400001D01*
X135925500Y-91400001D01*
X135925500Y-90909820D01*
X135925529Y-90908130D01*
X135925732Y-90902182D01*
X135927660Y-90845755D01*
X135917534Y-90804206D01*
X135916594Y-90799258D01*
X135910771Y-90756889D01*
X135903280Y-90739645D01*
X135897903Y-90723654D01*
X135893457Y-90705406D01*
X135872510Y-90668152D01*
X135870253Y-90663609D01*
X135853221Y-90624395D01*
X135853217Y-90624388D01*
X135841362Y-90609817D01*
X135831860Y-90595856D01*
X135822658Y-90579490D01*
X135822657Y-90579488D01*
X135807542Y-90564373D01*
X135792427Y-90549257D01*
X135789029Y-90545492D01*
X135785188Y-90540771D01*
X135762054Y-90512335D01*
X135762053Y-90512334D01*
X135762052Y-90512333D01*
X135746706Y-90501500D01*
X135733794Y-90490625D01*
X133743170Y-88500000D01*
X157894435Y-88500000D01*
X157914632Y-88679257D01*
X157914633Y-88679261D01*
X157974211Y-88849522D01*
X157974211Y-88849523D01*
X158052440Y-88974023D01*
X158070184Y-89002262D01*
X158197738Y-89129816D01*
X158350478Y-89225789D01*
X158418657Y-89249646D01*
X158520738Y-89285366D01*
X158520742Y-89285367D01*
X158520745Y-89285368D01*
X158700000Y-89305565D01*
X158879255Y-89285368D01*
X159049522Y-89225789D01*
X159202262Y-89129816D01*
X159329816Y-89002262D01*
X159425789Y-88849522D01*
X159485368Y-88679255D01*
X159505565Y-88500000D01*
X159485368Y-88320745D01*
X159425789Y-88150478D01*
X159335832Y-88007313D01*
X159329818Y-87997741D01*
X159329817Y-87997740D01*
X159329816Y-87997738D01*
X159202262Y-87870184D01*
X159202259Y-87870182D01*
X159202258Y-87870181D01*
X159049523Y-87774211D01*
X158879261Y-87714633D01*
X158879257Y-87714632D01*
X158700000Y-87694435D01*
X158520742Y-87714632D01*
X158520738Y-87714633D01*
X158350477Y-87774211D01*
X158350476Y-87774211D01*
X158197741Y-87870181D01*
X158070181Y-87997741D01*
X157974211Y-88150476D01*
X157974211Y-88150477D01*
X157914633Y-88320738D01*
X157914632Y-88320742D01*
X157894435Y-88500000D01*
X133743170Y-88500000D01*
X133244532Y-88001362D01*
X133243357Y-88000146D01*
X133200754Y-87954530D01*
X133164232Y-87932321D01*
X133160039Y-87929467D01*
X133125973Y-87903634D01*
X133108492Y-87896740D01*
X133093381Y-87889235D01*
X133077325Y-87879472D01*
X133036166Y-87867940D01*
X133031360Y-87866324D01*
X132991589Y-87850641D01*
X132991592Y-87850641D01*
X132979628Y-87849411D01*
X132972892Y-87848718D01*
X132956314Y-87845567D01*
X132938228Y-87840500D01*
X132895478Y-87840500D01*
X132890414Y-87840240D01*
X132856061Y-87836709D01*
X132847890Y-87835869D01*
X132847889Y-87835869D01*
X132829375Y-87839061D01*
X132812556Y-87840500D01*
X129951499Y-87840500D01*
X129893308Y-87821593D01*
X129857344Y-87772093D01*
X129852499Y-87741500D01*
X129852499Y-87566554D01*
X129852499Y-87384482D01*
X129844038Y-87331054D01*
X129837647Y-87290700D01*
X129837646Y-87290698D01*
X129837646Y-87290696D01*
X129780050Y-87177658D01*
X129690342Y-87087950D01*
X129577304Y-87030354D01*
X129577305Y-87030354D01*
X129483521Y-87015500D01*
X127520478Y-87015500D01*
X127520476Y-87015501D01*
X127426700Y-87030352D01*
X127426695Y-87030354D01*
X127313659Y-87087949D01*
X127223949Y-87177659D01*
X127166354Y-87290695D01*
X127151500Y-87384478D01*
X127151500Y-87406597D01*
X127132593Y-87464788D01*
X127083093Y-87500752D01*
X127021907Y-87500752D01*
X126982498Y-87476602D01*
X126833401Y-87327505D01*
X126833397Y-87327502D01*
X126833396Y-87327501D01*
X126688217Y-87225846D01*
X126639830Y-87191965D01*
X126425663Y-87092097D01*
X126197408Y-87030937D01*
X126197407Y-87030936D01*
X126197400Y-87030935D01*
X125962004Y-87010341D01*
X125961996Y-87010341D01*
X125726599Y-87030935D01*
X125498332Y-87092098D01*
X125284181Y-87191959D01*
X125284173Y-87191963D01*
X125090603Y-87327501D01*
X124923501Y-87494603D01*
X124787963Y-87688173D01*
X124787961Y-87688176D01*
X124781721Y-87701558D01*
X124739990Y-87746303D01*
X124679928Y-87757974D01*
X124624477Y-87732113D01*
X124602273Y-87701549D01*
X124597121Y-87690500D01*
X124596035Y-87688171D01*
X124470133Y-87508363D01*
X124460498Y-87494603D01*
X124460497Y-87494602D01*
X124460495Y-87494599D01*
X124293401Y-87327505D01*
X124293397Y-87327502D01*
X124293396Y-87327501D01*
X124148217Y-87225846D01*
X124099830Y-87191965D01*
X123885663Y-87092097D01*
X123657408Y-87030937D01*
X123657407Y-87030936D01*
X123657400Y-87030935D01*
X123422004Y-87010341D01*
X123421996Y-87010341D01*
X123186599Y-87030935D01*
X122958332Y-87092098D01*
X122744181Y-87191959D01*
X122744173Y-87191963D01*
X122550603Y-87327501D01*
X122383501Y-87494603D01*
X122247963Y-87688173D01*
X122241724Y-87701554D01*
X122199995Y-87746301D01*
X122139933Y-87757975D01*
X122084481Y-87732116D01*
X122062276Y-87701554D01*
X122056036Y-87688173D01*
X121920498Y-87494603D01*
X121920497Y-87494602D01*
X121920495Y-87494599D01*
X121753401Y-87327505D01*
X121753397Y-87327502D01*
X121753396Y-87327501D01*
X121608217Y-87225846D01*
X121559830Y-87191965D01*
X121345663Y-87092097D01*
X121117408Y-87030937D01*
X121117407Y-87030936D01*
X121117400Y-87030935D01*
X120882004Y-87010341D01*
X120881996Y-87010341D01*
X120646599Y-87030935D01*
X120418332Y-87092098D01*
X120204181Y-87191959D01*
X120204173Y-87191963D01*
X120010603Y-87327501D01*
X119843501Y-87494603D01*
X119707963Y-87688173D01*
X119707959Y-87688181D01*
X119608098Y-87902332D01*
X119546935Y-88130599D01*
X119526341Y-88365995D01*
X119526341Y-88366004D01*
X119546935Y-88601400D01*
X119546936Y-88601407D01*
X119546937Y-88601408D01*
X119608097Y-88829663D01*
X119692499Y-89010663D01*
X119707964Y-89043828D01*
X119843358Y-89237192D01*
X119843505Y-89237401D01*
X120010599Y-89404495D01*
X120036891Y-89422905D01*
X120038087Y-89423742D01*
X120074910Y-89472607D01*
X120075978Y-89533783D01*
X120040884Y-89583903D01*
X119983033Y-89603824D01*
X119955681Y-89600466D01*
X119847313Y-89571429D01*
X119612003Y-89550843D01*
X119611997Y-89550843D01*
X119376686Y-89571429D01*
X119148505Y-89632570D01*
X118934430Y-89732394D01*
X118934419Y-89732401D01*
X118809037Y-89820193D01*
X119465791Y-90476947D01*
X119355643Y-90529993D01*
X119256202Y-90622260D01*
X119188375Y-90739740D01*
X119183640Y-90760484D01*
X118526193Y-90103037D01*
X118438401Y-90228419D01*
X118438394Y-90228430D01*
X118338570Y-90442505D01*
X118277429Y-90670686D01*
X118256843Y-90905996D01*
X118256843Y-90906003D01*
X109000500Y-90906003D01*
X109000500Y-85076002D01*
X114577233Y-85076002D01*
X114596273Y-85330076D01*
X114596275Y-85330086D01*
X114652970Y-85578487D01*
X114652970Y-85578489D01*
X114746055Y-85815664D01*
X114746064Y-85815683D01*
X114873451Y-86036322D01*
X114873455Y-86036329D01*
X114946823Y-86128331D01*
X115592622Y-85482531D01*
X115652577Y-85577948D01*
X115780052Y-85705423D01*
X115875466Y-85765375D01*
X115226770Y-86414072D01*
X115429624Y-86552375D01*
X115659176Y-86662922D01*
X115902649Y-86738023D01*
X115902659Y-86738025D01*
X116154599Y-86775999D01*
X116154608Y-86776000D01*
X116409392Y-86776000D01*
X116409400Y-86775999D01*
X116661340Y-86738025D01*
X116661350Y-86738023D01*
X116904823Y-86662921D01*
X117134381Y-86552373D01*
X117337229Y-86414073D01*
X116688532Y-85765376D01*
X116783948Y-85705423D01*
X116911423Y-85577948D01*
X116971376Y-85482532D01*
X117617175Y-86128331D01*
X117690543Y-86036330D01*
X117690548Y-86036322D01*
X117817935Y-85815683D01*
X117817944Y-85815664D01*
X117911029Y-85578489D01*
X117911029Y-85578487D01*
X117967724Y-85330086D01*
X117967726Y-85330076D01*
X117986767Y-85076002D01*
X117986767Y-85075997D01*
X117967726Y-84821923D01*
X117967724Y-84821913D01*
X117911029Y-84573512D01*
X117911029Y-84573510D01*
X117817944Y-84336335D01*
X117817935Y-84336316D01*
X117690548Y-84115677D01*
X117690544Y-84115670D01*
X117617175Y-84023667D01*
X116971375Y-84669466D01*
X116911423Y-84574052D01*
X116783948Y-84446577D01*
X116688531Y-84386622D01*
X117364082Y-83711072D01*
X117418599Y-83683295D01*
X117476107Y-83691437D01*
X117670214Y-83782430D01*
X117670216Y-83782430D01*
X117670221Y-83782433D01*
X117783522Y-83816520D01*
X117933105Y-83861523D01*
X117933109Y-83861524D01*
X117933119Y-83861527D01*
X118114193Y-83888175D01*
X118204730Y-83901500D01*
X118204731Y-83901500D01*
X118410547Y-83901500D01*
X118615805Y-83886477D01*
X118883775Y-83826784D01*
X119140198Y-83728711D01*
X119379609Y-83594347D01*
X119596904Y-83426557D01*
X119787454Y-83228916D01*
X119947196Y-83005637D01*
X120072727Y-82761479D01*
X120145832Y-82547192D01*
X120161366Y-82501658D01*
X120161366Y-82501656D01*
X120161370Y-82501646D01*
X120211236Y-82231674D01*
X120216242Y-82094680D01*
X127892738Y-82094680D01*
X127922764Y-82367573D01*
X127992203Y-82633179D01*
X127992204Y-82633182D01*
X128002359Y-82657078D01*
X128099577Y-82885853D01*
X128242595Y-83120196D01*
X128408057Y-83319020D01*
X128418209Y-83331218D01*
X128615555Y-83508042D01*
X128622674Y-83514420D01*
X128622674Y-83514421D01*
X128622676Y-83514422D01*
X128622677Y-83514423D01*
X128851641Y-83665904D01*
X129100221Y-83782433D01*
X129213522Y-83816520D01*
X129363105Y-83861523D01*
X129363109Y-83861524D01*
X129363119Y-83861527D01*
X129544193Y-83888175D01*
X129634730Y-83901500D01*
X129634731Y-83901500D01*
X129840547Y-83901500D01*
X130045805Y-83886477D01*
X130313775Y-83826784D01*
X130570198Y-83728711D01*
X130631195Y-83694477D01*
X130691193Y-83682487D01*
X130746782Y-83708052D01*
X130749651Y-83710807D01*
X131425467Y-84386623D01*
X131330052Y-84446577D01*
X131202577Y-84574052D01*
X131142623Y-84669467D01*
X130496823Y-84023667D01*
X130423460Y-84115663D01*
X130423451Y-84115677D01*
X130296064Y-84336316D01*
X130296055Y-84336335D01*
X130202970Y-84573510D01*
X130202970Y-84573512D01*
X130146275Y-84821913D01*
X130146273Y-84821923D01*
X130127233Y-85075997D01*
X130127233Y-85076002D01*
X130146273Y-85330076D01*
X130146275Y-85330086D01*
X130202970Y-85578487D01*
X130202970Y-85578489D01*
X130296055Y-85815664D01*
X130296064Y-85815683D01*
X130423451Y-86036322D01*
X130423455Y-86036329D01*
X130496823Y-86128331D01*
X131142622Y-85482531D01*
X131202577Y-85577948D01*
X131330052Y-85705423D01*
X131425466Y-85765375D01*
X130776770Y-86414072D01*
X130979624Y-86552375D01*
X131209176Y-86662922D01*
X131452649Y-86738023D01*
X131452659Y-86738025D01*
X131704599Y-86775999D01*
X131704608Y-86776000D01*
X131959392Y-86776000D01*
X131959400Y-86775999D01*
X132211340Y-86738025D01*
X132211350Y-86738023D01*
X132454823Y-86662921D01*
X132684381Y-86552373D01*
X132702529Y-86540000D01*
X139155073Y-86540000D01*
X139174738Y-86752216D01*
X139233064Y-86957210D01*
X139328057Y-87147983D01*
X139328066Y-87147998D01*
X139367258Y-87199897D01*
X139883115Y-86684039D01*
X139915887Y-86767541D01*
X140000465Y-86873599D01*
X140112547Y-86950016D01*
X140166257Y-86966583D01*
X139649320Y-87483521D01*
X139795202Y-87573846D01*
X139795204Y-87573847D01*
X139993941Y-87650838D01*
X140203437Y-87690000D01*
X140416563Y-87690000D01*
X140626058Y-87650838D01*
X140824795Y-87573847D01*
X140824797Y-87573846D01*
X140970678Y-87483521D01*
X140456208Y-86969051D01*
X140566357Y-86916007D01*
X140665798Y-86823740D01*
X140733625Y-86706260D01*
X140738359Y-86685516D01*
X141252741Y-87199898D01*
X141291931Y-87148002D01*
X141291940Y-87147987D01*
X141386935Y-86957210D01*
X141445261Y-86752216D01*
X141464926Y-86540000D01*
X141694571Y-86540000D01*
X141714244Y-86752311D01*
X141734312Y-86822842D01*
X141772595Y-86957389D01*
X141867634Y-87148255D01*
X141996128Y-87318407D01*
X142057686Y-87374525D01*
X142153692Y-87462047D01*
X142153699Y-87462053D01*
X142257389Y-87526255D01*
X142334981Y-87574298D01*
X142533802Y-87651321D01*
X142743390Y-87690500D01*
X142956610Y-87690500D01*
X143166198Y-87651321D01*
X143365019Y-87574298D01*
X143546302Y-87462052D01*
X143703872Y-87318407D01*
X143832366Y-87148255D01*
X143927405Y-86957389D01*
X143985756Y-86752310D01*
X144005429Y-86540000D01*
X144005429Y-86539999D01*
X144234571Y-86539999D01*
X144254244Y-86752311D01*
X144274312Y-86822842D01*
X144312595Y-86957389D01*
X144407634Y-87148255D01*
X144536128Y-87318407D01*
X144597686Y-87374525D01*
X144693692Y-87462047D01*
X144693699Y-87462053D01*
X144797389Y-87526255D01*
X144874981Y-87574298D01*
X145073802Y-87651321D01*
X145283390Y-87690500D01*
X145496610Y-87690500D01*
X145706198Y-87651321D01*
X145905019Y-87574298D01*
X146086302Y-87462052D01*
X146243872Y-87318407D01*
X146372366Y-87148255D01*
X146467405Y-86957389D01*
X146525756Y-86752310D01*
X146545429Y-86540000D01*
X146774571Y-86540000D01*
X146794244Y-86752311D01*
X146814312Y-86822842D01*
X146852595Y-86957389D01*
X146947634Y-87148255D01*
X147076128Y-87318407D01*
X147137686Y-87374525D01*
X147233692Y-87462047D01*
X147233699Y-87462053D01*
X147337389Y-87526255D01*
X147414981Y-87574298D01*
X147613802Y-87651321D01*
X147823390Y-87690500D01*
X148036610Y-87690500D01*
X148246198Y-87651321D01*
X148445019Y-87574298D01*
X148626302Y-87462052D01*
X148626304Y-87462049D01*
X148626309Y-87462047D01*
X148628358Y-87460500D01*
X148629376Y-87460147D01*
X148630194Y-87459642D01*
X148630308Y-87459826D01*
X148686188Y-87440517D01*
X148688023Y-87440500D01*
X162381340Y-87440500D01*
X162396826Y-87441718D01*
X162412612Y-87444219D01*
X162482286Y-87440567D01*
X162484871Y-87440500D01*
X162507190Y-87440500D01*
X162507192Y-87440500D01*
X162507196Y-87440499D01*
X162507204Y-87440499D01*
X162516892Y-87439480D01*
X162529405Y-87438164D01*
X162531926Y-87437966D01*
X162601646Y-87434313D01*
X162617090Y-87430173D01*
X162632370Y-87427343D01*
X162648256Y-87425674D01*
X162714655Y-87404099D01*
X162717069Y-87403384D01*
X162784488Y-87385320D01*
X162798730Y-87378062D01*
X162813084Y-87372116D01*
X162828284Y-87367179D01*
X162888741Y-87332272D01*
X162890941Y-87331078D01*
X162953149Y-87299383D01*
X162965574Y-87289320D01*
X162978372Y-87280524D01*
X162992216Y-87272533D01*
X163044081Y-87225833D01*
X163046008Y-87224186D01*
X163063380Y-87210119D01*
X163079174Y-87194323D01*
X163080995Y-87192594D01*
X163132888Y-87145871D01*
X163142282Y-87132939D01*
X163152364Y-87121133D01*
X167081139Y-83192359D01*
X167092945Y-83182277D01*
X167105871Y-83172888D01*
X167152585Y-83121005D01*
X167154314Y-83119184D01*
X167170120Y-83103380D01*
X167184184Y-83086009D01*
X167185819Y-83084095D01*
X167232533Y-83032216D01*
X167240525Y-83018371D01*
X167249319Y-83005576D01*
X167259383Y-82993149D01*
X167291069Y-82930957D01*
X167292272Y-82928741D01*
X167327179Y-82868284D01*
X167332116Y-82853084D01*
X167338062Y-82838730D01*
X167345320Y-82824488D01*
X167363380Y-82757087D01*
X167364110Y-82754620D01*
X167385674Y-82688256D01*
X167387345Y-82672347D01*
X167390172Y-82657096D01*
X167394313Y-82641645D01*
X167397966Y-82571926D01*
X167398166Y-82569393D01*
X167398674Y-82564568D01*
X167400500Y-82547192D01*
X167400500Y-82524870D01*
X167400568Y-82522279D01*
X167401761Y-82499525D01*
X167404219Y-82452612D01*
X167401718Y-82436824D01*
X167400500Y-82421351D01*
X167400500Y-80882400D01*
X167419407Y-80824209D01*
X167452055Y-80795509D01*
X167530113Y-80752887D01*
X167747742Y-80589971D01*
X167939971Y-80397742D01*
X168102887Y-80180113D01*
X168233172Y-79941513D01*
X168328175Y-79686801D01*
X168385961Y-79421160D01*
X168405355Y-79150000D01*
X168385961Y-78878840D01*
X168328175Y-78613199D01*
X168233172Y-78358487D01*
X168198882Y-78295689D01*
X168102893Y-78119897D01*
X168102891Y-78119894D01*
X168102887Y-78119887D01*
X167939971Y-77902258D01*
X167747742Y-77710029D01*
X167530113Y-77547113D01*
X167530106Y-77547109D01*
X167530102Y-77547106D01*
X167291522Y-77416832D01*
X167291514Y-77416828D01*
X167036805Y-77321826D01*
X167036801Y-77321825D01*
X166771160Y-77264039D01*
X166771157Y-77264038D01*
X166771154Y-77264038D01*
X166500000Y-77244645D01*
X166228845Y-77264038D01*
X165963194Y-77321826D01*
X165708485Y-77416828D01*
X165708477Y-77416832D01*
X165469897Y-77547106D01*
X165469889Y-77547111D01*
X165469887Y-77547113D01*
X165415341Y-77587946D01*
X165252260Y-77710027D01*
X165060027Y-77902260D01*
X164897106Y-78119897D01*
X164766832Y-78358477D01*
X164766828Y-78358485D01*
X164671826Y-78613194D01*
X164614038Y-78878845D01*
X164594645Y-79150000D01*
X164614038Y-79421154D01*
X164614038Y-79421157D01*
X164614039Y-79421160D01*
X164653549Y-79602788D01*
X164671826Y-79686805D01*
X164766828Y-79941514D01*
X164766832Y-79941522D01*
X164897106Y-80180102D01*
X164897109Y-80180106D01*
X164897113Y-80180113D01*
X165060029Y-80397742D01*
X165252258Y-80589971D01*
X165469887Y-80752887D01*
X165547945Y-80795509D01*
X165589957Y-80839992D01*
X165599500Y-80882400D01*
X165599500Y-82085992D01*
X165580593Y-82144183D01*
X165570504Y-82155996D01*
X162115997Y-85610504D01*
X162061480Y-85638281D01*
X162045993Y-85639500D01*
X148688023Y-85639500D01*
X148629832Y-85620593D01*
X148628358Y-85619500D01*
X148626309Y-85617952D01*
X148587778Y-85594094D01*
X148445019Y-85505702D01*
X148246198Y-85428679D01*
X148246197Y-85428678D01*
X148246195Y-85428678D01*
X148036610Y-85389500D01*
X147823390Y-85389500D01*
X147613804Y-85428678D01*
X147414980Y-85505702D01*
X147414975Y-85505705D01*
X147233699Y-85617946D01*
X147233692Y-85617952D01*
X147076135Y-85761586D01*
X147076131Y-85761589D01*
X147076128Y-85761593D01*
X147076124Y-85761597D01*
X147076125Y-85761597D01*
X146947635Y-85931743D01*
X146947630Y-85931752D01*
X146852596Y-86122608D01*
X146852595Y-86122611D01*
X146850497Y-86129984D01*
X146794244Y-86327688D01*
X146774571Y-86540000D01*
X146545429Y-86540000D01*
X146525756Y-86327690D01*
X146467405Y-86122611D01*
X146372366Y-85931745D01*
X146243872Y-85761593D01*
X146182257Y-85705423D01*
X146086307Y-85617952D01*
X146086300Y-85617946D01*
X145905024Y-85505705D01*
X145905019Y-85505702D01*
X145706195Y-85428678D01*
X145496610Y-85389500D01*
X145283390Y-85389500D01*
X145073804Y-85428678D01*
X144874980Y-85505702D01*
X144874975Y-85505705D01*
X144693699Y-85617946D01*
X144693692Y-85617952D01*
X144536135Y-85761586D01*
X144536131Y-85761589D01*
X144536128Y-85761593D01*
X144536124Y-85761597D01*
X144536125Y-85761597D01*
X144407635Y-85931743D01*
X144407630Y-85931752D01*
X144312596Y-86122608D01*
X144312595Y-86122611D01*
X144310497Y-86129984D01*
X144254244Y-86327688D01*
X144234571Y-86539999D01*
X144005429Y-86539999D01*
X143985756Y-86327690D01*
X143927405Y-86122611D01*
X143832366Y-85931745D01*
X143703872Y-85761593D01*
X143642257Y-85705423D01*
X143546307Y-85617952D01*
X143546300Y-85617946D01*
X143365024Y-85505705D01*
X143365019Y-85505702D01*
X143166195Y-85428678D01*
X142956610Y-85389500D01*
X142743390Y-85389500D01*
X142533804Y-85428678D01*
X142334980Y-85505702D01*
X142334975Y-85505705D01*
X142153699Y-85617946D01*
X142153692Y-85617952D01*
X141996135Y-85761586D01*
X141996131Y-85761589D01*
X141996128Y-85761593D01*
X141996124Y-85761597D01*
X141996125Y-85761597D01*
X141867635Y-85931743D01*
X141867630Y-85931752D01*
X141772596Y-86122608D01*
X141772595Y-86122611D01*
X141770497Y-86129984D01*
X141714244Y-86327688D01*
X141694571Y-86540000D01*
X141464926Y-86540000D01*
X141445261Y-86327783D01*
X141386935Y-86122789D01*
X141291942Y-85932016D01*
X141291937Y-85932007D01*
X141252739Y-85880102D01*
X140736883Y-86395957D01*
X140704113Y-86312459D01*
X140619535Y-86206401D01*
X140507453Y-86129984D01*
X140453739Y-86113415D01*
X140970678Y-85596477D01*
X140824797Y-85506153D01*
X140824795Y-85506152D01*
X140626058Y-85429161D01*
X140416563Y-85390000D01*
X140203437Y-85390000D01*
X139993941Y-85429161D01*
X139795204Y-85506152D01*
X139795202Y-85506153D01*
X139649320Y-85596477D01*
X140163791Y-86110948D01*
X140053643Y-86163993D01*
X139954202Y-86256260D01*
X139886375Y-86373740D01*
X139881640Y-86394483D01*
X139367258Y-85880100D01*
X139328061Y-85932007D01*
X139233064Y-86122789D01*
X139174738Y-86327783D01*
X139155073Y-86540000D01*
X132702529Y-86540000D01*
X132887229Y-86414073D01*
X132238532Y-85765376D01*
X132333948Y-85705423D01*
X132461423Y-85577948D01*
X132521376Y-85482532D01*
X133167175Y-86128331D01*
X133240543Y-86036330D01*
X133240548Y-86036322D01*
X133367935Y-85815683D01*
X133367944Y-85815664D01*
X133461029Y-85578489D01*
X133461029Y-85578487D01*
X133517724Y-85330086D01*
X133517726Y-85330076D01*
X133536767Y-85076002D01*
X133536767Y-85075997D01*
X133517726Y-84821923D01*
X133517724Y-84821913D01*
X133461029Y-84573512D01*
X133461029Y-84573510D01*
X133367944Y-84336335D01*
X133367935Y-84336316D01*
X133240548Y-84115677D01*
X133240544Y-84115670D01*
X133167175Y-84023667D01*
X132521375Y-84669466D01*
X132461423Y-84574052D01*
X132333948Y-84446577D01*
X132238531Y-84386622D01*
X132625154Y-84000000D01*
X140424571Y-84000000D01*
X140444244Y-84212311D01*
X140450505Y-84234314D01*
X140502595Y-84417389D01*
X140597634Y-84608255D01*
X140726128Y-84778407D01*
X140796734Y-84842773D01*
X140883692Y-84922047D01*
X140883699Y-84922053D01*
X140987389Y-84986255D01*
X141064981Y-85034298D01*
X141263802Y-85111321D01*
X141473390Y-85150500D01*
X141686610Y-85150500D01*
X141896198Y-85111321D01*
X142095019Y-85034298D01*
X142276302Y-84922052D01*
X142433872Y-84778407D01*
X142562366Y-84608255D01*
X142657405Y-84417389D01*
X142715756Y-84212310D01*
X142735429Y-84000000D01*
X142964571Y-84000000D01*
X142984244Y-84212311D01*
X142990505Y-84234314D01*
X143042595Y-84417389D01*
X143137634Y-84608255D01*
X143266128Y-84778407D01*
X143336734Y-84842773D01*
X143423692Y-84922047D01*
X143423699Y-84922053D01*
X143527389Y-84986255D01*
X143604981Y-85034298D01*
X143803802Y-85111321D01*
X144013390Y-85150500D01*
X144226610Y-85150500D01*
X144436198Y-85111321D01*
X144635019Y-85034298D01*
X144816302Y-84922052D01*
X144973872Y-84778407D01*
X145102366Y-84608255D01*
X145197405Y-84417389D01*
X145255756Y-84212310D01*
X145275429Y-84000000D01*
X145504571Y-84000000D01*
X145524244Y-84212311D01*
X145530505Y-84234314D01*
X145582595Y-84417389D01*
X145677634Y-84608255D01*
X145806128Y-84778407D01*
X145876734Y-84842773D01*
X145963692Y-84922047D01*
X145963699Y-84922053D01*
X146067389Y-84986255D01*
X146144981Y-85034298D01*
X146343802Y-85111321D01*
X146553390Y-85150500D01*
X146766610Y-85150500D01*
X146976198Y-85111321D01*
X147175019Y-85034298D01*
X147356302Y-84922052D01*
X147513872Y-84778407D01*
X147642366Y-84608255D01*
X147737405Y-84417389D01*
X147795756Y-84212310D01*
X147815429Y-84000000D01*
X147796897Y-83799999D01*
X148050000Y-83799999D01*
X148050001Y-83800000D01*
X148795855Y-83800000D01*
X148776375Y-83833740D01*
X148746190Y-83965992D01*
X148756327Y-84101265D01*
X148795078Y-84200000D01*
X148050002Y-84200000D01*
X148050001Y-84200001D01*
X148050001Y-84781485D01*
X148064833Y-84875141D01*
X148064836Y-84875151D01*
X148122358Y-84988043D01*
X148211956Y-85077641D01*
X148324848Y-85135163D01*
X148324852Y-85135164D01*
X148418515Y-85149999D01*
X148999998Y-85149999D01*
X149000000Y-85149997D01*
X149000000Y-84408279D01*
X149002547Y-84410016D01*
X149132173Y-84450000D01*
X149233724Y-84450000D01*
X149334138Y-84434865D01*
X149400000Y-84403147D01*
X149400000Y-85149997D01*
X149400001Y-85149999D01*
X149981483Y-85149999D01*
X149981485Y-85149998D01*
X150075141Y-85135166D01*
X150075151Y-85135163D01*
X150188043Y-85077641D01*
X150277641Y-84988043D01*
X150335163Y-84875151D01*
X150335164Y-84875147D01*
X150350000Y-84781484D01*
X150350000Y-84200000D01*
X149604145Y-84200000D01*
X149623625Y-84166260D01*
X149653810Y-84034008D01*
X149643673Y-83898735D01*
X149604922Y-83800000D01*
X150349998Y-83800000D01*
X150349999Y-83799999D01*
X150349999Y-83218516D01*
X150349998Y-83218514D01*
X150335166Y-83124858D01*
X150335163Y-83124848D01*
X150277641Y-83011956D01*
X150188043Y-82922358D01*
X150075151Y-82864836D01*
X150075147Y-82864835D01*
X149981484Y-82850000D01*
X149400000Y-82850000D01*
X149400000Y-83591720D01*
X149397453Y-83589984D01*
X149267827Y-83550000D01*
X149166276Y-83550000D01*
X149065862Y-83565135D01*
X149000000Y-83596852D01*
X149000000Y-82850001D01*
X148999999Y-82850000D01*
X148418516Y-82850000D01*
X148418514Y-82850001D01*
X148324858Y-82864833D01*
X148324848Y-82864836D01*
X148211956Y-82922358D01*
X148122358Y-83011956D01*
X148064836Y-83124848D01*
X148064835Y-83124852D01*
X148050000Y-83218515D01*
X148050000Y-83799999D01*
X147796897Y-83799999D01*
X147795756Y-83787690D01*
X147737405Y-83582611D01*
X147642366Y-83391745D01*
X147513872Y-83221593D01*
X147439416Y-83153717D01*
X147356307Y-83077952D01*
X147356300Y-83077946D01*
X147175024Y-82965705D01*
X147175019Y-82965702D01*
X147063134Y-82922358D01*
X146976198Y-82888679D01*
X146976197Y-82888678D01*
X146976195Y-82888678D01*
X146766610Y-82849500D01*
X146553390Y-82849500D01*
X146343804Y-82888678D01*
X146144980Y-82965702D01*
X146144975Y-82965705D01*
X145963699Y-83077946D01*
X145963692Y-83077952D01*
X145806135Y-83221586D01*
X145806131Y-83221589D01*
X145806128Y-83221593D01*
X145806124Y-83221597D01*
X145806125Y-83221597D01*
X145677635Y-83391743D01*
X145677630Y-83391752D01*
X145582596Y-83582608D01*
X145524244Y-83787688D01*
X145504571Y-84000000D01*
X145275429Y-84000000D01*
X145255756Y-83787690D01*
X145197405Y-83582611D01*
X145102366Y-83391745D01*
X144973872Y-83221593D01*
X144899416Y-83153717D01*
X144816307Y-83077952D01*
X144816300Y-83077946D01*
X144635024Y-82965705D01*
X144635019Y-82965702D01*
X144523134Y-82922358D01*
X144436198Y-82888679D01*
X144436197Y-82888678D01*
X144436195Y-82888678D01*
X144226610Y-82849500D01*
X144013390Y-82849500D01*
X143803804Y-82888678D01*
X143604980Y-82965702D01*
X143604975Y-82965705D01*
X143423699Y-83077946D01*
X143423692Y-83077952D01*
X143266135Y-83221586D01*
X143266131Y-83221589D01*
X143266128Y-83221593D01*
X143266124Y-83221597D01*
X143266125Y-83221597D01*
X143137635Y-83391743D01*
X143137630Y-83391752D01*
X143042596Y-83582608D01*
X142984244Y-83787688D01*
X142964571Y-84000000D01*
X142735429Y-84000000D01*
X142715756Y-83787690D01*
X142657405Y-83582611D01*
X142562366Y-83391745D01*
X142433872Y-83221593D01*
X142359416Y-83153717D01*
X142276307Y-83077952D01*
X142276300Y-83077946D01*
X142095024Y-82965705D01*
X142095019Y-82965702D01*
X141983134Y-82922358D01*
X141896198Y-82888679D01*
X141896197Y-82888678D01*
X141896195Y-82888678D01*
X141686610Y-82849500D01*
X141473390Y-82849500D01*
X141263804Y-82888678D01*
X141064980Y-82965702D01*
X141064975Y-82965705D01*
X140883699Y-83077946D01*
X140883692Y-83077952D01*
X140726135Y-83221586D01*
X140726131Y-83221589D01*
X140726128Y-83221593D01*
X140726124Y-83221597D01*
X140726125Y-83221597D01*
X140597635Y-83391743D01*
X140597630Y-83391752D01*
X140502596Y-83582608D01*
X140444244Y-83787688D01*
X140424571Y-84000000D01*
X132625154Y-84000000D01*
X132887228Y-83737926D01*
X132684376Y-83599624D01*
X132454823Y-83489078D01*
X132211350Y-83413976D01*
X132211340Y-83413974D01*
X131959400Y-83376000D01*
X131704599Y-83376000D01*
X131452659Y-83413974D01*
X131452649Y-83413976D01*
X131231033Y-83482336D01*
X131169854Y-83481420D01*
X131120898Y-83444720D01*
X131102863Y-83386253D01*
X131122639Y-83328352D01*
X131130576Y-83319026D01*
X131217454Y-83228916D01*
X131377196Y-83005637D01*
X131502727Y-82761479D01*
X131575832Y-82547192D01*
X131591366Y-82501658D01*
X131591366Y-82501656D01*
X131591370Y-82501646D01*
X131641236Y-82231674D01*
X131651262Y-81957320D01*
X131621236Y-81684429D01*
X131551796Y-81418818D01*
X131444423Y-81166148D01*
X131438728Y-81156817D01*
X131319696Y-80961775D01*
X131301405Y-80931804D01*
X131125791Y-80720782D01*
X130921325Y-80537578D01*
X130805150Y-80460718D01*
X130692359Y-80386096D01*
X130443779Y-80269567D01*
X130443774Y-80269565D01*
X130443773Y-80269565D01*
X130180894Y-80190476D01*
X130180878Y-80190472D01*
X129909270Y-80150500D01*
X129909269Y-80150500D01*
X129703453Y-80150500D01*
X129498200Y-80165522D01*
X129498195Y-80165522D01*
X129498195Y-80165523D01*
X129230225Y-80225216D01*
X129114270Y-80269565D01*
X128973796Y-80323291D01*
X128734394Y-80457650D01*
X128734387Y-80457655D01*
X128517099Y-80625439D01*
X128326545Y-80823084D01*
X128227321Y-80961775D01*
X128166804Y-81046363D01*
X128159702Y-81060175D01*
X128041270Y-81290525D01*
X128041270Y-81290527D01*
X127952633Y-81550341D01*
X127952629Y-81550357D01*
X127902763Y-81820328D01*
X127892738Y-82094680D01*
X120216242Y-82094680D01*
X120221262Y-81957320D01*
X120191236Y-81684429D01*
X120121796Y-81418818D01*
X120014423Y-81166148D01*
X120008728Y-81156817D01*
X119889696Y-80961775D01*
X119871405Y-80931804D01*
X119695791Y-80720782D01*
X119491325Y-80537578D01*
X119375150Y-80460718D01*
X119262359Y-80386096D01*
X119013779Y-80269567D01*
X119013774Y-80269565D01*
X119013773Y-80269565D01*
X118750894Y-80190476D01*
X118750878Y-80190472D01*
X118479270Y-80150500D01*
X118479269Y-80150500D01*
X118273453Y-80150500D01*
X118068200Y-80165522D01*
X118068195Y-80165522D01*
X118068195Y-80165523D01*
X117800225Y-80225216D01*
X117684270Y-80269565D01*
X117543796Y-80323291D01*
X117304394Y-80457650D01*
X117304387Y-80457655D01*
X117087099Y-80625439D01*
X116896545Y-80823084D01*
X116797321Y-80961775D01*
X116736804Y-81046363D01*
X116729702Y-81060175D01*
X116611270Y-81290525D01*
X116611270Y-81290527D01*
X116522633Y-81550341D01*
X116522629Y-81550357D01*
X116472763Y-81820328D01*
X116462738Y-82094680D01*
X116492764Y-82367573D01*
X116562203Y-82633179D01*
X116562204Y-82633182D01*
X116572359Y-82657078D01*
X116669577Y-82885853D01*
X116812597Y-83120200D01*
X116980569Y-83322040D01*
X117003259Y-83378862D01*
X116988216Y-83438170D01*
X116941186Y-83477308D01*
X116880133Y-83481328D01*
X116875292Y-83479969D01*
X116661350Y-83413976D01*
X116661340Y-83413974D01*
X116409400Y-83376000D01*
X116154599Y-83376000D01*
X115902659Y-83413974D01*
X115902649Y-83413976D01*
X115659176Y-83489077D01*
X115429615Y-83599628D01*
X115226769Y-83737925D01*
X115875467Y-84386623D01*
X115780052Y-84446577D01*
X115652577Y-84574052D01*
X115592623Y-84669467D01*
X114946823Y-84023667D01*
X114873460Y-84115663D01*
X114873451Y-84115677D01*
X114746064Y-84336316D01*
X114746055Y-84336335D01*
X114652970Y-84573510D01*
X114652970Y-84573512D01*
X114596275Y-84821913D01*
X114596273Y-84821923D01*
X114577233Y-85075997D01*
X114577233Y-85076002D01*
X109000500Y-85076002D01*
X109000500Y-84661322D01*
X109019407Y-84603131D01*
X109029496Y-84591319D01*
X109250711Y-84370103D01*
X109297024Y-84343983D01*
X109298984Y-84343500D01*
X109298985Y-84343500D01*
X109452365Y-84305696D01*
X109592240Y-84232283D01*
X109710483Y-84127530D01*
X109800220Y-83997523D01*
X109856237Y-83849818D01*
X109873615Y-83706695D01*
X109875278Y-83693001D01*
X109875278Y-83692998D01*
X109860514Y-83571407D01*
X109856237Y-83536182D01*
X109800220Y-83388477D01*
X109710483Y-83258470D01*
X109710482Y-83258469D01*
X109710482Y-83258468D01*
X109679874Y-83231353D01*
X109648855Y-83178614D01*
X109654759Y-83117714D01*
X109695332Y-83071916D01*
X109745522Y-83058250D01*
X109799232Y-83058250D01*
X109799235Y-83058250D01*
X109952615Y-83020446D01*
X110092490Y-82947033D01*
X110210733Y-82842280D01*
X110300470Y-82712273D01*
X110356487Y-82564568D01*
X110375528Y-82407750D01*
X110370649Y-82367571D01*
X110356487Y-82250933D01*
X110356487Y-82250932D01*
X110300470Y-82103227D01*
X110210733Y-81973220D01*
X110092490Y-81868467D01*
X110000766Y-81820326D01*
X109952614Y-81795053D01*
X109793421Y-81755817D01*
X109794015Y-81753403D01*
X109747883Y-81731937D01*
X109718176Y-81678447D01*
X109725584Y-81617711D01*
X109745335Y-81589477D01*
X113716317Y-77618496D01*
X113770835Y-77590719D01*
X113786322Y-77589500D01*
X116646668Y-77589500D01*
X116704859Y-77608407D01*
X116740823Y-77657907D01*
X116740823Y-77719093D01*
X116716673Y-77758501D01*
X116697350Y-77777825D01*
X116697346Y-77777829D01*
X116562311Y-77970679D01*
X116562311Y-77970680D01*
X116462814Y-78184054D01*
X116432901Y-78295689D01*
X116401877Y-78411471D01*
X116381360Y-78645996D01*
X116381360Y-78646003D01*
X116401877Y-78880528D01*
X116401878Y-78880535D01*
X116401879Y-78880536D01*
X116462814Y-79107946D01*
X116562311Y-79321319D01*
X116562311Y-79321320D01*
X116640400Y-79432843D01*
X116697350Y-79514175D01*
X116863825Y-79680650D01*
X116863828Y-79680652D01*
X116863829Y-79680653D01*
X116872615Y-79686805D01*
X117056680Y-79815689D01*
X117270054Y-79915186D01*
X117497464Y-79976121D01*
X117497468Y-79976121D01*
X117497471Y-79976122D01*
X117731997Y-79996640D01*
X117732000Y-79996640D01*
X117732003Y-79996640D01*
X117966528Y-79976122D01*
X117966529Y-79976121D01*
X117966536Y-79976121D01*
X118193946Y-79915186D01*
X118407320Y-79815689D01*
X118600175Y-79680650D01*
X118766650Y-79514175D01*
X118901689Y-79321320D01*
X119001186Y-79107946D01*
X119062121Y-78880536D01*
X119062270Y-78878840D01*
X119082640Y-78646003D01*
X119082640Y-78645996D01*
X119062122Y-78411471D01*
X119062121Y-78411468D01*
X119062121Y-78411464D01*
X119001186Y-78184054D01*
X118901689Y-77970680D01*
X118793983Y-77816860D01*
X118766653Y-77777829D01*
X118766652Y-77777828D01*
X118766650Y-77777825D01*
X118747326Y-77758501D01*
X118719551Y-77703987D01*
X118729122Y-77643555D01*
X118772387Y-77600290D01*
X118817332Y-77589500D01*
X118940468Y-77589500D01*
X118998659Y-77608407D01*
X119030193Y-77646661D01*
X119041819Y-77671593D01*
X119091355Y-77777825D01*
X119102311Y-77801319D01*
X119102311Y-77801320D01*
X119220898Y-77970680D01*
X119237350Y-77994175D01*
X119403825Y-78160650D01*
X119403828Y-78160652D01*
X119403829Y-78160653D01*
X119437249Y-78184054D01*
X119596680Y-78295689D01*
X119810054Y-78395186D01*
X120037464Y-78456121D01*
X120037468Y-78456121D01*
X120037471Y-78456122D01*
X120271997Y-78476640D01*
X120272000Y-78476640D01*
X120272003Y-78476640D01*
X120506528Y-78456122D01*
X120506529Y-78456121D01*
X120506536Y-78456121D01*
X120733946Y-78395186D01*
X120947320Y-78295689D01*
X121140175Y-78160650D01*
X121306650Y-77994175D01*
X121441689Y-77801320D01*
X121541186Y-77587946D01*
X121602121Y-77360536D01*
X121605466Y-77322308D01*
X121622640Y-77126003D01*
X121622640Y-77125996D01*
X121602122Y-76891471D01*
X121602121Y-76891468D01*
X121602121Y-76891464D01*
X121541186Y-76664054D01*
X121505412Y-76587337D01*
X121497957Y-76526610D01*
X121527620Y-76473096D01*
X121583073Y-76447238D01*
X121595138Y-76446500D01*
X124893678Y-76446500D01*
X124951869Y-76465407D01*
X124963682Y-76475496D01*
X126555415Y-78067229D01*
X126583192Y-78121746D01*
X126575140Y-78179063D01*
X126572818Y-78184043D01*
X126572814Y-78184054D01*
X126511877Y-78411471D01*
X126491360Y-78645996D01*
X126491360Y-78646003D01*
X126511877Y-78880528D01*
X126511878Y-78880535D01*
X126511879Y-78880536D01*
X126572814Y-79107946D01*
X126672311Y-79321319D01*
X126672311Y-79321320D01*
X126750400Y-79432843D01*
X126807350Y-79514175D01*
X126973825Y-79680650D01*
X126973828Y-79680652D01*
X126973829Y-79680653D01*
X126982615Y-79686805D01*
X127166680Y-79815689D01*
X127380054Y-79915186D01*
X127607464Y-79976121D01*
X127607468Y-79976121D01*
X127607471Y-79976122D01*
X127841997Y-79996640D01*
X127842000Y-79996640D01*
X127842003Y-79996640D01*
X128076528Y-79976122D01*
X128076529Y-79976121D01*
X128076536Y-79976121D01*
X128303946Y-79915186D01*
X128517320Y-79815689D01*
X128710175Y-79680650D01*
X128876650Y-79514175D01*
X129011689Y-79321320D01*
X129111186Y-79107946D01*
X129172121Y-78880536D01*
X129172270Y-78878840D01*
X129192640Y-78646003D01*
X129192640Y-78645996D01*
X129172122Y-78411471D01*
X129172121Y-78411468D01*
X129172121Y-78411464D01*
X129111186Y-78184054D01*
X129011689Y-77970680D01*
X128903983Y-77816860D01*
X128876653Y-77777829D01*
X128876652Y-77777828D01*
X128876650Y-77777825D01*
X128710175Y-77611350D01*
X128710171Y-77611347D01*
X128710170Y-77611346D01*
X128517320Y-77476311D01*
X128517319Y-77476311D01*
X128303946Y-77376814D01*
X128076536Y-77315879D01*
X128076535Y-77315878D01*
X128076528Y-77315877D01*
X127842003Y-77295360D01*
X127841997Y-77295360D01*
X127607471Y-77315877D01*
X127380054Y-77376814D01*
X127380043Y-77376818D01*
X127375063Y-77379140D01*
X127314333Y-77386590D01*
X127263229Y-77359415D01*
X127029817Y-77126003D01*
X129031360Y-77126003D01*
X129051877Y-77360528D01*
X129051878Y-77360535D01*
X129051879Y-77360536D01*
X129112814Y-77587946D01*
X129212311Y-77801319D01*
X129212311Y-77801320D01*
X129330898Y-77970680D01*
X129347350Y-77994175D01*
X129513825Y-78160650D01*
X129513828Y-78160652D01*
X129513829Y-78160653D01*
X129547249Y-78184054D01*
X129706680Y-78295689D01*
X129920054Y-78395186D01*
X130147464Y-78456121D01*
X130147468Y-78456121D01*
X130147471Y-78456122D01*
X130381997Y-78476640D01*
X130382000Y-78476640D01*
X130382003Y-78476640D01*
X130616528Y-78456122D01*
X130616529Y-78456121D01*
X130616536Y-78456121D01*
X130843946Y-78395186D01*
X131057320Y-78295689D01*
X131250175Y-78160650D01*
X131416650Y-77994175D01*
X131551689Y-77801320D01*
X131622250Y-77650000D01*
X136809725Y-77650000D01*
X136828804Y-77941106D01*
X136885721Y-78227244D01*
X136979497Y-78503495D01*
X136979500Y-78503501D01*
X137108522Y-78765134D01*
X137108524Y-78765138D01*
X137270602Y-79007703D01*
X137270603Y-79007704D01*
X137395392Y-79150000D01*
X137462957Y-79227043D01*
X137462965Y-79227050D01*
X137462966Y-79227051D01*
X137682295Y-79419396D01*
X137682296Y-79419397D01*
X137924861Y-79581475D01*
X137924865Y-79581477D01*
X138186498Y-79710499D01*
X138186504Y-79710502D01*
X138186506Y-79710502D01*
X138186511Y-79710505D01*
X138358831Y-79769000D01*
X138462755Y-79804278D01*
X138462757Y-79804278D01*
X138462762Y-79804280D01*
X138748891Y-79861195D01*
X138942963Y-79873914D01*
X139039999Y-79880275D01*
X139040000Y-79880275D01*
X139040001Y-79880275D01*
X139112777Y-79875505D01*
X139331109Y-79861195D01*
X139617238Y-79804280D01*
X139893489Y-79710505D01*
X140155138Y-79581475D01*
X140397705Y-79419396D01*
X140617043Y-79227043D01*
X140809396Y-79007705D01*
X140971475Y-78765138D01*
X141100505Y-78503489D01*
X141194280Y-78227238D01*
X141251195Y-77941109D01*
X141270275Y-77650000D01*
X148239725Y-77650000D01*
X148258804Y-77941106D01*
X148315721Y-78227244D01*
X148409497Y-78503495D01*
X148409500Y-78503501D01*
X148538522Y-78765134D01*
X148538524Y-78765138D01*
X148700602Y-79007703D01*
X148700603Y-79007704D01*
X148825392Y-79150000D01*
X148892957Y-79227043D01*
X148892965Y-79227050D01*
X148892966Y-79227051D01*
X149112295Y-79419396D01*
X149112296Y-79419397D01*
X149354861Y-79581475D01*
X149354865Y-79581477D01*
X149616498Y-79710499D01*
X149616504Y-79710502D01*
X149616506Y-79710502D01*
X149616511Y-79710505D01*
X149788832Y-79769000D01*
X149892755Y-79804278D01*
X149892757Y-79804278D01*
X149892762Y-79804280D01*
X150178891Y-79861195D01*
X150372963Y-79873914D01*
X150469999Y-79880275D01*
X150470000Y-79880275D01*
X150470001Y-79880275D01*
X150542777Y-79875505D01*
X150761109Y-79861195D01*
X151047238Y-79804280D01*
X151323489Y-79710505D01*
X151585138Y-79581475D01*
X151827705Y-79419396D01*
X152047043Y-79227043D01*
X152114608Y-79149999D01*
X157595147Y-79149999D01*
X157614535Y-79421083D01*
X157672308Y-79686663D01*
X157767285Y-79941306D01*
X157767286Y-79941308D01*
X157897533Y-80179837D01*
X158021593Y-80345561D01*
X159013982Y-79353171D01*
X159067058Y-79455604D01*
X159165564Y-79561077D01*
X159288873Y-79636063D01*
X159295048Y-79637793D01*
X158304437Y-80628405D01*
X158470162Y-80752466D01*
X158708691Y-80882713D01*
X158708693Y-80882714D01*
X158963337Y-80977691D01*
X158963335Y-80977691D01*
X159228916Y-81035464D01*
X159499999Y-81054852D01*
X159771083Y-81035464D01*
X160036663Y-80977691D01*
X160291306Y-80882714D01*
X160291308Y-80882713D01*
X160529832Y-80752468D01*
X160695561Y-80628405D01*
X159701862Y-79634706D01*
X159775346Y-79602788D01*
X159887296Y-79511709D01*
X159970522Y-79393805D01*
X159985239Y-79352395D01*
X160978405Y-80345561D01*
X161102468Y-80179832D01*
X161232713Y-79941308D01*
X161232714Y-79941306D01*
X161327691Y-79686663D01*
X161385464Y-79421083D01*
X161404852Y-79149999D01*
X161385464Y-78878916D01*
X161327691Y-78613336D01*
X161232714Y-78358693D01*
X161232713Y-78358691D01*
X161102466Y-78120162D01*
X160978405Y-77954437D01*
X159986016Y-78946825D01*
X159932942Y-78844396D01*
X159834436Y-78738923D01*
X159711127Y-78663937D01*
X159704948Y-78662205D01*
X160695561Y-77671593D01*
X160529837Y-77547533D01*
X160291308Y-77417286D01*
X160291306Y-77417285D01*
X160036662Y-77322308D01*
X160036664Y-77322308D01*
X159771083Y-77264535D01*
X159500000Y-77245147D01*
X159228916Y-77264535D01*
X158963336Y-77322308D01*
X158708693Y-77417285D01*
X158708691Y-77417286D01*
X158470158Y-77547536D01*
X158304436Y-77671592D01*
X159298137Y-78665293D01*
X159224654Y-78697212D01*
X159112704Y-78788291D01*
X159029478Y-78906195D01*
X159014760Y-78947604D01*
X158021592Y-77954436D01*
X157897536Y-78120158D01*
X157767286Y-78358691D01*
X157767285Y-78358693D01*
X157672308Y-78613336D01*
X157614535Y-78878916D01*
X157595147Y-79149999D01*
X152114608Y-79149999D01*
X152239396Y-79007705D01*
X152401475Y-78765138D01*
X152530505Y-78503489D01*
X152624280Y-78227238D01*
X152681195Y-77941109D01*
X152700275Y-77650000D01*
X152681195Y-77358891D01*
X152624280Y-77072762D01*
X152530505Y-76796511D01*
X152401475Y-76534863D01*
X152361807Y-76475496D01*
X152239397Y-76292296D01*
X152239396Y-76292295D01*
X152047051Y-76072966D01*
X152047050Y-76072965D01*
X152047043Y-76072957D01*
X152026970Y-76055354D01*
X151827704Y-75880603D01*
X151827703Y-75880602D01*
X151585138Y-75718524D01*
X151585134Y-75718522D01*
X151323501Y-75589500D01*
X151323495Y-75589497D01*
X151047244Y-75495721D01*
X150761106Y-75438804D01*
X150470001Y-75419725D01*
X150469999Y-75419725D01*
X150178893Y-75438804D01*
X149892755Y-75495721D01*
X149616504Y-75589497D01*
X149354861Y-75718525D01*
X149112296Y-75880602D01*
X149112295Y-75880603D01*
X148892966Y-76072948D01*
X148892948Y-76072966D01*
X148700603Y-76292295D01*
X148700602Y-76292296D01*
X148538525Y-76534861D01*
X148409497Y-76796504D01*
X148315721Y-77072755D01*
X148258804Y-77358893D01*
X148239725Y-77649999D01*
X148239725Y-77650000D01*
X141270275Y-77650000D01*
X141251195Y-77358891D01*
X141194280Y-77072762D01*
X141100505Y-76796511D01*
X140971475Y-76534863D01*
X140931807Y-76475496D01*
X140809397Y-76292296D01*
X140809396Y-76292295D01*
X140617051Y-76072966D01*
X140617050Y-76072965D01*
X140617043Y-76072957D01*
X140596970Y-76055354D01*
X140397704Y-75880603D01*
X140397703Y-75880602D01*
X140155138Y-75718524D01*
X140155134Y-75718522D01*
X139893501Y-75589500D01*
X139893495Y-75589497D01*
X139617244Y-75495721D01*
X139331106Y-75438804D01*
X139040001Y-75419725D01*
X139039999Y-75419725D01*
X138748893Y-75438804D01*
X138462755Y-75495721D01*
X138186504Y-75589497D01*
X137924861Y-75718525D01*
X137682296Y-75880602D01*
X137682295Y-75880603D01*
X137462966Y-76072948D01*
X137462948Y-76072966D01*
X137270603Y-76292295D01*
X137270602Y-76292296D01*
X137108525Y-76534861D01*
X136979497Y-76796504D01*
X136885721Y-77072755D01*
X136828804Y-77358893D01*
X136809725Y-77649999D01*
X136809725Y-77650000D01*
X131622250Y-77650000D01*
X131651186Y-77587946D01*
X131712121Y-77360536D01*
X131715466Y-77322308D01*
X131732640Y-77126003D01*
X131732640Y-77125996D01*
X131712122Y-76891471D01*
X131712121Y-76891468D01*
X131712121Y-76891464D01*
X131651186Y-76664054D01*
X131551689Y-76450680D01*
X131416650Y-76257825D01*
X131250175Y-76091350D01*
X131250171Y-76091347D01*
X131250170Y-76091346D01*
X131057320Y-75956311D01*
X131057320Y-75956310D01*
X130843946Y-75856814D01*
X130616536Y-75795879D01*
X130616535Y-75795878D01*
X130616528Y-75795877D01*
X130382003Y-75775360D01*
X130381997Y-75775360D01*
X130147471Y-75795877D01*
X130147463Y-75795879D01*
X130147464Y-75795879D01*
X129920054Y-75856814D01*
X129706680Y-75956311D01*
X129706679Y-75956311D01*
X129513829Y-76091346D01*
X129347346Y-76257829D01*
X129212311Y-76450679D01*
X129212311Y-76450680D01*
X129112814Y-76664054D01*
X129077324Y-76796504D01*
X129051877Y-76891471D01*
X129031360Y-77125996D01*
X129031360Y-77126003D01*
X127029817Y-77126003D01*
X125541480Y-75637666D01*
X125528199Y-75621183D01*
X125524144Y-75614873D01*
X125524138Y-75614868D01*
X125484598Y-75580606D01*
X125482026Y-75578211D01*
X125470595Y-75566781D01*
X125470593Y-75566779D01*
X125457636Y-75557080D01*
X125454917Y-75554888D01*
X125415373Y-75520623D01*
X125408538Y-75517501D01*
X125390348Y-75506708D01*
X125389293Y-75505918D01*
X125384331Y-75502204D01*
X125384328Y-75502203D01*
X125384327Y-75502202D01*
X125335314Y-75483921D01*
X125332049Y-75482569D01*
X125284458Y-75460835D01*
X125284454Y-75460834D01*
X125277014Y-75459764D01*
X125256520Y-75454533D01*
X125249482Y-75451908D01*
X125249483Y-75451908D01*
X125197301Y-75448176D01*
X125193788Y-75447798D01*
X125177800Y-75445500D01*
X125177799Y-75445500D01*
X125161652Y-75445500D01*
X125158119Y-75445374D01*
X125128240Y-75443237D01*
X125105927Y-75441641D01*
X125105926Y-75441641D01*
X125105925Y-75441641D01*
X125098590Y-75443237D01*
X125077544Y-75445500D01*
X113511349Y-75445500D01*
X113490303Y-75443237D01*
X113482967Y-75441641D01*
X113482966Y-75441641D01*
X113462767Y-75443085D01*
X113430774Y-75445374D01*
X113427241Y-75445500D01*
X113411093Y-75445500D01*
X113395105Y-75447798D01*
X113391593Y-75448176D01*
X113339410Y-75451908D01*
X113332364Y-75454536D01*
X113311878Y-75459764D01*
X113304440Y-75460834D01*
X113304437Y-75460834D01*
X113304436Y-75460835D01*
X113304435Y-75460835D01*
X113304433Y-75460836D01*
X113256852Y-75482565D01*
X113253588Y-75483917D01*
X113204564Y-75502202D01*
X113204562Y-75502203D01*
X113198539Y-75506712D01*
X113180356Y-75517500D01*
X113173519Y-75520622D01*
X113133990Y-75554874D01*
X113131241Y-75557089D01*
X113118300Y-75566778D01*
X113106879Y-75578199D01*
X113104294Y-75580606D01*
X113064752Y-75614868D01*
X113064749Y-75614872D01*
X113060686Y-75621194D01*
X113047412Y-75637665D01*
X104994665Y-83690412D01*
X104978194Y-83703686D01*
X104971872Y-83707749D01*
X104971868Y-83707752D01*
X104937606Y-83747294D01*
X104935199Y-83749879D01*
X104923778Y-83761300D01*
X104914089Y-83774241D01*
X104911874Y-83776990D01*
X104877622Y-83816519D01*
X104874500Y-83823356D01*
X104863712Y-83841539D01*
X104859203Y-83847562D01*
X104859202Y-83847564D01*
X104840917Y-83896588D01*
X104839565Y-83899852D01*
X104817836Y-83947433D01*
X104817834Y-83947440D01*
X104816764Y-83954878D01*
X104811536Y-83975364D01*
X104808908Y-83982410D01*
X104805176Y-84034593D01*
X104804798Y-84038105D01*
X104802500Y-84054093D01*
X104802500Y-84070240D01*
X104802374Y-84073773D01*
X104798641Y-84125966D01*
X104799940Y-84131939D01*
X104800237Y-84133301D01*
X104802500Y-84154349D01*
X104802499Y-103460542D01*
X104800238Y-103481579D01*
X104798641Y-103488921D01*
X104798640Y-103488925D01*
X104050500Y-103488925D01*
X104050500Y-74900006D01*
X104394559Y-74900006D01*
X104414308Y-75276859D01*
X104414310Y-75276880D01*
X104473345Y-75649607D01*
X104571021Y-76014140D01*
X104571023Y-76014147D01*
X104706264Y-76366462D01*
X104818807Y-76587339D01*
X104877597Y-76702720D01*
X105000173Y-76891471D01*
X105083139Y-77019228D01*
X105169604Y-77126003D01*
X105320635Y-77312511D01*
X105587489Y-77579365D01*
X105701380Y-77671592D01*
X105861579Y-77801319D01*
X105880775Y-77816863D01*
X106197280Y-78022403D01*
X106392251Y-78121746D01*
X106533537Y-78193735D01*
X106620831Y-78227244D01*
X106885857Y-78328978D01*
X107250387Y-78426653D01*
X107250390Y-78426653D01*
X107250392Y-78426654D01*
X107623119Y-78485689D01*
X107623128Y-78485689D01*
X107623129Y-78485690D01*
X107623130Y-78485690D01*
X107623140Y-78485691D01*
X107784375Y-78494140D01*
X107905720Y-78500500D01*
X107905725Y-78500500D01*
X108094275Y-78500500D01*
X108094280Y-78500500D01*
X108235575Y-78493095D01*
X108376859Y-78485691D01*
X108376867Y-78485690D01*
X108376871Y-78485690D01*
X108376873Y-78485689D01*
X108376880Y-78485689D01*
X108749607Y-78426654D01*
X108749607Y-78426653D01*
X108749613Y-78426653D01*
X109114143Y-78328978D01*
X109466465Y-78193734D01*
X109802720Y-78022403D01*
X110119225Y-77816863D01*
X110412511Y-77579365D01*
X110679365Y-77312511D01*
X110916863Y-77019225D01*
X111122403Y-76702721D01*
X111293734Y-76366465D01*
X111428978Y-76014143D01*
X111526653Y-75649613D01*
X111532155Y-75614873D01*
X111585689Y-75276880D01*
X111585691Y-75276859D01*
X111605441Y-74900006D01*
X111605441Y-74899993D01*
X111585691Y-74523140D01*
X111585689Y-74523119D01*
X111526654Y-74150392D01*
X111526549Y-74150000D01*
X154094645Y-74150000D01*
X154114038Y-74421154D01*
X154114038Y-74421157D01*
X154114039Y-74421160D01*
X154121532Y-74455604D01*
X154171826Y-74686805D01*
X154266828Y-74941514D01*
X154266832Y-74941522D01*
X154397106Y-75180102D01*
X154397109Y-75180106D01*
X154397113Y-75180113D01*
X154560029Y-75397742D01*
X154752258Y-75589971D01*
X154969887Y-75752887D01*
X154969894Y-75752891D01*
X154969897Y-75752893D01*
X155208477Y-75883167D01*
X155208485Y-75883171D01*
X155208487Y-75883172D01*
X155463199Y-75978175D01*
X155728840Y-76035961D01*
X156000000Y-76055355D01*
X156271160Y-76035961D01*
X156536801Y-75978175D01*
X156791513Y-75883172D01*
X157030113Y-75752887D01*
X157247742Y-75589971D01*
X157439971Y-75397742D01*
X157602887Y-75180113D01*
X157733172Y-74941513D01*
X157828175Y-74686801D01*
X157885961Y-74421160D01*
X157905355Y-74150000D01*
X157905355Y-74149999D01*
X161095147Y-74149999D01*
X161114535Y-74421083D01*
X161172308Y-74686663D01*
X161267285Y-74941306D01*
X161267286Y-74941308D01*
X161397533Y-75179837D01*
X161521593Y-75345561D01*
X162513982Y-74353171D01*
X162567058Y-74455604D01*
X162665564Y-74561077D01*
X162788873Y-74636063D01*
X162795048Y-74637793D01*
X161804437Y-75628405D01*
X161970162Y-75752466D01*
X162208691Y-75882713D01*
X162208693Y-75882714D01*
X162463337Y-75977691D01*
X162463335Y-75977691D01*
X162728916Y-76035464D01*
X162999999Y-76054852D01*
X163271083Y-76035464D01*
X163536663Y-75977691D01*
X163791306Y-75882714D01*
X163791308Y-75882713D01*
X164029832Y-75752468D01*
X164195561Y-75628405D01*
X163201862Y-74634706D01*
X163275346Y-74602788D01*
X163387296Y-74511709D01*
X163470522Y-74393805D01*
X163485239Y-74352395D01*
X164478405Y-75345561D01*
X164602468Y-75179832D01*
X164732713Y-74941308D01*
X164732714Y-74941306D01*
X164748118Y-74900006D01*
X171394559Y-74900006D01*
X171414308Y-75276859D01*
X171414310Y-75276880D01*
X171473345Y-75649607D01*
X171571021Y-76014140D01*
X171571023Y-76014147D01*
X171706264Y-76366462D01*
X171818807Y-76587339D01*
X171877597Y-76702720D01*
X172000173Y-76891471D01*
X172083139Y-77019228D01*
X172169604Y-77126003D01*
X172320635Y-77312511D01*
X172587489Y-77579365D01*
X172701380Y-77671592D01*
X172861579Y-77801319D01*
X172880775Y-77816863D01*
X173197280Y-78022403D01*
X173392251Y-78121746D01*
X173533537Y-78193735D01*
X173620831Y-78227244D01*
X173885857Y-78328978D01*
X174250387Y-78426653D01*
X174250390Y-78426653D01*
X174250392Y-78426654D01*
X174623119Y-78485689D01*
X174623128Y-78485689D01*
X174623129Y-78485690D01*
X174623130Y-78485690D01*
X174623140Y-78485691D01*
X174784375Y-78494140D01*
X174905720Y-78500500D01*
X174905725Y-78500500D01*
X175094275Y-78500500D01*
X175094280Y-78500500D01*
X175235575Y-78493095D01*
X175376859Y-78485691D01*
X175376867Y-78485690D01*
X175376871Y-78485690D01*
X175376873Y-78485689D01*
X175376880Y-78485689D01*
X175749607Y-78426654D01*
X175749607Y-78426653D01*
X175749613Y-78426653D01*
X176114143Y-78328978D01*
X176466465Y-78193734D01*
X176802720Y-78022403D01*
X177119225Y-77816863D01*
X177412511Y-77579365D01*
X177679365Y-77312511D01*
X177916863Y-77019225D01*
X178122403Y-76702721D01*
X178293734Y-76366465D01*
X178428978Y-76014143D01*
X178526653Y-75649613D01*
X178532155Y-75614873D01*
X178585689Y-75276880D01*
X178585691Y-75276859D01*
X178605441Y-74900006D01*
X178605441Y-74899993D01*
X178585691Y-74523140D01*
X178585689Y-74523119D01*
X178526654Y-74150392D01*
X178461222Y-73906195D01*
X178428978Y-73785857D01*
X178293734Y-73433535D01*
X178122403Y-73097280D01*
X177916863Y-72780775D01*
X177859572Y-72710027D01*
X177727990Y-72547536D01*
X177679365Y-72487489D01*
X177412511Y-72220635D01*
X177382510Y-72196341D01*
X177119228Y-71983139D01*
X177119225Y-71983137D01*
X176802720Y-71777597D01*
X176766350Y-71759065D01*
X176466462Y-71606264D01*
X176114147Y-71471023D01*
X176114140Y-71471021D01*
X175749607Y-71373345D01*
X175376880Y-71314310D01*
X175376859Y-71314308D01*
X175094292Y-71299500D01*
X175094280Y-71299500D01*
X174905720Y-71299500D01*
X174905707Y-71299500D01*
X174623140Y-71314308D01*
X174623119Y-71314310D01*
X174250392Y-71373345D01*
X173885859Y-71471021D01*
X173885852Y-71471023D01*
X173533537Y-71606264D01*
X173197285Y-71777594D01*
X172880771Y-71983139D01*
X172587493Y-72220631D01*
X172320631Y-72487493D01*
X172083139Y-72780772D01*
X171877600Y-73097272D01*
X171877594Y-73097283D01*
X171706264Y-73433537D01*
X171571023Y-73785852D01*
X171571021Y-73785859D01*
X171473345Y-74150392D01*
X171414310Y-74523119D01*
X171414308Y-74523140D01*
X171394559Y-74899993D01*
X171394559Y-74900006D01*
X164748118Y-74900006D01*
X164827691Y-74686663D01*
X164885464Y-74421083D01*
X164904852Y-74149999D01*
X164885464Y-73878916D01*
X164827691Y-73613336D01*
X164732714Y-73358693D01*
X164732713Y-73358691D01*
X164602466Y-73120162D01*
X164478405Y-72954437D01*
X163486016Y-73946825D01*
X163432942Y-73844396D01*
X163334436Y-73738923D01*
X163211127Y-73663937D01*
X163204948Y-73662205D01*
X164195561Y-72671593D01*
X164029837Y-72547533D01*
X163791308Y-72417286D01*
X163791306Y-72417285D01*
X163536662Y-72322308D01*
X163536664Y-72322308D01*
X163271083Y-72264535D01*
X162999999Y-72245147D01*
X162728916Y-72264535D01*
X162463336Y-72322308D01*
X162208693Y-72417285D01*
X162208691Y-72417286D01*
X161970158Y-72547536D01*
X161804436Y-72671592D01*
X162798137Y-73665293D01*
X162724654Y-73697212D01*
X162612704Y-73788291D01*
X162529478Y-73906195D01*
X162514760Y-73947604D01*
X161521592Y-72954436D01*
X161397536Y-73120158D01*
X161267286Y-73358691D01*
X161267285Y-73358693D01*
X161172308Y-73613336D01*
X161114535Y-73878916D01*
X161095147Y-74149999D01*
X157905355Y-74149999D01*
X157885961Y-73878840D01*
X157828175Y-73613199D01*
X157733172Y-73358487D01*
X157733167Y-73358477D01*
X157602893Y-73119897D01*
X157602891Y-73119894D01*
X157602887Y-73119887D01*
X157439971Y-72902258D01*
X157247742Y-72710029D01*
X157030113Y-72547113D01*
X157030106Y-72547109D01*
X157030102Y-72547106D01*
X156791522Y-72416832D01*
X156791514Y-72416828D01*
X156536805Y-72321826D01*
X156536801Y-72321825D01*
X156271160Y-72264039D01*
X156271157Y-72264038D01*
X156271154Y-72264038D01*
X156000000Y-72244645D01*
X155728845Y-72264038D01*
X155463194Y-72321826D01*
X155208485Y-72416828D01*
X155208477Y-72416832D01*
X154969897Y-72547106D01*
X154969889Y-72547111D01*
X154969887Y-72547113D01*
X154862933Y-72627177D01*
X154752260Y-72710027D01*
X154560027Y-72902260D01*
X154520969Y-72954436D01*
X154414035Y-73097283D01*
X154397106Y-73119897D01*
X154266832Y-73358477D01*
X154266828Y-73358485D01*
X154171826Y-73613194D01*
X154114038Y-73878845D01*
X154094645Y-74150000D01*
X111526549Y-74150000D01*
X111461222Y-73906195D01*
X111428978Y-73785857D01*
X111293734Y-73433535D01*
X111122403Y-73097280D01*
X110916863Y-72780775D01*
X110859572Y-72710027D01*
X110727990Y-72547536D01*
X110679365Y-72487489D01*
X110412511Y-72220635D01*
X110382510Y-72196341D01*
X110119228Y-71983139D01*
X110119225Y-71983137D01*
X109802720Y-71777597D01*
X109766350Y-71759065D01*
X109466462Y-71606264D01*
X109114147Y-71471023D01*
X109114140Y-71471021D01*
X108749607Y-71373345D01*
X108376880Y-71314310D01*
X108376859Y-71314308D01*
X108094292Y-71299500D01*
X108094280Y-71299500D01*
X107905720Y-71299500D01*
X107905707Y-71299500D01*
X107623140Y-71314308D01*
X107623119Y-71314310D01*
X107250392Y-71373345D01*
X106885859Y-71471021D01*
X106885852Y-71471023D01*
X106533537Y-71606264D01*
X106197285Y-71777594D01*
X105880771Y-71983139D01*
X105587493Y-72220631D01*
X105320631Y-72487493D01*
X105083139Y-72780772D01*
X104877600Y-73097272D01*
X104877594Y-73097283D01*
X104706264Y-73433537D01*
X104571023Y-73785852D01*
X104571021Y-73785859D01*
X104473345Y-74150392D01*
X104414310Y-74523119D01*
X104414308Y-74523140D01*
X104394559Y-74899993D01*
X104394559Y-74900006D01*
X104050500Y-74900006D01*
X104050500Y-71049500D01*
X104069407Y-70991309D01*
X104118907Y-70955345D01*
X104149500Y-70950500D01*
X178850500Y-70950500D01*
X178908691Y-70969407D01*
G37*
%TD.AperFunction*%
%TA.AperFunction,Conductor*%
G36*
X159006857Y-111743968D02*
G01*
X159108064Y-111879912D01*
X159237894Y-111988853D01*
X159287217Y-112013624D01*
X158853987Y-112446855D01*
X158973971Y-112530868D01*
X158973973Y-112530869D01*
X159034299Y-112558999D01*
X159079048Y-112600727D01*
X159090723Y-112660788D01*
X159064866Y-112716241D01*
X159034301Y-112738448D01*
X158973725Y-112766695D01*
X158973721Y-112766697D01*
X158783735Y-112899726D01*
X158619726Y-113063735D01*
X158515592Y-113212454D01*
X158466727Y-113249276D01*
X158405551Y-113250344D01*
X158355431Y-113215249D01*
X158335511Y-113157398D01*
X158344772Y-113113830D01*
X158349320Y-113104079D01*
X158409349Y-112880050D01*
X158416155Y-112802262D01*
X158429563Y-112649003D01*
X158429563Y-112648996D01*
X158409350Y-112417957D01*
X158409349Y-112417954D01*
X158409349Y-112417950D01*
X158349320Y-112193921D01*
X158343557Y-112181563D01*
X158336101Y-112120836D01*
X158365763Y-112067322D01*
X158421215Y-112041463D01*
X158481277Y-112053137D01*
X158514378Y-112082941D01*
X158571143Y-112164011D01*
X159002134Y-111733019D01*
X159006857Y-111743968D01*
G37*
%TD.AperFunction*%
%TA.AperFunction,Conductor*%
G36*
X158586804Y-109885723D02*
G01*
X158624115Y-109924568D01*
X158624117Y-109924570D01*
X158821018Y-110072531D01*
X158890727Y-110109117D01*
X158933466Y-110152901D01*
X158942307Y-110213444D01*
X158913873Y-110267621D01*
X158901505Y-110277873D01*
X158853988Y-110311144D01*
X159286155Y-110743311D01*
X159169806Y-110819837D01*
X159053501Y-110943112D01*
X159004734Y-111027578D01*
X158571144Y-110593988D01*
X158514377Y-110675061D01*
X158465512Y-110711883D01*
X158404336Y-110712951D01*
X158354216Y-110677857D01*
X158334296Y-110620005D01*
X158343556Y-110576439D01*
X158349320Y-110564079D01*
X158409349Y-110340050D01*
X158411705Y-110313128D01*
X158429563Y-110109003D01*
X158429563Y-110108996D01*
X158416784Y-109962932D01*
X158430547Y-109903315D01*
X158476725Y-109863174D01*
X158537677Y-109857841D01*
X158586804Y-109885723D01*
G37*
%TD.AperFunction*%
%TA.AperFunction,Conductor*%
G36*
X171079593Y-87508363D02*
G01*
X171092064Y-87531444D01*
X171108146Y-87573846D01*
X171119780Y-87604523D01*
X171209515Y-87734528D01*
X171209516Y-87734529D01*
X171209517Y-87734530D01*
X171327760Y-87839283D01*
X171467635Y-87912696D01*
X171621015Y-87950500D01*
X171621017Y-87950500D01*
X171622977Y-87950983D01*
X171669286Y-87977100D01*
X171670505Y-87978319D01*
X171698281Y-88032833D01*
X171699500Y-88048320D01*
X171699500Y-94751677D01*
X171680593Y-94809868D01*
X171670504Y-94821681D01*
X171072565Y-95419619D01*
X171018048Y-95447396D01*
X170957616Y-95437825D01*
X170914351Y-95394560D01*
X170905823Y-95370656D01*
X170902762Y-95356583D01*
X170900500Y-95335542D01*
X170900500Y-87566554D01*
X170919407Y-87508363D01*
X170968907Y-87472399D01*
X171030093Y-87472399D01*
X171079593Y-87508363D01*
G37*
%TD.AperFunction*%
%TD*%
M02*
