%TF.GenerationSoftware,KiCad,Pcbnew,7.0.5*%
%TF.CreationDate,2023-07-03T12:53:44+02:00*%
%TF.ProjectId,mqtt_gateway,6d717474-5f67-4617-9465-7761792e6b69,rev?*%
%TF.SameCoordinates,Original*%
%TF.FileFunction,Soldermask,Top*%
%TF.FilePolarity,Negative*%
%FSLAX46Y46*%
G04 Gerber Fmt 4.6, Leading zero omitted, Abs format (unit mm)*
G04 Created by KiCad (PCBNEW 7.0.5) date 2023-07-03 12:53:44*
%MOMM*%
%LPD*%
G01*
G04 APERTURE LIST*
G04 Aperture macros list*
%AMRoundRect*
0 Rectangle with rounded corners*
0 $1 Rounding radius*
0 $2 $3 $4 $5 $6 $7 $8 $9 X,Y pos of 4 corners*
0 Add a 4 corners polygon primitive as box body*
4,1,4,$2,$3,$4,$5,$6,$7,$8,$9,$2,$3,0*
0 Add four circle primitives for the rounded corners*
1,1,$1+$1,$2,$3*
1,1,$1+$1,$4,$5*
1,1,$1+$1,$6,$7*
1,1,$1+$1,$8,$9*
0 Add four rect primitives between the rounded corners*
20,1,$1+$1,$2,$3,$4,$5,0*
20,1,$1+$1,$4,$5,$6,$7,0*
20,1,$1+$1,$6,$7,$8,$9,0*
20,1,$1+$1,$8,$9,$2,$3,0*%
G04 Aperture macros list end*
%ADD10RoundRect,0.250000X0.337500X0.475000X-0.337500X0.475000X-0.337500X-0.475000X0.337500X-0.475000X0*%
%ADD11RoundRect,0.250000X0.475000X-0.337500X0.475000X0.337500X-0.475000X0.337500X-0.475000X-0.337500X0*%
%ADD12RoundRect,0.237500X-0.237500X0.300000X-0.237500X-0.300000X0.237500X-0.300000X0.237500X0.300000X0*%
%ADD13R,2.300000X0.900000*%
%ADD14R,0.900000X2.300000*%
%ADD15R,5.000000X5.000000*%
%ADD16RoundRect,0.237500X0.237500X-0.250000X0.237500X0.250000X-0.237500X0.250000X-0.237500X-0.250000X0*%
%ADD17RoundRect,0.075000X-0.662500X0.075000X-0.662500X-0.075000X0.662500X-0.075000X0.662500X0.075000X0*%
%ADD18RoundRect,0.075000X-0.075000X0.662500X-0.075000X-0.662500X0.075000X-0.662500X0.075000X0.662500X0*%
%ADD19RoundRect,0.237500X-0.300000X-0.237500X0.300000X-0.237500X0.300000X0.237500X-0.300000X0.237500X0*%
%ADD20RoundRect,0.237500X0.300000X0.237500X-0.300000X0.237500X-0.300000X-0.237500X0.300000X-0.237500X0*%
%ADD21RoundRect,0.237500X0.237500X-0.300000X0.237500X0.300000X-0.237500X0.300000X-0.237500X-0.300000X0*%
%ADD22C,3.650000*%
%ADD23R,1.500000X1.500000*%
%ADD24C,1.500000*%
%ADD25C,3.250000*%
%ADD26C,2.600000*%
%ADD27C,1.890000*%
%ADD28R,1.900000X1.900000*%
%ADD29C,1.900000*%
%ADD30RoundRect,0.237500X0.250000X0.237500X-0.250000X0.237500X-0.250000X-0.237500X0.250000X-0.237500X0*%
%ADD31RoundRect,0.237500X-0.237500X0.250000X-0.237500X-0.250000X0.237500X-0.250000X0.237500X0.250000X0*%
%ADD32R,1.500000X2.000000*%
%ADD33R,3.800000X2.000000*%
%ADD34R,0.800000X0.900000*%
%ADD35RoundRect,0.150000X0.150000X-0.825000X0.150000X0.825000X-0.150000X0.825000X-0.150000X-0.825000X0*%
%ADD36C,7.200000*%
%ADD37C,3.000000*%
%ADD38RoundRect,0.250000X-0.337500X-0.475000X0.337500X-0.475000X0.337500X0.475000X-0.337500X0.475000X0*%
%ADD39RoundRect,0.250000X-0.475000X0.337500X-0.475000X-0.337500X0.475000X-0.337500X0.475000X0.337500X0*%
%ADD40RoundRect,0.237500X-0.250000X-0.237500X0.250000X-0.237500X0.250000X0.237500X-0.250000X0.237500X0*%
%ADD41R,1.500000X3.000000*%
%ADD42C,2.100000*%
%ADD43C,2.500000*%
%ADD44C,1.850000*%
G04 APERTURE END LIST*
D10*
%TO.C,C16*%
X116734500Y-98933000D03*
X114659500Y-98933000D03*
%TD*%
D11*
%TO.C,C10*%
X106426000Y-112289500D03*
X106426000Y-110214500D03*
%TD*%
D12*
%TO.C,C7*%
X119888000Y-99314000D03*
X119888000Y-101039000D03*
%TD*%
D13*
%TO.C,U6*%
X146423000Y-114020000D03*
X146423000Y-112750000D03*
X146423000Y-111480000D03*
X146423000Y-110210000D03*
X146423000Y-108940000D03*
X146423000Y-107670000D03*
X146423000Y-106400000D03*
X146423000Y-105130000D03*
X146423000Y-103860000D03*
X146423000Y-102590000D03*
X146423000Y-101320000D03*
X146423000Y-100050000D03*
X146423000Y-98780000D03*
X146423000Y-97510000D03*
D14*
X143488000Y-96360000D03*
X142218000Y-96360000D03*
X140948000Y-96360000D03*
X139678000Y-96360000D03*
X138408000Y-96360000D03*
X137138000Y-96360000D03*
X135868000Y-96360000D03*
X134598000Y-96360000D03*
X133328000Y-96360000D03*
X132058000Y-96360000D03*
D13*
X129123000Y-97510000D03*
X129123000Y-98780000D03*
X129123000Y-100050000D03*
X129123000Y-101320000D03*
X129123000Y-102590000D03*
X129123000Y-103860000D03*
X129123000Y-105130000D03*
X129123000Y-106400000D03*
X129123000Y-107670000D03*
X129123000Y-108940000D03*
X129123000Y-110210000D03*
X129123000Y-111480000D03*
X129123000Y-112750000D03*
X129123000Y-114020000D03*
D15*
X138773000Y-106520000D03*
%TD*%
D16*
%TO.C,R35*%
X149860000Y-99210500D03*
X149860000Y-97385500D03*
%TD*%
D17*
%TO.C,U5*%
X119412500Y-105087500D03*
X119412500Y-105587500D03*
X119412500Y-106087500D03*
X119412500Y-106587500D03*
X119412500Y-107087500D03*
X119412500Y-107587500D03*
X119412500Y-108087500D03*
X119412500Y-108587500D03*
X119412500Y-109087500D03*
X119412500Y-109587500D03*
X119412500Y-110087500D03*
X119412500Y-110587500D03*
D18*
X118000000Y-112000000D03*
X117500000Y-112000000D03*
X117000000Y-112000000D03*
X116500000Y-112000000D03*
X116000000Y-112000000D03*
X115500000Y-112000000D03*
X115000000Y-112000000D03*
X114500000Y-112000000D03*
X114000000Y-112000000D03*
X113500000Y-112000000D03*
X113000000Y-112000000D03*
X112500000Y-112000000D03*
D17*
X111087500Y-110587500D03*
X111087500Y-110087500D03*
X111087500Y-109587500D03*
X111087500Y-109087500D03*
X111087500Y-108587500D03*
X111087500Y-108087500D03*
X111087500Y-107587500D03*
X111087500Y-107087500D03*
X111087500Y-106587500D03*
X111087500Y-106087500D03*
X111087500Y-105587500D03*
X111087500Y-105087500D03*
D18*
X112500000Y-103675000D03*
X113000000Y-103675000D03*
X113500000Y-103675000D03*
X114000000Y-103675000D03*
X114500000Y-103675000D03*
X115000000Y-103675000D03*
X115500000Y-103675000D03*
X116000000Y-103675000D03*
X116500000Y-103675000D03*
X117000000Y-103675000D03*
X117500000Y-103675000D03*
X118000000Y-103675000D03*
%TD*%
D12*
%TO.C,C15*%
X118364000Y-99314000D03*
X118364000Y-101039000D03*
%TD*%
D19*
%TO.C,C14*%
X114353000Y-114046000D03*
X116078000Y-114046000D03*
%TD*%
D12*
%TO.C,C11*%
X108204000Y-112114500D03*
X108204000Y-110389500D03*
%TD*%
D19*
%TO.C,C8*%
X115062000Y-100711000D03*
X116787000Y-100711000D03*
%TD*%
%TO.C,C1*%
X165429500Y-89950000D03*
X167154500Y-89950000D03*
%TD*%
%TO.C,C2*%
X165429500Y-92064500D03*
X167154500Y-92064500D03*
%TD*%
D12*
%TO.C,C3*%
X164700000Y-102837500D03*
X164700000Y-104562500D03*
%TD*%
D20*
%TO.C,C9*%
X158862500Y-89400000D03*
X157137500Y-89400000D03*
%TD*%
D12*
%TO.C,C12*%
X150000000Y-112537500D03*
X150000000Y-114262500D03*
%TD*%
%TO.C,C13*%
X148400000Y-112522500D03*
X148400000Y-114247500D03*
%TD*%
D20*
%TO.C,C18*%
X123462500Y-94200000D03*
X121737500Y-94200000D03*
%TD*%
D21*
%TO.C,FB1*%
X118618000Y-97382500D03*
X118618000Y-95657500D03*
%TD*%
D22*
%TO.C,J1*%
X139040000Y-77650000D03*
X150470000Y-77650000D03*
D23*
X149200000Y-84000000D03*
D24*
X147930000Y-86540000D03*
X146660000Y-84000000D03*
X145390000Y-86540000D03*
X144120000Y-84000000D03*
X142850000Y-86540000D03*
X141580000Y-84000000D03*
X140310000Y-86540000D03*
%TD*%
D25*
%TO.C,J3*%
X129772000Y-82026000D03*
X118342000Y-82026000D03*
D26*
X131832000Y-85076000D03*
X116282000Y-85076000D03*
D27*
X117732000Y-78646000D03*
X120272000Y-77126000D03*
X127842000Y-78646000D03*
X130382000Y-77126000D03*
D28*
X128502000Y-88366000D03*
D29*
X127232000Y-90906000D03*
X125962000Y-88366000D03*
X124692000Y-90906000D03*
X123422000Y-88366000D03*
X122152000Y-90906000D03*
X120882000Y-88366000D03*
X119612000Y-90906000D03*
%TD*%
D30*
%TO.C,R6*%
X127012500Y-102900000D03*
X125187500Y-102900000D03*
%TD*%
D31*
%TO.C,R8*%
X113411000Y-77042000D03*
X113411000Y-78867000D03*
%TD*%
%TO.C,R9*%
X134800000Y-87710000D03*
X134800000Y-89535000D03*
%TD*%
%TO.C,R10*%
X134800000Y-91010000D03*
X134800000Y-92835000D03*
%TD*%
%TO.C,R11*%
X113400000Y-80391000D03*
X113400000Y-82216000D03*
%TD*%
D32*
%TO.C,U2*%
X171767000Y-94150000D03*
X169467000Y-94150000D03*
D33*
X169467000Y-100450000D03*
D32*
X167167000Y-94150000D03*
%TD*%
D34*
%TO.C,U3*%
X156974500Y-85100000D03*
X158874500Y-85100000D03*
X157924500Y-83100000D03*
%TD*%
D35*
%TO.C,U4*%
X156061000Y-96404000D03*
X157331000Y-96404000D03*
X158601000Y-96404000D03*
X159871000Y-96404000D03*
X159871000Y-91454000D03*
X158601000Y-91454000D03*
X157331000Y-91454000D03*
X156061000Y-91454000D03*
%TD*%
D20*
%TO.C,C19*%
X158862500Y-98400000D03*
X157137500Y-98400000D03*
%TD*%
D30*
%TO.C,R12*%
X158912500Y-86900000D03*
X157087500Y-86900000D03*
%TD*%
D36*
%TO.C,H2*%
X175000000Y-117900000D03*
%TD*%
%TO.C,H3*%
X108000000Y-117900000D03*
%TD*%
%TO.C,H4*%
X108000000Y-74900000D03*
%TD*%
D12*
%TO.C,C5*%
X166800000Y-102837500D03*
X166800000Y-104562500D03*
%TD*%
D19*
%TO.C,C20*%
X148537500Y-109200000D03*
X150262500Y-109200000D03*
%TD*%
D30*
%TO.C,R13*%
X150312500Y-110800000D03*
X148487500Y-110800000D03*
%TD*%
D36*
%TO.C,H1*%
X175000000Y-74900000D03*
%TD*%
D37*
%TO.C,J4*%
X156000000Y-74150000D03*
X159500000Y-79150000D03*
X163000000Y-74150000D03*
X166500000Y-79150000D03*
%TD*%
D38*
%TO.C,C4*%
X165262500Y-87850000D03*
X167337500Y-87850000D03*
%TD*%
D39*
%TO.C,C6*%
X168900000Y-102662500D03*
X168900000Y-104737500D03*
%TD*%
D30*
%TO.C,R19*%
X127012500Y-100076000D03*
X125187500Y-100076000D03*
%TD*%
D40*
%TO.C,R28*%
X106529500Y-107188000D03*
X108354500Y-107188000D03*
%TD*%
D16*
%TO.C,R30*%
X172700000Y-82412500D03*
X172700000Y-80587500D03*
%TD*%
%TO.C,R32*%
X108350000Y-100712500D03*
X108350000Y-98887500D03*
%TD*%
D30*
%TO.C,R27*%
X151700000Y-100900000D03*
X149875000Y-100900000D03*
%TD*%
D31*
%TO.C,R31*%
X173900000Y-92387500D03*
X173900000Y-94212500D03*
%TD*%
%TO.C,R29*%
X176200000Y-92687500D03*
X176200000Y-94512500D03*
%TD*%
D41*
%TO.C,J2*%
X112203000Y-92750000D03*
X111060000Y-88250000D03*
X109663000Y-92750000D03*
X108520000Y-88250000D03*
X107123000Y-92750000D03*
X105980000Y-88250000D03*
%TD*%
D31*
%TO.C,R25*%
X125603000Y-114577500D03*
X125603000Y-112752500D03*
%TD*%
%TO.C,R26*%
X111000000Y-80187500D03*
X111000000Y-82012500D03*
%TD*%
D16*
%TO.C,R4*%
X108500000Y-85512500D03*
X108500000Y-83687500D03*
%TD*%
%TO.C,R24*%
X175400000Y-82412500D03*
X175400000Y-80587500D03*
%TD*%
D31*
%TO.C,R3*%
X109600000Y-95487500D03*
X109600000Y-97312500D03*
%TD*%
D41*
%TO.C,J5*%
X176480000Y-89650000D03*
X175337000Y-85150000D03*
X173940000Y-89650000D03*
X172797000Y-85150000D03*
X171400000Y-89650000D03*
X170257000Y-85150000D03*
%TD*%
D16*
%TO.C,R1*%
X111000000Y-85512500D03*
X111000000Y-83687500D03*
%TD*%
D42*
%TO.C,U1*%
X157099000Y-117789000D03*
D43*
X159639000Y-108779000D03*
D44*
X157099000Y-110109000D03*
X159639000Y-111379000D03*
X157099000Y-112649000D03*
X159639000Y-113919000D03*
X157099000Y-115189000D03*
X159639000Y-116459000D03*
%TD*%
D31*
%TO.C,R5*%
X107100000Y-95487500D03*
X107100000Y-97312500D03*
%TD*%
D30*
%TO.C,R33*%
X151712500Y-102500000D03*
X149887500Y-102500000D03*
%TD*%
M02*
