%TF.GenerationSoftware,KiCad,Pcbnew,7.0.5*%
%TF.CreationDate,2023-07-03T12:53:44+02:00*%
%TF.ProjectId,mqtt_gateway,6d717474-5f67-4617-9465-7761792e6b69,rev?*%
%TF.SameCoordinates,Original*%
%TF.FileFunction,Soldermask,Bot*%
%TF.FilePolarity,Negative*%
%FSLAX46Y46*%
G04 Gerber Fmt 4.6, Leading zero omitted, Abs format (unit mm)*
G04 Created by KiCad (PCBNEW 7.0.5) date 2023-07-03 12:53:44*
%MOMM*%
%LPD*%
G01*
G04 APERTURE LIST*
G04 Aperture macros list*
%AMRoundRect*
0 Rectangle with rounded corners*
0 $1 Rounding radius*
0 $2 $3 $4 $5 $6 $7 $8 $9 X,Y pos of 4 corners*
0 Add a 4 corners polygon primitive as box body*
4,1,4,$2,$3,$4,$5,$6,$7,$8,$9,$2,$3,0*
0 Add four circle primitives for the rounded corners*
1,1,$1+$1,$2,$3*
1,1,$1+$1,$4,$5*
1,1,$1+$1,$6,$7*
1,1,$1+$1,$8,$9*
0 Add four rect primitives between the rounded corners*
20,1,$1+$1,$2,$3,$4,$5,0*
20,1,$1+$1,$4,$5,$6,$7,0*
20,1,$1+$1,$6,$7,$8,$9,0*
20,1,$1+$1,$8,$9,$2,$3,0*%
G04 Aperture macros list end*
%ADD10RoundRect,0.237500X0.250000X0.237500X-0.250000X0.237500X-0.250000X-0.237500X0.250000X-0.237500X0*%
%ADD11C,3.650000*%
%ADD12R,1.500000X1.500000*%
%ADD13C,1.500000*%
%ADD14C,3.250000*%
%ADD15C,2.600000*%
%ADD16C,1.890000*%
%ADD17R,1.900000X1.900000*%
%ADD18C,1.900000*%
%ADD19C,7.200000*%
%ADD20C,3.000000*%
%ADD21C,2.100000*%
%ADD22C,2.500000*%
%ADD23C,1.850000*%
%ADD24RoundRect,0.237500X-0.250000X-0.237500X0.250000X-0.237500X0.250000X0.237500X-0.250000X0.237500X0*%
G04 APERTURE END LIST*
D10*
%TO.C,R16*%
X114046000Y-108712000D03*
X112221000Y-108712000D03*
%TD*%
%TO.C,R2*%
X114046000Y-110490000D03*
X112221000Y-110490000D03*
%TD*%
D11*
%TO.C,J1*%
X139040000Y-77650000D03*
X150470000Y-77650000D03*
D12*
X149200000Y-84000000D03*
D13*
X147930000Y-86540000D03*
X146660000Y-84000000D03*
X145390000Y-86540000D03*
X144120000Y-84000000D03*
X142850000Y-86540000D03*
X141580000Y-84000000D03*
X140310000Y-86540000D03*
%TD*%
D14*
%TO.C,J3*%
X129772000Y-82026000D03*
X118342000Y-82026000D03*
D15*
X131832000Y-85076000D03*
X116282000Y-85076000D03*
D16*
X117732000Y-78646000D03*
X120272000Y-77126000D03*
X127842000Y-78646000D03*
X130382000Y-77126000D03*
D17*
X128502000Y-88366000D03*
D18*
X127232000Y-90906000D03*
X125962000Y-88366000D03*
X124692000Y-90906000D03*
X123422000Y-88366000D03*
X122152000Y-90906000D03*
X120882000Y-88366000D03*
X119612000Y-90906000D03*
%TD*%
D19*
%TO.C,H2*%
X175000000Y-117900000D03*
%TD*%
%TO.C,H3*%
X108000000Y-117900000D03*
%TD*%
%TO.C,H4*%
X108000000Y-74900000D03*
%TD*%
%TO.C,H1*%
X175000000Y-74900000D03*
%TD*%
D20*
%TO.C,J4*%
X156000000Y-74150000D03*
X159500000Y-79150000D03*
X163000000Y-74150000D03*
X166500000Y-79150000D03*
%TD*%
D21*
%TO.C,U1*%
X157099000Y-117789000D03*
D22*
X159639000Y-108779000D03*
D23*
X157099000Y-110109000D03*
X159639000Y-111379000D03*
X157099000Y-112649000D03*
X159639000Y-113919000D03*
X157099000Y-115189000D03*
X159639000Y-116459000D03*
%TD*%
D24*
%TO.C,R20*%
X133487500Y-94400000D03*
X135312500Y-94400000D03*
%TD*%
D10*
%TO.C,R21*%
X131512500Y-94400000D03*
X129687500Y-94400000D03*
%TD*%
D24*
%TO.C,R22*%
X125887500Y-94400000D03*
X127712500Y-94400000D03*
%TD*%
D10*
%TO.C,R23*%
X123912500Y-94400000D03*
X122087500Y-94400000D03*
%TD*%
M02*
